<svg width="281" height="223" viewBox="0 0 281 223" fill="none" xmlns="http://www.w3.org/2000/svg">
<path d="M95.1729 32.448L95.1828 32.4544L95.193 32.4603L266.102 131.135C272.16 134.633 274.022 142.442 270.307 148.877L234.916 210.176L234.911 210.185C231.416 216.503 223.685 218.633 217.61 215.126L46.7005 116.452C44.3328 115.085 43.1687 113.47 42.7009 111.696L29.5292 61.7558C28.6011 58.2369 29.2027 54.4868 30.9918 51.388C32.7828 48.2858 35.5426 45.9435 39.2392 44.9375L89.0744 31.3745L89.0976 31.3682L89.1202 31.3597C90.8343 30.7103 92.7938 30.9204 95.1729 32.448ZM56.563 83.9034C63.8716 88.0954 73.2309 85.5456 77.4618 78.2175C81.7147 70.8508 79.2457 61.4682 71.9341 57.2742C64.627 53.0831 55.2579 55.5988 51.0346 62.9613C46.8149 70.3175 49.2495 79.7086 56.563 83.9034Z" fill="black" stroke="black"/>
<path d="M92.1104 23.7517L92.1203 23.7581L92.1305 23.764L263.04 122.439C269.097 125.936 270.96 133.746 267.244 140.181L231.853 201.48L231.849 201.488C228.354 207.807 220.622 209.937 214.547 206.43L43.638 107.755C41.2703 106.388 40.1062 104.773 39.6384 102.999L26.4667 53.0595C25.5386 49.5406 26.1402 45.7905 27.9293 42.6917C29.7203 39.5896 32.4801 37.2473 36.1767 36.2412L86.0119 22.6782L86.0351 22.6719L86.0577 22.6634C87.7718 22.014 89.7313 22.2241 92.1104 23.7517ZM53.5005 75.2071C60.8091 79.3991 70.1684 76.8493 74.3993 69.5212C78.6522 62.1545 76.1832 52.7719 68.8716 48.5779C61.5645 44.3868 52.1954 46.9026 47.9721 54.2651C43.7524 61.6212 46.187 71.0123 53.5005 75.2071Z" fill="#00FA9A" stroke="black"/>
<path d="M93.5063 74.5714L98.5043 65.9146L101.281 67.5176L100.683 71.8284L100.999 72.0104L104.421 69.3306L107.21 70.9406L102.212 79.5974L100.526 78.6244L104.25 72.1742L103.935 71.9922L100.464 74.644L98.6576 73.601L99.2308 69.2762L98.9156 69.0942L95.1916 75.5444L93.5063 74.5714ZM105.75 81.6401L104.101 80.6881L107.699 74.4561L109.348 75.4081L107.318 78.9242L107.609 79.0922L112.051 76.9691L113.725 77.9351L110.127 84.1671L108.478 83.2151L110.501 79.7111L110.21 79.5431L105.75 81.6401ZM121.231 90.578L119.533 89.598L122.312 84.7847L119.766 83.3147L116.987 88.128L115.29 87.148L118.888 80.9161L124.829 84.3461L121.231 90.578ZM129.044 88.4609C128.543 88.1716 128.06 88.1301 127.596 88.3364C127.145 88.5393 126.765 88.9075 126.457 89.4409C126.149 89.9744 126.018 90.4913 126.063 90.9916C126.116 91.4966 126.394 91.8938 126.895 92.1831C127.38 92.4631 127.848 92.5016 128.299 92.2987C128.758 92.1005 129.147 91.7266 129.464 91.1769C129.777 90.6354 129.904 90.1162 129.846 89.6193C129.796 89.127 129.529 88.7409 129.044 88.4609ZM126.619 85.38L128.256 86.325L127.927 86.8948L128.242 87.0768C128.91 86.8158 129.632 86.9094 130.408 87.3574C131.217 87.824 131.682 88.5022 131.804 89.3918C131.931 90.2734 131.717 91.1951 131.161 92.1569C130.601 93.1269 129.908 93.7773 129.081 94.1082C128.254 94.4391 127.437 94.3712 126.628 93.9045C125.868 93.4658 125.447 92.899 125.363 92.2041L125.048 92.0221L123.319 95.0168L121.621 94.0368L126.619 85.38ZM134.632 98.3151L134.94 97.7816L134.624 97.5996C133.962 97.8317 133.247 97.7261 132.48 97.2827C131.801 96.8907 131.377 96.3824 131.21 95.7576C131.047 95.1248 131.134 94.5174 131.47 93.9355C131.792 93.3777 132.282 93.0141 132.94 92.8445C133.599 92.675 134.352 92.8352 135.201 93.3252L136.862 94.2842L136.953 94.1266C137.326 93.4799 137.145 92.9443 136.41 92.5196C135.755 92.1416 135.275 92.1609 134.97 92.5775L133.284 91.6045C133.641 91.0238 134.167 90.7019 134.86 90.639C135.559 90.5681 136.292 90.7542 137.06 91.1976C137.949 91.7109 138.53 92.2999 138.804 92.9644C139.086 93.6336 138.996 94.3684 138.534 95.1686L136.196 99.2181L134.632 98.3151ZM133.851 96.2799C134.263 96.5179 134.668 96.5903 135.067 96.4972C135.466 96.404 135.777 96.1635 136.001 95.7755L136.225 95.3875L134.891 94.6175C134.115 94.1695 133.566 94.2244 133.244 94.7821C132.913 95.356 133.115 95.8553 133.851 96.2799ZM145.698 96.3948L147.395 97.3748L144.609 102.2L145.712 102.837L143.899 105.977L142.299 105.053L143.3 103.32L137.904 100.205L141.502 93.9728L143.2 94.9528L140.414 99.7782L142.912 101.22L145.698 96.3948ZM153.922 104.877L153.628 105.387L149.166 102.811C148.57 103.954 148.754 104.803 149.715 105.359C150.33 105.713 150.844 105.719 151.257 105.376L152.979 106.37C152.476 106.942 151.874 107.267 151.17 107.347C150.467 107.426 149.704 107.227 148.879 106.751C147.901 106.186 147.298 105.439 147.069 104.51C146.849 103.585 147.028 102.622 147.607 101.619C148.181 100.625 148.919 100 149.82 99.745C150.727 99.4816 151.661 99.6276 152.623 100.183C153.544 100.715 154.113 101.41 154.329 102.267C154.545 103.125 154.41 103.995 153.922 104.877ZM152.545 103.258C152.842 102.481 152.619 101.878 151.876 101.449C151.132 101.02 150.466 101.109 149.878 101.718L152.545 103.258ZM160.188 108.463L160.006 108.778C160.275 109.041 160.436 109.35 160.49 109.704C160.544 110.058 160.461 110.426 160.242 110.806C159.579 111.953 158.512 112.103 157.041 111.253L153.38 109.139L156.978 102.907L160.542 104.965C161.165 105.325 161.564 105.744 161.74 106.223C161.929 106.698 161.881 107.182 161.596 107.675C161.27 108.241 160.8 108.504 160.188 108.463ZM155.748 108.874L157.36 109.805C157.95 110.145 158.378 110.085 158.644 109.625C158.915 109.156 158.755 108.751 158.165 108.41L156.553 107.479L155.748 108.874ZM157.932 105.091L157.239 106.291L158.681 107.124C159.166 107.404 159.523 107.346 159.752 106.95C159.985 106.546 159.859 106.204 159.374 105.924L157.932 105.091ZM160.09 113.014L161.028 111.389L161.246 111.515C161.65 111.748 162.023 111.775 162.364 111.595C162.71 111.406 163.1 110.936 163.534 110.184L165.046 107.566L170.369 110.639L166.771 116.871L165.073 115.891L167.852 111.077L165.791 109.887L165.063 111.148C164.312 112.449 163.568 113.243 162.831 113.529C162.095 113.815 161.254 113.686 160.308 113.14L160.09 113.014ZM172.402 120.122L172.71 119.588L172.395 119.406C171.733 119.638 171.018 119.533 170.25 119.089C169.571 118.697 169.148 118.189 168.98 117.564C168.817 116.931 168.904 116.324 169.24 115.742C169.562 115.184 170.052 114.821 170.711 114.651C171.369 114.482 172.122 114.642 172.971 115.132L174.632 116.091L174.723 115.933C175.096 115.287 174.915 114.751 174.18 114.326C173.525 113.948 173.045 113.968 172.74 114.384L171.055 113.411C171.412 112.83 171.937 112.509 172.631 112.446C173.329 112.375 174.062 112.561 174.83 113.004C175.719 113.518 176.3 114.106 176.574 114.771C176.856 115.44 176.766 116.175 176.304 116.975L173.966 121.025L172.402 120.122ZM171.621 118.087C172.033 118.325 172.438 118.397 172.837 118.304C173.236 118.211 173.547 117.97 173.771 117.582L173.995 117.194L172.661 116.424C171.885 115.976 171.337 116.031 171.015 116.589C170.683 117.163 170.885 117.662 171.621 118.087ZM186.268 119.818L187.905 120.763L184.307 126.995L175.675 122.011L179.273 115.779L180.922 116.731L178.136 121.557L179.991 122.628L182.777 117.802L184.413 118.747L181.627 123.573L183.482 124.644L186.268 119.818ZM188.351 122.912L189.17 121.494L194.954 124.833L194.135 126.251L192.098 125.075L189.319 129.889L187.621 128.909L190.4 124.095L188.351 122.912ZM199.18 127.063C200.167 127.632 200.778 128.384 201.015 129.318C201.251 130.252 201.085 131.212 200.516 132.199C199.946 133.185 199.198 133.809 198.271 134.071C197.343 134.333 196.387 134.179 195.4 133.61C194.422 133.045 193.811 132.294 193.566 131.355C193.334 130.413 193.501 129.453 194.065 128.475C194.63 127.497 195.376 126.876 196.303 126.614C197.243 126.349 198.202 126.498 199.18 127.063ZM196.212 132.204C196.722 132.498 197.202 132.543 197.653 132.34C198.117 132.134 198.505 131.76 198.818 131.219C199.126 130.685 199.251 130.17 199.193 129.673C199.148 129.173 198.871 128.776 198.361 128.482C197.86 128.192 197.378 128.151 196.914 128.357C196.454 128.555 196.071 128.921 195.763 129.455C195.45 129.996 195.32 130.519 195.374 131.024C195.432 131.521 195.711 131.914 196.212 132.204ZM206.969 135.472L206.787 135.787C207.055 136.05 207.216 136.358 207.27 136.713C207.324 137.067 207.242 137.434 207.022 137.814C206.36 138.962 205.293 139.111 203.822 138.262L200.16 136.148L203.758 129.916L207.323 131.974C207.945 132.333 208.344 132.753 208.521 133.231C208.709 133.707 208.662 134.191 208.377 134.684C208.05 135.25 207.581 135.513 206.969 135.472ZM202.528 135.882L204.141 136.813C204.731 137.154 205.159 137.094 205.425 136.633C205.696 136.165 205.536 135.76 204.946 135.419L203.333 134.488L202.528 135.882ZM204.712 132.1L204.019 133.3L205.462 134.133C205.947 134.413 206.304 134.355 206.532 133.959C206.766 133.555 206.64 133.213 206.155 132.933L204.712 132.1ZM208.204 144.025L206.507 143.045L209.599 140.741L210.183 133.626L211.954 134.648L211.587 138.866L211.903 139.048L215.251 136.552L216.961 137.539L208.204 144.025ZM219.615 144.729L221.203 145.646C220.738 146.229 220.128 146.566 219.374 146.659C218.62 146.752 217.851 146.572 217.067 146.119C216.113 145.568 215.518 144.826 215.281 143.892C215.057 142.954 215.227 141.997 215.792 141.019C216.352 140.049 217.094 139.426 218.018 139.151C218.95 138.881 219.889 139.019 220.834 139.565C221.602 140.008 222.13 140.561 222.416 141.222C222.707 141.875 222.73 142.545 222.483 143.233L220.895 142.316C220.994 141.791 220.719 141.341 220.073 140.968C219.653 140.725 219.258 140.643 218.89 140.721C218.521 140.8 218.204 141.004 217.937 141.335L220.107 142.588L219.358 143.886L217.164 142.619C216.984 143.043 216.951 143.444 217.066 143.823C217.186 144.194 217.46 144.504 217.889 144.751C218.6 145.162 219.176 145.154 219.615 144.729ZM221.484 148.46L225.082 142.228L227.338 143.53L227.086 146.876L227.402 147.058L230.175 145.168L232.418 146.463L228.82 152.695L227.171 151.743L229.467 147.766L229.151 147.584L226.995 149.022L225.577 148.203L225.745 145.617L225.429 145.435L223.133 149.412L221.484 148.46ZM237.176 149C238.162 149.569 238.773 150.321 239.01 151.255C239.246 152.189 239.08 153.149 238.511 154.135C237.941 155.121 237.193 155.745 236.266 156.007C235.338 156.27 234.382 156.116 233.396 155.547C232.418 154.982 231.806 154.23 231.562 153.291C231.33 152.349 231.496 151.389 232.061 150.411C232.625 149.433 233.371 148.813 234.299 148.551C235.239 148.285 236.198 148.435 237.176 149ZM234.208 154.14C234.717 154.434 235.197 154.48 235.648 154.277C236.112 154.071 236.501 153.697 236.813 153.155C237.121 152.622 237.246 152.106 237.188 151.61C237.143 151.109 236.866 150.712 236.357 150.418C235.856 150.129 235.373 150.087 234.909 150.294C234.45 150.492 234.066 150.858 233.758 151.391C233.445 151.933 233.316 152.456 233.369 152.961C233.427 153.458 233.707 153.851 234.208 154.14ZM89.3866 95.2869L87.6892 94.3069L89.1242 91.8214L86.5296 90.3234L85.0946 92.8089L83.3972 91.8289L86.9952 85.597L88.6926 86.577L87.3486 88.9048L89.9432 90.4028L91.2872 88.075L92.9846 89.055L89.3866 95.2869ZM95.0075 98.5321L95.3155 97.9986L95.0003 97.8166C94.3382 98.0487 93.6232 97.943 92.8554 97.4997C92.1764 97.1077 91.7532 96.5994 91.5858 95.9746C91.4231 95.3418 91.5097 94.7344 91.8457 94.1525C92.1677 93.5947 92.6579 93.2311 93.3162 93.0615C93.9745 92.892 94.728 93.0522 95.5767 93.5422L97.2378 94.5012L97.3288 94.3436C97.7021 93.6969 97.521 93.1613 96.7854 92.7366C96.1307 92.3586 95.6508 92.3779 95.3456 92.7945L93.6603 91.8215C94.0172 91.2407 94.5424 90.9189 95.2362 90.856C95.9346 90.7851 96.6677 90.9712 97.4356 91.4146C98.3247 91.9279 98.9061 92.5168 99.1798 93.1814C99.4616 93.8506 99.3715 94.5854 98.9095 95.3856L96.5715 99.4351L95.0075 98.5321ZM94.2265 96.4969C94.6387 96.7349 95.0441 96.8073 95.4428 96.7142C95.8414 96.621 96.1528 96.3805 96.3768 95.9925L96.6008 95.6045L95.2671 94.8345C94.4911 94.3865 93.9421 94.4414 93.6201 94.9991C93.2888 95.573 93.4909 96.0722 94.2265 96.4969ZM108.874 98.2287L110.511 99.1737L106.913 105.406L98.2803 100.422L101.878 94.1897L103.527 95.1417L100.741 99.9672L102.596 101.038L105.382 96.2127L107.019 97.1577L104.233 101.983L106.088 103.054L108.874 98.2287ZM110.36 107.396L108.712 106.444L112.31 100.212L113.958 101.164L111.928 104.68L112.219 104.848L116.662 102.725L118.335 103.691L114.737 109.923L113.088 108.971L115.111 105.467L114.82 105.299L110.36 107.396ZM120.721 113.378L120.832 110.386L120.383 110.127L117.823 111.705L116.029 110.669L119.659 108.497L119.809 104.542L121.567 105.557L121.443 108.347L121.892 108.606L124.271 107.118L126.004 108.119L122.644 110.188L122.552 114.435L120.721 113.378ZM134.026 116.452L133.844 116.767C134.113 117.03 134.274 117.339 134.328 117.693C134.382 118.048 134.299 118.415 134.08 118.795C133.417 119.943 132.35 120.092 130.879 119.243L127.218 117.129L130.816 110.897L134.38 112.955C135.003 113.314 135.402 113.733 135.578 114.212C135.767 114.688 135.719 115.172 135.434 115.665C135.108 116.231 134.638 116.493 134.026 116.452ZM129.586 116.863L131.198 117.794C131.788 118.135 132.216 118.075 132.482 117.614C132.753 117.145 132.593 116.74 132.003 116.4L130.391 115.469L129.586 116.863ZM131.77 113.08L131.077 114.281L132.52 115.114C133.005 115.394 133.361 115.336 133.59 114.94C133.823 114.535 133.698 114.193 133.213 113.913L131.77 113.08ZM136.208 122.319L134.559 121.367L138.157 115.135L139.806 116.087L137.776 119.603L138.067 119.771L142.509 117.648L144.182 118.614L140.584 124.846L138.936 123.894L140.959 120.39L140.668 120.222L136.208 122.319ZM148.314 129.309L146.617 128.329L149.396 123.515L146.85 122.045L144.071 126.859L142.373 125.879L145.971 119.647L151.912 123.077L148.314 129.309ZM151.045 134.118L149.347 133.138L152.44 130.834L153.024 123.719L154.794 124.741L154.428 128.959L154.743 129.141L158.092 126.645L159.801 127.632L151.045 134.118ZM162.361 134.622L164.034 135.588C163.561 136.22 162.943 136.591 162.18 136.7C161.424 136.813 160.659 136.646 159.883 136.198C158.921 135.643 158.328 134.907 158.102 133.99C157.882 133.065 158.059 132.106 158.633 131.111C159.202 130.125 159.942 129.497 160.853 129.225C161.765 128.954 162.701 129.096 163.663 129.651C164.439 130.099 164.963 130.666 165.236 131.351C165.521 132.033 165.517 132.721 165.225 133.414L163.539 132.441C163.682 131.877 163.454 131.422 162.856 131.076C162.355 130.787 161.889 130.745 161.459 130.949C161.028 131.153 160.654 131.53 160.337 132.079C160.02 132.629 159.876 133.149 159.905 133.64C159.947 134.128 160.214 134.514 160.707 134.799C161.378 135.186 161.929 135.127 162.361 134.622ZM168.57 141.004L168.744 137.79L167.386 137.006L165.951 139.492L164.254 138.512L167.852 132.28L169.549 133.26L168.205 135.587L169.587 136.385L172.12 134.744L173.853 135.745L170.59 137.869L170.352 142.033L168.57 141.004ZM177.655 146.249L175.958 145.269L177.393 142.783L174.798 141.285L173.363 143.771L171.666 142.791L175.264 136.559L176.961 137.539L175.617 139.867L178.212 141.365L179.556 139.037L181.253 140.017L177.655 146.249ZM181.094 148.234L179.445 147.282L183.043 141.05L184.692 142.002L182.662 145.518L182.953 145.686L187.395 143.563L189.069 144.529L185.471 150.761L183.822 149.809L185.845 146.305L185.554 146.137L181.094 148.234ZM191.576 154.286L191.75 151.072L190.392 150.288L188.957 152.774L187.259 151.794L190.857 145.562L192.555 146.542L191.211 148.87L192.593 149.668L195.125 148.026L196.859 149.027L193.595 151.152L193.358 155.315L191.576 154.286ZM200.607 149.768L198.885 148.774L199.76 147.259L201.482 148.253L200.607 149.768ZM199.979 150.828L196.381 157.06L194.683 156.08L198.281 149.848L199.979 150.828ZM204.996 157.427L204.814 157.742C205.083 158.005 205.244 158.314 205.298 158.668C205.352 159.023 205.269 159.39 205.05 159.77C204.387 160.917 203.32 161.067 201.849 160.217L198.188 158.103L201.786 151.871L205.35 153.929C205.973 154.289 206.372 154.708 206.548 155.187C206.737 155.662 206.689 156.146 206.405 156.64C206.078 157.205 205.608 157.468 204.996 157.427ZM200.556 157.838L202.168 158.769C202.758 159.109 203.187 159.049 203.453 158.589C203.723 158.12 203.563 157.715 202.973 157.374L201.361 156.443L200.556 157.838ZM202.74 154.055L202.047 155.255L203.49 156.088C203.975 156.368 204.331 156.31 204.56 155.914C204.793 155.51 204.668 155.168 204.183 154.888L202.74 154.055Z" fill="black"/>
<path d="M59.7374 57.205C68.045 67.891 2.40278 29.504 13.0959 12.1789C20.635 -0.0362452 37.4987 16.3601 46.6375 31.8996" stroke="black"/>
</svg>
