<svg width="248" height="200" viewBox="0 0 248 200" fill="none" xmlns="http://www.w3.org/2000/svg">
<circle cx="110" cy="120" r="80" fill="#00FA9A"/>
<g clip-path="url(#clip0_1037_41961)">
<circle cx="11.4713" cy="92.5006" r="2.50064" fill="black"/>
<circle cx="26.4748" cy="92.5006" r="2.50064" fill="black"/>
<circle cx="41.4787" cy="92.5006" r="2.50064" fill="black"/>
<circle cx="56.4826" cy="92.5006" r="2.50064" fill="black"/>
<circle cx="71.4865" cy="92.5006" r="2.50064" fill="black"/>
<circle cx="86.4904" cy="92.5006" r="2.50064" fill="black"/>
<circle cx="101.494" cy="92.5006" r="2.50064" fill="black"/>
<circle cx="116.498" cy="92.5006" r="2.50064" fill="black"/>
<circle cx="131.502" cy="92.5006" r="2.50064" fill="black"/>
<circle cx="146.506" cy="92.5006" r="2.50064" fill="black"/>
<circle cx="161.509" cy="92.5006" r="2.50064" fill="black"/>
<circle cx="176.513" cy="92.5006" r="2.50064" fill="black"/>
<circle cx="191.517" cy="92.5006" r="2.50064" fill="black"/>
<circle cx="206.521" cy="92.5006" r="2.50064" fill="black"/>
<circle cx="221.525" cy="92.5006" r="2.50064" fill="black"/>
<circle cx="236.529" cy="92.5006" r="2.50064" fill="black"/>
<circle cx="11.4713" cy="107.504" r="2.50064" fill="black"/>
<circle cx="26.4748" cy="107.505" r="2.50064" fill="black"/>
<circle cx="41.4787" cy="107.504" r="2.50064" fill="black"/>
<circle cx="56.4826" cy="107.504" r="2.50064" fill="black"/>
<circle cx="71.4865" cy="107.504" r="2.50064" fill="black"/>
<circle cx="86.4904" cy="107.504" r="2.50064" fill="black"/>
<circle cx="101.494" cy="107.505" r="2.50064" fill="black"/>
<circle cx="116.498" cy="107.504" r="2.50064" fill="black"/>
<circle cx="131.502" cy="107.504" r="2.50064" fill="black"/>
<circle cx="146.506" cy="107.504" r="2.50064" fill="black"/>
<circle cx="161.509" cy="107.504" r="2.50064" fill="black"/>
<circle cx="176.513" cy="107.505" r="2.50064" fill="black"/>
<circle cx="191.517" cy="107.504" r="2.50064" fill="black"/>
<circle cx="206.521" cy="107.504" r="2.50064" fill="black"/>
<circle cx="221.525" cy="107.504" r="2.50064" fill="black"/>
<circle cx="236.529" cy="107.504" r="2.50064" fill="black"/>
<circle cx="11.4713" cy="122.508" r="2.50064" fill="black"/>
<circle cx="26.4748" cy="122.508" r="2.50064" fill="black"/>
<circle cx="41.4787" cy="122.508" r="2.50064" fill="black"/>
<circle cx="56.4826" cy="122.508" r="2.50064" fill="black"/>
<circle cx="71.4865" cy="122.508" r="2.50064" fill="black"/>
<circle cx="86.4904" cy="122.508" r="2.50064" fill="black"/>
<circle cx="101.494" cy="122.508" r="2.50064" fill="black"/>
<circle cx="116.498" cy="122.508" r="2.50064" fill="black"/>
<circle cx="131.502" cy="122.508" r="2.50064" fill="black"/>
<circle cx="146.506" cy="122.508" r="2.50064" fill="black"/>
<circle cx="161.509" cy="122.508" r="2.50064" fill="black"/>
<circle cx="176.513" cy="122.508" r="2.50064" fill="black"/>
<circle cx="191.517" cy="122.508" r="2.50064" fill="black"/>
<circle cx="206.521" cy="122.508" r="2.50064" fill="black"/>
<circle cx="221.525" cy="122.508" r="2.50064" fill="black"/>
<circle cx="236.529" cy="122.508" r="2.50064" fill="black"/>
<circle cx="11.4713" cy="137.512" r="2.50064" fill="black"/>
<circle cx="26.4748" cy="137.512" r="2.50064" fill="black"/>
<circle cx="41.4787" cy="137.512" r="2.50064" fill="black"/>
<circle cx="56.4826" cy="137.512" r="2.50064" fill="black"/>
<circle cx="71.4865" cy="137.512" r="2.50064" fill="black"/>
<circle cx="86.4904" cy="137.512" r="2.50064" fill="black"/>
<circle cx="101.494" cy="137.512" r="2.50064" fill="black"/>
<circle cx="116.498" cy="137.512" r="2.50064" fill="black"/>
<circle cx="131.502" cy="137.512" r="2.50064" fill="black"/>
<circle cx="146.506" cy="137.512" r="2.50064" fill="black"/>
<circle cx="161.509" cy="137.512" r="2.50064" fill="black"/>
<circle cx="176.513" cy="137.512" r="2.50064" fill="black"/>
<circle cx="191.517" cy="137.512" r="2.50064" fill="black"/>
<circle cx="206.521" cy="137.512" r="2.50064" fill="black"/>
<circle cx="221.525" cy="137.512" r="2.50064" fill="black"/>
<circle cx="236.529" cy="137.512" r="2.50064" fill="black"/>
<circle cx="11.4713" cy="152.516" r="2.50064" fill="black"/>
<circle cx="26.4748" cy="152.516" r="2.50064" fill="black"/>
<circle cx="41.4787" cy="152.516" r="2.50064" fill="black"/>
<circle cx="56.4826" cy="152.516" r="2.50064" fill="black"/>
<circle cx="71.4865" cy="152.516" r="2.50064" fill="black"/>
<circle cx="86.4904" cy="152.516" r="2.50064" fill="black"/>
<circle cx="101.494" cy="152.516" r="2.50064" fill="black"/>
<circle cx="116.498" cy="152.516" r="2.50064" fill="black"/>
<circle cx="131.502" cy="152.516" r="2.50064" fill="black"/>
<circle cx="146.506" cy="152.516" r="2.50064" fill="black"/>
<circle cx="161.509" cy="152.516" r="2.50064" fill="black"/>
<circle cx="176.513" cy="152.516" r="2.50064" fill="black"/>
<circle cx="191.517" cy="152.516" r="2.50064" fill="black"/>
<circle cx="206.521" cy="152.516" r="2.50064" fill="black"/>
<circle cx="221.525" cy="152.516" r="2.50064" fill="black"/>
<circle cx="236.529" cy="152.516" r="2.50064" fill="black"/>
</g>
<path d="M202.4 97.2L201.931 96.3169L201.4 96.5989V97.2H202.4ZM202.4 102.4H201.4V103.068L202.017 103.324L202.4 102.4ZM216.8 114L216.002 114.603L216.007 114.609L216.012 114.615L216.8 114ZM208.8 164.6L209.445 165.364L209.446 165.363L208.8 164.6ZM129.4 164.6L128.748 165.359L128.754 165.363L128.76 165.368L129.4 164.6ZM121.4 114L120.612 113.385L120.607 113.391L120.602 113.397L121.4 114ZM136 102.4L136.383 103.324L137 103.068V102.4H136ZM136 97.2H137V96.5987L136.469 96.3167L136 97.2ZM133.2 42L133.82 42.7843L133.828 42.7786L133.2 42ZM205.2 42L204.572 42.7786L204.58 42.7843L205.2 42ZM213.6 86.6L212.779 86.0296L212.773 86.0374L212.768 86.0453L213.6 86.6ZM153.6 58.6L154.255 59.3557L153.6 58.6ZM153.4 85.2L152.732 85.9446L152.739 85.9502L152.745 85.9557L153.4 85.2ZM185 85.4L185.653 86.1574L185.66 86.1511L185.668 86.1446L185 85.4ZM184.8 58.6L184.132 59.3446L184.139 59.3502L184.145 59.3557L184.8 58.6ZM150.4 146.8L149.727 147.54L149.734 147.546L149.74 147.551L150.4 146.8ZM188 146.8L188.66 147.551L188.666 147.546L188.673 147.54L188 146.8ZM187.8 117L187.127 117.74L187.133 117.745L187.138 117.75L187.8 117ZM150.4 117L151.06 117.751L151.066 117.746L151.073 117.74L150.4 117ZM201.4 97.2V102.4H203.4V97.2H201.4ZM202.017 103.324C207.295 105.512 211.959 109.256 216.002 114.603L217.598 113.397C213.374 107.811 208.438 103.821 202.783 101.476L202.017 103.324ZM216.012 114.615C220.116 119.874 222.2 126.512 222.2 134.6H224.2C224.2 126.155 222.017 119.059 217.588 113.385L216.012 114.615ZM222.2 134.6C222.2 146.153 217.545 155.881 208.154 163.837L209.446 165.363C219.255 157.053 224.2 146.78 224.2 134.6H222.2ZM208.155 163.836C198.925 171.636 185.984 175.6 169.2 175.6V177.6C186.283 177.6 199.742 173.564 209.445 165.364L208.155 163.836ZM169.2 175.6C152.417 175.6 139.406 171.636 130.04 163.832L128.76 165.368C138.594 173.564 152.116 177.6 169.2 177.6V175.6ZM130.052 163.841C120.793 155.887 116.2 146.158 116.2 134.6H114.2C114.2 146.775 119.074 157.046 128.748 165.359L130.052 163.841ZM116.2 134.6C116.2 126.505 118.221 119.863 122.198 114.603L120.602 113.397C116.312 119.071 114.2 126.162 114.2 134.6H116.2ZM122.188 114.615C126.367 109.261 131.101 105.514 136.383 103.324L135.617 101.476C129.965 103.82 124.966 107.806 120.612 113.385L122.188 114.615ZM137 102.4V97.2H135V102.4H137ZM136.469 96.3167C131.215 93.5277 127.314 89.8538 124.719 85.3045C122.121 80.751 120.8 75.2628 120.8 68.8H118.8C118.8 75.5372 120.179 81.3823 122.981 86.2955C125.786 91.2128 129.985 95.1389 135.531 98.0833L136.469 96.3167ZM120.8 68.8C120.8 58.3245 125.112 49.6733 133.82 42.7843L132.58 41.2157C123.422 48.46 118.8 57.6755 118.8 68.8H120.8ZM133.828 42.7786C142.534 35.7613 154.29 32.2 169.2 32.2V30.2C153.977 30.2 141.733 33.8387 132.572 41.2214L133.828 42.7786ZM169.2 32.2C184.11 32.2 195.866 35.7613 204.572 42.7786L205.828 41.2214C196.667 33.8387 184.423 30.2 169.2 30.2V32.2ZM204.58 42.7843C213.288 49.6733 217.6 58.3245 217.6 68.8H219.6C219.6 57.6755 214.978 48.46 205.82 41.2157L204.58 42.7843ZM217.6 68.8C217.6 75.7062 215.973 81.4295 212.779 86.0296L214.421 87.1704C217.894 82.1705 219.6 76.0272 219.6 68.8H217.6ZM212.768 86.0453C209.642 90.7341 206.025 94.1417 201.931 96.3169L202.869 98.0831C207.308 95.725 211.158 92.0659 214.432 87.1547L212.768 86.0453ZM169.2 52.4C162.612 52.4 157.163 54.1887 152.945 57.8443L154.255 59.3557C158.037 56.0779 162.988 54.4 169.2 54.4V52.4ZM152.945 57.8443C148.724 61.5026 146.6 66.1792 146.6 71.8H148.6C148.6 66.7542 150.476 62.6308 154.255 59.3557L152.945 57.8443ZM146.6 71.8C146.6 77.5339 148.642 82.2772 152.732 85.9446L154.068 84.4554C150.425 81.1895 148.6 76.9995 148.6 71.8H146.6ZM152.745 85.9557C156.967 89.6144 162.485 91.4 169.2 91.4V89.4C162.849 89.4 157.833 87.7189 154.055 84.4443L152.745 85.9557ZM169.2 91.4C176.032 91.4 181.555 89.6899 185.653 86.1574L184.347 84.6426C180.711 87.7767 175.702 89.4 169.2 89.4V91.4ZM185.668 86.1446C189.764 82.4721 191.8 77.6591 191.8 71.8H189.8C189.8 77.1409 187.97 81.3945 184.332 84.6554L185.668 86.1446ZM191.8 71.8C191.8 66.1792 189.676 61.5026 185.455 57.8443L184.145 59.3557C187.924 62.6308 189.8 66.7542 189.8 71.8H191.8ZM185.468 57.8554C181.374 54.185 175.914 52.4 169.2 52.4V54.4C175.553 54.4 180.493 56.0816 184.132 59.3446L185.468 57.8554ZM149.74 147.551C154.383 151.631 160.918 153.6 169.2 153.6V151.6C161.215 151.6 155.217 149.702 151.06 146.049L149.74 147.551ZM169.2 153.6C177.482 153.6 184.017 151.631 188.66 147.551L187.34 146.049C183.183 149.702 177.185 151.6 169.2 151.6V153.6ZM188.673 147.54C193.283 143.348 195.6 138.079 195.6 131.8H193.6C193.6 137.521 191.517 142.252 187.327 146.06L188.673 147.54ZM195.6 131.8C195.6 125.637 193.203 120.433 188.462 116.25L187.138 117.75C191.464 121.567 193.6 126.23 193.6 131.8H195.6ZM188.473 116.26C183.833 112.042 177.362 110 169.2 110V112C177.038 112 182.967 113.958 187.127 117.74L188.473 116.26ZM169.2 110C160.91 110 154.37 112.04 149.727 116.26L151.073 117.74C155.23 113.96 161.223 112 169.2 112V110ZM149.74 116.249C145.118 120.311 142.8 125.52 142.8 131.8H144.8C144.8 126.08 146.882 121.423 151.06 117.751L149.74 116.249ZM142.8 131.8C142.8 138.079 145.117 143.348 149.727 147.54L151.073 146.06C146.883 142.252 144.8 137.521 144.8 131.8H142.8Z" fill="black"/>
<defs>
<clipPath id="clip0_1037_41961">
<rect width="248" height="71" fill="white" transform="translate(0 90)"/>
</clipPath>
</defs>
</svg>
