<svg width="249" height="200" viewBox="0 0 249 200" fill="none" xmlns="http://www.w3.org/2000/svg">
<circle cx="125" cy="120" r="80" fill="#00FA9A"/>
<g clip-path="url(#clip0_1037_44243)">
<circle cx="11.4713" cy="92.5006" r="2.50064" fill="black"/>
<circle cx="26.4748" cy="92.5005" r="2.50064" fill="black"/>
<circle cx="41.4787" cy="92.5006" r="2.50064" fill="black"/>
<circle cx="56.4826" cy="92.5006" r="2.50064" fill="black"/>
<circle cx="71.4865" cy="92.5006" r="2.50064" fill="black"/>
<circle cx="86.4904" cy="92.5006" r="2.50064" fill="black"/>
<circle cx="101.494" cy="92.5005" r="2.50064" fill="black"/>
<circle cx="116.498" cy="92.5006" r="2.50064" fill="black"/>
<circle cx="131.502" cy="92.5006" r="2.50064" fill="black"/>
<circle cx="146.506" cy="92.5006" r="2.50064" fill="black"/>
<circle cx="161.509" cy="92.5006" r="2.50064" fill="black"/>
<circle cx="176.513" cy="92.5005" r="2.50064" fill="black"/>
<circle cx="191.517" cy="92.5006" r="2.50064" fill="black"/>
<circle cx="206.521" cy="92.5006" r="2.50064" fill="black"/>
<circle cx="221.525" cy="92.5006" r="2.50064" fill="black"/>
<circle cx="236.529" cy="92.5006" r="2.50064" fill="black"/>
<circle cx="11.4713" cy="107.505" r="2.50064" fill="black"/>
<circle cx="26.4748" cy="107.505" r="2.50064" fill="black"/>
<circle cx="41.4787" cy="107.505" r="2.50064" fill="black"/>
<circle cx="56.4826" cy="107.505" r="2.50064" fill="black"/>
<circle cx="71.4865" cy="107.505" r="2.50064" fill="black"/>
<circle cx="86.4904" cy="107.505" r="2.50064" fill="black"/>
<circle cx="101.494" cy="107.505" r="2.50064" fill="black"/>
<circle cx="116.498" cy="107.505" r="2.50064" fill="black"/>
<circle cx="131.502" cy="107.505" r="2.50064" fill="black"/>
<circle cx="146.506" cy="107.505" r="2.50064" fill="black"/>
<circle cx="161.509" cy="107.505" r="2.50064" fill="black"/>
<circle cx="176.513" cy="107.505" r="2.50064" fill="black"/>
<circle cx="191.517" cy="107.505" r="2.50064" fill="black"/>
<circle cx="206.521" cy="107.505" r="2.50064" fill="black"/>
<circle cx="221.525" cy="107.505" r="2.50064" fill="black"/>
<circle cx="236.529" cy="107.505" r="2.50064" fill="black"/>
<circle cx="11.4713" cy="122.508" r="2.50064" fill="black"/>
<circle cx="26.4748" cy="122.508" r="2.50064" fill="black"/>
<circle cx="41.4787" cy="122.508" r="2.50064" fill="black"/>
<circle cx="56.4826" cy="122.508" r="2.50064" fill="black"/>
<circle cx="71.4865" cy="122.508" r="2.50064" fill="black"/>
<circle cx="86.4904" cy="122.508" r="2.50064" fill="black"/>
<circle cx="101.494" cy="122.508" r="2.50064" fill="black"/>
<circle cx="116.498" cy="122.508" r="2.50064" fill="black"/>
<circle cx="131.502" cy="122.508" r="2.50064" fill="black"/>
<circle cx="146.506" cy="122.508" r="2.50064" fill="black"/>
<circle cx="161.509" cy="122.508" r="2.50064" fill="black"/>
<circle cx="176.513" cy="122.508" r="2.50064" fill="black"/>
<circle cx="191.517" cy="122.508" r="2.50064" fill="black"/>
<circle cx="206.521" cy="122.508" r="2.50064" fill="black"/>
<circle cx="221.525" cy="122.508" r="2.50064" fill="black"/>
<circle cx="236.529" cy="122.508" r="2.50064" fill="black"/>
<circle cx="11.4713" cy="137.512" r="2.50064" fill="black"/>
<circle cx="26.4748" cy="137.512" r="2.50064" fill="black"/>
<circle cx="41.4787" cy="137.512" r="2.50064" fill="black"/>
<circle cx="56.4826" cy="137.512" r="2.50064" fill="black"/>
<circle cx="71.4865" cy="137.512" r="2.50064" fill="black"/>
<circle cx="86.4904" cy="137.512" r="2.50064" fill="black"/>
<circle cx="101.494" cy="137.512" r="2.50064" fill="black"/>
<circle cx="116.498" cy="137.512" r="2.50064" fill="black"/>
<circle cx="131.502" cy="137.512" r="2.50064" fill="black"/>
<circle cx="146.506" cy="137.512" r="2.50064" fill="black"/>
<circle cx="161.509" cy="137.512" r="2.50064" fill="black"/>
<circle cx="176.513" cy="137.512" r="2.50064" fill="black"/>
<circle cx="191.517" cy="137.512" r="2.50064" fill="black"/>
<circle cx="206.521" cy="137.512" r="2.50064" fill="black"/>
<circle cx="221.525" cy="137.512" r="2.50064" fill="black"/>
<circle cx="236.529" cy="137.512" r="2.50064" fill="black"/>
<circle cx="11.4713" cy="152.516" r="2.50064" fill="black"/>
<circle cx="26.4748" cy="152.516" r="2.50064" fill="black"/>
<circle cx="41.4787" cy="152.516" r="2.50064" fill="black"/>
<circle cx="56.4826" cy="152.516" r="2.50064" fill="black"/>
<circle cx="71.4865" cy="152.516" r="2.50064" fill="black"/>
<circle cx="86.4904" cy="152.516" r="2.50064" fill="black"/>
<circle cx="101.494" cy="152.516" r="2.50064" fill="black"/>
<circle cx="116.498" cy="152.516" r="2.50064" fill="black"/>
<circle cx="131.502" cy="152.516" r="2.50064" fill="black"/>
<circle cx="146.506" cy="152.516" r="2.50064" fill="black"/>
<circle cx="161.509" cy="152.516" r="2.50064" fill="black"/>
<circle cx="176.513" cy="152.516" r="2.50064" fill="black"/>
<circle cx="191.517" cy="152.516" r="2.50064" fill="black"/>
<circle cx="206.521" cy="152.516" r="2.50064" fill="black"/>
<circle cx="221.525" cy="152.516" r="2.50064" fill="black"/>
<circle cx="236.529" cy="152.516" r="2.50064" fill="black"/>
</g>
<path d="M23.6 174H22.6V175H23.6V174ZM23.6 149V148H22.6V149H23.6ZM55.2 149V150H56.2V149H55.2ZM55.2 62.8H56.2V61.8H55.2V62.8ZM50.2 62.8V61.8H49.8925L49.6382 61.9727L50.2 62.8ZM23.4 81H22.4V82.8879L23.9618 81.8273L23.4 81ZM23.4 52.4L22.834 51.5756L22.4 51.8736V52.4H23.4ZM50.2 34V33H49.8898L49.634 33.1756L50.2 34ZM84 34H85V33H84V34ZM84 149H83V150H84V149ZM112.8 149H113.8V148H112.8V149ZM112.8 174V175H113.8V174H112.8ZM24.6 174V149H22.6V174H24.6ZM23.6 150H55.2V148H23.6V150ZM56.2 149V62.8H54.2V149H56.2ZM55.2 61.8H50.2V63.8H55.2V61.8ZM49.6382 61.9727L22.8382 80.1727L23.9618 81.8273L50.7618 63.6273L49.6382 61.9727ZM24.4 81V52.4H22.4V81H24.4ZM23.966 53.2244L50.766 34.8244L49.634 33.1756L22.834 51.5756L23.966 53.2244ZM50.2 35H84V33H50.2V35ZM83 34V149H85V34H83ZM84 150H112.8V148H84V150ZM111.8 149V174H113.8V149H111.8ZM112.8 173H23.6V175H112.8V173ZM144.245 49.4L143.478 48.759L143.477 48.7598L144.245 49.4ZM223.645 49.4L222.874 50.036L222.881 50.0452L223.645 49.4ZM223.645 158.6L222.878 157.959L222.877 157.96L223.645 158.6ZM144.245 158.6L143.474 159.236L143.481 159.245L144.245 158.6ZM145.013 50.041C154.948 38.1448 167.929 32.2 184.045 32.2V30.2C167.362 30.2 153.809 36.3885 143.478 48.759L145.013 50.041ZM184.045 32.2C200.161 32.2 213.073 38.1443 222.874 50.036L224.417 48.764C214.218 36.389 200.729 30.2 184.045 30.2V32.2ZM222.881 50.0452C232.798 61.7883 237.845 79.7118 237.845 104H239.845C239.845 79.4882 234.76 61.0117 224.409 48.7548L222.881 50.0452ZM237.845 104C237.845 128.152 232.799 146.08 222.878 157.959L224.413 159.241C234.758 146.854 239.845 128.381 239.845 104H237.845ZM222.877 157.96C213.078 169.719 200.166 175.6 184.045 175.6V177.6C200.725 177.6 214.213 171.481 224.414 159.24L222.877 157.96ZM184.045 175.6C167.925 175.6 154.943 169.719 145.009 157.955L143.481 159.245C153.814 171.481 167.366 177.6 184.045 177.6V175.6ZM145.017 157.964C135.226 146.084 130.245 128.154 130.245 104H128.245C128.245 128.379 133.264 146.849 143.474 159.236L145.017 157.964ZM130.245 104C130.245 79.7094 135.227 61.7837 145.014 50.0402L143.477 48.7598C133.263 61.0163 128.245 79.4906 128.245 104H130.245ZM184.045 152C188.534 152 192.51 150.984 195.936 148.919C199.362 146.855 202.184 143.776 204.42 139.734C208.876 131.679 211.045 119.726 211.045 104H209.045C209.045 119.607 206.881 131.154 202.67 138.766C200.573 142.557 197.979 145.353 194.904 147.206C191.831 149.058 188.223 150 184.045 150V152ZM211.045 104C211.045 88.2076 208.876 76.205 204.421 68.1175C202.185 64.0587 199.363 60.9672 195.938 58.8944C192.511 56.8206 188.535 55.8 184.045 55.8V57.8C188.222 57.8 191.83 58.7461 194.903 60.6055C197.977 62.4661 200.572 65.2746 202.669 69.0825C206.881 76.7284 209.045 88.3257 209.045 104H211.045ZM184.045 55.8C179.588 55.8 175.64 56.8212 172.237 58.8962C168.837 60.9699 166.036 64.062 163.818 68.1204C159.398 76.2069 157.245 88.2083 157.245 104H159.245C159.245 88.325 161.393 76.7264 165.573 69.0796C167.654 65.2713 170.229 62.4634 173.278 60.6038C176.326 58.7454 179.903 57.8 184.045 57.8V55.8ZM157.245 104C157.245 119.725 159.398 131.677 163.819 139.731C166.037 143.773 168.838 146.852 172.239 148.917C175.641 150.983 179.588 152 184.045 152V150C179.902 150 176.324 149.058 173.277 147.208C170.227 145.356 167.653 142.56 165.572 138.769C161.393 131.156 159.245 119.608 159.245 104H157.245Z" fill="black"/>
<defs>
<clipPath id="clip0_1037_44243">
<rect width="248" height="71" fill="white" transform="translate(0 90)"/>
</clipPath>
</defs>
</svg>
