<svg width="248" height="200" viewBox="0 0 248 200" fill="none" xmlns="http://www.w3.org/2000/svg">
<circle cx="110" cy="120" r="80" fill="#00FA9A"/>
<g clip-path="url(#clip0_1037_36200)">
<circle cx="11.4713" cy="92.5006" r="2.50064" fill="black"/>
<circle cx="26.4748" cy="92.5006" r="2.50064" fill="black"/>
<circle cx="41.4787" cy="92.5006" r="2.50064" fill="black"/>
<circle cx="56.4826" cy="92.5006" r="2.50064" fill="black"/>
<circle cx="71.4865" cy="92.5006" r="2.50064" fill="black"/>
<circle cx="86.4904" cy="92.5006" r="2.50064" fill="black"/>
<circle cx="101.494" cy="92.5006" r="2.50064" fill="black"/>
<circle cx="116.498" cy="92.5006" r="2.50064" fill="black"/>
<circle cx="131.502" cy="92.5006" r="2.50064" fill="black"/>
<circle cx="146.506" cy="92.5006" r="2.50064" fill="black"/>
<circle cx="161.509" cy="92.5006" r="2.50064" fill="black"/>
<circle cx="176.513" cy="92.5006" r="2.50064" fill="black"/>
<circle cx="191.517" cy="92.5006" r="2.50064" fill="black"/>
<circle cx="206.521" cy="92.5006" r="2.50064" fill="black"/>
<circle cx="221.525" cy="92.5006" r="2.50064" fill="black"/>
<circle cx="236.529" cy="92.5006" r="2.50064" fill="black"/>
<circle cx="11.4713" cy="107.505" r="2.50064" fill="black"/>
<circle cx="26.4748" cy="107.505" r="2.50064" fill="black"/>
<circle cx="41.4787" cy="107.505" r="2.50064" fill="black"/>
<circle cx="56.4826" cy="107.505" r="2.50064" fill="black"/>
<circle cx="71.4865" cy="107.505" r="2.50064" fill="black"/>
<circle cx="86.4904" cy="107.505" r="2.50064" fill="black"/>
<circle cx="101.494" cy="107.505" r="2.50064" fill="black"/>
<circle cx="116.498" cy="107.505" r="2.50064" fill="black"/>
<circle cx="131.502" cy="107.505" r="2.50064" fill="black"/>
<circle cx="146.506" cy="107.505" r="2.50064" fill="black"/>
<circle cx="161.509" cy="107.505" r="2.50064" fill="black"/>
<circle cx="176.513" cy="107.505" r="2.50064" fill="black"/>
<circle cx="191.517" cy="107.505" r="2.50064" fill="black"/>
<circle cx="206.521" cy="107.505" r="2.50064" fill="black"/>
<circle cx="221.525" cy="107.505" r="2.50064" fill="black"/>
<circle cx="236.529" cy="107.505" r="2.50064" fill="black"/>
<circle cx="11.4713" cy="122.508" r="2.50064" fill="black"/>
<circle cx="26.4748" cy="122.508" r="2.50064" fill="black"/>
<circle cx="41.4787" cy="122.508" r="2.50064" fill="black"/>
<circle cx="56.4826" cy="122.508" r="2.50064" fill="black"/>
<circle cx="71.4865" cy="122.508" r="2.50064" fill="black"/>
<circle cx="86.4904" cy="122.508" r="2.50064" fill="black"/>
<circle cx="101.494" cy="122.508" r="2.50064" fill="black"/>
<circle cx="116.498" cy="122.508" r="2.50064" fill="black"/>
<circle cx="131.502" cy="122.508" r="2.50064" fill="black"/>
<circle cx="146.506" cy="122.508" r="2.50064" fill="black"/>
<circle cx="161.509" cy="122.508" r="2.50064" fill="black"/>
<circle cx="176.513" cy="122.508" r="2.50064" fill="black"/>
<circle cx="191.517" cy="122.508" r="2.50064" fill="black"/>
<circle cx="206.521" cy="122.508" r="2.50064" fill="black"/>
<circle cx="221.525" cy="122.508" r="2.50064" fill="black"/>
<circle cx="236.529" cy="122.508" r="2.50064" fill="black"/>
<circle cx="11.4713" cy="137.512" r="2.50064" fill="black"/>
<circle cx="26.4748" cy="137.512" r="2.50064" fill="black"/>
<circle cx="41.4787" cy="137.512" r="2.50064" fill="black"/>
<circle cx="56.4826" cy="137.512" r="2.50064" fill="black"/>
<circle cx="71.4865" cy="137.512" r="2.50064" fill="black"/>
<circle cx="86.4904" cy="137.512" r="2.50064" fill="black"/>
<circle cx="101.494" cy="137.512" r="2.50064" fill="black"/>
<circle cx="116.498" cy="137.512" r="2.50064" fill="black"/>
<circle cx="131.502" cy="137.512" r="2.50064" fill="black"/>
<circle cx="146.506" cy="137.512" r="2.50064" fill="black"/>
<circle cx="161.509" cy="137.512" r="2.50064" fill="black"/>
<circle cx="176.513" cy="137.512" r="2.50064" fill="black"/>
<circle cx="191.517" cy="137.512" r="2.50064" fill="black"/>
<circle cx="206.521" cy="137.512" r="2.50064" fill="black"/>
<circle cx="221.525" cy="137.512" r="2.50064" fill="black"/>
<circle cx="236.529" cy="137.512" r="2.50064" fill="black"/>
<circle cx="11.4713" cy="152.516" r="2.50064" fill="black"/>
<circle cx="26.4748" cy="152.516" r="2.50064" fill="black"/>
<circle cx="41.4787" cy="152.516" r="2.50064" fill="black"/>
<circle cx="56.4826" cy="152.516" r="2.50064" fill="black"/>
<circle cx="71.4865" cy="152.516" r="2.50064" fill="black"/>
<circle cx="86.4904" cy="152.516" r="2.50064" fill="black"/>
<circle cx="101.494" cy="152.516" r="2.50064" fill="black"/>
<circle cx="116.498" cy="152.516" r="2.50064" fill="black"/>
<circle cx="131.502" cy="152.516" r="2.50064" fill="black"/>
<circle cx="146.506" cy="152.516" r="2.50064" fill="black"/>
<circle cx="161.509" cy="152.516" r="2.50064" fill="black"/>
<circle cx="176.513" cy="152.516" r="2.50064" fill="black"/>
<circle cx="191.517" cy="152.516" r="2.50064" fill="black"/>
<circle cx="206.521" cy="152.516" r="2.50064" fill="black"/>
<circle cx="221.525" cy="152.516" r="2.50064" fill="black"/>
<circle cx="236.529" cy="152.516" r="2.50064" fill="black"/>
</g>
<path d="M120.6 34V33H119.6V34H120.6ZM210.6 34H211.6V33H210.6V34ZM210.6 63.4L211.194 64.2043L211.6 63.9045V63.4H210.6ZM183.8 83.2L183.206 82.3957L182.8 82.6955V83.2H183.8ZM183.8 88.6H182.8V89.5232L183.72 89.5968L183.8 88.6ZM208.4 100.4L207.659 101.071L207.665 101.079L207.672 101.086L208.4 100.4ZM203.4 163.8L204.054 164.556L204.06 164.551L203.4 163.8ZM126.8 163.8L126.14 164.551L126.146 164.556L126.8 163.8ZM111.6 131.4V130.4H110.579L110.6 131.421L111.6 131.4ZM140.4 131.4L141.392 131.273L141.28 130.4H140.4V131.4ZM148 146L147.369 146.776L147.383 146.787L147.396 146.797L148 146ZM182.8 145L183.473 145.74L183.479 145.734L183.485 145.729L182.8 145ZM183 111.8L183.696 111.082L183 111.8ZM152 107H151V108.333L152.28 107.96L152 107ZM152 83.2L151.406 82.3957L151 82.6955V83.2H152ZM178.8 63.4L179.394 64.2043L179.8 63.9045V63.4H178.8ZM178.8 58.2H179.8V57.2H178.8V58.2ZM120.6 58.2H119.6V59.2H120.6V58.2ZM120.6 35H210.6V33H120.6V35ZM209.6 34V63.4H211.6V34H209.6ZM210.006 62.5957L183.206 82.3957L184.394 84.0043L211.194 64.2043L210.006 62.5957ZM182.8 83.2V88.6H184.8V83.2H182.8ZM183.72 89.5968C193.481 90.3777 201.439 94.204 207.659 101.071L209.141 99.7287C202.561 92.4627 194.119 88.4223 183.88 87.6032L183.72 89.5968ZM207.672 101.086C213.988 107.789 217.2 116.986 217.2 128.8H219.2C219.2 116.614 215.878 106.878 209.128 99.7142L207.672 101.086ZM217.2 128.8C217.2 143.217 212.364 154.595 202.74 163.049L204.06 164.551C214.169 155.671 219.2 143.717 219.2 128.8H217.2ZM202.746 163.044C193.098 171.388 180.481 175.6 164.8 175.6V177.6C180.853 177.6 193.969 173.279 204.054 164.556L202.746 163.044ZM164.8 175.6C149.527 175.6 137.107 171.392 127.454 163.044L126.146 164.556C136.227 173.275 149.14 177.6 164.8 177.6V175.6ZM127.46 163.049C117.8 154.564 112.861 144.027 112.6 131.379L110.6 131.421C110.873 144.639 116.066 155.703 126.14 164.551L127.46 163.049ZM111.6 132.4H140.4V130.4H111.6V132.4ZM139.408 131.527C140.235 138.007 142.873 143.123 147.369 146.776L148.631 145.224C144.593 141.944 142.165 137.326 141.392 131.273L139.408 131.527ZM147.396 146.797C152.007 150.29 157.834 152 164.8 152V150C158.166 150 152.793 148.376 148.604 145.203L147.396 146.797ZM164.8 152C172.577 152 178.842 149.95 183.473 145.74L182.127 144.26C177.958 148.05 172.223 150 164.8 150V152ZM183.485 145.729C188.112 141.382 190.4 135.638 190.4 128.6H188.4C188.4 135.162 186.288 140.352 182.115 144.271L183.485 145.729ZM190.4 128.6C190.4 121.318 188.193 115.439 183.696 111.082L182.304 112.518C186.34 116.428 188.4 121.749 188.4 128.6H190.4ZM183.696 111.082C179.188 106.715 172.84 104.6 164.8 104.6V106.6C172.494 106.6 178.278 108.618 182.304 112.518L183.696 111.082ZM164.8 104.6C159.421 104.6 155.049 105.069 151.72 106.04L152.28 107.96C155.351 107.064 159.512 106.6 164.8 106.6V104.6ZM153 107V83.2H151V107H153ZM152.594 84.0043L179.394 64.2043L178.206 62.5957L151.406 82.3957L152.594 84.0043ZM179.8 63.4V58.2H177.8V63.4H179.8ZM178.8 57.2H120.6V59.2H178.8V57.2ZM121.6 58.2V34H119.6V58.2H121.6Z" fill="black"/>
<defs>
<clipPath id="clip0_1037_36200">
<rect width="248" height="71" fill="white" transform="translate(0 90)"/>
</clipPath>
</defs>
</svg>
