<svg width="248" height="200" viewBox="0 0 248 200" fill="none" xmlns="http://www.w3.org/2000/svg">
<circle cx="110" cy="120" r="80" fill="#00FA9A"/>
<g clip-path="url(#clip0_1037_38507)">
<circle cx="11.4713" cy="92.5006" r="2.50064" fill="black"/>
<circle cx="26.4748" cy="92.5006" r="2.50064" fill="black"/>
<circle cx="41.4787" cy="92.5006" r="2.50064" fill="black"/>
<circle cx="56.4826" cy="92.5006" r="2.50064" fill="black"/>
<circle cx="71.4865" cy="92.5006" r="2.50064" fill="black"/>
<circle cx="86.4904" cy="92.5006" r="2.50064" fill="black"/>
<circle cx="101.494" cy="92.5006" r="2.50064" fill="black"/>
<circle cx="116.498" cy="92.5006" r="2.50064" fill="black"/>
<circle cx="131.502" cy="92.5006" r="2.50064" fill="black"/>
<circle cx="146.506" cy="92.5006" r="2.50064" fill="black"/>
<circle cx="161.509" cy="92.5006" r="2.50064" fill="black"/>
<circle cx="176.513" cy="92.5006" r="2.50064" fill="black"/>
<circle cx="191.517" cy="92.5006" r="2.50064" fill="black"/>
<circle cx="206.521" cy="92.5006" r="2.50064" fill="black"/>
<circle cx="221.525" cy="92.5006" r="2.50064" fill="black"/>
<circle cx="236.529" cy="92.5006" r="2.50064" fill="black"/>
<circle cx="11.4713" cy="107.505" r="2.50064" fill="black"/>
<circle cx="26.4748" cy="107.505" r="2.50064" fill="black"/>
<circle cx="41.4787" cy="107.505" r="2.50064" fill="black"/>
<circle cx="56.4826" cy="107.505" r="2.50064" fill="black"/>
<circle cx="71.4865" cy="107.505" r="2.50064" fill="black"/>
<circle cx="86.4904" cy="107.505" r="2.50064" fill="black"/>
<circle cx="101.494" cy="107.505" r="2.50064" fill="black"/>
<circle cx="116.498" cy="107.505" r="2.50064" fill="black"/>
<circle cx="131.502" cy="107.505" r="2.50064" fill="black"/>
<circle cx="146.506" cy="107.505" r="2.50064" fill="black"/>
<circle cx="161.509" cy="107.505" r="2.50064" fill="black"/>
<circle cx="176.513" cy="107.505" r="2.50064" fill="black"/>
<circle cx="191.517" cy="107.505" r="2.50064" fill="black"/>
<circle cx="206.521" cy="107.505" r="2.50064" fill="black"/>
<circle cx="221.525" cy="107.505" r="2.50064" fill="black"/>
<circle cx="236.529" cy="107.505" r="2.50064" fill="black"/>
<circle cx="11.4713" cy="122.508" r="2.50064" fill="black"/>
<circle cx="26.4748" cy="122.508" r="2.50064" fill="black"/>
<circle cx="41.4787" cy="122.508" r="2.50064" fill="black"/>
<circle cx="56.4826" cy="122.508" r="2.50064" fill="black"/>
<circle cx="71.4865" cy="122.508" r="2.50064" fill="black"/>
<circle cx="86.4904" cy="122.508" r="2.50064" fill="black"/>
<circle cx="101.494" cy="122.508" r="2.50064" fill="black"/>
<circle cx="116.498" cy="122.508" r="2.50064" fill="black"/>
<circle cx="131.502" cy="122.508" r="2.50064" fill="black"/>
<circle cx="146.506" cy="122.508" r="2.50064" fill="black"/>
<circle cx="161.509" cy="122.508" r="2.50064" fill="black"/>
<circle cx="176.513" cy="122.508" r="2.50064" fill="black"/>
<circle cx="191.517" cy="122.508" r="2.50064" fill="black"/>
<circle cx="206.521" cy="122.508" r="2.50064" fill="black"/>
<circle cx="221.525" cy="122.508" r="2.50064" fill="black"/>
<circle cx="236.529" cy="122.508" r="2.50064" fill="black"/>
<circle cx="11.4713" cy="137.512" r="2.50064" fill="black"/>
<circle cx="26.4748" cy="137.512" r="2.50064" fill="black"/>
<circle cx="41.4787" cy="137.512" r="2.50064" fill="black"/>
<circle cx="56.4826" cy="137.512" r="2.50064" fill="black"/>
<circle cx="71.4865" cy="137.512" r="2.50064" fill="black"/>
<circle cx="86.4904" cy="137.512" r="2.50064" fill="black"/>
<circle cx="101.494" cy="137.512" r="2.50064" fill="black"/>
<circle cx="116.498" cy="137.512" r="2.50064" fill="black"/>
<circle cx="131.502" cy="137.512" r="2.50064" fill="black"/>
<circle cx="146.506" cy="137.512" r="2.50064" fill="black"/>
<circle cx="161.509" cy="137.512" r="2.50064" fill="black"/>
<circle cx="176.513" cy="137.512" r="2.50064" fill="black"/>
<circle cx="191.517" cy="137.512" r="2.50064" fill="black"/>
<circle cx="206.521" cy="137.512" r="2.50064" fill="black"/>
<circle cx="221.525" cy="137.512" r="2.50064" fill="black"/>
<circle cx="236.529" cy="137.512" r="2.50064" fill="black"/>
<circle cx="11.4713" cy="152.516" r="2.50064" fill="black"/>
<circle cx="26.4748" cy="152.516" r="2.50064" fill="black"/>
<circle cx="41.4787" cy="152.516" r="2.50064" fill="black"/>
<circle cx="56.4826" cy="152.516" r="2.50064" fill="black"/>
<circle cx="71.4865" cy="152.516" r="2.50064" fill="black"/>
<circle cx="86.4904" cy="152.516" r="2.50064" fill="black"/>
<circle cx="101.494" cy="152.516" r="2.50064" fill="black"/>
<circle cx="116.498" cy="152.516" r="2.50064" fill="black"/>
<circle cx="131.502" cy="152.516" r="2.50064" fill="black"/>
<circle cx="146.506" cy="152.516" r="2.50064" fill="black"/>
<circle cx="161.509" cy="152.516" r="2.50064" fill="black"/>
<circle cx="176.513" cy="152.516" r="2.50064" fill="black"/>
<circle cx="191.517" cy="152.516" r="2.50064" fill="black"/>
<circle cx="206.521" cy="152.516" r="2.50064" fill="black"/>
<circle cx="221.525" cy="152.516" r="2.50064" fill="black"/>
<circle cx="236.529" cy="152.516" r="2.50064" fill="black"/>
</g>
<path d="M208.6 91.8L207.877 92.4905L207.882 92.4961L207.887 92.5016L208.6 91.8ZM206.8 162.6L207.492 163.322L207.497 163.317L206.8 162.6ZM131.6 164L130.931 164.743L130.936 164.748L131.6 164ZM116.4 131.4V130.4H115.338L115.402 131.46L116.4 131.4ZM145.2 131.4L146.193 131.278L146.085 130.4H145.2V131.4ZM186.2 144.4L186.918 145.096L186.923 145.091L186.928 145.085L186.2 144.4ZM186 107.8L185.282 108.496L185.293 108.507L185.304 108.518L186 107.8ZM146.6 111.6V112.6H147.1L147.4 112.2L146.6 111.6ZM119.8 111.6L118.803 111.52L118.717 112.6H119.8V111.6ZM126 34V33H125.077L125.003 33.9203L126 34ZM212.4 34H213.4V33H212.4V34ZM212.4 58.2V59.2H213.4V58.2H212.4ZM148.4 58.2V57.2H147.474L147.403 58.1233L148.4 58.2ZM146.2 86.8L145.203 86.7233L145.12 87.8H146.2V86.8ZM151.4 86.8V87.8H151.732L151.998 87.6017L151.4 86.8ZM176.6 79.6C189.279 79.6 199.678 83.9017 207.877 92.4905L209.323 91.1095C200.722 82.0983 189.787 77.6 176.6 77.6V79.6ZM207.887 92.5016C216.209 100.953 220.4 112.02 220.4 125.8H222.4C222.4 111.58 218.058 99.9806 209.313 91.0984L207.887 92.5016ZM220.4 125.8C220.4 140.629 215.62 152.626 206.103 161.883L207.497 163.317C217.446 153.64 222.4 141.104 222.4 125.8H220.4ZM206.108 161.878C196.583 171.011 184.442 175.6 169.6 175.6V177.6C184.892 177.6 197.55 172.855 207.492 163.322L206.108 161.878ZM169.6 175.6C153.914 175.6 141.504 171.452 132.264 163.252L130.936 164.748C140.629 173.348 153.553 177.6 169.6 177.6V175.6ZM132.269 163.257C123.144 155.044 118.184 144.43 117.398 131.34L115.402 131.46C116.216 145.037 121.389 156.156 130.931 164.743L132.269 163.257ZM116.4 132.4H145.2V130.4H116.4V132.4ZM144.207 131.522C145.029 138.23 147.462 143.394 151.608 146.867C155.745 150.332 161.453 152 168.6 152V150C161.747 150 156.555 148.401 152.892 145.333C149.238 142.273 146.971 137.637 146.193 131.278L144.207 131.522ZM168.6 152C176.274 152 182.423 149.731 186.918 145.096L185.482 143.704C181.444 147.868 175.859 150 168.6 150V152ZM186.928 145.085C191.406 140.327 193.6 133.995 193.6 126.2H191.6C191.6 133.605 189.527 139.406 185.472 143.715L186.928 145.085ZM193.6 126.2C193.6 118.016 191.345 111.59 186.696 107.082L185.304 108.518C189.455 112.544 191.6 118.384 191.6 126.2H193.6ZM186.718 107.104C182.23 102.476 176.219 100.2 168.8 100.2V102.2C175.781 102.2 181.237 104.324 185.282 108.496L186.718 107.104ZM168.8 100.2C158.924 100.2 151.211 103.785 145.8 111L147.4 112.2C152.389 105.548 159.476 102.2 168.8 102.2V100.2ZM146.6 110.6H119.8V112.6H146.6V110.6ZM120.797 111.68L126.997 34.0796L125.003 33.9203L118.803 111.52L120.797 111.68ZM126 35H212.4V33H126V35ZM211.4 34V58.2H213.4V34H211.4ZM212.4 57.2H148.4V59.2H212.4V57.2ZM147.403 58.1233L145.203 86.7233L147.197 86.8767L149.397 58.2767L147.403 58.1233ZM146.2 87.8H151.4V85.8H146.2V87.8ZM151.998 87.6017C159.152 82.2685 167.341 79.6 176.6 79.6V77.6C166.926 77.6 158.315 80.3981 150.802 85.9983L151.998 87.6017Z" fill="black"/>
<defs>
<clipPath id="clip0_1037_38507">
<rect width="248" height="71" fill="white" transform="translate(0 90)"/>
</clipPath>
</defs>
</svg>
