<svg width="248" height="200" viewBox="0 0 248 200" fill="none" xmlns="http://www.w3.org/2000/svg">
<circle cx="124" cy="120" r="80" fill="#00FA9A"/>
<g clip-path="url(#clip0_1037_45379)">
<circle cx="11.4713" cy="92.5006" r="2.50064" fill="black"/>
<circle cx="26.4748" cy="92.5005" r="2.50064" fill="black"/>
<circle cx="41.4787" cy="92.5006" r="2.50064" fill="black"/>
<circle cx="56.4826" cy="92.5006" r="2.50064" fill="black"/>
<circle cx="71.4865" cy="92.5006" r="2.50064" fill="black"/>
<circle cx="86.4904" cy="92.5006" r="2.50064" fill="black"/>
<circle cx="101.494" cy="92.5005" r="2.50064" fill="black"/>
<circle cx="116.498" cy="92.5006" r="2.50064" fill="black"/>
<circle cx="131.502" cy="92.5006" r="2.50064" fill="black"/>
<circle cx="146.506" cy="92.5006" r="2.50064" fill="black"/>
<circle cx="161.509" cy="92.5006" r="2.50064" fill="black"/>
<circle cx="176.513" cy="92.5005" r="2.50064" fill="black"/>
<circle cx="191.517" cy="92.5006" r="2.50064" fill="black"/>
<circle cx="206.521" cy="92.5006" r="2.50064" fill="black"/>
<circle cx="221.525" cy="92.5006" r="2.50064" fill="black"/>
<circle cx="236.529" cy="92.5006" r="2.50064" fill="black"/>
<circle cx="11.4713" cy="107.505" r="2.50064" fill="black"/>
<circle cx="26.4748" cy="107.505" r="2.50064" fill="black"/>
<circle cx="41.4787" cy="107.505" r="2.50064" fill="black"/>
<circle cx="56.4826" cy="107.505" r="2.50064" fill="black"/>
<circle cx="71.4865" cy="107.505" r="2.50064" fill="black"/>
<circle cx="86.4904" cy="107.505" r="2.50064" fill="black"/>
<circle cx="101.494" cy="107.505" r="2.50064" fill="black"/>
<circle cx="116.498" cy="107.505" r="2.50064" fill="black"/>
<circle cx="131.502" cy="107.505" r="2.50064" fill="black"/>
<circle cx="146.506" cy="107.505" r="2.50064" fill="black"/>
<circle cx="161.509" cy="107.505" r="2.50064" fill="black"/>
<circle cx="176.513" cy="107.505" r="2.50064" fill="black"/>
<circle cx="191.517" cy="107.505" r="2.50064" fill="black"/>
<circle cx="206.521" cy="107.505" r="2.50064" fill="black"/>
<circle cx="221.525" cy="107.505" r="2.50064" fill="black"/>
<circle cx="236.529" cy="107.505" r="2.50064" fill="black"/>
<circle cx="11.4713" cy="122.508" r="2.50064" fill="black"/>
<circle cx="26.4748" cy="122.508" r="2.50064" fill="black"/>
<circle cx="41.4787" cy="122.508" r="2.50064" fill="black"/>
<circle cx="56.4826" cy="122.508" r="2.50064" fill="black"/>
<circle cx="71.4865" cy="122.508" r="2.50064" fill="black"/>
<circle cx="86.4904" cy="122.508" r="2.50064" fill="black"/>
<circle cx="101.494" cy="122.508" r="2.50064" fill="black"/>
<circle cx="116.498" cy="122.508" r="2.50064" fill="black"/>
<circle cx="131.502" cy="122.508" r="2.50064" fill="black"/>
<circle cx="146.506" cy="122.508" r="2.50064" fill="black"/>
<circle cx="161.509" cy="122.508" r="2.50064" fill="black"/>
<circle cx="176.513" cy="122.508" r="2.50064" fill="black"/>
<circle cx="191.517" cy="122.508" r="2.50064" fill="black"/>
<circle cx="206.521" cy="122.508" r="2.50064" fill="black"/>
<circle cx="221.525" cy="122.508" r="2.50064" fill="black"/>
<circle cx="236.529" cy="122.508" r="2.50064" fill="black"/>
<circle cx="11.4713" cy="137.512" r="2.50064" fill="black"/>
<circle cx="26.4748" cy="137.512" r="2.50064" fill="black"/>
<circle cx="41.4787" cy="137.512" r="2.50064" fill="black"/>
<circle cx="56.4826" cy="137.512" r="2.50064" fill="black"/>
<circle cx="71.4865" cy="137.512" r="2.50064" fill="black"/>
<circle cx="86.4904" cy="137.512" r="2.50064" fill="black"/>
<circle cx="101.494" cy="137.512" r="2.50064" fill="black"/>
<circle cx="116.498" cy="137.512" r="2.50064" fill="black"/>
<circle cx="131.502" cy="137.512" r="2.50064" fill="black"/>
<circle cx="146.506" cy="137.512" r="2.50064" fill="black"/>
<circle cx="161.509" cy="137.512" r="2.50064" fill="black"/>
<circle cx="176.513" cy="137.512" r="2.50064" fill="black"/>
<circle cx="191.517" cy="137.512" r="2.50064" fill="black"/>
<circle cx="206.521" cy="137.512" r="2.50064" fill="black"/>
<circle cx="221.525" cy="137.512" r="2.50064" fill="black"/>
<circle cx="236.529" cy="137.512" r="2.50064" fill="black"/>
<circle cx="11.4713" cy="152.516" r="2.50064" fill="black"/>
<circle cx="26.4748" cy="152.516" r="2.50064" fill="black"/>
<circle cx="41.4787" cy="152.516" r="2.50064" fill="black"/>
<circle cx="56.4826" cy="152.516" r="2.50064" fill="black"/>
<circle cx="71.4865" cy="152.516" r="2.50064" fill="black"/>
<circle cx="86.4904" cy="152.516" r="2.50064" fill="black"/>
<circle cx="101.494" cy="152.516" r="2.50064" fill="black"/>
<circle cx="116.498" cy="152.516" r="2.50064" fill="black"/>
<circle cx="131.502" cy="152.516" r="2.50064" fill="black"/>
<circle cx="146.506" cy="152.516" r="2.50064" fill="black"/>
<circle cx="161.509" cy="152.516" r="2.50064" fill="black"/>
<circle cx="176.513" cy="152.516" r="2.50064" fill="black"/>
<circle cx="191.517" cy="152.516" r="2.50064" fill="black"/>
<circle cx="206.521" cy="152.516" r="2.50064" fill="black"/>
<circle cx="221.525" cy="152.516" r="2.50064" fill="black"/>
<circle cx="236.529" cy="152.516" r="2.50064" fill="black"/>
</g>
<path d="M22.6 174H21.6V175H22.6V174ZM22.6 149V148H21.6V149H22.6ZM54.2 149V150H55.2V149H54.2ZM54.2 62.8H55.2V61.8H54.2V62.8ZM49.2 62.8V61.8H48.8925L48.6382 61.9727L49.2 62.8ZM22.4 81H21.4V82.8879L22.9618 81.8273L22.4 81ZM22.4 52.4L21.834 51.5756L21.4 51.8736V52.4H22.4ZM49.2 34V33H48.8898L48.634 33.1756L49.2 34ZM83 34H84V33H83V34ZM83 149H82V150H83V149ZM111.8 149H112.8V148H111.8V149ZM111.8 174V175H112.8V174H111.8ZM23.6 174V149H21.6V174H23.6ZM22.6 150H54.2V148H22.6V150ZM55.2 149V62.8H53.2V149H55.2ZM54.2 61.8H49.2V63.8H54.2V61.8ZM48.6382 61.9727L21.8382 80.1727L22.9618 81.8273L49.7618 63.6273L48.6382 61.9727ZM23.4 81V52.4H21.4V81H23.4ZM22.966 53.2244L49.766 34.8244L48.634 33.1756L21.834 51.5756L22.966 53.2244ZM49.2 35H83V33H49.2V35ZM82 34V149H84V34H82ZM83 150H111.8V148H83V150ZM110.8 149V174H112.8V149H110.8ZM111.8 173H22.6V175H111.8V173ZM129.045 174H128.045V175H129.045V174ZM129.045 149V148H128.045V149H129.045ZM160.645 149V150H161.645V149H160.645ZM160.645 62.8H161.645V61.8H160.645V62.8ZM155.645 62.8V61.8H155.338L155.084 61.9727L155.645 62.8ZM128.845 81H127.845V82.8879L129.407 81.8273L128.845 81ZM128.845 52.4L128.279 51.5756L127.845 51.8736V52.4H128.845ZM155.645 34V33H155.335L155.079 33.1756L155.645 34ZM189.445 34H190.445V33H189.445V34ZM189.445 149H188.445V150H189.445V149ZM218.245 149H219.245V148H218.245V149ZM218.245 174V175H219.245V174H218.245ZM130.045 174V149H128.045V174H130.045ZM129.045 150H160.645V148H129.045V150ZM161.645 149V62.8H159.645V149H161.645ZM160.645 61.8H155.645V63.8H160.645V61.8ZM155.084 61.9727L128.284 80.1727L129.407 81.8273L156.207 63.6273L155.084 61.9727ZM129.845 81V52.4H127.845V81H129.845ZM129.411 53.2244L156.211 34.8244L155.079 33.1756L128.279 51.5756L129.411 53.2244ZM155.645 35H189.445V33H155.645V35ZM188.445 34V149H190.445V34H188.445ZM189.445 150H218.245V148H189.445V150ZM217.245 149V174H219.245V149H217.245ZM218.245 173H129.045V175H218.245V173Z" fill="black"/>
<defs>
<clipPath id="clip0_1037_45379">
<rect width="248" height="71" fill="white" transform="translate(0 90)"/>
</clipPath>
</defs>
</svg>
