<svg width="248" height="200" viewBox="0 0 248 200" fill="none" xmlns="http://www.w3.org/2000/svg">
<circle cx="110" cy="120" r="80" fill="#00FA9A"/>
<g clip-path="url(#clip0_1037_40823)">
<circle cx="11.4713" cy="92.5006" r="2.50064" fill="black"/>
<circle cx="26.4748" cy="92.5006" r="2.50064" fill="black"/>
<circle cx="41.4787" cy="92.5006" r="2.50064" fill="black"/>
<circle cx="56.4826" cy="92.5006" r="2.50064" fill="black"/>
<circle cx="71.4865" cy="92.5006" r="2.50064" fill="black"/>
<circle cx="86.4904" cy="92.5006" r="2.50064" fill="black"/>
<circle cx="101.494" cy="92.5006" r="2.50064" fill="black"/>
<circle cx="116.498" cy="92.5006" r="2.50064" fill="black"/>
<circle cx="131.502" cy="92.5006" r="2.50064" fill="black"/>
<circle cx="146.506" cy="92.5006" r="2.50064" fill="black"/>
<circle cx="161.509" cy="92.5006" r="2.50064" fill="black"/>
<circle cx="176.513" cy="92.5006" r="2.50064" fill="black"/>
<circle cx="191.517" cy="92.5006" r="2.50064" fill="black"/>
<circle cx="206.521" cy="92.5006" r="2.50064" fill="black"/>
<circle cx="221.525" cy="92.5006" r="2.50064" fill="black"/>
<circle cx="236.529" cy="92.5006" r="2.50064" fill="black"/>
<circle cx="11.4713" cy="107.504" r="2.50064" fill="black"/>
<circle cx="26.4748" cy="107.505" r="2.50064" fill="black"/>
<circle cx="41.4787" cy="107.504" r="2.50064" fill="black"/>
<circle cx="56.4826" cy="107.504" r="2.50064" fill="black"/>
<circle cx="71.4865" cy="107.504" r="2.50064" fill="black"/>
<circle cx="86.4904" cy="107.504" r="2.50064" fill="black"/>
<circle cx="101.494" cy="107.505" r="2.50064" fill="black"/>
<circle cx="116.498" cy="107.504" r="2.50064" fill="black"/>
<circle cx="131.502" cy="107.504" r="2.50064" fill="black"/>
<circle cx="146.506" cy="107.504" r="2.50064" fill="black"/>
<circle cx="161.509" cy="107.504" r="2.50064" fill="black"/>
<circle cx="176.513" cy="107.505" r="2.50064" fill="black"/>
<circle cx="191.517" cy="107.504" r="2.50064" fill="black"/>
<circle cx="206.521" cy="107.504" r="2.50064" fill="black"/>
<circle cx="221.525" cy="107.504" r="2.50064" fill="black"/>
<circle cx="236.529" cy="107.504" r="2.50064" fill="black"/>
<circle cx="11.4713" cy="122.508" r="2.50064" fill="black"/>
<circle cx="26.4748" cy="122.508" r="2.50064" fill="black"/>
<circle cx="41.4787" cy="122.508" r="2.50064" fill="black"/>
<circle cx="56.4826" cy="122.508" r="2.50064" fill="black"/>
<circle cx="71.4865" cy="122.508" r="2.50064" fill="black"/>
<circle cx="86.4904" cy="122.508" r="2.50064" fill="black"/>
<circle cx="101.494" cy="122.508" r="2.50064" fill="black"/>
<circle cx="116.498" cy="122.508" r="2.50064" fill="black"/>
<circle cx="131.502" cy="122.508" r="2.50064" fill="black"/>
<circle cx="146.506" cy="122.508" r="2.50064" fill="black"/>
<circle cx="161.509" cy="122.508" r="2.50064" fill="black"/>
<circle cx="176.513" cy="122.508" r="2.50064" fill="black"/>
<circle cx="191.517" cy="122.508" r="2.50064" fill="black"/>
<circle cx="206.521" cy="122.508" r="2.50064" fill="black"/>
<circle cx="221.525" cy="122.508" r="2.50064" fill="black"/>
<circle cx="236.529" cy="122.508" r="2.50064" fill="black"/>
<circle cx="11.4713" cy="137.512" r="2.50064" fill="black"/>
<circle cx="26.4748" cy="137.512" r="2.50064" fill="black"/>
<circle cx="41.4787" cy="137.512" r="2.50064" fill="black"/>
<circle cx="56.4826" cy="137.512" r="2.50064" fill="black"/>
<circle cx="71.4865" cy="137.512" r="2.50064" fill="black"/>
<circle cx="86.4904" cy="137.512" r="2.50064" fill="black"/>
<circle cx="101.494" cy="137.512" r="2.50064" fill="black"/>
<circle cx="116.498" cy="137.512" r="2.50064" fill="black"/>
<circle cx="131.502" cy="137.512" r="2.50064" fill="black"/>
<circle cx="146.506" cy="137.512" r="2.50064" fill="black"/>
<circle cx="161.509" cy="137.512" r="2.50064" fill="black"/>
<circle cx="176.513" cy="137.512" r="2.50064" fill="black"/>
<circle cx="191.517" cy="137.512" r="2.50064" fill="black"/>
<circle cx="206.521" cy="137.512" r="2.50064" fill="black"/>
<circle cx="221.525" cy="137.512" r="2.50064" fill="black"/>
<circle cx="236.529" cy="137.512" r="2.50064" fill="black"/>
<circle cx="11.4713" cy="152.516" r="2.50064" fill="black"/>
<circle cx="26.4748" cy="152.516" r="2.50064" fill="black"/>
<circle cx="41.4787" cy="152.516" r="2.50064" fill="black"/>
<circle cx="56.4826" cy="152.516" r="2.50064" fill="black"/>
<circle cx="71.4865" cy="152.516" r="2.50064" fill="black"/>
<circle cx="86.4904" cy="152.516" r="2.50064" fill="black"/>
<circle cx="101.494" cy="152.516" r="2.50064" fill="black"/>
<circle cx="116.498" cy="152.516" r="2.50064" fill="black"/>
<circle cx="131.502" cy="152.516" r="2.50064" fill="black"/>
<circle cx="146.506" cy="152.516" r="2.50064" fill="black"/>
<circle cx="161.509" cy="152.516" r="2.50064" fill="black"/>
<circle cx="176.513" cy="152.516" r="2.50064" fill="black"/>
<circle cx="191.517" cy="152.516" r="2.50064" fill="black"/>
<circle cx="206.521" cy="152.516" r="2.50064" fill="black"/>
<circle cx="221.525" cy="152.516" r="2.50064" fill="black"/>
<circle cx="236.529" cy="152.516" r="2.50064" fill="black"/>
</g>
<path d="M211 64L211.891 64.4537L212 64.2399V64H211ZM155 174V175H155.613L155.891 174.454L155 174ZM125 174L124.109 173.545L123.366 175H125V174ZM181.2 64L182.091 64.455L182.2 64.2407V64H181.2ZM181.2 59H182.2V58H181.2V59ZM115.4 59H114.4V60H115.4V59ZM115.4 34V33H114.4V34H115.4ZM211 34H212V33H211V34ZM210.109 63.5463L154.109 173.546L155.891 174.454L211.891 64.4537L210.109 63.5463ZM155 173H125V175H155V173ZM125.891 174.455L182.091 64.455L180.309 63.545L124.109 173.545L125.891 174.455ZM182.2 64V59H180.2V64H182.2ZM181.2 58H115.4V60H181.2V58ZM116.4 59V34H114.4V59H116.4ZM115.4 35H211V33H115.4V35ZM210 34V64H212V34H210Z" fill="black"/>
<defs>
<clipPath id="clip0_1037_40823">
<rect width="248" height="71" fill="white" transform="translate(0 90)"/>
</clipPath>
</defs>
</svg>
