<svg width="248" height="200" viewBox="0 0 248 200" fill="none" xmlns="http://www.w3.org/2000/svg">
<circle cx="110" cy="120" r="80" fill="#00FA9A"/>
<g clip-path="url(#clip0_1037_39672)">
<circle cx="11.4713" cy="92.5006" r="2.50064" fill="black"/>
<circle cx="26.4748" cy="92.5005" r="2.50064" fill="black"/>
<circle cx="41.4787" cy="92.5006" r="2.50064" fill="black"/>
<circle cx="56.4826" cy="92.5006" r="2.50064" fill="black"/>
<circle cx="71.4865" cy="92.5006" r="2.50064" fill="black"/>
<circle cx="86.4904" cy="92.5006" r="2.50064" fill="black"/>
<circle cx="101.494" cy="92.5005" r="2.50064" fill="black"/>
<circle cx="116.498" cy="92.5006" r="2.50064" fill="black"/>
<circle cx="131.502" cy="92.5006" r="2.50064" fill="black"/>
<circle cx="146.506" cy="92.5006" r="2.50064" fill="black"/>
<circle cx="161.509" cy="92.5006" r="2.50064" fill="black"/>
<circle cx="176.513" cy="92.5005" r="2.50064" fill="black"/>
<circle cx="191.517" cy="92.5006" r="2.50064" fill="black"/>
<circle cx="206.521" cy="92.5006" r="2.50064" fill="black"/>
<circle cx="221.525" cy="92.5006" r="2.50064" fill="black"/>
<circle cx="236.529" cy="92.5006" r="2.50064" fill="black"/>
<circle cx="11.4713" cy="107.505" r="2.50064" fill="black"/>
<circle cx="26.4748" cy="107.505" r="2.50064" fill="black"/>
<circle cx="41.4787" cy="107.505" r="2.50064" fill="black"/>
<circle cx="56.4826" cy="107.505" r="2.50064" fill="black"/>
<circle cx="71.4865" cy="107.505" r="2.50064" fill="black"/>
<circle cx="86.4904" cy="107.505" r="2.50064" fill="black"/>
<circle cx="101.494" cy="107.505" r="2.50064" fill="black"/>
<circle cx="116.498" cy="107.505" r="2.50064" fill="black"/>
<circle cx="131.502" cy="107.505" r="2.50064" fill="black"/>
<circle cx="146.506" cy="107.505" r="2.50064" fill="black"/>
<circle cx="161.509" cy="107.505" r="2.50064" fill="black"/>
<circle cx="176.513" cy="107.505" r="2.50064" fill="black"/>
<circle cx="191.517" cy="107.505" r="2.50064" fill="black"/>
<circle cx="206.521" cy="107.505" r="2.50064" fill="black"/>
<circle cx="221.525" cy="107.505" r="2.50064" fill="black"/>
<circle cx="236.529" cy="107.505" r="2.50064" fill="black"/>
<circle cx="11.4713" cy="122.508" r="2.50064" fill="black"/>
<circle cx="26.4748" cy="122.508" r="2.50064" fill="black"/>
<circle cx="41.4787" cy="122.508" r="2.50064" fill="black"/>
<circle cx="56.4826" cy="122.508" r="2.50064" fill="black"/>
<circle cx="71.4865" cy="122.508" r="2.50064" fill="black"/>
<circle cx="86.4904" cy="122.508" r="2.50064" fill="black"/>
<circle cx="101.494" cy="122.508" r="2.50064" fill="black"/>
<circle cx="116.498" cy="122.508" r="2.50064" fill="black"/>
<circle cx="131.502" cy="122.508" r="2.50064" fill="black"/>
<circle cx="146.506" cy="122.508" r="2.50064" fill="black"/>
<circle cx="161.509" cy="122.508" r="2.50064" fill="black"/>
<circle cx="176.513" cy="122.508" r="2.50064" fill="black"/>
<circle cx="191.517" cy="122.508" r="2.50064" fill="black"/>
<circle cx="206.521" cy="122.508" r="2.50064" fill="black"/>
<circle cx="221.525" cy="122.508" r="2.50064" fill="black"/>
<circle cx="236.529" cy="122.508" r="2.50064" fill="black"/>
<circle cx="11.4713" cy="137.512" r="2.50064" fill="black"/>
<circle cx="26.4748" cy="137.512" r="2.50064" fill="black"/>
<circle cx="41.4787" cy="137.512" r="2.50064" fill="black"/>
<circle cx="56.4826" cy="137.512" r="2.50064" fill="black"/>
<circle cx="71.4865" cy="137.512" r="2.50064" fill="black"/>
<circle cx="86.4904" cy="137.512" r="2.50064" fill="black"/>
<circle cx="101.494" cy="137.512" r="2.50064" fill="black"/>
<circle cx="116.498" cy="137.512" r="2.50064" fill="black"/>
<circle cx="131.502" cy="137.512" r="2.50064" fill="black"/>
<circle cx="146.506" cy="137.512" r="2.50064" fill="black"/>
<circle cx="161.509" cy="137.512" r="2.50064" fill="black"/>
<circle cx="176.513" cy="137.512" r="2.50064" fill="black"/>
<circle cx="191.517" cy="137.512" r="2.50064" fill="black"/>
<circle cx="206.521" cy="137.512" r="2.50064" fill="black"/>
<circle cx="221.525" cy="137.512" r="2.50064" fill="black"/>
<circle cx="236.529" cy="137.512" r="2.50064" fill="black"/>
<circle cx="11.4713" cy="152.516" r="2.50064" fill="black"/>
<circle cx="26.4748" cy="152.516" r="2.50064" fill="black"/>
<circle cx="41.4787" cy="152.516" r="2.50064" fill="black"/>
<circle cx="56.4826" cy="152.516" r="2.50064" fill="black"/>
<circle cx="71.4865" cy="152.516" r="2.50064" fill="black"/>
<circle cx="86.4904" cy="152.516" r="2.50064" fill="black"/>
<circle cx="101.494" cy="152.516" r="2.50064" fill="black"/>
<circle cx="116.498" cy="152.516" r="2.50064" fill="black"/>
<circle cx="131.502" cy="152.516" r="2.50064" fill="black"/>
<circle cx="146.506" cy="152.516" r="2.50064" fill="black"/>
<circle cx="161.509" cy="152.516" r="2.50064" fill="black"/>
<circle cx="176.513" cy="152.516" r="2.50064" fill="black"/>
<circle cx="191.517" cy="152.516" r="2.50064" fill="black"/>
<circle cx="206.521" cy="152.516" r="2.50064" fill="black"/>
<circle cx="221.525" cy="152.516" r="2.50064" fill="black"/>
<circle cx="236.529" cy="152.516" r="2.50064" fill="black"/>
</g>
<path d="M210 94L209.293 94.7071L209.298 94.7126L210 94ZM208.8 162.4L209.507 163.107L209.512 163.102L208.8 162.4ZM130.8 160L130.054 160.666L130.058 160.67L130.8 160ZM130 51.8L130.823 52.3675L130 51.8ZM204.2 41.8L203.568 42.575L203.574 42.5797L204.2 41.8ZM219.4 68.2V69.2H220.535L220.392 68.0744L219.4 68.2ZM190.8 68.2L189.839 68.4766L190.047 69.2H190.8V68.2ZM151.8 64.4L151.022 63.7712L151.014 63.7814L151.8 64.4ZM143.4 92L142.402 91.9451L142.344 93H143.4V92ZM148.6 92V93H149.055L149.353 92.6575L148.6 92ZM154 146.2L153.282 146.896L153.293 146.907L153.304 146.918L154 146.2ZM187.6 146.2L186.893 145.493L186.887 145.499L186.882 145.504L187.6 146.2ZM187.6 110.2L186.882 110.896L186.893 110.907L186.904 110.918L187.6 110.2ZM153.8 110L153.104 109.282L153.099 109.287L153.093 109.293L153.8 110ZM177.8 82C190.348 82 200.823 86.237 209.293 94.7071L210.707 93.2929C201.844 84.4296 190.852 80 177.8 80V82ZM209.298 94.7126C217.753 103.037 222 113.77 222 127H224C224 113.297 219.581 102.03 210.702 93.2874L209.298 94.7126ZM222 127C222 140.748 217.362 152.293 208.088 161.698L209.512 163.102C219.171 153.307 224 141.252 224 127H222ZM208.093 161.693C198.841 170.944 186.71 175.6 171.6 175.6V177.6C187.157 177.6 199.825 172.789 209.507 163.107L208.093 161.693ZM171.6 175.6C154.635 175.6 141.323 170.153 131.542 159.33L130.058 160.67C140.277 171.98 154.165 177.6 171.6 177.6V175.6ZM131.546 159.334C121.785 148.402 116.8 130.899 116.8 106.6H114.8C114.8 131.101 119.815 149.198 130.054 160.666L131.546 159.334ZM116.8 106.6C116.8 83.9302 121.507 65.8829 130.823 52.3675L129.177 51.2325C119.56 65.1838 114.8 83.6698 114.8 106.6H116.8ZM130.823 52.3675C140.077 38.9427 153.88 32.2 172.4 32.2V30.2C153.32 30.2 138.856 37.1906 129.177 51.2325L130.823 52.3675ZM172.4 32.2C184.733 32.2 195.101 35.6715 203.568 42.575L204.832 41.025C195.965 33.7952 185.134 30.2 172.4 30.2V32.2ZM203.574 42.5797C212.186 49.4953 217.109 58.0668 218.408 68.3256L220.392 68.0744C219.024 57.2665 213.814 48.238 204.826 41.0203L203.574 42.5797ZM219.4 67.2H190.8V69.2H219.4V67.2ZM191.761 67.9233C190.443 63.3455 188.11 59.8335 184.721 57.4787C181.341 55.1308 177.007 54 171.8 54V56C176.726 56 180.626 57.0692 183.579 59.1213C186.523 61.1665 188.624 64.2545 189.839 68.4766L191.761 67.9233ZM171.8 54C163.24 54 156.285 57.2628 151.022 63.7713L152.578 65.0287C157.449 59.0038 163.826 56 171.8 56V54ZM151.014 63.7814C145.903 70.2741 143.074 79.7073 142.402 91.9451L144.398 92.0549C145.059 80.026 147.83 71.0592 152.586 65.0186L151.014 63.7814ZM143.4 93H148.6V91H143.4V93ZM149.353 92.6575C155.504 85.6096 164.918 82 177.8 82V80C164.549 80 154.496 83.7237 147.847 91.3425L149.353 92.6575ZM153.304 146.918C157.915 151.39 163.844 153.6 171 153.6V151.6C164.29 151.6 158.885 149.544 154.696 145.482L153.304 146.918ZM171 153.6C178.155 153.6 183.965 151.39 188.318 146.896L186.882 145.504C182.968 149.544 177.712 151.6 171 151.6V153.6ZM188.307 146.907C192.813 142.401 195 136.048 195 128H193C193 135.685 190.92 141.466 186.893 145.493L188.307 146.907ZM195 128C195 120.081 192.811 113.856 188.296 109.482L186.904 110.918C190.923 114.811 193 120.452 193 128H195ZM188.318 109.504C183.961 105.007 178.082 102.8 170.8 102.8V104.8C177.651 104.8 182.972 106.86 186.882 110.896L188.318 109.504ZM170.8 102.8C163.526 102.8 157.592 104.934 153.104 109.282L154.496 110.718C158.541 106.799 163.94 104.8 170.8 104.8V102.8ZM153.093 109.293C148.717 113.668 146.6 119.89 146.6 127.8H148.6C148.6 120.243 150.616 114.598 154.507 110.707L153.093 109.293ZM146.6 127.8C146.6 135.85 148.787 142.261 153.282 146.896L154.718 145.504C150.679 141.339 148.6 135.484 148.6 127.8H146.6Z" fill="black"/>
<defs>
<clipPath id="clip0_1037_39672">
<rect width="248" height="71" fill="white" transform="translate(0 90)"/>
</clipPath>
</defs>
</svg>
