<svg width="248" height="200" viewBox="0 0 248 200" fill="none" xmlns="http://www.w3.org/2000/svg">
<circle cx="110" cy="120" r="80" fill="#00FA9A"/>
<g clip-path="url(#clip0_1037_35051)">
<circle cx="11.4713" cy="92.5006" r="2.50064" fill="black"/>
<circle cx="26.4748" cy="92.5006" r="2.50064" fill="black"/>
<circle cx="41.4787" cy="92.5006" r="2.50064" fill="black"/>
<circle cx="56.4826" cy="92.5006" r="2.50064" fill="black"/>
<circle cx="71.4865" cy="92.5006" r="2.50064" fill="black"/>
<circle cx="86.4904" cy="92.5006" r="2.50064" fill="black"/>
<circle cx="101.494" cy="92.5006" r="2.50064" fill="black"/>
<circle cx="116.498" cy="92.5006" r="2.50064" fill="black"/>
<circle cx="131.502" cy="92.5006" r="2.50064" fill="black"/>
<circle cx="146.506" cy="92.5006" r="2.50064" fill="black"/>
<circle cx="161.509" cy="92.5006" r="2.50064" fill="black"/>
<circle cx="176.513" cy="92.5006" r="2.50064" fill="black"/>
<circle cx="191.517" cy="92.5006" r="2.50064" fill="black"/>
<circle cx="206.521" cy="92.5006" r="2.50064" fill="black"/>
<circle cx="221.525" cy="92.5006" r="2.50064" fill="black"/>
<circle cx="236.529" cy="92.5006" r="2.50064" fill="black"/>
<circle cx="11.4713" cy="107.505" r="2.50064" fill="black"/>
<circle cx="26.4748" cy="107.505" r="2.50064" fill="black"/>
<circle cx="41.4787" cy="107.505" r="2.50064" fill="black"/>
<circle cx="56.4826" cy="107.505" r="2.50064" fill="black"/>
<circle cx="71.4865" cy="107.505" r="2.50064" fill="black"/>
<circle cx="86.4904" cy="107.505" r="2.50064" fill="black"/>
<circle cx="101.494" cy="107.505" r="2.50064" fill="black"/>
<circle cx="116.498" cy="107.505" r="2.50064" fill="black"/>
<circle cx="131.502" cy="107.505" r="2.50064" fill="black"/>
<circle cx="146.506" cy="107.505" r="2.50064" fill="black"/>
<circle cx="161.509" cy="107.505" r="2.50064" fill="black"/>
<circle cx="176.513" cy="107.505" r="2.50064" fill="black"/>
<circle cx="191.517" cy="107.505" r="2.50064" fill="black"/>
<circle cx="206.521" cy="107.505" r="2.50064" fill="black"/>
<circle cx="221.525" cy="107.505" r="2.50064" fill="black"/>
<circle cx="236.529" cy="107.505" r="2.50064" fill="black"/>
<circle cx="11.4713" cy="122.508" r="2.50064" fill="black"/>
<circle cx="26.4748" cy="122.508" r="2.50064" fill="black"/>
<circle cx="41.4787" cy="122.508" r="2.50064" fill="black"/>
<circle cx="56.4826" cy="122.508" r="2.50064" fill="black"/>
<circle cx="71.4865" cy="122.508" r="2.50064" fill="black"/>
<circle cx="86.4904" cy="122.508" r="2.50064" fill="black"/>
<circle cx="101.494" cy="122.508" r="2.50064" fill="black"/>
<circle cx="116.498" cy="122.508" r="2.50064" fill="black"/>
<circle cx="131.502" cy="122.508" r="2.50064" fill="black"/>
<circle cx="146.506" cy="122.508" r="2.50064" fill="black"/>
<circle cx="161.509" cy="122.508" r="2.50064" fill="black"/>
<circle cx="176.513" cy="122.508" r="2.50064" fill="black"/>
<circle cx="191.517" cy="122.508" r="2.50064" fill="black"/>
<circle cx="206.521" cy="122.508" r="2.50064" fill="black"/>
<circle cx="221.525" cy="122.508" r="2.50064" fill="black"/>
<circle cx="236.529" cy="122.508" r="2.50064" fill="black"/>
<circle cx="11.4713" cy="137.512" r="2.50064" fill="black"/>
<circle cx="26.4748" cy="137.512" r="2.50064" fill="black"/>
<circle cx="41.4787" cy="137.512" r="2.50064" fill="black"/>
<circle cx="56.4826" cy="137.512" r="2.50064" fill="black"/>
<circle cx="71.4865" cy="137.512" r="2.50064" fill="black"/>
<circle cx="86.4904" cy="137.512" r="2.50064" fill="black"/>
<circle cx="101.494" cy="137.512" r="2.50064" fill="black"/>
<circle cx="116.498" cy="137.512" r="2.50064" fill="black"/>
<circle cx="131.502" cy="137.512" r="2.50064" fill="black"/>
<circle cx="146.506" cy="137.512" r="2.50064" fill="black"/>
<circle cx="161.509" cy="137.512" r="2.50064" fill="black"/>
<circle cx="176.513" cy="137.512" r="2.50064" fill="black"/>
<circle cx="191.517" cy="137.512" r="2.50064" fill="black"/>
<circle cx="206.521" cy="137.512" r="2.50064" fill="black"/>
<circle cx="221.525" cy="137.512" r="2.50064" fill="black"/>
<circle cx="236.529" cy="137.512" r="2.50064" fill="black"/>
<circle cx="11.4713" cy="152.516" r="2.50064" fill="black"/>
<circle cx="26.4748" cy="152.516" r="2.50064" fill="black"/>
<circle cx="41.4787" cy="152.516" r="2.50064" fill="black"/>
<circle cx="56.4826" cy="152.516" r="2.50064" fill="black"/>
<circle cx="71.4865" cy="152.516" r="2.50064" fill="black"/>
<circle cx="86.4904" cy="152.516" r="2.50064" fill="black"/>
<circle cx="101.494" cy="152.516" r="2.50064" fill="black"/>
<circle cx="116.498" cy="152.516" r="2.50064" fill="black"/>
<circle cx="131.502" cy="152.516" r="2.50064" fill="black"/>
<circle cx="146.506" cy="152.516" r="2.50064" fill="black"/>
<circle cx="161.509" cy="152.516" r="2.50064" fill="black"/>
<circle cx="176.513" cy="152.516" r="2.50064" fill="black"/>
<circle cx="191.517" cy="152.516" r="2.50064" fill="black"/>
<circle cx="206.521" cy="152.516" r="2.50064" fill="black"/>
<circle cx="221.525" cy="152.516" r="2.50064" fill="black"/>
<circle cx="236.529" cy="152.516" r="2.50064" fill="black"/>
</g>
<path d="M144.6 76.2V77.2H145.502L145.595 76.3025L144.6 76.2ZM115.8 76.2L114.802 76.145L114.743 77.2H115.8V76.2ZM130.6 42.8L131.249 43.5608L130.6 42.8ZM202 43.2L201.333 43.9449L201.339 43.9502L201.345 43.9553L202 43.2ZM189.6 121L190.213 121.79L190.214 121.79L189.6 121ZM160.2 143.8L159.587 143.01L159.2 143.31V143.8H160.2ZM160.2 149H159.2V150H160.2V149ZM219.4 149H220.4V148H219.4V149ZM219.4 174V175H220.4V174H219.4ZM116 174H115V175H116V174ZM116 144L115.402 143.198L115 143.498V144H116ZM164 108.2L163.42 107.385L163.411 107.392L163.402 107.398L164 108.2ZM180.4 93.4L179.625 92.7679L179.623 92.7702L180.4 93.4ZM181 62L180.306 62.7203L180.32 62.7334L180.334 62.7459L181 62ZM144.6 75.2H115.8V77.2H144.6V75.2ZM116.798 76.255C117.587 61.9299 122.435 51.0784 131.249 43.5608L129.951 42.0392C120.631 49.9882 115.613 61.4034 114.802 76.145L116.798 76.255ZM131.249 43.5608C140.089 36.0205 151.971 32.2 167 32.2V30.2C151.629 30.2 139.244 34.1128 129.951 42.0392L131.249 43.5608ZM167 32.2C181.206 32.2 192.618 36.1409 201.333 43.9449L202.667 42.455C193.515 34.2591 181.594 30.2 167 30.2V32.2ZM201.345 43.9553C210.153 51.5978 214.6 62.2998 214.6 76.2H216.6C216.6 61.8335 211.98 50.5355 202.655 42.4447L201.345 43.9553ZM214.6 76.2C214.6 92.1939 206.165 106.864 188.986 120.21L190.214 121.79C207.702 108.203 216.6 93.0061 216.6 76.2H214.6ZM188.987 120.21L159.587 143.01L160.813 144.59L190.213 121.79L188.987 120.21ZM159.2 143.8V149H161.2V143.8H159.2ZM160.2 150H219.4V148H160.2V150ZM218.4 149V174H220.4V149H218.4ZM219.4 173H116V175H219.4V173ZM117 174V144H115V174H117ZM116.598 144.802L164.598 109.002L163.402 107.398L115.402 143.198L116.598 144.802ZM164.58 109.015C171.564 104.046 177.104 99.0526 181.177 94.0298L179.623 92.7702C175.696 97.614 170.303 102.488 163.42 107.385L164.58 109.015ZM181.175 94.0321C185.44 88.8041 187.6 83.0515 187.6 76.8H185.6C185.6 82.5485 183.627 87.8625 179.625 92.7679L181.175 94.0321ZM187.6 76.8C187.6 70.074 185.672 64.8309 181.666 61.2541L180.334 62.7459C183.795 65.8357 185.6 70.4593 185.6 76.8H187.6ZM181.694 61.2797C177.863 57.5909 172.656 55.8 166.2 55.8V57.8C172.277 57.8 176.937 59.4758 180.306 62.7203L181.694 61.2797ZM166.2 55.8C159.507 55.8 154.171 57.4575 150.332 60.906C146.491 64.3552 144.289 69.47 143.605 76.0974L145.595 76.3025C146.245 69.9967 148.309 65.4115 151.668 62.394C155.029 59.3758 159.826 57.8 166.2 57.8V55.8Z" fill="black"/>
<defs>
<clipPath id="clip0_1037_35051">
<rect width="248" height="71" fill="white" transform="translate(0 90)"/>
</clipPath>
</defs>
</svg>
