<svg width="248" height="200" viewBox="0 0 248 200" fill="none" xmlns="http://www.w3.org/2000/svg">
<circle cx="110" cy="120" r="80" fill="#00FA9A"/>
<g clip-path="url(#clip0_1037_43117)">
<circle cx="11.4713" cy="92.5006" r="2.50064" fill="black"/>
<circle cx="26.4748" cy="92.5006" r="2.50064" fill="black"/>
<circle cx="41.4787" cy="92.5006" r="2.50064" fill="black"/>
<circle cx="56.4826" cy="92.5006" r="2.50064" fill="black"/>
<circle cx="71.4865" cy="92.5006" r="2.50064" fill="black"/>
<circle cx="86.4904" cy="92.5006" r="2.50064" fill="black"/>
<circle cx="101.494" cy="92.5006" r="2.50064" fill="black"/>
<circle cx="116.498" cy="92.5006" r="2.50064" fill="black"/>
<circle cx="131.502" cy="92.5006" r="2.50064" fill="black"/>
<circle cx="146.506" cy="92.5006" r="2.50064" fill="black"/>
<circle cx="161.509" cy="92.5006" r="2.50064" fill="black"/>
<circle cx="176.513" cy="92.5006" r="2.50064" fill="black"/>
<circle cx="191.517" cy="92.5006" r="2.50064" fill="black"/>
<circle cx="206.521" cy="92.5006" r="2.50064" fill="black"/>
<circle cx="221.525" cy="92.5006" r="2.50064" fill="black"/>
<circle cx="236.529" cy="92.5006" r="2.50064" fill="black"/>
<circle cx="11.4713" cy="107.504" r="2.50064" fill="black"/>
<circle cx="26.4748" cy="107.505" r="2.50064" fill="black"/>
<circle cx="41.4787" cy="107.504" r="2.50064" fill="black"/>
<circle cx="56.4826" cy="107.504" r="2.50064" fill="black"/>
<circle cx="71.4865" cy="107.504" r="2.50064" fill="black"/>
<circle cx="86.4904" cy="107.504" r="2.50064" fill="black"/>
<circle cx="101.494" cy="107.505" r="2.50064" fill="black"/>
<circle cx="116.498" cy="107.504" r="2.50064" fill="black"/>
<circle cx="131.502" cy="107.504" r="2.50064" fill="black"/>
<circle cx="146.506" cy="107.504" r="2.50064" fill="black"/>
<circle cx="161.509" cy="107.504" r="2.50064" fill="black"/>
<circle cx="176.513" cy="107.505" r="2.50064" fill="black"/>
<circle cx="191.517" cy="107.504" r="2.50064" fill="black"/>
<circle cx="206.521" cy="107.504" r="2.50064" fill="black"/>
<circle cx="221.525" cy="107.504" r="2.50064" fill="black"/>
<circle cx="236.529" cy="107.504" r="2.50064" fill="black"/>
<circle cx="11.4713" cy="122.508" r="2.50064" fill="black"/>
<circle cx="26.4748" cy="122.508" r="2.50064" fill="black"/>
<circle cx="41.4787" cy="122.508" r="2.50064" fill="black"/>
<circle cx="56.4826" cy="122.508" r="2.50064" fill="black"/>
<circle cx="71.4865" cy="122.508" r="2.50064" fill="black"/>
<circle cx="86.4904" cy="122.508" r="2.50064" fill="black"/>
<circle cx="101.494" cy="122.508" r="2.50064" fill="black"/>
<circle cx="116.498" cy="122.508" r="2.50064" fill="black"/>
<circle cx="131.502" cy="122.508" r="2.50064" fill="black"/>
<circle cx="146.506" cy="122.508" r="2.50064" fill="black"/>
<circle cx="161.509" cy="122.508" r="2.50064" fill="black"/>
<circle cx="176.513" cy="122.508" r="2.50064" fill="black"/>
<circle cx="191.517" cy="122.508" r="2.50064" fill="black"/>
<circle cx="206.521" cy="122.508" r="2.50064" fill="black"/>
<circle cx="221.525" cy="122.508" r="2.50064" fill="black"/>
<circle cx="236.529" cy="122.508" r="2.50064" fill="black"/>
<circle cx="11.4713" cy="137.512" r="2.50064" fill="black"/>
<circle cx="26.4748" cy="137.512" r="2.50064" fill="black"/>
<circle cx="41.4787" cy="137.512" r="2.50064" fill="black"/>
<circle cx="56.4826" cy="137.512" r="2.50064" fill="black"/>
<circle cx="71.4865" cy="137.512" r="2.50064" fill="black"/>
<circle cx="86.4904" cy="137.512" r="2.50064" fill="black"/>
<circle cx="101.494" cy="137.512" r="2.50064" fill="black"/>
<circle cx="116.498" cy="137.512" r="2.50064" fill="black"/>
<circle cx="131.502" cy="137.512" r="2.50064" fill="black"/>
<circle cx="146.506" cy="137.512" r="2.50064" fill="black"/>
<circle cx="161.509" cy="137.512" r="2.50064" fill="black"/>
<circle cx="176.513" cy="137.512" r="2.50064" fill="black"/>
<circle cx="191.517" cy="137.512" r="2.50064" fill="black"/>
<circle cx="206.521" cy="137.512" r="2.50064" fill="black"/>
<circle cx="221.525" cy="137.512" r="2.50064" fill="black"/>
<circle cx="236.529" cy="137.512" r="2.50064" fill="black"/>
<circle cx="11.4713" cy="152.516" r="2.50064" fill="black"/>
<circle cx="26.4748" cy="152.516" r="2.50064" fill="black"/>
<circle cx="41.4787" cy="152.516" r="2.50064" fill="black"/>
<circle cx="56.4826" cy="152.516" r="2.50064" fill="black"/>
<circle cx="71.4865" cy="152.516" r="2.50064" fill="black"/>
<circle cx="86.4904" cy="152.516" r="2.50064" fill="black"/>
<circle cx="101.494" cy="152.516" r="2.50064" fill="black"/>
<circle cx="116.498" cy="152.516" r="2.50064" fill="black"/>
<circle cx="131.502" cy="152.516" r="2.50064" fill="black"/>
<circle cx="146.506" cy="152.516" r="2.50064" fill="black"/>
<circle cx="161.509" cy="152.516" r="2.50064" fill="black"/>
<circle cx="176.513" cy="152.516" r="2.50064" fill="black"/>
<circle cx="191.517" cy="152.516" r="2.50064" fill="black"/>
<circle cx="206.521" cy="152.516" r="2.50064" fill="black"/>
<circle cx="221.525" cy="152.516" r="2.50064" fill="black"/>
<circle cx="236.529" cy="152.516" r="2.50064" fill="black"/>
</g>
<path d="M126.4 114L125.693 114.707L125.698 114.713L126.4 114ZM127.6 45.6L128.307 46.3071L128.312 46.3021L127.6 45.6ZM205.6 48L204.854 48.666L204.858 48.6704L205.6 48ZM206.4 156L207.223 156.568L206.4 156ZM132 166L131.368 166.775L131.374 166.78L132 166ZM117 139.6V138.6H115.865L116.008 139.726L117 139.6ZM145.6 139.6L146.561 139.323L146.353 138.6H145.6V139.6ZM184.4 143.4L183.622 142.771L183.614 142.781L184.4 143.4ZM193 115.8L193.998 115.855L194.056 114.8H193V115.8ZM187.8 115.8V114.8H187.345L187.047 115.142L187.8 115.8ZM182.2 61.8L181.482 62.4961L181.493 62.5072L181.504 62.5179L182.2 61.8ZM148.6 61.6L147.893 60.8929L147.887 60.8985L147.882 60.9042L148.6 61.6ZM148.6 97.8L147.882 98.4958L147.893 98.5072L147.904 98.5182L148.6 97.8ZM182.4 97.8L181.704 97.0818L181.699 97.0873L181.693 97.0929L182.4 97.8ZM158.6 125.8C146.047 125.8 135.571 121.626 127.102 113.287L125.698 114.713C134.563 123.441 145.553 127.8 158.6 127.8V125.8ZM127.107 113.293C118.647 104.833 114.4 94.0302 114.4 80.8H112.4C112.4 94.5031 116.819 105.833 125.693 114.707L127.107 113.293ZM114.4 80.8C114.4 67.0517 119.037 55.5769 128.307 46.3071L126.893 44.8929C117.229 54.5564 112.4 66.5483 112.4 80.8H114.4ZM128.312 46.3021C137.564 36.9195 149.694 32.2 164.8 32.2V30.2C149.239 30.2 136.569 35.0805 126.888 44.8979L128.312 46.3021ZM164.8 32.2C181.761 32.2 195.072 37.7105 204.854 48.666L206.346 47.334C196.128 35.8895 182.239 30.2 164.8 30.2V32.2ZM204.858 48.6704C214.614 59.4671 219.6 76.8997 219.6 101.2H221.6C221.6 76.7002 216.586 58.6662 206.342 47.3295L204.858 48.6704ZM219.6 101.2C219.6 123.87 214.893 141.917 205.577 155.432L207.223 156.568C216.84 142.616 221.6 124.13 221.6 101.2H219.6ZM205.577 155.432C196.323 168.857 182.52 175.6 164 175.6V177.6C183.08 177.6 197.544 170.609 207.223 156.568L205.577 155.432ZM164 175.6C151.668 175.6 141.229 172.129 132.626 165.22L131.374 166.78C140.371 174.005 151.266 177.6 164 177.6V175.6ZM132.632 165.225C124.153 158.311 119.291 149.738 117.992 139.474L116.008 139.726C117.375 150.528 122.514 159.556 131.368 166.775L132.632 165.225ZM117 140.6H145.6V138.6H117V140.6ZM144.639 139.877C145.957 144.454 148.29 147.966 151.679 150.321C155.059 152.669 159.393 153.8 164.6 153.8V151.8C159.674 151.8 155.774 150.731 152.821 148.679C149.877 146.634 147.776 143.546 146.561 139.323L144.639 139.877ZM164.6 153.8C173.16 153.8 180.055 150.536 185.186 144.019L183.614 142.781C178.878 148.797 172.573 151.8 164.6 151.8V153.8ZM185.178 144.029C190.428 137.535 193.326 128.097 193.998 115.855L192.002 115.745C191.341 127.769 188.505 136.732 183.622 142.771L185.178 144.029ZM193 114.8H187.8V116.8H193V114.8ZM187.047 115.142C180.896 122.19 171.482 125.8 158.6 125.8V127.8C171.851 127.8 181.904 124.076 188.553 116.458L187.047 115.142ZM182.918 61.1038C178.437 56.4834 172.565 54.2 165.4 54.2V56.2C172.102 56.2 177.429 58.3166 181.482 62.4961L182.918 61.1038ZM165.4 54.2C158.244 54.2 152.375 56.4104 147.893 60.8929L149.307 62.3071C153.358 58.2563 158.689 56.2 165.4 56.2V54.2ZM147.882 60.9042C143.515 65.4116 141.4 71.7604 141.4 79.8H143.4C143.4 72.1063 145.418 66.3217 149.318 62.2958L147.882 60.9042ZM141.4 79.8C141.4 87.7118 143.518 93.9914 147.882 98.4958L149.318 97.1042C145.415 93.0753 143.4 87.3549 143.4 79.8H141.4ZM147.904 98.5182C152.392 102.866 158.326 105 165.6 105V103C158.74 103 153.341 101.001 149.296 97.0818L147.904 98.5182ZM165.6 105C172.873 105 178.748 102.866 183.107 98.5071L181.693 97.0929C177.785 101.001 172.461 103 165.6 103V105ZM183.096 98.5182C187.611 94.1443 189.8 87.9185 189.8 80H187.8C187.8 87.5482 185.723 93.189 181.704 97.0818L183.096 98.5182ZM189.8 80C189.8 71.9435 187.542 65.5867 182.896 61.0821L181.504 62.5179C185.658 66.5466 187.8 72.3232 187.8 80H189.8Z" fill="black"/>
<defs>
<clipPath id="clip0_1037_43117">
<rect width="248" height="71" fill="white" transform="translate(0 90)"/>
</clipPath>
</defs>
</svg>
