<svg width="16" height="31" viewBox="0 0 16 31" fill="none" xmlns="http://www.w3.org/2000/svg">
<path fill-rule="evenodd" clip-rule="evenodd" d="M16 5.25L4 9V27L16 30.75V18V5.25ZM16 18C16 15.7909 14.2091 14 12 14C9.79086 14 8 15.7909 8 18C8 20.2091 9.79086 22 12 22C14.2091 22 16 20.2091 16 18Z" fill="black"/>
<path fill-rule="evenodd" clip-rule="evenodd" d="M16 0L0 5V23L16 28V0ZM8 18C10.2091 18 12 16.2091 12 14C12 11.7909 10.2091 10 8 10C5.79086 10 4 11.7909 4 14C4 16.2091 5.79086 18 8 18Z" fill="#00FA9A"/>
</svg>
