<svg width="16" height="31" viewBox="0 0 16 31" fill="none" xmlns="http://www.w3.org/2000/svg">
<path fill-rule="evenodd" clip-rule="evenodd" d="M15.97 5.25L3.96997 9V27L15.97 30.75V18V5.25ZM15.97 18C15.97 15.7909 14.1791 14 11.97 14C9.76083 14 7.96997 15.7909 7.96997 18C7.96997 20.2091 9.76083 22 11.97 22C14.1791 22 15.97 20.2091 15.97 18Z" fill="black"/>
<path fill-rule="evenodd" clip-rule="evenodd" d="M16 0L0 5V23L16 28V0ZM8 18C10.2091 18 12 16.2091 12 14C12 11.7909 10.2091 10 8 10C5.79086 10 4 11.7909 4 14C4 16.2091 5.79086 18 8 18Z" fill="white"/>
</svg>
