<svg width="40" height="25" viewBox="0 0 40 25" fill="none" xmlns="http://www.w3.org/2000/svg">
<path d="M4.83526 11.6827V12.433C5.41477 12.6116 5.89467 12.9778 6.27498 13.5316C6.65528 14.0854 6.84543 14.7731 6.84543 15.5949V17.8189C6.84543 18.8192 7.02652 19.5606 7.38872 20.0429C7.75091 20.5252 8.36663 20.7663 9.2359 20.7663H10.241V24.1158H8.42096C6.68244 24.1158 5.32422 23.6245 4.3463 22.642C3.36839 21.6595 2.87943 20.3912 2.87943 18.8371V16.3719C2.87943 14.6749 2.18221 13.8264 0.787768 13.8264H0L0 10.2894H0.787768C2.18221 10.2894 2.87943 9.44087 2.87943 7.74384V5.27867C2.87943 3.72454 3.36839 2.45623 4.3463 1.47374C5.32422 0.491247 6.68244 0 8.42096 0L10.241 0V3.34941H9.2359C8.36663 3.34941 7.75091 3.59057 7.38872 4.07288C7.02652 4.5552 6.84543 5.29653 6.84543 6.29689L6.84543 8.5209C6.84543 9.34262 6.65528 10.0304 6.27498 10.5841C5.89467 11.1379 5.41477 11.5041 4.83526 11.6827Z" fill="#00FA9A"/>
<path d="M27.5235 12.9689C27.5235 13.8621 27.2609 14.6034 26.7357 15.1929C26.2286 15.7824 25.6491 16.1844 24.9972 16.3987V17.149C25.8302 17.7921 26.2467 18.7835 26.2467 20.1233C26.2467 21.5345 25.6582 22.6956 24.4811 23.6066C23.322 24.5355 21.7375 25 19.7273 25C17.8258 25 16.2865 24.5088 15.1093 23.5263C13.9322 22.5616 13.2893 21.1772 13.1807 19.373H17.4726C17.6175 20.7128 18.4415 21.3826 19.9446 21.3826C21.2847 21.3826 21.9548 20.9182 21.9548 19.9893C21.9548 19.3105 21.3753 18.8192 20.2163 18.5155L16.7392 17.6045C15.3448 17.2472 14.2854 16.7292 13.561 16.0504C12.8366 15.3537 12.4744 14.4159 12.4744 13.2369C12.4744 12.308 12.7279 11.5577 13.235 10.9861C13.7602 10.4144 14.3487 10.0214 15.0007 9.80707V9.05681C14.1676 8.41372 13.7511 7.4223 13.7511 6.08253C13.7511 4.67131 14.3306 3.51018 15.4896 2.59914C16.6668 1.67024 18.2604 1.20579 20.2706 1.20579C22.1721 1.20579 23.7114 1.6881 24.8885 2.65273C26.0657 3.5995 26.7085 4.97499 26.8172 6.77921L22.5252 6.77921C22.3985 5.47517 21.5745 4.82315 20.0533 4.82315C18.7132 4.82315 18.0431 5.2876 18.0431 6.21651C18.0431 6.57378 18.1789 6.86852 18.4506 7.10075C18.7222 7.31511 19.1659 7.51161 19.7816 7.69025C20.1257 7.79743 20.7143 7.9582 21.5473 8.17256C22.3803 8.36906 22.9508 8.51197 23.2587 8.60129C24.6531 8.94069 25.7125 9.45874 26.4369 10.1554C27.1613 10.8342 27.5235 11.7721 27.5235 12.9689ZM19.9174 14.6302L22.0906 15.2465C22.4528 15.1215 22.7335 14.916 22.9327 14.6302C23.15 14.3265 23.2587 14.005 23.2587 13.6656C23.2587 12.8796 22.7607 12.3437 21.7646 12.0579L20.0804 11.5756C18.9757 11.2719 18.2514 11.0665 17.9073 10.9593C17.1286 11.2094 16.7392 11.7363 16.7392 12.5402C16.7392 13.3262 17.2372 13.8621 18.2332 14.1479C18.7946 14.3265 19.356 14.4873 19.9174 14.6302Z" fill="#00FA9A"/>
<path d="M35.1647 12.433V11.6827C34.5852 11.5041 34.1053 11.1379 33.725 10.5841C33.3447 10.0304 33.1546 9.34262 33.1546 8.5209V6.29689C33.1546 5.29653 32.9735 4.5552 32.6113 4.07288C32.2491 3.59057 31.6334 3.34941 30.7641 3.34941H29.759V0L31.579 0C33.3176 0 34.6758 0.491247 35.6537 1.47374C36.6316 2.45623 37.1206 3.72454 37.1206 5.27867V7.74384C37.1206 9.44087 37.8178 10.2894 39.2122 10.2894H40V13.8264H39.2122C37.8178 13.8264 37.1206 14.6749 37.1206 16.3719V18.8371C37.1206 20.3912 36.6316 21.6595 35.6537 22.642C34.6758 23.6245 33.3176 24.1158 31.579 24.1158H29.759V20.7663H30.7641C31.6334 20.7663 32.2491 20.5252 32.6113 20.0429C32.9735 19.5606 33.1546 18.8192 33.1546 17.8189V15.5949C33.1546 14.7731 33.3447 14.0854 33.725 13.5316C34.1053 12.9778 34.5852 12.6116 35.1647 12.433Z" fill="#00FA9A"/>
</svg>
