<svg width="32" height="32" viewBox="0 0 32 32" fill="none" xmlns="http://www.w3.org/2000/svg">
<rect width="32" height="32" fill="#00FA9A"/>
<rect width="24" height="24" transform="translate(4 4)" fill="#00FA9A"/>
<path d="M21.9565 10.981C21.7735 10.798 21.4766 10.798 21.2935 10.981L20.356 11.9185C20.173 12.1016 20.173 12.3984 20.356 12.5815C20.5392 12.7646 20.8359 12.7645 21.019 12.5815L21.9565 11.644C22.1396 11.4609 22.1396 11.1641 21.9565 10.981Z" fill="black"/>
<path d="M10.7065 10.981C10.5234 10.798 10.2266 10.798 10.0435 10.981L9.10604 11.9185C8.92299 12.1016 8.92299 12.3984 9.10604 12.5815C9.28918 12.7646 9.58594 12.7645 9.76899 12.5815L10.7065 11.644C10.8895 11.4609 10.8895 11.1641 10.7065 10.981Z" fill="black"/>
<path d="M19.6128 9.106C19.4297 8.923 19.1329 8.923 18.9498 9.106L18.0123 10.0435C17.8292 10.2265 17.8292 10.5234 18.0123 10.7065C18.1954 10.8895 18.4922 10.8895 18.6752 10.7065L19.6128 9.76895C19.7958 9.58591 19.7958 9.28909 19.6128 9.106Z" fill="black"/>
<path d="M13.9877 9.106C13.8047 8.923 13.5079 8.923 13.3248 9.106L12.3873 10.0435C12.2042 10.2265 12.2042 10.5234 12.3873 10.7065C12.5704 10.8895 12.8672 10.8895 13.0502 10.7065L13.9877 9.76895C14.1708 9.58591 14.1708 9.28909 13.9877 9.106Z" fill="black"/>
<path d="M16.3315 10.981C16.1484 10.798 15.8516 10.798 15.6685 10.981L14.731 11.9185C14.548 12.1016 14.548 12.3984 14.731 12.5815C14.9142 12.7646 15.2109 12.7645 15.394 12.5815L16.3315 11.644C16.5145 11.4609 16.5145 11.1641 16.3315 10.981Z" fill="black"/>
<path d="M28 20.6875C28 19.9121 27.3692 19.2812 26.5938 19.2812H26.125V17.7705C26.1443 17.7537 26.164 17.7376 26.183 17.7203C26.4872 17.443 27.1228 17.2656 27.5372 17.2604C27.796 17.2571 28.0032 17.0446 28 16.7858C27.9967 16.5289 27.7875 16.3229 27.5313 16.3229C27.5294 16.3229 27.5273 16.3229 27.5253 16.323C27.1231 16.328 26.5887 16.4348 26.125 16.654V15.4253C26.6957 15.1917 27.0752 14.6041 26.9937 13.9518C26.4408 9.50762 22.6415 6.15625 18.1562 6.15625H13.8438C9.35847 6.15625 5.5592 9.50762 5.00627 13.9516C4.92503 14.602 5.30191 15.1908 5.875 15.4254V16.6334C5.40958 16.4225 4.87389 16.3171 4.46261 16.323C4.20377 16.3263 3.99667 16.539 4.00005 16.7979C4.00342 17.0546 4.21263 17.2604 4.46866 17.2604C4.47072 17.2604 4.47283 17.2604 4.47494 17.2604C4.89409 17.254 5.54472 17.4291 5.86206 17.7185C5.86628 17.7224 5.87078 17.7261 5.87505 17.7299V19.2812H5.40625C4.62934 19.2812 4 19.9105 4 20.6875C4 21.3843 4.50953 21.964 5.17553 22.0745C5.06598 22.3637 5.05811 22.6796 5.15969 22.9798C5.74066 24.6928 7.34673 25.8438 9.15625 25.8438H22.8438C24.6533 25.8438 26.2593 24.6928 26.8405 22.9795C26.9419 22.6796 26.9341 22.3638 26.8246 22.0747C27.478 21.9672 28 21.3986 28 20.6875ZM5.93655 14.0675C6.43127 10.0918 9.83059 7.09375 13.8438 7.09375H18.1562C22.1694 7.09375 25.5687 10.0918 26.0635 14.0678C26.0973 14.3387 25.8859 14.5745 25.6249 14.592C25.6218 14.5922 25.6187 14.5925 25.6156 14.5928C25.6076 14.5935 25.5996 14.5938 25.5916 14.5938H6.40844C6.13234 14.5938 5.90125 14.3507 5.93655 14.0675ZM23.3705 17.0275C22.3405 16.0882 20.9564 16.0882 19.9263 17.0275C19.2537 17.6408 18.4181 17.6408 17.7455 17.0275C16.7155 16.0882 15.3314 16.0882 14.3013 17.0275C13.6287 17.6408 12.7931 17.6408 12.1205 17.0275C11.0905 16.0882 9.70638 16.0881 8.6762 17.0276C8.10616 17.5478 7.42323 17.6304 6.8125 17.2645V15.5312H25.1875V17.2916C24.5894 17.6244 23.9241 17.5323 23.3705 17.0275ZM25.1875 18.3083V19.2812H6.8125V18.2942C7.06595 18.3819 7.32606 18.4258 7.58594 18.4257C8.19086 18.4257 8.79419 18.1891 9.30808 17.7202C9.98064 17.1069 10.8163 17.1069 11.4888 17.7202C12.5189 18.6596 13.903 18.6596 14.9331 17.7202C15.6057 17.1069 16.4413 17.1069 17.1138 17.7202C18.1439 18.6596 19.528 18.6596 20.5581 17.7202C21.2306 17.1069 22.0663 17.107 22.7388 17.7202C23.4559 18.3742 24.3562 18.5752 25.1875 18.3083ZM25.9525 22.6787C25.5006 24.011 24.2513 24.9062 22.8438 24.9062H9.15625C7.74869 24.9062 6.49937 24.011 6.04764 22.679C5.95037 22.3916 6.19848 22.0938 6.50594 22.0938H25.4941C25.8026 22.0938 26.0492 22.393 25.9525 22.6787ZM26.5938 21.1562H5.40625C5.14778 21.1562 4.9375 20.946 4.9375 20.6875C4.9375 20.4287 5.14745 20.2188 5.40625 20.2188H26.5938C26.8522 20.2188 27.0625 20.429 27.0625 20.6875C27.0625 20.9463 26.8525 21.1562 26.5938 21.1562Z" fill="black"/>
</svg>
