<svg width="40" height="74" viewBox="0 0 40 74" fill="none" xmlns="http://www.w3.org/2000/svg">
<path d="M25.996 28.2252V28.7252H26.496H38.8724L36.9476 41.125H26.496H25.996V41.625V73.5H25.9758H25.9476H25.9194H25.8913H25.8632H25.8353H25.8073H25.7795H25.7517H25.724H25.6963H25.6687H25.6412H25.6137H25.5863H25.5589H25.5316H25.5044H25.4772H25.4501H25.423H25.396H25.3691H25.3422H25.3153H25.2886H25.2618H25.2352H25.2086H25.182H25.1555H25.1291H25.1027H25.0764H25.0501H25.0238H24.9977H24.9715H24.9455H24.9194H24.8935H24.8675H24.8417H24.8158H24.79H24.7643H24.7386H24.713H24.6874H24.6619H24.6364H24.6109H24.5855H24.5602H24.5349H24.5096H24.4844H24.4592H24.434H24.409H24.3839H24.3589H24.3339H24.309H24.2841H24.2593H24.2344H24.2097H24.1849H24.1603H24.1356H24.111H24.0864H24.0619H24.0374H24.0129H23.9885H23.9641H23.9397H23.9154H23.8911H23.8668H23.8426H23.8184H23.7942H23.7701H23.746H23.7219H23.6979H23.6739H23.6499H23.6259H23.602H23.5781H23.5543H23.5304H23.5066H23.4829H23.4591H23.4354H23.4117H23.388H23.3644H23.3407H23.3171H23.2935H23.27H23.2465H23.223H23.1995H23.176H23.1526H23.1291H23.1057H23.0823H23.059H23.0356H23.0123H22.989H22.9657H22.9425H22.9192H22.896H22.8727H22.8495H22.8263H22.8032H22.78H22.7569H22.7337H22.7106H22.6875H22.6644H22.6413H22.6183H22.5952H22.5722H22.5491H22.5261H22.5031H22.4801H22.4571H22.4341H22.4111H22.3882H22.3652H22.3423H22.3193H22.2964H22.2734H22.2505H22.2276H22.2046H22.1817H22.1588H22.1359H22.113H22.0901H22.0672H22.0443H22.0214H21.9985H21.9756H21.9527H21.9298H21.9069H21.884H21.8611H21.8381H21.8152H21.7923H21.7694H21.7465H21.7236H21.7006H21.6777H21.6548H21.6318H21.6089H21.5859H21.563H21.54H21.517H21.494H21.471H21.448H21.425H21.402H21.3789H21.3559H21.3328H21.3098H21.2867H21.2636H21.2405H21.2174H21.1943H21.1711H21.1479H21.1248H21.1016H21.0784H21.0552H21.0319H21.0087H20.9854H20.9621H20.9388H20.9155H20.8921H20.8688H20.8454H20.822H20.7986H20.7751H20.7516H20.7282H20.7046H20.6811H20.6576H20.634H20.6104H20.5867H20.5631H20.5394H20.5157H20.492H20.4682H20.4445H20.4206H20.3968H20.3729H20.3491H20.3251H20.3012H20.2772H20.2532H20.2292H20.2051H20.181H20.1569H20.1327H20.1085H20.0843H20.06H20.0357H20.0114H19.987H19.9626H19.9382H19.9137H19.8892H19.8647H19.8401H19.8155H19.7908H19.7661H19.7414H19.7166H19.6918H19.667H19.6421H19.6171H19.5922H19.5671H19.5421H19.517H19.4919H19.4667H19.4414H19.4162H19.3909H19.3655H19.3401H19.3146H19.2892H19.2636H19.238H19.2124H19.1867H19.161H19.1352H19.1094H19.0835H19.0576H19.0316H19.0056H18.9795H18.9533H18.9272H18.9009H18.8746H18.8483H18.8219H18.7955H18.769H18.7424H18.7158H18.6891H18.6624H18.6356H18.6088H18.5819H18.555H18.528H18.5009H18.4738H18.4466H18.4194H18.3921H18.3647H18.3373H18.3098H18.2822H18.2546H18.227H18.1992H18.1714H18.1436H18.1157H18.0877H18.0596H18.0315H18.0033H17.9751H17.9468H17.9184H17.8899H17.8614H17.8328H17.8042H17.7755H17.7467H17.7178H17.6889H17.6599H17.6308H17.6017H17.5725H17.5432H17.5138H17.4844H17.4549H17.4253H17.3956H17.3659H17.3361H17.3062H17.2763H17.2462H17.2161H17.1859H17.1557H17.1253H17.0949H17.0644H17.0338H17.0032H16.9725H16.9416H16.9107H16.8798H16.8487H16.8176H16.7863H16.755H16.7236H16.6922H16.6606H16.629H16.5972H16.5654H16.5335H16.5016H16.4695H16.4373H16.4051H16.3727H16.3403H16.3078H16.2752H16.2425H16.2098H16.1769H16.1439H16.1109H16.0777H16.0445H16.0112H15.9778H15.9443H15.9107H15.877H15.8432H15.8093H15.7753H15.7412H15.707H15.6728H15.6384H15.6039H15.5694H15.5347H15.5H15.4651H15.4302H15.3951H15.3599H15.3247H15.2893H15.2539H15.2183H15.1827H15.1469H15.111H15.0751H15.039H15.0028H14.9665H14.9301H14.8936H14.857H14.8203H14.7835H14.7466H14.7096H14.6725H14.6352H14.5979H14.5604H14.5228H14.4852H14.4474H14.4095H14.3715H14.3333H14.2951H14.2568H14.2183H14.1797H14.141H14.1022H14.0633H14.0243H13.9852H13.9459H13.9065H13.867H13.8274H13.7877H13.7478H13.7079H13.6678H13.6276H13.5873H13.5468H13.5063H13.4656H13.4248H13.3839H13.3428H13.3017H13.2604H13.219H13.1774H13.1358H13.094H13.0521H13.0101H12.9679H12.9256H12.8832H12.8407H12.798H12.7552H12.7123H12.6693H12.6261H12.5828H12.5394H12.4958H12.4521H12.4083H12.372V41.625V41.125H11.872H0.5V28.7252H11.872H12.372V28.2252V18.0248C12.372 12.2804 14.0839 7.91453 17.0475 4.98453C20.0118 2.05386 24.2881 0.500684 29.5325 0.5C32.8713 0.54659 36.2022 0.829069 39.5 1.3452V11.8228H34.1442C33.0773 11.6871 31.9931 11.7883 30.9701 12.1191C29.9366 12.4534 28.9919 13.0137 28.2061 13.7589C27.4203 14.5041 26.8136 15.4152 26.4312 16.4247C26.0515 17.4271 25.9029 18.5009 25.996 19.5676V28.2252Z" stroke="#00FA9A"/>
</svg>
