<svg width="72" height="49" viewBox="0 0 72 49" fill="none" xmlns="http://www.w3.org/2000/svg">
<path d="M30.1347 35.0523L47.1587 26.6602V26.8392L47.921 26.3694C48.2249 26.1822 48.3998 25.9017 48.4387 25.5807C48.4743 25.2864 48.3909 25.0035 48.2833 24.7743C48.0694 24.3184 47.6734 23.8911 47.3194 23.6495L47.2976 23.6346L47.2743 23.6221L30.1956 14.4377C30.1945 14.4371 30.1934 14.4365 30.1923 14.4359C29.8963 14.2731 29.5049 14.2352 29.1588 14.2418C28.7906 14.2488 28.385 14.3086 28.0068 14.4078C27.6327 14.5059 27.2554 14.6505 26.9591 14.8438C26.6888 15.0202 26.3468 15.3311 26.3468 15.7938V33.6875C26.3468 34.1604 26.6583 34.4868 26.9545 34.684C27.2581 34.8862 27.642 35.023 28.0149 35.1097C28.3931 35.1976 28.7941 35.2419 29.1527 35.2396C29.4883 35.2374 29.8594 35.1946 30.1347 35.0523ZM66.1757 4.85379C69.0022 7.64043 70.5887 11.4184 70.5887 15.3563V33.6438C70.5887 35.5937 70.1992 37.5247 69.4421 39.3267C68.6851 41.1286 67.5753 42.7663 66.1757 44.1462C64.7761 45.5261 63.1142 46.621 61.2846 47.3682C59.455 48.1153 57.4939 48.5 55.5132 48.5H15.5757C13.5949 48.5 11.6337 48.1153 9.80411 47.3682C7.97454 46.621 6.31257 45.5261 4.91299 44.1462C3.51342 42.7663 2.40364 41.1286 1.64659 39.3267C0.889544 37.5247 0.5 35.5937 0.5 33.6438V15.3563C0.5 11.4184 2.08653 7.64043 4.91299 4.85379C7.73969 2.0669 11.5751 0.5 15.5757 0.5H55.5132C59.5137 0.5 63.349 2.0669 66.1757 4.85379Z" stroke="#00FA9A"/>
</svg>
