<svg width="90" height="90" viewBox="0 0 90 90" fill="none" xmlns="http://www.w3.org/2000/svg">
<mask id="path-1-outside-1_1667_39925" maskUnits="userSpaceOnUse" x="1" y="1" width="23" height="89" fill="black">
<rect fill="white" x="1" y="1" width="23" height="89"/>
<path d="M3.39438 30.7111H21.3311V88.5143H3.39438L3.39438 30.7111ZM12.3944 2C14.4502 2 16.4598 2.61092 18.1692 3.75558C19.8785 4.90025 21.2109 6.52729 21.9976 8.43081C22.7843 10.3343 22.9901 12.4288 22.5891 14.4496C22.188 16.4703 21.198 18.3265 19.7443 19.7834C18.2906 21.2403 16.4385 22.2325 14.4222 22.6344C12.4059 23.0364 10.316 22.8301 8.41667 22.0416C6.51734 21.2532 4.89397 19.9179 3.75182 18.2048C2.60967 16.4917 2 14.4776 2 12.4173C2 9.65445 3.09513 7.00479 5.04446 5.05117C6.99379 3.09754 9.63763 2 12.3944 2Z"/>
</mask>
<path d="M3.39438 30.7111V29.7111H2.39438V30.7111H3.39438ZM21.3311 30.7111H22.3311V29.7111H21.3311V30.7111ZM21.3311 88.5143V89.5143H22.3311V88.5143H21.3311ZM3.39438 88.5143H2.39438V89.5143H3.39438V88.5143ZM2 12.4173H3H2ZM3.39438 31.7111H21.3311V29.7111H3.39438V31.7111ZM20.3311 30.7111V88.5143H22.3311V30.7111H20.3311ZM21.3311 87.5143H3.39438V89.5143H21.3311V87.5143ZM4.39438 88.5143L4.39438 30.7111H2.39438L2.39438 88.5143H4.39438ZM12.3944 3C14.252 3 16.0679 3.55199 17.6128 4.58649L18.7256 2.92468C16.8517 1.66984 14.6485 1 12.3944 1V3ZM17.6128 4.58649C19.1576 5.62101 20.3621 7.09173 21.0734 8.81277L22.9218 8.04884C22.0596 5.96286 20.5994 4.17949 18.7256 2.92468L17.6128 4.58649ZM21.0734 8.81277C21.7847 10.5338 21.9709 12.4277 21.6082 14.2549L23.5699 14.6443C24.0094 12.43 23.7839 10.1348 22.9218 8.04884L21.0734 8.81277ZM21.6082 14.2549C21.2456 16.0821 20.3504 17.7602 19.0364 19.0771L20.4522 20.4897C22.0456 18.8929 23.1305 16.8586 23.5699 14.6443L21.6082 14.2549ZM19.0364 19.0771C17.7225 20.394 16.0486 21.2905 14.2267 21.6537L14.6177 23.6151C16.8285 23.1744 18.8588 22.0866 20.4522 20.4897L19.0364 19.0771ZM14.2267 21.6537C12.4048 22.0169 10.5164 21.8305 8.80008 21.1181L8.03327 22.9652C10.1156 23.8296 12.407 24.0558 14.6177 23.6151L14.2267 21.6537ZM8.80008 21.1181C7.08374 20.4056 5.6164 19.1988 4.58386 17.6501L2.91979 18.7595C4.17155 20.6371 5.95095 22.1008 8.03327 22.9652L8.80008 21.1181ZM4.58386 17.6501C3.5513 16.1013 3 14.2803 3 12.4173H1C1 14.6749 1.66805 16.882 2.91979 18.7595L4.58386 17.6501ZM3 12.4173C3 9.91896 3.99031 7.52341 5.75234 5.75749L4.33658 4.34484C2.19996 6.48616 1 9.38994 1 12.4173H3ZM5.75234 5.75749C7.51431 3.99165 9.90356 3 12.3944 3V1C9.3717 1 6.47327 2.20344 4.33658 4.34484L5.75234 5.75749Z" fill="#00FA9A" mask="url(#path-1-outside-1_1667_39925)"/>
<path d="M32.4157 30.2109H31.9179L31.9157 30.7087L31.6621 88.5755L31.6599 89.0777H32.1621H50.0354H50.5354V88.5777V59.9936C50.5354 56.2241 50.9036 52.6203 52.3667 49.9687C53.0919 48.6545 54.0841 47.5782 55.4386 46.8265C56.7958 46.0733 58.5462 45.6299 60.8101 45.6299C63.0568 45.6299 64.6962 46.1686 65.9052 47.035C67.1162 47.9028 67.9385 49.1303 68.4956 50.5813C69.6206 53.5112 69.627 57.238 69.627 60.4382V88.5777V89.0777H70.127H88.0004H88.5004V88.5777V56.8176C88.5004 49.0264 87.681 42.0237 84.5021 36.9636C81.2904 31.8514 75.7355 28.8152 66.5223 28.8134C63.046 28.705 59.6039 29.5296 56.5524 31.2019C53.9948 32.6036 51.7894 34.5579 50.0917 36.9152V30.7109V30.2109H49.5917H32.4157Z" stroke="#00FA9A"/>
</svg>
