<svg width="75" height="75" viewBox="0 0 75 75" fill="none" xmlns="http://www.w3.org/2000/svg">
<path d="M37.3022 49.2865H37.8022V49.1899C40.8407 49.0654 43.7304 47.8095 45.8973 45.6587C48.1827 43.3901 49.4785 40.3101 49.5023 37.09V37.0863C49.5023 34.6734 48.7867 32.3146 47.4462 30.3083C46.1056 28.302 44.2002 26.7383 41.9709 25.8149C39.7416 24.8915 37.2886 24.6499 34.922 25.1206C32.5554 25.5914 30.3816 26.7533 28.6754 28.4596C26.9692 30.1658 25.8073 32.3396 25.3365 34.7062C24.8658 37.0728 25.1073 39.5258 26.0307 41.7551C26.9541 43.9844 28.5178 45.8898 30.5241 47.2304C32.5304 48.5709 34.8893 49.2865 37.3022 49.2865ZM22.2777 6.45099L22.2763 6.451C18.0943 6.46276 14.0868 8.12929 11.1297 11.0865C8.17248 14.0437 6.50591 18.0511 6.49414 22.2331V22.2345L6.49414 51.8086L6.49415 51.8101C6.50595 55.9884 8.17408 59.9915 11.1328 62.9419C14.0915 65.8923 18.0994 67.5491 22.2777 67.549H51.8086C55.987 67.5491 59.9949 65.8923 62.9536 62.9419C65.9123 59.9915 67.5804 55.9884 67.5922 51.8101V51.8086V22.2345V22.2331C67.5805 18.0511 65.9139 14.0437 62.9567 11.0865C59.9995 8.12929 55.9921 6.46276 51.81 6.45099H51.8086L22.2777 6.45099ZM54.4801 14.3545C55.1079 13.9351 55.8458 13.7112 56.6008 13.7112C57.6133 13.7112 58.5843 14.1134 59.3002 14.8293C60.0161 15.5452 60.4182 16.5161 60.4182 17.5286C60.4182 18.2836 60.1944 19.0217 59.7749 19.6494C59.3555 20.2772 58.7592 20.7665 58.0617 21.0554C57.3642 21.3443 56.5967 21.4199 55.8562 21.2726C55.1157 21.1253 54.4354 20.7618 53.9016 20.2279C53.3677 19.694 53.0041 19.0138 52.8568 18.2733C52.7095 17.5329 52.7852 16.7653 53.0741 16.0678C53.363 15.3702 53.8523 14.774 54.4801 14.3545ZM27.4169 22.343C30.3444 20.3944 33.7844 19.3587 37.301 19.367C41.9974 19.3781 46.4982 21.2486 49.819 24.5695C53.1399 27.8903 55.0104 32.3911 55.0215 37.0875C55.0298 40.6042 53.994 44.0442 52.0455 46.9716C50.0969 49.8991 47.3233 52.1823 44.0759 53.5319C40.8285 54.8815 37.2535 55.2368 33.804 54.5527C30.3545 53.8687 27.1857 52.1761 24.699 49.6895C22.2123 47.2028 20.5198 44.034 19.8358 40.5845C19.1517 37.135 19.507 33.56 20.8566 30.3126C22.2062 27.0653 24.4894 24.2916 27.4169 22.343ZM51.8077 73.5432H22.2777C16.5092 73.5432 10.9764 71.2546 6.89346 67.1796C2.81067 63.1047 0.511308 57.5765 0.5 51.8082V22.235C0.511279 16.474 2.80484 10.9522 6.87851 6.87851C10.9522 2.80484 16.474 0.511279 22.235 0.5H51.8081C57.5691 0.511279 63.091 2.80484 67.1646 6.87851C71.2384 10.9523 73.532 16.4743 73.5431 22.2355V51.8077C73.532 57.5689 71.2384 63.0909 67.1646 67.1647C63.0909 71.2385 57.5689 73.532 51.8077 73.5432Z" stroke="#00FA9A"/>
</svg>
