<svg width="64" height="65" viewBox="0 0 64 65" fill="none" xmlns="http://www.w3.org/2000/svg">
<g clip-path="url(#clip0)">
<path d="M63.9918 16.6775C63.9693 14.5922 63.8215 12.4913 63.7 10.407C63.6292 9.19153 63.5553 7.70278 62.5991 6.80853C61.418 5.70403 59.37 5.23703 57.8313 5.08903C55.9063 4.90403 53.9376 4.77703 52.0025 4.75403C48.525 4.71266 45.0502 4.88841 41.5757 4.87053C38.1188 4.85278 34.662 4.67566 31.2028 4.67578C23.5528 4.67591 15.9546 4.88153 8.31771 5.25516C5.46209 5.39491 2.25646 5.79528 1.21321 8.84166C0.677464 10.4058 0.610839 12.3777 0.460839 14.0272C0.307089 15.7174 0.139339 17.3972 0.0778392 19.0958C-0.176036 26.0983 0.278464 33.0973 0.208089 40.1078C0.192214 41.6857 0.272214 43.3854 0.514714 44.948C0.748964 46.457 1.52296 47.2659 2.90359 47.848C5.99459 49.1515 9.96946 48.9368 13.2625 48.9604C16.2066 48.9815 19.1501 49.0194 22.0935 49.0604C21.9328 50.6805 21.8885 52.3573 21.9676 53.9692C22.0012 54.6525 22.05 55.2672 22.3482 55.7848C22.0093 55.7512 21.6703 55.7212 21.3316 55.6999C19.9981 55.6167 18.292 55.6794 17.3441 56.7987C16.5311 57.7587 16.8601 59.2179 17.9648 59.7298C19.5436 60.4614 21.6342 60.3557 23.3292 60.3478C27.9552 60.3259 32.5952 60.1725 37.2188 60.2123C39.4418 60.2314 41.9111 60.5255 44.1017 60.1353C45.4193 59.9005 46.6268 59.1377 46.2075 57.623C45.7046 55.8062 43.5317 55.6055 41.9605 55.6818C41.6755 55.6957 41.3935 55.7127 41.1126 55.7317C41.5793 55.018 41.6478 54.178 41.6523 53.2433C41.6585 51.9725 41.7645 50.5512 41.5842 49.2479C43.6777 49.2438 45.7716 49.2492 47.8567 49.3238C50.9628 49.435 54.9385 50.0788 57.8543 48.7432C60.9326 47.3333 61.6895 43.9902 62.3605 40.9802C63.1845 37.2843 63.499 33.363 63.6785 29.5859C63.8817 25.3088 64.0381 20.958 63.9918 16.6775ZM43.6081 56.9258C44.0288 57.0527 44.9797 57.3224 44.9577 57.9205C44.9518 58.0812 44.8498 58.221 44.7436 58.3417C44.0382 59.1427 43.4615 59.0013 42.478 59.002C38.3623 59.0053 34.2537 59.0564 30.1383 59.0594C28.1061 59.0609 26.079 59.0678 24.0483 59.1275C22.5733 59.1709 20.0523 59.5043 18.7396 58.7252C17.1967 57.8094 19.1132 57.0292 20.0017 56.9217C22.0526 56.6735 24.1257 57.0222 26.1535 57.3094C28.1205 57.5882 30.0995 57.5965 32.083 57.5623C33.6365 57.5354 35.1993 57.5944 36.7487 57.5018C38.9918 57.3678 41.3441 56.3414 43.6081 56.9258ZM23.0868 49.0742C27.6022 49.138 32.1175 49.208 36.6347 49.2462C37.8145 49.2562 38.9967 49.254 40.1798 49.2509C40.2046 50.1157 40.2691 50.9859 40.2846 51.8497C40.3135 53.4638 40.6383 55.1068 38.8012 55.7813C36.7193 56.5457 34.0471 56.2068 31.8443 56.2367C29.5402 56.2679 27.1115 56.3272 24.8705 55.7214C23.8073 55.434 23.4695 55.2738 23.3021 54.1793C23.2306 53.7115 23.24 53.2337 23.2268 52.7623C23.1925 51.5339 23.1931 50.2992 23.0868 49.0742ZM60.802 41.6985C60.4195 43.3353 60.0295 45.14 58.8403 46.4074C56.465 48.9392 52.2058 47.9918 49.119 47.9964C46.41 48.0004 43.6897 47.9002 40.9778 47.9287C40.8648 47.9003 40.7446 47.9015 40.6315 47.932C40.146 47.9392 39.6606 47.9497 39.1757 47.9672C32.3756 48.2138 25.5223 47.7168 18.7167 47.7207C15.2193 47.7228 11.7222 47.6248 8.22809 47.4784C6.60646 47.4104 4.64734 47.3102 3.16934 46.5513C1.35996 45.6223 1.64084 43.3537 1.53034 41.5979C1.51246 41.314 1.50059 41.0288 1.48759 40.7438C3.43771 40.9347 5.45959 40.5737 7.40434 40.467C9.87146 40.3318 12.335 40.3228 14.8052 40.329C17.595 40.336 20.3847 40.3232 23.1745 40.3314C25.8016 40.3392 28.409 40.6549 31.0343 40.7109C36.2307 40.8217 41.4271 40.7738 46.6211 40.956C49.2205 41.0472 51.818 41.0337 54.4188 40.9778C56.6035 40.9309 58.795 41.062 60.9721 40.9118C60.9161 41.1739 60.8633 41.4359 60.802 41.6985ZM5.35521 18.4612C5.41821 16.7883 5.48471 15.1328 5.64471 13.463C5.67834 13.112 5.62284 12.6957 5.76221 12.3727C6.09121 11.6104 6.74559 11.5967 7.39559 11.4549C8.27946 11.2622 9.17021 11.0947 10.0641 10.9545C13.8177 10.3664 17.8882 10.948 21.6576 11.1919C28.8153 11.655 36.0418 11.2562 43.206 11.1345C44.9858 11.1043 46.791 11.234 48.5661 11.1065C50.3147 10.9809 52.0148 10.8248 53.7702 10.837C54.4883 10.842 55.2757 10.7319 55.9822 10.8274C57.2677 11.0012 57.3235 11.7329 57.4208 12.7672C57.58 14.4553 57.6716 16.1917 57.6791 17.8862C57.6953 21.5467 57.5072 25.2035 57.3603 28.86C57.2861 30.7085 57.2217 32.5577 57.1998 34.4075C57.1791 36.1663 57.4275 38.0429 57.1702 39.778C57.1617 39.8347 54.62 39.7918 54.419 39.7968C51.8186 39.8618 49.2202 39.8753 46.6212 39.7885C41.5156 39.6184 36.4058 39.6413 31.2975 39.5728C28.7705 39.5389 26.2571 39.2152 23.7302 39.2063C20.943 39.1964 18.1553 39.2247 15.368 39.2317C12.8845 39.2379 10.4035 39.2318 7.92359 39.3769C7.22534 39.4178 6.52359 39.4825 5.82071 39.549C5.72721 36.0149 5.51921 32.4465 5.34646 28.9133C5.26484 27.2457 5.38621 25.5874 5.38271 23.92C5.37884 22.0793 5.28609 20.3018 5.35521 18.4612ZM62.4138 25.9935C62.4012 29.3758 62.0995 32.7198 61.7428 36.0798C61.6417 37.033 61.7345 39.3249 60.829 39.7733C60.1382 40.1153 59.078 39.8588 58.2607 39.7955C58.2727 39.7515 58.2787 39.7048 58.2763 39.6552C58.2063 38.181 58.2827 36.6979 58.2668 35.2283C58.2447 33.1933 58.1918 31.1302 58.2772 29.0969C58.4262 25.5472 58.637 22.0125 58.6496 18.4552C58.6558 16.6933 58.5447 14.9224 58.4275 13.164C58.3636 12.2068 58.3002 10.4904 57.2832 9.98053C56.824 9.75028 56.2565 9.86441 55.7733 9.87503C54.7926 9.89653 53.8081 9.87878 52.8272 9.86553C51.073 9.84178 49.3363 10.168 47.5828 10.1828C39.4392 10.251 31.2931 10.562 23.1485 10.3884C19.129 10.3028 15.0213 9.56066 11.0007 9.96103C9.43121 10.1173 7.53734 10.2974 6.08521 10.9075C4.93996 11.3888 4.88234 12.3439 4.79584 13.4633C4.12509 22.1417 4.38434 30.943 5.15109 39.6115C3.91696 39.7264 2.68046 39.8268 1.45209 39.7945C1.37159 37.0112 1.46984 34.1878 1.44609 31.4198C1.42034 28.4347 1.19734 25.4572 1.19809 22.4709C1.19896 19.4728 1.39521 16.5032 1.71159 13.5229C1.87571 11.9772 1.93159 9.65278 2.87521 8.35278C3.97209 6.84153 6.60096 6.68916 8.31746 6.59191C15.9467 6.15941 23.5577 5.88016 31.2026 5.82266C37.6333 5.77428 44.0323 6.20441 50.467 5.99791C53.527 6.14378 56.9153 5.85291 59.8181 6.87341C60.5203 7.12028 61.543 7.51916 61.9486 8.21491C62.3126 8.83916 62.3046 9.71391 62.3413 10.4074C62.4336 12.1408 62.5148 13.8699 62.6176 15.601C62.8225 19.052 62.4268 22.5397 62.4138 25.9935Z" fill="black"/>
<path d="M34.269 42.7731C33.8384 42.1105 33.0203 41.7338 32.2367 41.677C31.5927 41.6302 31.1564 41.9127 30.7025 42.2223C30.4605 42.3311 30.2387 42.4747 30.0424 42.6472C30.0383 42.6513 30.033 42.6546 30.0295 42.659C29.3968 43.2227 29.0437 44.0826 29.236 45.0192C29.5519 46.5575 31.7849 47.695 33.1608 46.8451C34.5164 46.0076 35.193 44.1952 34.269 42.7731ZM33.2325 45.6898C32.7727 46.1381 32.2854 46.4108 31.6228 46.2575C31.0474 46.1241 30.3719 45.6858 30.0575 45.1685C29.4597 44.1847 30.1103 43.3362 30.9487 42.7832C31.4843 42.6016 31.9808 42.3573 32.6342 42.5906C33.9364 43.0553 34.2033 44.7437 33.2325 45.6898Z" fill="black"/>
<path d="M53.9978 19.6632C52.7505 18.2953 50.8126 18.0103 49.0592 17.8551C47.4925 17.7163 45.9225 17.6743 44.3512 17.6776C41.5202 17.5857 38.6836 17.5933 35.853 17.5883C31.3396 17.5804 26.8426 17.4981 22.3322 17.7256C18.5206 17.9178 14.1192 17.7813 10.5635 19.4046C8.00047 20.5746 6.25522 24.3066 9.16797 26.2309C10.58 27.1638 12.508 27.3174 14.1448 27.5079C16.4626 27.7777 18.8086 27.7819 21.1366 27.8878C25.671 28.0941 30.208 28.4627 34.7465 28.5517C39.0317 28.6356 43.3751 28.6661 47.6555 28.4567C50.6731 28.3092 53.8627 27.5937 55.0462 24.4166C55.6124 22.8966 55.0815 20.8514 53.9978 19.6632ZM51.5564 26.8443C49.9669 27.6573 47.6854 27.5233 45.9427 27.5116C42.49 27.4882 39.0357 27.6302 35.5795 27.6024C31.8213 27.5722 28.0622 27.2777 24.3092 27.0973C20.5646 26.9173 16.7293 26.9842 13.019 26.4114C11.0095 26.1012 8.02297 25.3914 8.67647 22.6711C9.17584 20.5927 11.6292 19.8819 13.4495 19.5044C17.2695 18.7122 21.2612 18.6499 25.1481 18.4936C28.5546 18.3566 31.977 18.4298 35.3893 18.4424C38.4068 18.8011 41.5646 18.6561 44.5796 18.6448C47.7876 18.6331 53.2411 18.1048 54.1404 22.1459C54.5907 24.1696 53.3406 25.9317 51.5564 26.8443Z" fill="black"/>
<path d="M50.0977 24.3833C49.9081 24.2001 49.6963 24.0516 49.5009 23.8765C49.3253 23.7191 49.1924 23.4785 49.0133 23.3387C49.5349 22.6855 49.6917 21.9062 49.2939 21.0567C48.8948 20.2042 47.9222 19.6878 46.9733 19.8543C46.1888 19.992 45.6392 20.5603 45.3279 21.2453C45.1829 21.4747 45.0789 21.7127 45.0386 21.934C44.9936 22.1812 45.0038 22.427 45.0519 22.6642C45.1026 23.1975 45.3601 23.6732 45.8898 24.0342C46.3126 24.3225 46.8296 24.4537 47.3394 24.4423C47.8333 24.4313 48.1244 24.185 48.5076 24.0082C48.5939 24.1232 48.6731 24.2498 48.7637 24.3482C48.9826 24.5858 49.2469 24.7756 49.4666 25.0143C49.8552 25.437 50.5124 24.7841 50.0977 24.3833ZM47.6818 23.4328C47.0924 23.7463 46.4258 23.5488 46.0384 23.0726C45.6662 22.5167 45.8534 21.6985 46.2961 21.1952C46.8414 20.5751 47.9006 20.5153 48.4372 21.2172C49.0431 22.0098 48.4374 23.0311 47.6818 23.4328Z" fill="black"/>
<path d="M48.2111 35.4601C47.8015 34.5635 46.865 34.4903 47.5775 33.5746C47.8251 33.2565 48.2853 32.8555 48.2952 32.4013C48.3202 31.2458 45.9332 30.4716 45.1756 30.105C44.4665 29.7618 43.3691 29.0391 42.9058 30.0321C42.2557 31.4253 42.5295 32.9004 42.2961 34.3608C42.1873 35.0414 42.0295 35.9203 42.9452 35.982C43.4386 36.0153 43.8336 35.5031 44.3645 35.8113C44.575 35.9334 44.963 36.9373 45.0156 37.0549C45.3918 37.8961 45.6617 38.3821 46.5587 37.8788C47.4393 37.3845 48.7243 36.583 48.2111 35.4601ZM47.2191 32.6246C47.1636 32.9834 46.5192 33.3384 46.374 33.7071C46.0257 34.5908 47.0662 34.9976 47.192 35.7554C47.308 36.4548 46.5692 37.2651 45.8853 36.8441C45.2376 36.4453 45.385 35.2311 44.6012 34.8139C44.4135 34.714 44.2293 34.699 44.0111 34.725C43.322 34.8069 42.9053 35.5283 43.0398 34.5306C43.1543 33.6799 43.3215 32.7945 43.4155 31.9164C43.4687 31.6248 43.5275 31.3341 43.603 31.0464C43.6813 30.7478 43.6647 30.6075 43.8696 30.5133C44.1933 30.3644 45.6257 31.3399 45.9941 31.5324C46.3863 31.7371 47.3113 32.0288 47.2191 32.6246Z" fill="black"/>
</g>
<defs>
<clipPath id="clip0">
<rect width="64" height="64" fill="white" transform="translate(0 0.516602)"/>
</clipPath>
</defs>
</svg>
