<svg width="64" height="65" viewBox="0 0 64 65" fill="none" xmlns="http://www.w3.org/2000/svg">
<g clip-path="url(#clip0)">
<path d="M61.8839 6.51776C59.235 4.06801 55.6 6.18851 53.8274 8.54163C53.6047 8.83725 53.3869 9.13663 53.1692 9.436C52.5461 10.2925 52.0548 11.0802 51.6057 12.0412C51.3488 12.5909 51.0327 13.1554 50.7194 13.7329C50.2602 14.4265 49.8149 15.1316 49.3771 15.8452C49.0316 16.4082 48.6627 16.9546 48.2871 17.4964C48.2779 17.0465 48.2347 16.5907 48.2079 16.1654C48.3023 15.2187 48.4064 14.2766 48.3961 13.2982C48.3764 11.4557 48.0054 9.66813 47.9777 7.82013C47.9557 6.35551 48.0427 4.92314 48.0978 3.45664C48.1328 2.52414 48.1777 1.45552 47.2584 0.945018C46.1898 0.351644 44.5139 0.604519 43.3528 0.552894C41.4701 0.469019 39.5691 0.557519 37.6843 0.552269C34.048 0.542269 30.3498 0.543894 26.7207 0.798643C23.1596 1.04864 19.4911 1.35902 15.9246 1.30839C14.3593 1.28602 12.8126 1.40777 11.2491 1.40402C9.42889 1.39964 7.54277 1.26052 5.72952 1.41839C4.6109 1.51589 2.9114 1.59552 2.0344 2.34602C1.12753 3.12201 1.35828 4.48101 1.35853 5.54151C1.35953 9.19975 1.3679 12.854 1.36378 16.5144C1.35528 24.1736 1.2464 31.8277 1.2424 39.4839C1.24153 41.1701 1.26853 42.8436 1.35615 44.5269C1.45353 46.3964 1.2959 48.2289 1.32215 50.0994C1.34678 51.8577 1.3399 53.6159 1.33878 55.3745C1.33815 56.3332 1.34628 57.2917 1.3474 58.2503C1.3484 59.1672 1.14978 60.0815 1.2234 60.9918C1.4459 63.7462 4.38552 63.5541 6.54039 63.6113C9.86426 63.6994 13.1721 63.8298 16.5052 63.8314C19.7735 63.833 22.9916 64.2293 26.2494 64.3669C27.8596 64.4349 29.5088 64.5629 31.1123 64.4994C32.9775 64.4254 34.8506 64.2825 36.7132 64.247C38.3291 64.2161 39.9368 64.1525 41.5387 64.1472C42.9609 64.1424 43.5986 63.8145 44.5051 62.7534C45.6691 61.3909 46.8351 59.9249 48.0806 58.6407C49.1523 57.5355 49.8489 57.2469 49.9562 55.6433C50.1844 52.2304 50.0097 48.7061 49.8287 45.2901C49.7066 42.9843 49.8241 40.6761 49.8761 38.3702C49.9207 36.3951 49.8377 34.4747 49.6783 32.5066C49.6617 32.3013 49.6452 32.0937 49.6776 31.8903C49.8076 31.0755 50.6543 30.1455 51.1247 29.4758C55.0526 23.8839 59.5053 18.3501 61.9954 11.8777C62.6353 10.2145 63.4625 7.97776 61.8839 6.51776ZM49.7317 17.7059C50.6636 16.3195 51.5859 14.9262 52.4448 13.4887C52.8094 13.6279 53.4139 13.9955 53.5442 14.0599C54.0403 14.305 54.4872 14.6257 54.9475 14.9291C54.0244 16.158 53.376 17.605 52.3952 18.79C50.9859 20.4926 49.6924 22.209 48.3861 23.9973C45.9627 27.3148 43.8678 30.7995 41.6673 34.2455C41.5841 33.7783 41.3846 33.3583 40.8583 33.0261C40.5228 32.8142 40.1922 32.7382 39.799 32.7598C40.6808 31.3871 41.4828 29.95 42.3979 28.6017C43.7664 26.5853 45.2352 24.6628 46.5188 22.5891C47.5452 20.9309 48.6448 19.323 49.7317 17.7059ZM39.0237 38.7099C38.7686 38.5368 38.4632 38.4244 38.1668 38.3448C38.0522 38.3141 37.9315 38.2867 37.8107 38.2722C37.8471 38.047 37.8831 37.8218 37.9207 37.5967C38.0726 36.6868 38.0492 35.5397 38.5951 34.7348C38.8225 34.3996 39.3008 33.9863 39.7506 34.1563C40.3353 34.3775 40.3085 35.3015 40.3653 35.795C40.4235 36.2987 40.8003 36.5381 41.2765 36.4668C41.5105 36.4318 41.5452 36.2228 41.8332 36.2667C42.1513 36.316 43.2903 37.4681 42.9006 37.8019C42.0655 38.5174 40.9848 39.2517 40.1116 39.8523C39.8722 39.4057 39.4223 38.9806 39.0237 38.7099ZM39.376 40.3539C39.0638 40.5648 38.7503 40.7741 38.4372 40.9761C38.2241 41.1136 37.7413 41.2859 37.5683 41.4662C37.4573 41.5819 37.3836 41.6098 37.3412 41.6196C37.3051 41.0702 37.5478 40.1117 37.5981 39.7126C37.6235 39.5116 37.6546 39.3116 37.6836 39.1111C37.8267 39.1377 37.9701 39.1692 38.1097 39.2274C38.472 39.3786 38.6893 39.5909 38.9655 39.8641C39.1027 39.9999 39.2327 40.1997 39.376 40.3539ZM48.3419 55.2614C48.2236 56.0854 48.1378 56.4394 47.5194 56.9763C46.9189 57.4977 46.4417 58.0953 45.9283 58.6998C45.0064 59.7857 44.1256 60.9273 43.1178 61.9342C42.3172 62.734 41.3578 62.4005 40.3084 62.4459C37.4368 62.5699 34.5762 62.7725 31.7013 62.8677C28.6033 62.9702 25.5401 62.5432 22.4449 62.4364C16.7237 62.2392 10.9768 62.3222 5.25915 62.0292C4.63352 61.997 3.38365 61.987 2.91977 61.4342C2.58015 61.0294 2.88115 59.9182 2.91927 59.3689C3.03102 57.7622 2.91327 56.1072 2.91227 54.4962C2.91027 51.2767 3.1144 48.0006 2.92727 44.7982C2.54203 38.2052 2.8979 31.5735 2.89365 24.9733C2.8894 18.3012 2.8949 11.6306 2.90052 4.96251C2.9014 3.86801 3.16365 3.41151 4.26627 3.20951C4.99427 3.07614 5.71039 2.94876 6.45189 2.94014C8.14864 2.92039 9.85064 2.95001 11.5479 2.95714C14.5126 2.96964 17.4691 2.73339 20.4284 2.63677C27.6992 2.39939 34.9486 2.13527 42.2287 2.10452C43.0819 2.10089 43.9206 2.17464 44.7709 2.20039C45.7367 2.22977 46.4859 1.93064 46.5829 3.07014C46.7152 4.62364 46.4293 6.25601 46.4777 7.82013C46.5293 9.49088 46.8277 11.0892 46.9124 12.748C46.9327 13.145 46.9386 13.5439 46.9387 13.9432C46.8449 15.6602 46.7912 17.3692 47.1578 19.0956C46.5076 20.0035 45.8608 20.9127 45.2703 21.8595C43.9803 23.9275 42.5108 25.8528 41.1418 27.8676C40.5076 28.801 39.9308 29.7713 39.3427 30.734C38.8233 31.5842 38.1585 32.4017 37.6948 33.2757C36.8126 34.939 36.5477 37.2563 36.2755 39.0986C36.1275 40.0998 35.3316 42.6937 36.6223 43.2088C37.6998 43.6389 39.5416 41.9367 40.3261 41.4091C41.5093 40.6131 42.6012 39.6759 43.7702 38.8542C45.2544 37.8109 46.1868 36.574 47.3239 35.1913C47.6742 34.7656 48.0024 34.3161 48.3181 33.8537C48.3186 33.9021 48.3187 33.9481 48.3178 33.9908C48.3011 34.8046 48.2764 35.6155 48.3684 36.4127C48.2843 38.6643 48.1391 40.9099 48.1357 43.1706C48.1314 46.0522 48.3819 48.9337 48.4497 51.8224C48.4766 52.9705 48.5052 54.1245 48.3419 55.2614ZM54.7914 21.4959C52.9396 24.4163 50.8801 27.1941 48.9859 30.0883C48.0594 31.504 47.1823 33.092 46.1084 34.391C45.5551 35.0603 44.9278 36.169 44.1812 36.8602C44.0994 36.0925 43.9651 35.3368 43.2553 34.867C42.9718 34.6792 42.7312 34.6092 42.5086 34.6035C42.7969 34.1193 43.0462 33.6078 43.3612 33.1377C43.9003 32.333 44.4596 31.5457 44.9863 30.733C46.1901 28.8756 47.3227 26.9973 48.6288 25.203C50.9888 21.961 53.6524 18.8492 55.4885 15.2816C56.2779 15.8111 57.1972 16.5784 57.5454 17.4075C57.552 17.4232 57.563 17.4339 57.5708 17.4484C56.6398 18.7905 55.6638 20.12 54.7914 21.4959ZM58.194 16.3944C57.5613 15.4652 56.6472 14.8272 55.683 14.2694C55.1087 13.937 53.8859 12.9902 52.8752 12.7395C52.8902 12.7432 53.5297 11.4342 53.6476 11.3121C54.1783 10.7617 54.5787 11.0889 55.1651 11.3585C56.3 11.8804 57.2177 12.6856 58.1193 13.526C59.2227 14.5544 58.6133 15.2404 58.194 16.3944ZM59.9798 12.9094C59.8398 13.1652 59.7094 13.4299 59.5812 13.696C59.4384 13.3086 59.2497 12.9356 59.016 12.5901C58.2155 11.4066 56.3347 9.8825 54.8195 9.43938C55.1067 9.03938 55.3824 8.65 55.6712 8.37175C56.9149 7.17301 59.1624 6.28601 60.7034 7.48488C62.2037 8.652 60.6843 11.6224 59.9798 12.9094Z" fill="black"/>
<path d="M17.5293 11.1859C16.2219 11.6119 15.3772 13.0039 14.508 14.0169C14.3387 14.2143 14.1667 14.4082 13.9943 14.6017C13.9135 13.9966 13.8327 13.4278 13.8038 12.9461C13.74 11.8864 13.7773 11.1487 12.6143 10.9266C11.2567 10.6673 8.42093 10.7857 7.19818 11.5642C6.06081 12.2883 6.06206 13.8664 6.11131 15.0616C6.15806 16.1977 6.11781 17.3079 6.20943 18.4423C6.25031 18.9493 6.19493 19.5228 6.54418 19.9443C7.67455 21.3083 11.0793 20.7007 12.4762 20.1759C13.9093 19.6374 14.2264 18.2354 14.1914 16.7108C14.6157 16.2372 15.0175 15.7414 15.3972 15.3019C16.3125 14.2427 17.7119 13.1367 18.1228 11.7794C18.2264 11.4369 17.8775 11.0726 17.5293 11.1859ZM12.8627 18.5998C12.3739 19.5152 11.3903 19.3254 10.5978 19.3727C9.9563 19.4109 7.70068 19.852 7.24318 19.1603C7.12531 18.982 7.17943 18.1299 7.15143 17.8234C7.08506 17.0967 7.10743 16.3912 7.10243 15.6623C7.09356 14.3713 6.65856 12.6988 8.27318 12.3557C9.43505 12.1088 10.7558 11.9909 11.9463 11.8609C12.5689 11.8999 12.6223 12.0093 12.791 12.5868C13.0527 13.4819 12.9858 14.6762 12.9688 15.7197C12.7237 16.0115 12.3359 16.493 12.0163 16.7462C11.1568 15.9566 10.4334 14.9553 9.4283 14.3853C9.42905 14.3909 9.4298 14.3966 9.43043 14.4022C8.97568 14.2101 8.18855 14.6233 8.7228 15.2996C9.43855 16.2054 10.14 16.9035 10.9515 17.7157C11.572 18.3367 12.0255 18.5895 12.8089 18.0173C12.878 17.9667 12.9457 17.9097 13.0139 17.8548C13.0004 18.1499 12.9592 18.4193 12.8627 18.5998Z" fill="black"/>
<path d="M18.6163 22.4593C16.8569 23.2448 15.3933 25.0499 14.0245 26.533C13.9347 25.8425 13.8364 25.19 13.8038 24.6478C13.74 23.5881 13.7773 22.8503 12.6143 22.6283C11.2567 22.369 8.42093 22.4873 7.19818 23.2658C6.06081 23.9899 6.06206 25.568 6.11131 26.7631C6.15806 27.8991 6.11781 29.0094 6.20943 30.1436C6.25031 30.6506 6.19493 31.2241 6.54418 31.6458C7.67455 33.0098 11.0793 32.4021 12.4762 31.8774C13.8353 31.3668 14.1902 30.0794 14.1937 28.6475C14.8128 28.028 15.3924 27.3268 15.9752 26.7449C17.1009 25.6206 18.5325 24.5031 19.1895 23.0324C19.365 22.639 19.0103 22.2834 18.6163 22.4593ZM12.8627 30.3013C12.3739 31.2166 11.3903 31.0269 10.5978 31.0741C9.9563 31.1124 7.70068 31.5535 7.24318 30.8618C7.12531 30.6835 7.17943 29.8314 7.15143 29.5249C7.08506 28.7981 7.10743 28.0926 7.10243 27.3638C7.09343 26.0726 6.65843 24.4001 8.27318 24.057C9.43505 23.8101 10.7558 23.6923 11.9463 23.5623C12.5689 23.6013 12.6223 23.7106 12.791 24.2881C13.0749 25.2595 12.971 26.5859 12.965 27.6863C12.7574 27.9203 12.5332 28.1536 12.4358 28.173C11.937 28.2718 11.4773 27.5821 11.2278 27.2583C10.7813 26.6788 10.5562 26.1694 9.8523 25.8534C9.33405 25.6208 8.64255 26.3035 9.18155 26.7226C10.2449 27.5494 11.165 30.708 13.0075 29.6366C12.9904 29.8993 12.95 30.1376 12.8627 30.3013Z" fill="black"/>
<path d="M13.8039 36.3494C13.74 35.2899 13.7773 34.552 12.6143 34.3299C11.2567 34.0706 8.42093 34.189 7.19818 34.9675C6.06081 35.6916 6.06206 37.2697 6.11131 38.4647C6.15806 39.6007 6.11781 40.711 6.20943 41.8452C6.25031 42.3522 6.19493 42.9257 6.54418 43.3474C7.67455 44.7114 11.0793 44.1037 12.4762 43.579C15.1542 42.5729 13.9364 38.552 13.8039 36.3494ZM12.8627 42.0029C12.3739 42.9181 11.3903 42.7285 10.5978 42.7757C9.9563 42.814 7.70068 43.2551 7.24318 42.5632C7.1253 42.385 7.17943 41.5329 7.15143 41.2265C7.08505 40.4997 7.10743 39.7942 7.10243 39.0655C7.09343 37.7744 6.65843 36.1017 8.27318 35.7587C9.43505 35.5119 10.7558 35.394 11.9463 35.264C12.5689 35.303 12.6223 35.4124 12.791 35.9899C13.1182 37.1089 12.9302 38.6999 12.9705 39.8726C12.9898 40.4317 13.1172 41.5261 12.8627 42.0029Z" fill="black"/>
<path d="M13.8039 48.0508C13.74 46.991 13.7773 46.2532 12.6143 46.031C11.2567 45.7718 8.42093 45.8902 7.19818 46.6687C6.06081 47.3928 6.06206 48.9709 6.11131 50.166C6.15806 51.302 6.11781 52.4123 6.20943 53.5467C6.25031 54.0537 6.19493 54.6272 6.54418 55.0488C7.67455 56.4128 11.0793 55.8051 12.4762 55.2804C15.1542 54.2743 13.9364 50.2534 13.8039 48.0508ZM12.8627 53.704C12.3739 54.6193 11.3903 54.4297 10.5978 54.4769C9.9563 54.5152 7.70068 54.9563 7.24318 54.2645C7.1253 54.0863 7.17943 53.2342 7.15143 52.9277C7.08505 52.2009 7.10743 51.4954 7.10243 50.7665C7.09343 49.4754 6.65843 47.8029 8.27318 47.4598C9.43505 47.2129 10.7558 47.095 11.9463 46.965C12.5689 47.004 12.6223 47.1134 12.791 47.6909C13.1182 48.8099 12.9302 50.4009 12.9705 51.5737C12.9898 52.1329 13.1172 53.2273 12.8627 53.704Z" fill="black"/>
<path d="M40.819 12.3419C39.2265 12.0911 37.4998 12.2069 35.8843 12.1761C34.1665 12.1435 32.4221 12.162 30.7066 12.2519C27.205 12.4356 23.6869 12.0476 20.1835 12.3924C19.8025 12.4296 19.8017 12.948 20.1835 12.9856C23.6147 13.3233 27.2682 13.3405 30.7066 13.1615C33.9984 12.9901 37.5995 13.4808 40.819 12.7169C40.9963 12.6748 41.0123 12.3723 40.819 12.3419Z" fill="black"/>
<path d="M40.819 14.5753C39.2265 14.3245 37.4998 14.4403 35.8843 14.4095C34.1665 14.3769 32.4221 14.3954 30.7066 14.4853C27.205 14.6689 23.6869 14.2809 20.1835 14.6258C19.8025 14.6633 19.8017 15.1815 20.1835 15.2192C23.6147 15.5568 27.2682 15.574 30.7066 15.395C33.9984 15.2237 37.5995 15.7143 40.819 14.9504C40.9963 14.9083 41.0123 14.6058 40.819 14.5753Z" fill="black"/>
<path d="M40.819 16.8097C39.2265 16.5589 37.4998 16.6747 35.8843 16.6439C34.1665 16.6113 32.4221 16.6298 30.7066 16.7197C27.205 16.9033 23.6869 16.5153 20.1835 16.86C19.8025 16.8975 19.8017 17.4159 20.1835 17.4534C23.6147 17.791 27.2682 17.8083 30.7066 17.6293C33.9984 17.4579 37.5995 17.9485 40.819 17.1847C40.9963 17.1427 41.0123 16.84 40.819 16.8097Z" fill="black"/>
<path d="M39.4406 24.3087C37.9531 24.0579 36.3401 24.1737 34.8311 24.1429C33.2263 24.1103 31.5968 24.1288 29.9945 24.2187C26.7235 24.4023 23.4372 24.0143 20.1646 24.3591C19.8087 24.3967 19.8081 24.9151 20.1646 24.9526C23.3697 25.2902 26.7826 25.3074 29.9945 25.1284C33.0693 24.9571 36.4332 25.4477 39.4406 24.6838C39.6062 24.6417 39.6212 24.3392 39.4406 24.3087Z" fill="black"/>
<path d="M39.4406 26.5431C37.9531 26.2923 36.3401 26.4081 34.8311 26.3773C33.2263 26.3447 31.5968 26.3632 29.9945 26.4531C26.7235 26.6367 23.4372 26.2487 20.1646 26.5934C19.8087 26.6309 19.8081 27.1493 20.1646 27.1868C23.3697 27.5244 26.7826 27.5417 29.9945 27.3627C33.0693 27.1913 36.4332 27.6819 39.4406 26.9181C39.6062 26.8759 39.6212 26.5734 39.4406 26.5431Z" fill="black"/>
<path d="M39.4406 28.7765C37.9531 28.5257 36.3401 28.6415 34.8311 28.6107C33.2264 28.5781 31.5969 28.5965 29.9945 28.6865C26.7235 28.8701 23.4373 28.4821 20.1646 28.827C19.8088 28.8645 19.808 29.3829 20.1646 29.4204C23.3698 29.758 26.7826 29.7752 29.9945 29.5962C33.0694 29.4249 36.4332 29.9155 39.4406 29.1516C39.6062 29.1095 39.6212 28.807 39.4406 28.7765Z" fill="black"/>
<path d="M33.4963 37.2335C32.4612 36.9828 31.3388 37.0985 30.2888 37.0678C29.1722 37.0351 28.0383 37.0535 26.9234 37.1435C24.6472 37.3271 22.3605 36.9391 20.0834 37.284C19.8357 37.3215 19.8352 37.8399 20.0834 37.8774C22.3136 38.215 24.6885 38.2323 26.9234 38.0533C29.063 37.8819 31.4037 38.3725 33.4963 37.6086C33.6116 37.5665 33.6221 37.264 33.4963 37.2335Z" fill="black"/>
<path d="M33.4963 39.4669C32.4612 39.2161 31.3388 39.3319 30.2888 39.3011C29.1722 39.2685 28.0383 39.287 26.9234 39.3769C24.6472 39.5605 22.3605 39.1725 20.0834 39.5174C19.8357 39.5549 19.8352 40.0733 20.0834 40.1108C22.3136 40.4484 24.6885 40.4656 26.9234 40.2866C29.063 40.1153 31.4037 40.6059 33.4963 39.842C33.6116 39.7999 33.6221 39.4974 33.4963 39.4669Z" fill="black"/>
<path d="M33.4963 41.7013C32.4612 41.4505 31.3388 41.5663 30.2888 41.5355C29.1722 41.5029 28.0383 41.5214 26.9234 41.6113C24.6472 41.795 22.3605 41.4069 20.0834 41.7518C19.8357 41.7893 19.8352 42.3077 20.0834 42.3452C22.3136 42.6828 24.6885 42.7 26.9234 42.5212C29.063 42.3498 31.4037 42.8404 33.4963 42.0765C33.6116 42.0342 33.6221 41.7316 33.4963 41.7013Z" fill="black"/>
<path d="M33.4963 48.3233C32.4612 48.0726 31.3388 48.1883 30.2888 48.1576C29.1722 48.125 28.0383 48.1435 26.9234 48.2333C24.6472 48.417 22.3605 48.029 20.0834 48.3737C19.8357 48.4112 19.8352 48.9296 20.0834 48.9671C22.3136 49.3047 24.6885 49.322 26.9234 49.143C29.063 48.9716 31.4037 49.4622 33.4963 48.6983C33.6116 48.6563 33.6221 48.3537 33.4963 48.3233Z" fill="black"/>
<path d="M33.4963 50.5567C32.4612 50.306 31.3388 50.4217 30.2888 50.391C29.1722 50.3584 28.0383 50.3769 26.9234 50.4667C24.6472 50.6504 22.3605 50.2624 20.0834 50.6072C19.8357 50.6447 19.8352 51.1631 20.0834 51.2006C22.3136 51.5382 24.6885 51.5555 26.9234 51.3765C29.063 51.2051 31.4037 51.6957 33.4963 50.9319C33.6116 50.8897 33.6221 50.5872 33.4963 50.5567Z" fill="black"/>
<path d="M33.4963 52.7911C32.4612 52.5404 31.3388 52.6561 30.2888 52.6254C29.1722 52.5927 28.0383 52.6112 26.9234 52.7011C24.6472 52.8847 22.3605 52.4967 20.0834 52.8416C19.8357 52.8791 19.8352 53.3975 20.0834 53.435C22.3136 53.7726 24.6885 53.7898 26.9234 53.6108C29.063 53.4395 31.4037 53.9301 33.4963 53.1662C33.6116 53.1241 33.6221 52.8216 33.4963 52.7911Z" fill="black"/>
</g>
<defs>
<clipPath id="clip0">
<rect width="64" height="64" fill="white" transform="translate(0 0.516602)"/>
</clipPath>
</defs>
</svg>
