<svg width="64" height="65" viewBox="0 0 64 65" fill="none" xmlns="http://www.w3.org/2000/svg">
<g clip-path="url(#clip0)">
<path d="M63.9066 16.3667C63.5581 15.7557 63.0045 15.7254 62.3998 15.4399C61.4641 14.9981 60.608 14.3804 59.7378 13.8282C57.82 12.6112 55.7057 11.2856 53.595 10.4367C52.2873 9.91087 50.4935 10.2505 49.1268 10.2874C47.5326 10.3304 45.4526 10.0841 43.8498 10.5244C42.2406 8.47274 39.9577 6.93449 37.3093 7.10324C34.8225 4.97187 31.1878 4.10474 27.9867 5.34662C27.5015 4.95387 26.9733 4.61712 26.404 4.36049C23.8213 3.19624 20.8795 3.53799 19.4327 6.20474C18.6656 7.61862 18.7301 9.317 19.0453 11.0044C15.5407 11.1544 12.0367 11.4312 8.52946 11.4572C5.00471 11.4835 1.84384 11.717 0.396214 15.3979C-1.72104 20.7815 5.10284 22.118 10.0622 21.8916C9.66784 22.7047 9.70909 23.7912 9.66072 24.639C9.54809 26.6072 9.71659 28.5924 10.1528 30.514C10.5003 32.0445 10.9852 33.4057 12.2893 34.3629C13.8712 35.5239 16.0296 36.0696 16.93 38.0075C17.4328 39.0899 17.2442 40.3696 17.331 41.5294C17.3982 42.428 17.5518 43.3207 17.6603 44.2147C17.7227 44.7284 17.7786 45.3035 17.9358 45.8124C16.7317 45.9846 15.5705 46.3357 14.6743 46.9055C12.6815 48.1724 12.9877 50.698 13.114 52.7535C13.2 54.1521 13.1408 55.5589 13.1286 56.959C13.1206 57.8802 13.1371 58.626 13.7802 59.3449C15.0456 60.7595 18.1037 60.8552 19.8712 60.902C25.4105 61.0487 30.9678 61.6937 36.5005 60.9732C38.5141 60.711 40.7371 60.4602 41.8343 58.5274C42.9138 56.6259 42.9853 54.1772 42.9918 52.0575C42.9983 49.8946 43.7766 45.8492 40.8783 45.2126C40.5977 45.151 40.312 45.1051 40.0228 45.0712C40.3487 43.4031 39.9736 41.5095 40.1578 39.8077C40.393 37.635 41.3071 35.8304 42.6953 34.1816C44.8613 31.6092 47.1405 28.7137 47.3515 25.1839C47.3866 24.595 47.3887 24.004 47.3682 23.4122C48.6346 23.1035 50.3405 23.2611 51.5601 23.2007C52.9187 23.1335 53.9792 23.0794 55.1605 22.376C56.5343 21.5577 57.8945 20.7276 59.2805 19.9266C60.7225 19.0932 62.3293 18.3131 63.6578 17.3161C63.96 17.0894 64.1102 16.7237 63.9066 16.3667ZM19.2986 12.4374C19.3202 12.4367 19.3387 12.4316 19.3592 12.4295C19.6086 13.4314 19.8906 14.3989 20.0788 15.2662C20.4201 16.8382 20.6182 18.528 20.6411 20.2295C19.1813 20.6181 17.3221 20.3831 15.8285 20.4519C15.3825 20.4724 14.8542 20.4699 14.3035 20.4761C14.9715 19.2529 15.0861 17.3685 14.9467 16.2614C14.768 14.842 14.2688 13.6362 13.3912 12.6725C15.3602 12.6092 17.3283 12.4944 19.2986 12.4374ZM12.4102 12.694C12.5206 12.8234 12.6355 12.952 12.7447 13.1064C13.3525 13.9662 13.7568 15.0599 13.9098 16.0916C14.1513 17.7201 13.6357 18.9696 13.0715 20.3866C12.8206 20.3059 12.5536 20.2597 12.2773 20.2346C12.836 19.0317 12.9175 17.2581 12.7993 16.2957C12.6881 15.3896 12.2876 13.5829 11.4603 12.7115C11.777 12.7071 12.0936 12.7007 12.4102 12.694ZM8.89921 20.4535C8.52771 20.477 8.16984 20.4807 7.83859 20.4416C6.46021 20.2786 5.01946 20.0159 3.71321 19.5331C1.34021 18.656 1.14184 16.511 2.43621 14.5421C3.53271 12.8744 5.83496 12.6175 8.03784 12.6325C8.44672 13.5094 9.16821 14.285 9.49146 15.2449C10.1013 17.0556 9.59309 18.7702 8.89921 20.4535ZM9.96871 20.351C10.9672 17.8755 11.0961 14.5382 9.05559 12.655C9.63109 12.6744 10.1847 12.7005 10.691 12.7115C11.1777 13.796 11.6952 14.863 11.8762 16.054C12.0535 17.2209 11.9688 19.1046 11.2435 20.228C10.8228 20.2532 10.3933 20.3025 9.96871 20.351ZM40.303 46.7134C40.7852 46.8137 41.0813 47.0526 41.2592 47.3709C41.6836 48.1304 41.434 49.3412 41.433 50.1969C41.4313 51.5076 41.4545 52.8136 41.3495 54.1205C41.261 55.223 41.0881 56.4371 40.6126 57.4586C39.9852 58.8065 38.8725 58.9544 37.5707 59.185C35.015 59.6379 32.5133 59.748 29.9185 59.7487C27.3025 59.7496 24.7307 59.4211 22.1211 59.3437C20.8332 59.3055 19.566 59.3801 18.2798 59.2316C17.3535 59.1247 15.297 58.9569 14.7592 58.055C14.2841 57.2581 14.6983 55.0231 14.6895 54.1107C14.6782 52.9652 14.55 51.8262 14.5802 50.6802C14.6373 48.517 15.627 47.9036 17.5508 47.5352C18.3045 47.391 19.0638 47.31 19.8221 47.226C20.5707 47.2379 21.3777 47.0242 22.077 46.9787C22.9275 46.9235 23.7747 46.9605 24.6257 46.9529C26.7383 46.9339 28.8407 46.8406 30.9565 46.8834C33.698 46.9387 36.3272 46.8917 39.0661 46.6895C39.4788 46.6592 39.8978 46.6291 40.303 46.7134ZM41.5572 33.0436C39.7487 35.1937 38.6588 37.5194 38.5117 40.3755C38.4747 41.094 38.4772 41.8184 38.4527 42.5385C38.4207 43.4825 38.8698 44.8805 37.5838 45.0654C35.955 45.2996 34.5116 45.4264 32.8776 45.3661C29.5548 45.2437 26.241 45.293 22.9193 45.3665C22.1621 45.3832 21.4197 45.463 20.6678 45.5454C19.3461 45.6901 19.32 44.8266 19.1768 43.7354C18.9565 42.0557 18.9978 40.3257 18.7327 38.6616C18.3178 36.0587 16.0081 34.6724 13.9006 33.4697C11.9001 32.3284 11.4535 30.2672 11.22 28.1084C11.079 26.8055 10.4153 22.9497 11.7217 22.1032C12.2558 21.7571 13.77 21.9377 14.4426 21.9076C15.3308 21.8679 16.2012 21.863 17.0901 21.859C18.1811 21.854 19.4965 21.9297 20.6143 21.7247C20.5251 23.5291 20.2263 25.312 19.6707 26.9462C19.5386 27.3349 20.1631 27.6071 20.3412 27.2289C22.6295 22.3706 22.0468 17.0965 20.9078 12.0309C20.6121 10.7156 20.2306 9.09449 20.5305 7.74699C20.9742 5.75324 22.8063 4.69274 24.7543 5.17612C28.1285 6.01337 28.9892 8.86112 30.2722 11.6274C30.4651 12.0434 31.1706 11.8411 31.139 11.3926C31.0118 9.59012 30.2493 7.77212 29.0383 6.36437C29.6052 6.30212 30.1738 6.19737 30.7412 6.19524C32.1297 6.18974 33.6961 6.55299 34.9288 7.20212C37.592 8.60437 38.3937 11.0646 38.9835 13.8296C39.1455 14.5894 40.2741 14.3844 40.2983 13.6516C40.365 11.6366 39.6787 9.82912 38.534 8.37749C44.8785 10.2169 45.8002 18.7079 45.798 24.43C45.7967 27.8275 43.6282 30.5812 41.5572 33.0436ZM45.1573 12.5691C45.0161 12.2931 44.8597 12.0206 44.696 11.751C45.819 11.8637 47.0673 11.7365 48.07 11.6862C49.3531 11.6217 51.1616 11.337 52.5286 11.587C52.0441 11.9512 51.6667 12.5139 51.5832 13.0419C51.4383 13.9589 51.8515 14.4474 52.4232 14.8457C51.2325 14.7669 49.9952 15.0346 48.8255 15.1461C48.1055 15.2147 47.0906 15.0941 46.2296 15.1926C45.951 14.2969 45.5945 13.4236 45.1573 12.5691ZM52.7432 21.7036C52.023 21.8071 51.2778 21.8061 50.504 21.8249C49.5542 21.848 48.3062 21.8164 47.2798 22.0139C47.1931 20.9872 47.0643 19.9624 46.943 18.9455C47.7532 18.975 48.601 18.8369 49.3898 18.8407C50.559 18.8465 51.7202 18.7334 52.8837 18.6321C52.6758 19.1906 52.2806 19.891 52.2933 20.4121C52.306 20.9294 52.4533 21.3539 52.7432 21.7036ZM46.8597 18.2337C46.8565 18.2056 46.853 18.1774 46.8498 18.1492C46.7732 17.4675 46.6522 16.8011 46.4928 16.1467C48.4556 16.073 50.495 16.0222 52.4103 15.6149C52.2856 15.804 52.1978 16.0165 52.1658 16.2542C52.059 17.046 52.6192 17.2459 52.8932 17.7381C50.9412 17.8566 48.7872 17.7589 46.8597 18.2337ZM58.5792 18.8602C57.2546 19.5996 55.9161 20.3136 54.6526 21.0624C54.3403 21.2475 54.0232 21.3846 53.7011 21.4881C53.0551 20.2817 53.3022 19.4982 54.1387 18.3234C54.2332 18.1906 54.217 17.9867 54.1387 17.8522C53.6981 17.0952 52.4352 16.2755 53.951 15.5129C54.2622 15.3562 54.2218 14.9056 53.951 14.7387C53.2991 14.3374 52.693 14.2777 52.5113 13.4424C52.3616 12.7535 52.7192 12.1797 53.2743 11.7997C54.0336 12.0994 54.8212 12.6376 55.5468 12.9867C56.4001 13.3972 57.1935 13.9365 58.0136 14.4105C58.4082 14.6385 58.7935 14.8805 59.1776 15.124C58.6073 15.5132 58.1913 16.4082 58.1248 16.9814C58.0655 17.4946 58.1812 18.3734 58.5792 18.8602ZM59.4836 18.3486C58.7491 17.4909 59.087 16.3589 59.753 15.4867C60.1318 15.7264 60.512 15.9639 60.9018 16.1871C61.1015 16.3014 61.685 16.4954 62.1391 16.6999C61.2911 17.2827 60.3953 17.8249 59.4836 18.3486Z" fill="black"/>
<path d="M36.406 49.9591C34.6307 49.2531 33.0455 50.1656 32.1281 51.567C31.9531 51.7362 31.7937 51.9371 31.6557 52.1872C31.2063 53.0012 31.2487 54.0487 31.6358 54.8789C32.6257 57.0016 35.263 57.104 36.9613 55.8171C38.8977 54.3499 38.8856 50.9452 36.406 49.9591ZM36.1266 54.8405C34.9472 55.7331 33.0437 55.7194 32.4593 54.1269C31.9546 52.7512 33.3748 51.2537 34.7052 51.1152C35.6267 51.0194 36.3336 51.2756 36.8018 52.1164C37.3502 53.1005 36.9898 54.1872 36.1266 54.8405Z" fill="black"/>
</g>
<defs>
<clipPath id="clip0">
<rect width="64" height="64" fill="white" transform="translate(0 0.516602)"/>
</clipPath>
</defs>
</svg>
