<svg width="101" height="101" viewBox="0 0 101 101" fill="none" xmlns="http://www.w3.org/2000/svg">
<path d="M8.5 64.2275L87.5 2.72754L64 97.7275L8.5 64.2275Z" fill="#00FA9A"/>
<path d="M93.2276 9.96146C92.3995 10.1317 91.4518 10.5803 91.0814 10.7602C88.6208 11.9539 85.7914 12.6928 83.1895 13.4292C81.5136 13.9037 79.8489 14.3875 78.249 14.9696C73.095 16.8453 67.8623 18.4011 62.6868 20.2125C57.677 21.966 52.7103 23.8914 47.6465 25.4834C42.5308 27.0916 37.6331 29.3921 32.5691 31.1591C27.3886 32.9666 22.1197 34.5444 16.9729 36.4447C14.4305 37.3834 11.775 38.0014 9.26509 39.0245C8.22631 39.4481 6.45619 39.847 6.33956 41.2314C6.2345 42.4793 7.63783 43.4001 8.47164 44.0472C10.5464 45.658 12.6816 47.2003 14.767 48.7968C16.6145 50.2113 18.7408 51.2418 20.7831 52.3357C22.8888 53.4633 24.9538 54.6347 25.5014 57.056C26.895 63.2188 27.0845 69.6255 27.8241 75.8761C28.2004 79.057 28.7067 82.2144 28.9874 85.4072C29.1291 87.0181 28.868 89.9768 30.1887 91.2102C30.4601 91.4637 30.8333 91.5768 31.1851 91.5282C31.4394 91.6009 31.7244 91.5594 31.9307 91.3434C33.544 89.6532 34.874 87.5907 36.3107 85.7505C38.0425 83.5323 39.7872 81.3094 41.3766 78.9849C42.9845 76.633 44.5555 74.3416 46.3027 72.0955C46.826 71.4227 47.6274 70.5078 48.1135 69.5846C51.0097 71.4124 54.0207 73.109 57.0181 74.6941C59.4059 75.9569 62.52 79.0388 64.743 75.9702C67.3859 72.3221 68.9751 67.6396 70.9148 63.5911C74.7989 55.484 78.2001 47.1408 81.9596 38.9758C84.0844 34.3609 86.5541 29.8898 88.7012 25.2751C89.7478 23.0257 90.7393 20.7383 91.6526 18.4298C92.6039 16.0258 93.9079 13.6788 94.5835 11.1978C94.9291 9.92869 94.153 9.77124 93.2276 9.96146ZM26.2831 53.2532C24.6627 51.7884 22.7856 50.7972 20.8782 49.7644C18.5969 48.5292 16.5711 47.1519 14.4944 45.6112C13.501 44.8742 12.5036 44.1419 11.51 43.4047C10.955 42.9929 9.66018 42.3055 9.03719 41.558C10.1617 40.8834 11.9662 40.5947 13.0489 40.2619C15.028 39.6536 16.9587 38.9794 18.9045 38.2747C22.6252 36.9268 26.4077 35.6779 30.1601 34.4166C37.566 31.927 44.8312 28.9916 52.1817 26.3423C59.2218 23.8048 66.3202 21.4956 73.3997 19.0786C76.9661 17.8612 80.4634 16.4403 84.0268 15.203C81.6173 16.6766 79.2695 18.265 76.8459 19.7175C71.5416 22.8962 66.3061 26.3333 61.1971 29.8458C55.4456 33.8001 49.5436 37.5089 43.9094 41.6429C38.2633 45.7856 32.4116 49.7899 26.4327 53.4167C26.3811 53.3636 26.3386 53.3036 26.2831 53.2532ZM31.301 85.223C31.2246 84.3196 31.1497 83.4168 31.0417 82.5146C30.7056 79.7065 30.2747 76.9098 29.9883 74.0964C29.4436 68.7456 28.9008 63.4456 28.047 58.129C27.8727 57.044 27.723 55.7915 27.2736 54.7223C30.1032 53.8852 32.6429 51.9788 35.0255 50.3337C38.0946 48.2149 41.2539 46.2235 44.2717 44.0321C49.9744 39.8912 56.0187 36.2654 61.6993 32.1143C64.3493 30.1778 67.1622 28.3456 69.9918 26.69C72.5522 25.1917 74.8596 23.3266 77.4347 21.8478C78.2967 21.3529 79.1372 20.8186 79.9703 20.2706C78.2613 21.7276 76.5685 23.2041 74.8775 24.6781C72.1021 27.0973 69.1378 29.2832 66.3013 31.6303C63.2589 34.1478 60.3807 36.8731 57.4236 39.493C52.5456 43.8148 48.0368 48.5527 43.1539 52.8393C42.0332 53.8232 40.923 54.9416 39.8583 55.9895C38.852 56.9804 37.5158 58.2287 36.6892 59.3846C35.7372 60.716 35.7051 62.1499 35.6965 63.6112C35.5008 64.5898 35.3994 65.5976 35.2753 66.358C34.8661 68.8667 34.3447 71.353 33.8991 73.8555C33.4055 76.6276 32.788 79.338 32.0755 82.0604C31.801 83.1109 31.5479 84.1663 31.301 85.223ZM44.1225 71.3207C42.4574 73.4298 41.0353 75.6739 39.5222 77.8954C37.9628 80.1849 36.2422 82.3648 34.579 84.5781C34.2222 85.0527 33.8442 85.5249 33.4659 86.0014C34.0418 83.5927 34.7257 81.2104 35.2648 78.7938C36.3062 74.1249 36.8282 69.3312 37.9277 64.6801C38.0235 64.275 38.1353 63.3274 38.3451 63.0395C38.3908 62.9767 38.4215 62.9261 38.4452 62.8815C38.4731 62.8994 38.5066 62.9169 38.5537 62.933C39.0709 63.1094 39.8499 64.0038 40.286 64.3265C41.8667 65.4969 43.555 66.5432 45.1785 67.6566C45.5148 67.8871 45.8643 68.1052 46.2049 68.3317C45.3857 69.2001 44.7784 70.4897 44.1225 71.3207ZM90.0336 16.2296C89.1643 18.5504 88.1372 20.7872 87.1578 23.0599C85.3304 27.3003 83.2414 31.5483 81.0115 35.5883C76.9746 42.902 74.0273 50.9091 70.6876 58.5587C68.8612 62.7418 66.8376 66.9347 64.7604 70.9956C64.3338 71.8297 63.9411 72.9778 63.3136 73.6984C62.34 74.8171 61.5081 74.588 60.2741 73.8918C58.4953 72.8885 56.6513 71.9921 54.9018 70.9283C51.1743 68.6619 47.5233 66.3439 43.8878 63.9447C42.4055 62.9665 41.0626 61.7926 39.605 60.8102C39.3036 60.607 38.9817 60.4601 38.6574 60.3758C38.7381 60.2622 38.823 60.1502 38.9165 60.0415C40.8531 57.7895 43.2062 55.6984 45.4672 53.7942C47.5925 52.0041 49.3859 49.8568 51.4169 47.958C54.0132 45.5307 56.527 43.0695 59.1868 40.7097C61.9557 38.2532 64.6635 35.7203 67.4894 33.333C70.278 30.9774 73.2351 28.8393 75.9855 26.4373C80.6544 22.3598 85.5825 18.5154 90.2094 14.3975C90.5008 14.2384 90.7864 14.0734 91.0564 13.894C90.6935 14.6639 90.3316 15.4347 90.0336 16.2296Z" fill="black"/>
</svg>
