<svg width="101" height="101" viewBox="0 0 101 101" fill="none" xmlns="http://www.w3.org/2000/svg">
<g clip-path="url(#clip0)">
<ellipse cx="46.0623" cy="42.0162" rx="39.4772" ry="29" transform="rotate(-14.7581 46.0623 42.0162)" fill="#00FA9A"/>
<path fill-rule="evenodd" clip-rule="evenodd" d="M95.4102 16.631C95.9931 16.1757 96.8774 15.9926 97.4385 16.631C101.673 21.4522 102.583 28.4165 97.0604 34.2498C99.6667 37.426 99.3725 41.3681 99.0001 44.8377C98.6122 48.4515 97.6283 51.9455 95.5621 54.9598C95.1607 55.5453 94.2453 55.9794 93.5877 55.4774C87.6437 50.9404 88.7396 42.2762 93.0613 36.8347C93.0342 36.8193 92.9826 36.828 92.9297 36.837C92.8711 36.8469 92.811 36.8571 92.7812 36.8347L92.7634 36.8365C92.2006 36.893 91.6451 36.9487 91.119 37.0298C90.5858 37.112 90.0512 37.1867 89.5166 37.2614C89.1309 37.3153 88.7451 37.3693 88.3599 37.426C88.6223 39.2666 88.3101 41.2224 87.1271 43.2839C82.9387 50.5795 72.4333 53.5429 65.2596 48.7575C65.2578 48.7561 65.2566 48.7545 65.2553 48.7529C65.2538 48.751 65.2524 48.7491 65.2498 48.7477C63.932 56.3684 60.8186 64.2267 55.9321 69.8133C56.5493 73.7492 57.6809 77.5622 59.117 81.2875C59.3634 81.928 58.7218 82.7267 58.7218 82.7267L56.7458 82.6276C56.7458 82.6276 56.4362 82.2973 56.3418 82.0514C55.0774 78.7732 54.383 75.2055 54.2056 71.6529C53.3052 72.5092 52.3587 73.3001 51.3536 73.9925C51.5792 74.6366 51.8505 75.9876 51.8505 75.9876L53 84.2498L51.9957 85.3629C51.9957 85.3629 51.239 86.0817 50.6929 86.0895C50.158 86.0979 49.6245 86.1207 49.091 86.1436C48.9319 86.1504 48.6137 86.1636 48.6137 86.1636C48.6137 86.1636 46.7731 86.2184 43.5789 86.4385C41.9465 86.5513 38.6804 86.7606 38.6804 86.7606C38.6804 86.7606 31.9717 86.8976 30.2895 86.7653C29.6428 86.7139 28.8856 86.3275 28.7684 85.6071C28.1854 82.0177 28.0838 78.3583 28.8897 74.802C28.6992 74.7141 28.5103 74.6174 28.3214 74.5206C28.1152 74.415 27.1586 74.0958 24.4757 72.4179C24.7915 74.1294 24.9679 75.8766 24.999 77.6042C25.0004 77.6826 25.0141 77.866 25.0337 78.1268C25.1895 80.2092 23.3108 85.2327 23.3108 85.2327C23.3108 85.2327 22.4837 85.7474 22.5339 84.7846C22.5339 84.7846 22.3126 84.6122 22.1562 84.4891C21.4466 83.9306 19.2562 82.3756 19.2562 82.3756L17.9824 81.6832C17.9824 81.6832 14.4184 80.5806 14.1337 82.6857C13.6343 86.3742 16.8103 89.6468 19.8858 90.9744C21.1578 91.5241 23.4934 92.2596 23.4934 92.2596C23.4934 92.2596 25.8222 92.9208 27.3432 93.2139C27.8318 93.308 28.5983 93.4338 28.5983 93.4338L32.4621 93.9477L33.6196 94.0437L36.7044 94.2076L37.945 94.2304C39.6234 94.204 42.9799 94.1345 42.9799 94.1345C42.9799 94.1345 46.9037 94.3321 48.6376 93.7242C48.6376 93.7242 50.1197 93.5412 50.8581 93.4342C51.1285 93.395 51.6695 93.3181 51.6695 93.3181L52.9235 93.1501L57.1976 92.3493C57.444 91.9006 60.9209 91.2071 60.9167 91.3332C60.9167 91.3332 66.4582 89.667 68.6484 88.7106C68.3232 88.1858 68.3657 87.4441 68.8864 87.0401C68.7412 85.2285 68.4274 83.2095 68.9279 81.4586C68.9746 81.2948 69.0757 81.1822 69.1883 81.0899C68.7609 80.9094 67.8865 80.5806 67.8865 80.5806L66.7886 80.3566C66.7886 80.3566 66.4089 80.2797 66.1709 80.2295C65.3389 80.054 64.1966 79.813 63.6021 79.8239C63.5718 79.8244 63.3335 79.8886 63.0946 79.953C62.8559 80.0174 62.7813 80.026 62.5833 80.0832C62.2683 80.1741 62.0722 80.1904 61.7895 80.3566C61.0425 80.7956 60.6864 81.8808 60.7496 82.3165C60.7896 82.5882 60.4395 82.6888 60.3384 82.43C60.223 82.1366 60.0271 81.9169 59.8357 81.7023C59.5533 81.3854 59.2805 81.0795 59.2907 80.5635C59.3022 79.9982 59.4152 79.4111 59.77 78.9516C60.4908 78.0155 61.4825 77.419 62.6567 77.2157C65.5164 76.721 68.6302 77.5445 71.1948 78.8131C73.2611 79.8359 76.1166 81.6552 76.1545 84.2795C76.1872 86.5931 73.9705 88.1495 71.7674 88.8501C71.7394 88.8739 71.7126 88.8987 71.6859 88.9235C71.6576 88.9497 71.6294 88.9758 71.5999 89.0005C71.8613 89.5534 71.7845 90.2219 71.0626 90.5544C56.3299 97.3401 26.8686 102.621 14.0953 89.1774C7.32877 82.0551 15.8555 75.7496 22.3758 82.5327C22.6133 82.4601 22.8529 82.5229 23.0168 82.7371C23.2566 81.5836 23.3239 80.333 23.3883 79.1353C23.4166 78.6108 23.4442 78.0964 23.4856 77.6047C23.6438 75.7226 23.8035 73.8177 23.7107 71.9268C14.0782 65.5917 9.08933 55.0291 12.5833 43.4165C16.2137 31.3522 23.8725 23.9753 35.7595 20.9372C35.7014 20.556 35.7351 20.1707 35.8726 19.7812C35.8752 19.7665 35.8779 19.7519 35.8806 19.7373C35.9018 19.6208 35.923 19.5046 35.9405 19.3875C36.0136 18.8954 36.0722 18.3928 36.1319 17.8425C36.1569 17.6102 36.1768 17.3772 36.1966 17.1443C36.2089 17.0008 36.2211 16.8573 36.2346 16.714C25.2962 19.859 11.0925 22.2312 1.30852 15.5611C0.530057 15.0305 0.275928 14.1369 0.712614 13.289C5.61055 3.77629 27.727 0.62147 34.8737 9.7732C35.2549 9.68555 35.6672 9.70007 36.0551 9.87433C36.8165 10.2161 37.6246 10.3936 38.4348 10.5715C38.9645 10.6878 39.4952 10.8043 40.0143 10.9671C48.1314 7.36313 72.6273 0.934721 73.6412 11.201C74.3341 18.2066 66.7294 20.0529 61.0562 20.0063C64.7644 20.6177 68.3076 21.529 71.5045 22.7519C76.4123 24.6293 85.0023 29.0221 87.6494 34.9874C88.6638 34.7255 91.1491 34.0842 92.1667 33.8332C89.4568 28.3642 91.1698 19.943 95.4102 16.631ZM33.5429 11.5542C26.3333 3.4165 7.47774 6.31533 1.75 14.2498C15.9167 22.9998 34.8737 14.8547 35.1454 13.6147C35.1441 13.5912 35.14 13.5682 35.1359 13.5453C35.1303 13.5141 35.1248 13.4831 35.1263 13.4508C34.5775 13.135 34.1129 12.7071 33.7752 12.1537C33.6502 11.9488 33.5792 11.7487 33.5429 11.5542ZM73.2942 84.2266C72.9877 83.2137 70.8663 82.0888 69.6667 81.4586C70.023 82.9181 69.8103 85.2301 69.6667 86.7606C70.2925 86.5411 73.4863 84.8704 73.2942 84.2266ZM70.9167 9.24984C66.0156 6.96528 56.8087 7.97225 51.75 8.83317C49.8931 9.149 48.0512 10.0039 46.2058 10.8605C44.8329 11.4977 43.4581 12.1359 42.0738 12.5536C44.0426 13.0786 45.9673 14.0355 47.9064 14.9994C50.3822 16.2302 52.8812 17.4726 55.525 17.8425C58.8447 18.3067 63.8848 18.5613 67.1667 17.5832C68.8714 17.0749 74.4024 10.8747 70.9167 9.24984ZM39.9106 19.052C39.893 19.485 39.6331 19.8076 39.3002 20.0042C39.297 20.0327 39.293 20.0609 39.2889 20.089C39.2849 20.1165 39.281 20.144 39.2779 20.1717C43.3097 19.4181 47.4676 19.0987 51.5709 19.1568C47.0241 18.5157 42.1749 17.3343 39.6508 14.8547C39.6809 15.4117 39.6529 15.9786 39.6145 16.5455C39.6476 16.8034 39.6916 17.0631 39.7357 17.323C39.8342 17.9044 39.9328 18.4868 39.9106 19.052ZM30.0598 78.7061C29.8587 81.1181 29.6379 83.7656 30.0833 85.6071C33.9108 85.7919 39.0445 85.4155 43.7735 85.0688C46.2783 84.8851 48.6695 84.7098 50.6929 84.6306C50.6531 83.5453 50.5367 81.9566 50.4159 80.3092C50.2628 78.2205 50.1028 76.0374 50.0833 74.6665C45.5951 76.8567 38.8526 78.295 32.5736 76.2625C31.8044 76.0136 31.0322 75.72 30.261 75.4031C30.2555 76.3595 30.1601 77.5036 30.0598 78.7061ZM66.9091 47.1563C67.2945 47.8894 67.6699 48.6036 67.8865 48.7477C80.4799 53.6352 98.5002 36.2466 77.5833 27.9998C71.6638 24.974 62.173 22.0179 55.525 21.7498C45.8551 21.3603 34.3433 21.3753 25.9167 26.7498C15.5014 33.3931 9.5123 49.8516 17.1667 61.3332C29.1002 62.1287 56.3367 63.7198 55.9321 45.0832C55.747 36.5533 41.75 27.1665 22.3991 33.4471C22.1164 34.0528 21.2187 33.7188 21.2062 33.124C21.1275 29.4278 33.7056 30.2013 37.8057 30.4534C38.2666 30.4818 38.6205 30.5036 38.837 30.5116C45.9246 30.7761 55.4311 32.8019 56.6312 41.3712C59.8545 64.3838 33.614 63.9536 17.1667 62.9998C23.0749 69.8629 34.5594 77.5176 43.6401 75.4031C57.2525 72.2333 61.1215 56.3388 63.7442 44.0997C63.9926 42.9416 65.924 43.188 65.8218 44.3808C65.7998 44.6346 65.7721 44.8908 65.7444 45.147C65.7356 45.2286 65.7268 45.3101 65.7181 45.3916C65.9445 45.3215 66.4344 46.2532 66.9091 47.1563ZM95.8873 36.2689C88.8333 40.9165 89.25 51.3332 94.25 54.2498C96.6777 53.093 97.8797 45.8467 98 42.1665C98.1919 36.2974 97.0211 36.1913 96.4455 36.1392C96.3673 36.1321 96.3001 36.126 96.2488 36.1066C96.1966 36.1275 96.1467 36.1524 96.0966 36.1773C96.0287 36.2112 95.9608 36.245 95.8873 36.2689ZM96.6777 32.8055C96.7539 32.5685 96.9033 32.4124 97.0604 32.2744C99.0001 31.3332 101.764 19.9374 96.6777 17.9998C94.3262 17.4374 92.1711 23.508 91.75 25.9165C91.3835 28.0118 92.2604 29.8554 93.0986 31.6174C93.3859 32.2215 93.6687 32.8159 93.8952 33.4076C94.7774 33.1929 95.6596 33.0737 96.5989 33.2158C96.615 33.1551 96.6242 33.0913 96.6333 33.0275C96.6442 32.9517 96.6552 32.8759 96.6777 32.8055Z" fill="black"/>
<path d="M43.5789 86.4385C45.2112 86.3257 45.0298 86.3436 43.5789 86.4385V86.4385Z" fill="black"/>
</g>
<defs>
<clipPath id="clip0">
<rect width="100" height="100" fill="white" transform="translate(0.5 0.916016)"/>
</clipPath>
</defs>
</svg>
