<svg width="101" height="101" viewBox="0 0 101 101" fill="none" xmlns="http://www.w3.org/2000/svg">
<g clip-path="url(#clip0)">
<circle cx="49.5" cy="57.916" r="40" fill="#00FA9A"/>
<path d="M68.4752 61.7882C66.9808 58.2067 61.3419 57.7659 58.1146 57.6802C52.2966 57.5259 45.8346 60.0744 41.0431 63.3096C34.0837 61.6301 27.2919 59.5077 20.1925 58.4383C17.516 58.0344 10.878 56.6034 8.50344 58.9997C4.04975 63.4951 14.7714 69.3967 20.0751 71.4103C17.3178 71.9696 14.3659 73.5946 12.2012 75.3084C9.95558 72.3068 4.47635 70.7527 1.19516 71.6698C0.655961 71.8205 0.284864 72.5378 0.639573 73.0358C2.2503 75.2983 3.81927 77.3906 6.16585 78.8935C1.28926 78.523 0.249974 86.0453 4.95318 87.4716C8.07948 88.4194 11.4421 88.3872 14.6487 87.7993C22.5385 86.3514 30.5298 85.1683 38.1944 82.7478C40.6223 88.0906 45.3879 97.2618 51.9545 95.2414C57.7256 93.4662 57.2271 82.8524 56.9136 77.5614C57.1213 77.5503 57.3265 77.4916 57.4998 77.3462C61.1458 74.2913 70.8916 67.5767 68.4752 61.7882ZM66.6012 64.2606C65.6671 69.1943 59.2739 72.1075 56.2703 75.8106C55.8928 75.745 55.4741 75.9475 55.4889 76.4455C55.5714 79.1563 55.2215 81.9876 54.7938 84.6556C54.3809 87.2289 53.7868 91.2396 51.5163 92.8694C47.8587 95.4951 42.1564 86.0189 39.3753 82.051C39.6777 81.3813 39.1686 80.4202 38.2372 80.6565C38.2308 80.6581 38.224 80.6597 38.2176 80.6613C38.059 80.61 37.8989 80.657 37.7762 80.768C31.4945 82.3513 25.1917 83.6432 18.8265 84.8543C16.1247 85.3682 13.4842 85.9169 10.7364 86.1093C7.04813 86.3678 2.36131 83.4868 6.43228 79.4946C6.55333 79.3751 6.55809 79.226 6.49624 79.1055C6.75897 79.2059 7.0809 78.9089 6.89641 78.6493C5.61713 76.8451 4.32728 75.0441 3.05276 73.234C6.17906 73.0046 8.98291 74.8897 11.3337 76.8282C11.357 76.8446 11.3723 76.8699 11.3982 76.8816C11.5066 76.9714 11.6197 77.0602 11.726 77.1501C12.3138 77.646 13.0507 77.0899 12.8419 76.4143C14.0112 75.9205 15.1578 75.3686 16.3033 74.8279C18.2387 73.9133 20.3764 73.4973 22.2795 72.5505C22.5369 72.4226 22.6093 72.1874 22.6046 71.95C22.7484 71.7914 22.7664 71.5329 22.539 71.3664C20.2681 69.7097 17.8068 68.3807 15.4665 66.8234C13.888 65.746 12.3994 64.555 10.9996 63.2498C7.25006 59.7561 17.8395 60.2684 17.7254 60.2605C25.4528 60.8065 33.1148 63.2604 40.6905 64.8162C40.8137 64.9076 40.9707 64.942 41.1547 64.9039C41.4475 64.943 41.6807 64.831 41.8382 64.6502C45.3689 63.216 48.7653 61.5873 52.461 60.5671C55.3103 59.782 67.6865 58.5276 66.6012 64.2606Z" fill="black"/>
<path d="M78.1387 13.0666C62.9333 3.80134 44.6163 4.44627 29.1931 12.63C16.6714 19.2743 2.63691 38.9519 12.6935 53.0065C13.4077 54.0046 14.8234 53.1641 14.3249 52.0529C10.6033 43.7624 12.2024 35.5333 16.4885 28.5575C16.5018 28.6024 16.4975 28.6453 16.5176 28.6907C17.2773 30.4352 18.3208 31.3428 19.8258 32.5143C21.9503 34.1673 22.3933 38.5618 23.3797 40.9877C25.8743 47.1224 19.9452 48.3456 19.0899 53.4226C18.9445 54.2864 20.1831 54.667 20.4258 53.791C21.159 51.1405 23.8153 49.7544 25.3489 47.6399C26.6398 45.86 26.4738 43.6033 25.8965 41.6437C25.1168 38.9968 24.0876 36.285 23.1841 33.6693C22.2775 31.0452 19.3706 30.2301 18.2573 27.6742C18.0713 27.2476 17.7282 27.1144 17.3888 27.163C21.3049 21.42 27.0109 16.628 32.9342 13.5117C36.883 11.4342 41.02 10.1079 45.2232 9.40744C46.9317 10.8992 48.5852 11.791 50.6675 12.8081C58.7254 16.7443 55.3189 22.7897 50.0797 26.2532C47.9858 27.6372 45.6286 28.6072 43.475 29.8955C40.6526 31.5839 39.6831 34.9016 36.5759 36.6445C34.4714 37.8249 30.8408 39.2405 31.481 42.4588C31.8336 44.2308 32.4975 45.2854 33.6177 46.7555C33.9771 47.2276 40.8926 56.5536 39.2127 55.9108C38.9462 55.8088 38.5736 55.924 38.3864 56.1292L37.1775 57.4512C36.6969 57.9767 37.3371 58.9261 37.9709 58.4794C38.7052 58.4234 39.4395 58.3663 40.1737 58.3097C40.5945 58.5307 41.2653 58.4583 41.4831 57.9661C43.2588 53.9523 40.6299 51.2008 37.9281 48.2859C36.2159 46.4389 30.9143 42.2981 35.8982 39.157C37.022 38.4487 38.3901 38.1669 39.4215 37.2873C42.8216 34.3867 45.3363 31.1409 49.4485 29.0438C52.837 27.3158 59.115 23.3251 58.5948 18.6362C57.9758 13.0698 53.1203 11.2904 48.6471 8.97396C58.2924 8.16728 68.1238 10.6138 76.7489 15.4444C80.8336 17.7323 84.4146 20.6175 87.4145 23.9521C82.1018 24.8946 82.807 32.0311 79.3202 35.602C78.6562 36.2818 79.1378 37.4395 80.0867 37.4522C84.1878 37.5051 79.2398 43.246 83.0401 45.8532C85.8556 47.7848 87.7941 46.6873 88.3936 44.3693C88.7308 44.5184 89.1384 44.6019 89.7194 44.6019C90.3484 44.6019 95.2647 43.2005 90.3294 45.1374C89.5058 45.4604 88.992 46.8459 90.0466 47.3021C91.0208 47.7229 85.7097 48.8642 86.5539 48.5243C83.6956 49.6767 84.3585 49.2898 81.93 51.3419C79.0617 53.7667 82.3482 60.8292 81.8899 63.3343C80.7063 69.7979 74.3294 77.4524 80.6222 82.7725C76.8409 85.2354 72.5263 86.9857 67.7575 87.7654C66.6188 87.952 66.9366 89.7028 68.0218 89.7197C86.2827 89.9983 98.0891 70.4719 100.168 54.4819C102.456 36.867 92.7394 21.9634 78.1387 13.0666ZM82.3492 81.5503C82.3418 81.5414 82.3402 81.5318 82.3323 81.5239C77.5318 76.4877 83.5815 67.6754 84.4468 62.3215C84.6884 60.8255 84.0377 58.9985 83.6359 57.5935C81.5954 50.4549 90.6878 50.7567 94.1773 49.7491C95.0527 49.4965 95.2197 48.4931 94.6795 47.8466C94.0171 47.0542 93.7216 46.6625 93.4552 46.404C95.2493 45.5487 96.9552 44.2842 96.4076 42.2934C95.0315 37.291 89.9773 43.2042 88.2048 40.9628C87.607 40.2069 86.205 40.8238 86.288 41.7568C83.9166 40.8555 83.6031 39.6746 85.3465 38.2134C85.6727 37.7081 85.4533 36.4341 85.4449 36.1549C85.4264 35.574 84.9807 35.1173 84.395 35.1051C84.3295 35.104 84.257 35.1098 84.1904 35.1098C84.219 35.0702 84.2581 35.0369 84.2824 34.9951C86.1998 31.7219 83.0523 26.9986 88.235 25.1637C88.2958 25.142 88.3439 25.1061 88.3925 25.0717C93.8781 31.6415 97.1561 39.8326 97.4907 48.7516C97.9749 61.6686 92.2488 74.1865 82.3492 81.5503Z" fill="black"/>
</g>
<defs>
<clipPath id="clip0">
<rect width="100" height="100" fill="white" transform="translate(0.5 0.916016)"/>
</clipPath>
</defs>
</svg>
