<svg width="116" height="113" viewBox="0 0 116 113" fill="none" xmlns="http://www.w3.org/2000/svg">
<path d="M95.6003 19.0083C99.1003 22.0083 95.3082 58.8106 76.1265 78.0296C56.9447 97.2486 45.1004 115.008 22.7476 94.2177C-2.39965 70.8279 19.6503 60.0265 38.8321 40.8075C58.0138 21.5885 91.6003 13.5083 95.6003 19.0083Z" fill="#00FA9A"/>
<g clip-path="url(#clip0)">
<path d="M97.1443 6.91971C83.454 6.74642 70.1988 12.692 58.7738 19.7675C53.0728 23.2984 47.9468 27.6048 43.3501 32.4706C40.2089 35.7954 35.4373 40.2366 34.6432 44.9181C34.6416 44.927 34.6442 44.9337 34.6432 44.9426C28.506 43.9481 21.5232 46.0568 15.4631 47.1564C15.1238 47.0934 14.7783 47.1548 14.4733 47.375C14.3349 47.4348 14.2282 47.5196 14.1668 47.632C11.2249 50.6811 8.47303 54.8053 6.76298 58.6532C6.61623 58.9836 6.64797 59.312 6.77183 59.5889C6.53296 59.9198 6.6027 60.5131 7.08511 60.6187C11.8296 61.6528 16.4748 63.1245 21.1949 64.247C17.0545 67.6963 17.7284 73.0455 21.1563 77.1843C24.9064 81.7113 32.0047 84.0583 37.4409 81.4396C37.3836 85.9776 39.0734 91.0411 40.9588 94.9749C41.3907 95.8757 42.4784 95.6816 42.9764 95.0389C45.1741 94.9166 46.9174 93.5021 48.6774 92.2037C51.3794 90.2095 54.8593 89.3118 57.3521 87.0626C58.0104 86.4683 57.7252 85.415 57.0778 84.9799C57.0773 82.737 56.8135 80.4977 56.4778 78.2782C56.1349 76.0092 56.1146 73.2615 55.1352 71.1205C81.3245 61.4405 93.5827 36.6749 97.6741 10.1108C99.239 9.54672 99.0881 6.94469 97.1443 6.91971ZM53.5047 69.6493C52.976 69.628 52.4691 69.8804 52.3172 70.4659C52.2282 70.6402 52.2011 70.8333 52.2349 71.0263C51.9909 73.3499 52.875 75.6533 53.3819 77.9311C53.9263 80.3806 54.4487 82.8432 55.2325 85.2266C53.1732 86.1483 51.2092 87.4295 49.2967 88.5926C47.136 89.9056 45.4952 92.6554 43.0316 93.4626C41.742 88.9574 39.4626 84.7135 39.1197 79.9575C39.0682 79.2467 38.4031 79.04 37.941 79.2924C37.6261 78.8392 37.1083 78.5592 36.5 78.8064C32.1114 80.5929 27.6177 79.1363 24.2221 76.0139C20.676 72.752 20.5433 68.4992 23.2198 64.7268L23.2224 64.7273C24.5572 65.0084 25.0844 63.1136 23.7849 62.6868C18.9415 61.0975 13.8296 60.1597 8.75717 59.555C11.723 56.557 13.9997 52.567 16.48 49.1891C16.5341 49.1157 16.5461 49.0413 16.5815 48.9669C22.7446 49.2828 29.7045 48.8368 35.545 47.3703C36.2195 47.2011 36.4958 46.4913 36.3579 45.8991C36.4177 45.8413 36.4807 45.7919 36.5328 45.7159C49.634 26.6056 71.2599 12.3777 94.5678 10.4408C92.7277 22.9081 88.8756 34.5485 82.4575 45.4677C76.0711 56.3322 64.2677 63.8603 53.5047 69.6493Z" fill="black"/>
<path d="M77.5286 30.6398C77.3256 28.8423 76.52 27.0615 75.054 25.9509C73.8535 25.0418 71.8785 24.485 70.4016 25.0735C62.2094 23.925 60.7918 39.7448 70.6087 39.341C75.0259 39.1593 78.0026 34.8343 77.5286 30.6398ZM70.6087 36.2357C67.8319 36.5755 66.611 34.4528 66.7541 31.9772C66.8587 30.1662 67.9875 28.3484 69.5346 27.2769C69.6465 27.3737 69.7615 27.4695 69.9067 27.5299C71.048 28.0029 72.2064 27.547 73.3159 28.247C74.1969 28.8033 74.4373 30.0684 74.4821 31.016C74.5982 33.4583 73.1832 35.9209 70.6087 36.2357Z" fill="black"/>
<path d="M24.4205 89.4594C23.9277 92.2998 22.9749 94.6957 20.8157 96.3298C20.0923 93.3973 18.9729 90.852 17.0782 88.3135C16.2663 87.2258 14.6078 87.5703 14.5172 89.0072C14.1405 94.9835 12.7005 99.7598 7.944 103.159C6.94483 97.917 9.05143 92.7114 8.66424 87.3616C8.60596 86.554 8.0637 86.0023 7.25186 85.9493C6.62842 85.8837 6.00393 85.8504 5.37893 85.8405C5.97115 80.0999 8.71524 76.1672 13.3078 72.4359C13.8568 71.9894 13.2688 71.0173 12.6178 71.2504C5.51423 73.7848 2.58279 80.179 2.26482 87.3622C2.23048 88.1344 2.96997 88.9062 3.75578 88.8531C4.44168 88.773 5.12809 88.7428 5.81503 88.7392C5.55482 94.6692 3.3353 100.469 5.79057 106.198C6.09448 106.907 7.17485 107.11 7.78112 106.72C13.1673 103.256 15.6127 98.9068 16.6936 93.3203C17.4794 95.1256 18.0243 97.0021 18.3625 99.0723C18.5332 100.116 19.764 100.309 20.5534 99.9638C24.6828 98.1564 27.0783 94.308 27.16 89.831C27.1886 88.2864 24.6938 87.8867 24.4205 89.4594Z" fill="black"/>
</g>
<defs>
<clipPath id="clip0">
<rect width="100" height="100" fill="white" transform="translate(0.5 6.91602)"/>
</clipPath>
</defs>
</svg>
