<svg width="170" height="90" viewBox="0 0 170 90" fill="none" xmlns="http://www.w3.org/2000/svg">
<path d="M24.444 70C35.1419 70 41.0917 70 44.9898 66.0906C48.888 62.1812 48.888 56.2142 48.888 45.4853C48.888 34.7565 48.888 28.7894 44.9898 24.88C41.0917 21 35.1419 21 24.444 21C13.7461 21 7.76698 21 3.89814 24.9094C0 28.7894 0 34.7565 0 45.4853C0 56.2142 0 62.1812 3.89814 66.0906C7.76698 70 13.7168 70 24.444 70Z" fill="white"/>
<path d="M33.6177 40.665C31.7712 40.665 30.3937 42.1054 30.3937 43.869C30.3937 45.3093 31.3902 46.4263 32.6798 46.7496L30.0713 50.7766H32.504L34.7315 47.0436H36.4021V50.7766H38.4538V40.665H33.6177ZM33.8815 45.3093C33.0315 45.3093 32.5333 44.6626 32.5333 43.8984C32.5333 43.1341 33.0022 42.4287 33.8815 42.4287H36.4021V45.3093H33.8815Z" fill="black"/>
<path d="M22.4217 40.665L21.7476 42.5463L24.5319 42.5169L22.8906 48.5721C22.4217 50.3357 24.2682 51.6878 25.8216 50.6296L29.3973 48.2193L28.3422 46.6614L24.7957 49.1305L27.1991 40.665H22.4217Z" fill="black"/>
<path d="M27.6679 38.0784C27.6679 38.7839 27.3455 39.3423 26.2611 39.3423C25.206 39.3423 24.8542 38.7839 24.8542 38.0784C24.8542 37.3729 25.206 36.8145 26.2611 36.8145C27.3455 36.8145 27.6679 37.3729 27.6679 38.0784Z" fill="black"/>
<path d="M19.0511 48.8954V38.3135H11.2255V43.9571C11.2255 46.632 10.4635 48.2487 9.99454 48.8954H9.05664V53.5102H11.0497V50.7766H18.4649V53.5102H20.458V48.8954H19.0511ZM13.1893 43.8396V40.1947H16.9995V48.8954H12.0755C12.5151 48.1605 13.1893 46.2793 13.1893 43.8396Z" fill="black"/>
<path d="M75.8233 62.2984C74.0354 60.9462 72.7458 58.8886 72.3062 56.5371H66.5615V31.6697C69.639 33.2276 71.8665 36.6079 72.1303 40.1352L72.9803 47.1604L72.5406 47.1016C71.6027 47.1016 70.8114 47.954 70.8114 48.8359C70.8114 49.6295 71.4269 50.335 72.2182 50.5113L73.2734 50.7465C75.0026 47.4543 75.9991 44.2504 75.9991 41.1052C75.9991 38.254 75.6181 35.4027 75.5595 32.4927C75.5595 31.1994 76.0578 30.0236 76.8491 29.083C77.6405 30.0236 78.1387 31.1994 78.1387 32.4927C78.1387 35.4027 77.6991 38.254 77.6991 41.1052C77.6991 44.2504 78.6956 47.4837 80.4248 50.7465L81.48 50.5113C82.2713 50.335 82.8868 49.6589 82.8868 48.8359C82.8868 47.9834 82.0955 47.1016 81.1576 47.1016L80.7179 47.1604L81.5679 40.1646C82.0075 36.6373 84.0299 33.2276 87.1074 31.6991V56.5665H81.3627C80.9231 58.918 79.6921 61.0344 77.8456 62.3278C77.406 62.6511 77.0543 63.0038 76.7905 63.5035C76.6146 63.0038 76.2336 62.6217 75.8233 62.2984ZM69.258 47.954C69.4925 47.0134 70.1959 46.2198 71.0458 45.7201L70.3717 39.9588C70.1373 38.1658 69.3752 36.5491 68.2615 35.2558V47.954H69.258ZM72.1596 54.8323C72.1596 53.9798 72.2768 53.1568 72.482 52.3631L71.6907 52.1868C70.5183 51.8047 69.5804 50.8934 69.2873 49.7177H68.2908V54.8617H72.1596V54.8323ZM75.9991 54.8323C75.9991 53.7741 75.2078 52.8629 74.1526 52.7159C73.9768 53.3919 73.8302 54.068 73.8302 54.8323H75.9991ZM75.9991 56.5665H74.094C74.4164 57.9186 75.0905 59.1532 75.9991 60.2114V56.5665ZM78.7249 51.1874C77.9922 49.8353 77.318 48.3949 76.8784 46.9252C76.4388 48.4243 75.7647 49.8353 75.0319 51.1874C75.7647 51.3638 76.3801 51.8635 76.8784 52.4219C77.3474 51.8635 77.9629 51.3638 78.7249 51.1874ZM79.8973 54.8323C79.8973 54.0974 79.78 53.4213 79.5749 52.7159C78.5197 52.8335 77.7284 53.7741 77.7284 54.8323H79.8973ZM79.6335 56.5665H77.7284V60.2114C78.637 59.1532 79.3404 57.9186 79.6335 56.5665ZM85.4367 54.8323V49.6883H84.4402C84.1178 50.864 83.2092 51.8047 82.0369 52.1574L81.2455 52.3338C81.4214 53.1274 81.5679 53.9504 81.5679 54.8029H85.4367V54.8323ZM85.4367 47.954V35.2558C84.323 36.5491 83.5316 38.1658 83.3265 39.9588L82.6523 45.7201C83.5023 46.2198 84.2057 47.0134 84.4402 47.954H85.4367Z" fill="white"/>
<path d="M76.6146 21.7642C87.1367 21.7642 92.9106 21.7642 96.5743 25.4385C100.238 29.1128 100.238 34.9034 100.238 45.4559C100.238 56.0084 100.238 61.799 96.5743 65.4733C92.9106 69.1476 87.1367 69.1476 76.6146 69.1476C66.0926 69.1476 60.3186 69.1476 56.655 65.4733C52.9913 61.799 52.9913 56.0084 52.9913 45.4559C52.9913 34.9034 52.9913 29.1128 56.655 25.4385C60.2893 21.7642 66.0926 21.7642 76.6146 21.7642ZM76.6146 21C65.9167 21 59.9962 21 56.0981 24.88C52.2292 28.76 52.2292 34.7271 52.2292 45.4559C52.2292 56.1848 52.2292 62.1224 56.0981 66.0318C59.9669 69.9118 65.9167 69.9118 76.6146 69.9118C87.3125 69.9118 93.233 69.9118 97.1312 66.0318C101 62.1518 101 56.1848 101 45.4559C101 34.7271 101 28.7894 97.1312 24.88C93.233 21 87.2832 21 76.6146 21Z" fill="white"/>
</svg>
