<svg width="256" height="90" viewBox="0 0 256 90" fill="none" xmlns="http://www.w3.org/2000/svg">
<path fill-rule="evenodd" clip-rule="evenodd" d="M46.0202 41.1856C47.1078 40.0139 48.4312 39.3471 50.2189 39.3471H51.0047V43.5988C46.7436 43.5988 46.0202 43.6614 46.0202 45.2377V50.5471H41.8833V39.3471H46.0202V41.1856ZM77.1897 39.135C80.5612 39.135 83.1881 40.9814 83.1881 44.9427C83.1881 48.904 80.5612 50.7501 77.1897 50.7501C75.108 50.7501 73.7319 49.7428 72.9912 48.8049V50.5427H68.8547V36.833H72.9912V41.0806C73.7319 40.1426 75.108 39.135 77.1897 39.135ZM76.0111 47.0788C77.6864 47.0788 78.824 46.3322 78.824 44.9427C78.824 43.5532 77.6864 42.8066 76.0111 42.8066C74.1496 42.8066 72.9912 43.5532 72.9912 44.9427C72.9912 46.3322 74.1496 47.0788 76.0111 47.0788ZM91.7514 38.9692C95.7642 38.9692 99.0319 40.8148 99.0319 44.9423C99.0319 49.1115 95.7642 50.833 91.7514 50.833C87.7382 50.833 84.4706 49.1115 84.4706 44.9423C84.4706 40.8148 87.7382 38.9692 91.7514 38.9692ZM91.7515 47.1622C93.4267 47.1622 94.5645 46.3741 94.5645 44.9424C94.5645 43.511 93.4267 42.723 91.7515 42.723C89.8896 42.723 88.7319 43.511 88.7319 44.9424C88.7319 46.3741 89.8896 47.1622 91.7515 47.1622ZM59.7694 38.9692C63.7823 38.9692 67.0498 40.8148 67.0498 44.9423C67.0498 49.1115 63.7823 50.833 59.7694 50.833C55.7562 50.833 52.4886 49.1115 52.4886 44.9423C52.4886 40.8148 55.7562 38.9692 59.7694 38.9692ZM59.7694 47.1622C61.4446 47.1622 62.5824 46.3741 62.5824 44.9424C62.5824 43.511 61.4446 42.723 59.7694 42.723C57.9075 42.723 56.7497 43.511 56.7497 44.9424C56.7497 46.3741 57.9075 47.1622 59.7694 47.1622ZM106.395 36.8535V39.3425H110.325V43.0758H106.395V45.565C106.395 46.8921 108.298 46.6437 110.325 46.5394V50.5429C108.939 50.7499 107.512 50.7499 107.264 50.7499C104.844 50.7499 102.258 49.6712 102.258 46.1869V43.0758H99.9834V39.3425H102.258V36.8535H106.395ZM122.135 41.0806V39.3425H126.272V50.5427H122.135V48.8048C121.395 49.7425 120.019 50.7501 117.937 50.7501C114.565 50.7501 111.938 48.904 111.938 44.9427C111.938 40.9814 114.565 39.1349 117.937 39.1349C120.019 39.1349 121.395 40.1426 122.135 41.0806ZM119.115 47.0788C120.977 47.0788 122.135 46.3322 122.135 44.9427C122.135 43.5532 120.977 42.8066 119.115 42.8066C117.44 42.8066 116.302 43.5532 116.302 44.9427C116.302 46.3322 117.44 47.0788 119.115 47.0788ZM160.234 39.363H164.371V50.5632H160.234V48.8255C159.494 49.7633 158.117 50.7706 156.035 50.7706C152.665 50.7706 150.037 48.9249 150.037 44.9632C150.037 41.0019 152.665 39.1555 156.035 39.1555C158.117 39.1555 159.494 40.1631 160.234 41.1011V39.363ZM157.214 47.0998C159.077 47.0998 160.234 46.3527 160.234 44.9632C160.234 43.5738 159.077 42.8271 157.214 42.8271C155.539 42.8271 154.402 43.5738 154.402 44.9632C154.402 46.3527 155.539 47.0998 157.214 47.0998ZM130.594 46.249C132.249 46.249 133.201 47.3284 133.201 48.5103C133.201 49.6926 132.249 50.7298 130.594 50.7298C128.92 50.7298 127.968 49.6926 127.968 48.5103C127.968 47.3284 128.92 46.249 130.594 46.249ZM143.894 43.9885V39.3424H148.031V50.5427H143.894V48.7858C143.184 49.719 141.735 50.7501 139.902 50.7501C136.221 50.7501 134.194 48.8631 134.194 45.0255V39.3424H138.33V44.279C138.33 46.2288 139.385 46.6433 141.102 46.6433C142.839 46.6433 143.894 45.9381 143.894 43.9885Z" fill="white"/>
<path fill-rule="evenodd" clip-rule="evenodd" d="M13.9466 41.2393V39.4004H9.81006V50.6005H13.9466V45.291C13.9466 43.7144 14.6705 43.6524 18.9311 43.6524V39.4004H18.1453C16.3576 39.4004 15.0342 40.0677 13.9466 41.2393Z" fill="white"/>
<path fill-rule="evenodd" clip-rule="evenodd" d="M0 45.0001C0 37.2791 6.26171 31 13.9613 31C21.6607 31 27.9222 37.2791 27.9222 45.0001C27.9222 52.7211 21.6607 59 13.9613 59C6.26171 59 0 52.7211 0 45.0001ZM2.79222 45.0001C2.79222 51.1744 7.80417 56.2 13.9613 56.2C20.1184 56.2 25.13 51.1744 25.13 45.0001C25.13 38.8258 20.1184 33.8 13.9613 33.8C7.80417 33.8 2.79222 38.8258 2.79222 45.0001Z" fill="white"/>
</svg>
