<svg width="256" height="90" viewBox="0 0 256 90" fill="none" xmlns="http://www.w3.org/2000/svg">
<g clip-path="url(#clip0_54_1236)">
<path d="M45.2728 28.9541H49.2348L48.9471 29.8093H46.3119V31.5372H46.826C47.5495 31.5372 48.1237 31.6267 48.5701 31.8553C49.1749 32.1626 49.5013 32.7105 49.5013 33.4936C49.5013 34.6669 48.7979 35.5007 46.9167 35.5007H45.2715V28.9541H45.2728ZM46.9473 34.6375C47.9679 34.6375 48.4435 34.2794 48.4435 33.5243C48.4435 33.0767 48.2756 32.7599 47.9679 32.5902C47.7 32.4406 47.3243 32.4018 46.8487 32.4018H46.3132V34.6375H46.9473Z" fill="white"/>
<path d="M50.491 35.5225V34.5577C50.5896 34.5777 50.6587 34.5777 50.6987 34.5777C50.9758 34.5777 51.2342 34.4387 51.4314 34.1207C52.0257 33.1759 52.4225 30.7518 52.5799 28.9531H55.869V35.5011H54.8192V29.8084H53.4524C53.3031 31.5082 52.8676 33.8026 52.2134 34.8062C51.8564 35.3421 51.4008 35.5506 50.8066 35.5506C50.748 35.5519 50.5909 35.5519 50.491 35.5225Z" fill="white"/>
<path d="M59.6808 28.9238H60.4828L63.0685 35.5012H61.9495L61.306 33.8228H58.8894L58.2647 35.5012H57.1748L59.6808 28.9238ZM60.989 32.9689L60.4534 31.4789C60.2749 30.943 60.1763 30.645 60.1071 30.4258H60.0871C60.0272 30.6544 59.9286 30.9524 59.7301 31.4789L59.1944 32.9689H60.989Z" fill="white"/>
<path d="M64.3845 28.9541H67.9402L67.6432 29.8374H65.4251V35.5007H64.3845V28.9541Z" fill="white"/>
<path d="M68.8696 32.2517C68.8696 30.2646 70.2259 28.8936 72.1283 28.8936C74.0399 28.8936 75.3774 30.2847 75.3774 32.2517C75.3774 34.2789 73.9908 35.6006 72.1283 35.6006C70.2366 35.6019 68.8696 34.2683 68.8696 32.2517ZM74.2771 32.2517C74.2771 30.7711 73.4645 29.7782 72.127 29.7782C70.8401 29.7782 69.9767 30.723 69.9767 32.2517C69.9767 33.7818 70.8388 34.7159 72.127 34.7159C73.4166 34.7159 74.2771 33.7818 74.2771 32.2517Z" fill="white"/>
<path d="M76.4937 34.6081H76.8907C77.7911 33.4856 78.4252 31.4784 78.8117 28.9541H81.893V34.6081H82.7149V37.3395H81.7051V35.5021H77.5048V37.3409H76.495V34.6081H76.4937ZM80.8526 29.8093H79.6349C79.3272 31.9341 78.7036 33.5951 78.059 34.588V34.6081H80.8526V29.8093Z" fill="white"/>
<path d="M84.1965 28.9541H85.2369V35.5021H84.1965V28.9541Z" fill="white"/>
<path d="M87.2462 28.9542H88.2866V32.6705C88.2866 33.0781 88.276 33.4456 88.2666 33.793H88.2866C88.4944 33.4763 88.753 33.1182 89.0886 32.6799L91.8823 28.9542H92.9027V35.5022H91.8623V31.5961C91.8623 31.1685 91.8623 30.8318 91.8823 30.5431H91.8623C91.645 30.8518 91.3972 31.2099 91.0695 31.6269L88.1666 35.5022H87.2449V28.9542H87.2462ZM88.4052 27.0566H89.2777C89.2777 27.503 89.4962 27.8705 90.0997 27.8705C90.694 27.8705 90.9123 27.503 90.9123 27.0566H91.7943C91.8143 27.98 91.2002 28.6455 90.0997 28.6455C88.9808 28.6455 88.3759 27.98 88.4052 27.0566Z" fill="white"/>
<path d="M94.9211 28.9541H95.9617V31.7163H99.2308V28.9541H100.271V35.5021H99.2308V32.6009H95.9617V35.5021H94.9211V28.9541Z" fill="white"/>
<path d="M102.277 28.9541H103.318V32.6704C103.318 33.078 103.307 33.4455 103.298 33.7929H103.318C103.526 33.4762 103.784 33.1181 104.12 32.6798L106.913 28.9541H107.934V35.5021H106.893V31.596C106.893 31.1684 106.893 30.8316 106.913 30.543H106.893C106.676 30.8517 106.428 31.2098 106.101 31.6267L103.198 35.5021H102.276V28.9541H102.277Z" fill="white"/>
<path d="M109.952 28.9542H110.993V32.6705C110.993 33.0781 110.982 33.4456 110.973 33.793H110.993C111.201 33.4763 111.459 33.1182 111.795 32.6799L114.589 28.9542H115.609V35.5022H114.569V31.5961C114.569 31.1685 114.569 30.8318 114.589 30.5431H114.569C114.351 30.8518 114.104 31.2099 113.776 31.6269L110.873 35.5022H109.951V28.9542H109.952ZM111.112 27.0566H111.984C111.984 27.503 112.203 27.8705 112.806 27.8705C113.4 27.8705 113.619 27.503 113.619 27.0566H114.501C114.521 27.98 113.907 28.6455 112.806 28.6455C111.686 28.6455 111.082 27.98 111.112 27.0566Z" fill="white"/>
<path d="M122.609 34.7851C120.885 34.6555 119.864 33.8123 119.864 32.2207C119.864 30.6518 120.914 29.7565 122.609 29.6282V28.8037H123.649V29.6282C125.344 29.7672 126.373 30.6719 126.373 32.2207C126.373 33.8216 125.344 34.6555 123.649 34.7851V35.6791H122.609V34.7851ZM122.609 30.5222C121.539 30.6117 120.925 31.1583 120.925 32.222C120.925 33.2657 121.49 33.8029 122.609 33.8817V30.5222ZM125.313 32.222C125.313 31.2091 124.759 30.6225 123.649 30.5329V33.8817C124.719 33.8016 125.313 33.3151 125.313 32.222Z" fill="white"/>
<path d="M127.805 32.2517C127.805 30.2646 129.161 28.8936 131.064 28.8936C132.975 28.8936 134.313 30.2847 134.313 32.2517C134.313 34.2789 132.926 35.6006 131.064 35.6006C129.172 35.6019 127.805 34.2683 127.805 32.2517ZM133.214 32.2517C133.214 30.7711 132.401 29.7782 131.064 29.7782C129.777 29.7782 128.914 30.723 128.914 32.2517C128.914 33.7818 129.775 34.7159 131.064 34.7159C132.352 34.7159 133.214 33.7818 133.214 32.2517Z" fill="white"/>
<path d="M136.043 28.9541H137.084V31.7163H140.353V28.9541H141.393V35.5021H140.353V32.6009H137.084V35.5021H136.043V28.9541Z" fill="white"/>
<path d="M142.787 34.6081H143.184C144.085 33.4856 144.719 31.4784 145.105 28.9541H148.187V34.6081H149.009V37.3395H147.999V35.5021H143.798V37.3409H142.789V34.6081H142.787ZM147.145 29.8093H145.927C145.62 31.9341 144.996 33.5951 144.351 34.588V34.6081H147.145V29.8093Z" fill="white"/>
<path d="M56.4129 60.5691C54.9101 61.3681 53.4315 61.6648 52.0194 61.6648C47.4207 61.6648 44.7349 58.4896 44.7349 54.0824C44.7349 49.7207 47.7843 46.249 52.3392 46.249C53.9551 46.249 55.3206 46.6138 56.1171 47.0494V48.9443C55.0474 48.3725 53.8858 47.9848 52.3843 47.9848C48.9699 47.9848 46.8757 50.703 46.8757 53.9917C46.8757 57.5075 48.9473 59.9288 52.2485 59.9288C53.6606 59.9288 54.7983 59.5186 55.8455 58.9466L56.4129 60.5691Z" fill="white"/>
<path d="M59.8782 46.3877H67.4598L66.8442 48.1237H61.9044V52.8955H66.7989V54.6302H61.9044V59.7001H67.5503V61.4361H59.8782V46.3877Z" fill="white"/>
<path d="M71.6975 46.3877H74.7709C76.2284 46.3877 77.2514 46.6149 78.0721 47.0732C79.4843 47.8497 80.3261 49.2649 80.3261 51.2066C80.3261 52.9423 79.5749 54.6088 77.6859 55.4548C76.9118 55.7968 75.9326 56.0025 74.5898 56.0025H73.7252V61.4374H71.6988V46.3877H71.6975ZM74.7256 54.3348C75.6355 54.3348 76.2964 54.1745 76.7745 53.9233C77.7537 53.4208 78.2093 52.4853 78.2093 51.2066C78.2093 50.0199 77.7537 49.0604 76.8651 48.5352C76.3642 48.2385 75.7048 48.0541 74.7483 48.0541H73.7239V54.3348H74.7256Z" fill="white"/>
<path d="M84.155 46.3877H91.9631L91.3477 48.1237H86.1574V61.4361H84.155V46.3877Z" fill="white"/>
<path d="M94.8826 46.3877H96.909V61.4361H94.8826V46.3877Z" fill="white"/>
<path d="M102.786 56.6399C103.377 55.5215 103.765 54.9042 104.379 54.562V54.5167C102.626 53.946 101.737 52.5535 101.737 50.7949C101.737 47.8724 103.854 46.3877 106.679 46.3877H110.776V61.4361H108.75V55.2022H106.473C106.018 55.2022 105.472 55.6819 104.812 57.0289L102.673 61.4361H100.328L102.786 56.6399ZM106.884 53.5345H108.75V48.0541H106.952C105.131 48.0541 103.833 48.9909 103.833 50.8858C103.833 52.7353 105.153 53.5345 106.884 53.5345Z" fill="white"/>
<path d="M121.391 46.3877H132.682V61.4361H130.656V48.1237H123.394V61.4361H121.391V46.3877Z" fill="white"/>
<path d="M137.423 46.3877H140.497C141.954 46.3877 142.977 46.6149 143.798 47.0732C145.21 47.8497 146.052 49.2649 146.052 51.2066C146.052 52.9423 145.3 54.6088 143.411 55.4548C142.637 55.7968 141.658 56.0025 140.315 56.0025H139.451V61.4374H137.424V46.3877H137.423ZM140.451 54.3348C141.362 54.3348 142.022 54.1745 142.5 53.9233C143.479 53.4208 143.935 52.4853 143.935 51.2066C143.935 50.0199 143.479 49.0604 142.591 48.5352C142.09 48.2385 141.43 48.0541 140.474 48.0541H139.449V54.3348H140.451Z" fill="white"/>
<path d="M149.883 46.3877H151.887V55.476C151.887 56.5264 151.887 57.2802 151.841 58.0792H151.887C152.387 57.3482 153.024 56.4114 153.913 55.2702L160.583 46.3877H162.54V61.4361H160.514V52.0043C160.514 50.9085 160.537 50.2003 160.56 49.492H160.514C160.013 50.223 159.376 51.1143 158.555 52.21L151.612 61.4361H149.883V46.3877Z" fill="white"/>
<path d="M170.104 48.1237H165.78V46.3877H176.889L176.273 48.1237H172.13V61.4361H170.104V48.1237Z" fill="white"/>
<path d="M180.877 61.5043V59.7456C181.15 59.8151 181.401 59.8379 181.674 59.8379C183.04 59.8379 183.632 58.9238 184.496 57.1424L179.192 46.3877H181.446L185.521 54.9962H185.568L189.278 46.3877H191.486L186.251 57.8961C185.045 60.5916 183.701 61.595 181.857 61.595C181.606 61.595 181.174 61.5723 180.877 61.5043Z" fill="white"/>
<path d="M191.583 61.5043V59.6094C191.788 59.6548 191.947 59.6548 192.038 59.6548C192.699 59.6548 193.335 59.3354 193.815 58.5362C195.204 56.1617 196.159 50.0413 196.456 46.3877H203.605V61.4361H201.579V48.0541H198.186C197.914 51.4806 196.888 57.3029 195.364 59.7683C194.59 61.0473 193.543 61.5723 192.221 61.5723C192.106 61.5723 191.787 61.5498 191.583 61.5043Z" fill="white"/>
<path d="M208.344 46.3877H210.349V55.476C210.349 56.5264 210.349 57.2802 210.303 58.0792H210.349C210.849 57.3482 211.486 56.4114 212.373 55.2702L219.045 46.3877H221.002V61.4361H218.975V52.0043C218.975 50.9085 218.998 50.2003 219.02 49.492H218.975C218.475 50.223 217.838 51.1143 217.018 52.21L210.075 61.4361H208.346V46.3877H208.344Z" fill="white"/>
<path d="M15.3621 27V56.0423H20.7203V32.3734H28.9532V42.4091H34.3112V27H15.3621Z" fill="white"/>
<path d="M28.9521 56.0421V61.4154H34.3104V56.0421V47.7822H28.9521V56.0421Z" fill="white"/>
<path d="M28.9526 42.4092H20.7195V47.7825H28.9526H34.3106V42.4092H28.9526Z" fill="#D48232"/>
<path d="M5.35678 56.0424V47.7825H15.3616V42.4092H0V61.4157H28.9527V56.0424H5.35678Z" fill="#D48232"/>
</g>
<defs>
<clipPath id="clip0_54_1236">
<rect width="221" height="36" fill="white" transform="translate(0 27)"/>
</clipPath>
</defs>
</svg>
