<svg width="90" height="28" viewBox="0 0 90 28" fill="none" xmlns="http://www.w3.org/2000/svg">
<path d="M0 0.491892H12.3972C16.5816 0.491892 19.7784 1.7027 21.9876 4.12432C24.1967 6.54595 25.3013 9.83784 25.3013 14C25.3013 18.1622 24.1967 21.4541 21.9876 23.8757C19.7784 26.2973 16.5816 27.5081 12.3972 27.5081H0V0.491892ZM7.25122 21.3027H11.2277C13.5408 21.3027 15.2302 20.6342 16.2957 19.2973C17.3613 17.9604 17.8941 16.1946 17.8941 14C17.8941 11.7802 17.3613 10.0144 16.2957 8.7027C15.2302 7.36577 13.5408 6.6973 11.2277 6.6973H7.25122V21.3027Z" fill="white"/>
<path d="M39.5488 7.34054C42.8235 7.34054 45.4355 8.27387 47.3848 10.1405C49.36 12.0072 50.3477 14.5171 50.3477 17.6703C50.3477 20.8234 49.36 23.3333 47.3848 25.2C45.4355 27.0667 42.8235 28 39.5488 28C36.3 28 33.6751 27.0667 31.6738 25.2C29.6986 23.3333 28.711 20.8234 28.711 17.6703C28.711 14.5171 29.6986 12.0072 31.6738 10.1405C33.6751 8.27387 36.3 7.34054 39.5488 7.34054ZM39.5488 22.627C40.8743 22.627 41.8749 22.173 42.5506 21.2649C43.2264 20.3315 43.5643 19.1333 43.5643 17.6703C43.5643 16.2072 43.2264 15.0216 42.5506 14.1135C41.8749 13.1802 40.8743 12.7135 39.5488 12.7135C38.1973 12.7135 37.1837 13.1802 36.508 14.1135C35.8322 15.0216 35.4944 16.2072 35.4944 17.6703C35.4944 19.1333 35.8322 20.3315 36.508 21.2649C37.1837 22.173 38.1973 22.627 39.5488 22.627Z" fill="white"/>
<path d="M62.2271 7.83243H66.2816V13.2054H62.2271V20.3189C62.2271 21.4541 62.8899 22.0216 64.2154 22.0216H66.2816V27.5081H64.0984C61.3695 27.5081 59.2383 27.0414 57.7049 26.1081C56.1974 25.1748 55.4437 23.4847 55.4437 21.0378V13.2054H52.7927V7.83243H55.4437V2.53514H62.2271V7.83243Z" fill="white"/>
<path d="M71.0719 0H77.8552V27.5081H71.0719V0Z" fill="white"/>
<path d="M83.2166 0H90V5.48649H83.2166V0ZM83.2166 7.83243H90V27.5081H83.2166V7.83243Z" fill="white"/>
</svg>
