<svg width="1252" height="51" viewBox="0 0 1252 51" fill="none" xmlns="http://www.w3.org/2000/svg">
<circle cx="2.50064" cy="2.50064" r="2.50064" fill="#333333"/>
<circle cx="17.5045" cy="2.50064" r="2.50064" fill="#333333"/>
<circle cx="32.5083" cy="2.50064" r="2.50064" fill="#333333"/>
<circle cx="47.5122" cy="2.50064" r="2.50064" fill="#333333"/>
<circle cx="62.516" cy="2.50064" r="2.50064" fill="#333333"/>
<circle cx="77.5199" cy="2.50064" r="2.50064" fill="#333333"/>
<circle cx="92.5237" cy="2.50064" r="2.50064" fill="#333333"/>
<circle cx="107.528" cy="2.50064" r="2.50064" fill="#333333"/>
<circle cx="122.531" cy="2.50064" r="2.50064" fill="#333333"/>
<circle cx="137.535" cy="2.50064" r="2.50064" fill="#333333"/>
<circle cx="152.539" cy="2.50064" r="2.50064" fill="#333333"/>
<circle cx="167.543" cy="2.50064" r="2.50064" fill="#333333"/>
<circle cx="182.547" cy="2.50064" r="2.50064" fill="#333333"/>
<circle cx="197.551" cy="2.50064" r="2.50064" fill="#333333"/>
<circle cx="2.50064" cy="17.5045" r="2.50064" fill="#333333"/>
<circle cx="17.5045" cy="17.5045" r="2.50064" fill="#333333"/>
<circle cx="32.5083" cy="17.5045" r="2.50064" fill="#333333"/>
<circle cx="47.5122" cy="17.5045" r="2.50064" fill="#333333"/>
<circle cx="62.516" cy="17.5045" r="2.50064" fill="#333333"/>
<circle cx="77.5199" cy="17.5045" r="2.50064" fill="#333333"/>
<circle cx="92.5237" cy="17.5045" r="2.50064" fill="#333333"/>
<circle cx="107.528" cy="17.5045" r="2.50064" fill="#333333"/>
<circle cx="122.531" cy="17.5045" r="2.50064" fill="#333333"/>
<circle cx="137.535" cy="17.5045" r="2.50064" fill="#333333"/>
<circle cx="152.539" cy="17.5045" r="2.50064" fill="#333333"/>
<circle cx="167.543" cy="17.5045" r="2.50064" fill="#333333"/>
<circle cx="182.547" cy="17.5045" r="2.50064" fill="#333333"/>
<circle cx="197.551" cy="17.5045" r="2.50064" fill="#333333"/>
<circle cx="2.50064" cy="32.5085" r="2.50064" fill="#333333"/>
<circle cx="17.5045" cy="32.5085" r="2.50064" fill="#333333"/>
<circle cx="32.5083" cy="32.5085" r="2.50064" fill="#333333"/>
<circle cx="47.5122" cy="32.5085" r="2.50064" fill="#333333"/>
<circle cx="62.516" cy="32.5085" r="2.50064" fill="#333333"/>
<circle cx="77.5199" cy="32.5085" r="2.50064" fill="#333333"/>
<circle cx="92.5237" cy="32.5085" r="2.50064" fill="#333333"/>
<circle cx="107.528" cy="32.5085" r="2.50064" fill="#333333"/>
<circle cx="122.531" cy="32.5085" r="2.50064" fill="#333333"/>
<circle cx="137.535" cy="32.5085" r="2.50064" fill="#333333"/>
<circle cx="152.539" cy="32.5085" r="2.50064" fill="#333333"/>
<circle cx="167.543" cy="32.5085" r="2.50064" fill="#333333"/>
<circle cx="182.547" cy="32.5085" r="2.50064" fill="#333333"/>
<circle cx="197.551" cy="32.5085" r="2.50064" fill="#333333"/>
<circle cx="2.50064" cy="47.5124" r="2.50064" fill="#333333"/>
<circle cx="17.5045" cy="47.5124" r="2.50064" fill="#333333"/>
<circle cx="32.5083" cy="47.5124" r="2.50064" fill="#333333"/>
<circle cx="47.5122" cy="47.5124" r="2.50064" fill="#333333"/>
<circle cx="62.516" cy="47.5124" r="2.50064" fill="#333333"/>
<circle cx="77.5199" cy="47.5124" r="2.50064" fill="#333333"/>
<circle cx="92.5237" cy="47.5124" r="2.50064" fill="#333333"/>
<circle cx="107.528" cy="47.5124" r="2.50064" fill="#333333"/>
<circle cx="122.531" cy="47.5124" r="2.50064" fill="#333333"/>
<circle cx="137.535" cy="47.5124" r="2.50064" fill="#333333"/>
<circle cx="152.539" cy="47.5124" r="2.50064" fill="#333333"/>
<circle cx="167.543" cy="47.5124" r="2.50064" fill="#333333"/>
<circle cx="182.547" cy="47.5124" r="2.50064" fill="#333333"/>
<circle cx="197.551" cy="47.5124" r="2.50064" fill="#333333"/>
<circle cx="212.758" cy="2.50064" r="2.50064" fill="#333333"/>
<circle cx="227.762" cy="2.50064" r="2.50064" fill="#333333"/>
<circle cx="242.766" cy="2.50064" r="2.50064" fill="#333333"/>
<circle cx="257.77" cy="2.50064" r="2.50064" fill="#333333"/>
<circle cx="272.774" cy="2.50064" r="2.50064" fill="#333333"/>
<circle cx="287.778" cy="2.50064" r="2.50064" fill="#333333"/>
<circle cx="302.782" cy="2.50064" r="2.50064" fill="#333333"/>
<circle cx="317.785" cy="2.50064" r="2.50064" fill="#333333"/>
<circle cx="332.789" cy="2.50064" r="2.50064" fill="#333333"/>
<circle cx="347.793" cy="2.50064" r="2.50064" fill="#333333"/>
<circle cx="362.797" cy="2.50064" r="2.50064" fill="#333333"/>
<circle cx="377.801" cy="2.50064" r="2.50064" fill="#333333"/>
<circle cx="392.805" cy="2.50064" r="2.50064" fill="#333333"/>
<circle cx="407.809" cy="2.50064" r="2.50064" fill="#333333"/>
<circle cx="212.758" cy="17.5045" r="2.50064" fill="#333333"/>
<circle cx="227.762" cy="17.5045" r="2.50064" fill="#333333"/>
<circle cx="242.766" cy="17.5045" r="2.50064" fill="#333333"/>
<circle cx="257.77" cy="17.5045" r="2.50064" fill="#333333"/>
<circle cx="272.774" cy="17.5045" r="2.50064" fill="#333333"/>
<circle cx="287.778" cy="17.5045" r="2.50064" fill="#333333"/>
<circle cx="302.782" cy="17.5045" r="2.50064" fill="#333333"/>
<circle cx="317.785" cy="17.5045" r="2.50064" fill="#333333"/>
<circle cx="332.789" cy="17.5045" r="2.50064" fill="#333333"/>
<circle cx="347.793" cy="17.5045" r="2.50064" fill="#333333"/>
<circle cx="362.797" cy="17.5045" r="2.50064" fill="#333333"/>
<circle cx="377.801" cy="17.5045" r="2.50064" fill="#333333"/>
<circle cx="392.805" cy="17.5045" r="2.50064" fill="#333333"/>
<circle cx="407.809" cy="17.5045" r="2.50064" fill="#333333"/>
<circle cx="212.758" cy="32.5085" r="2.50064" fill="#333333"/>
<circle cx="227.762" cy="32.5085" r="2.50064" fill="#333333"/>
<circle cx="242.766" cy="32.5085" r="2.50064" fill="#333333"/>
<circle cx="257.77" cy="32.5085" r="2.50064" fill="#333333"/>
<circle cx="272.774" cy="32.5085" r="2.50064" fill="#333333"/>
<circle cx="287.778" cy="32.5085" r="2.50064" fill="#333333"/>
<circle cx="302.782" cy="32.5085" r="2.50064" fill="#333333"/>
<circle cx="317.785" cy="32.5085" r="2.50064" fill="#333333"/>
<circle cx="332.789" cy="32.5085" r="2.50064" fill="#333333"/>
<circle cx="347.793" cy="32.5085" r="2.50064" fill="#333333"/>
<circle cx="362.797" cy="32.5085" r="2.50064" fill="#333333"/>
<circle cx="377.801" cy="32.5085" r="2.50064" fill="#333333"/>
<circle cx="392.805" cy="32.5085" r="2.50064" fill="#333333"/>
<circle cx="407.809" cy="32.5085" r="2.50064" fill="#333333"/>
<circle cx="212.758" cy="47.5124" r="2.50064" fill="#333333"/>
<circle cx="227.762" cy="47.5124" r="2.50064" fill="#333333"/>
<circle cx="242.766" cy="47.5124" r="2.50064" fill="#333333"/>
<circle cx="257.77" cy="47.5124" r="2.50064" fill="#333333"/>
<circle cx="272.774" cy="47.5124" r="2.50064" fill="#333333"/>
<circle cx="287.778" cy="47.5124" r="2.50064" fill="#333333"/>
<circle cx="302.782" cy="47.5124" r="2.50064" fill="#333333"/>
<circle cx="317.785" cy="47.5124" r="2.50064" fill="#333333"/>
<circle cx="332.789" cy="47.5124" r="2.50064" fill="#333333"/>
<circle cx="347.793" cy="47.5124" r="2.50064" fill="#333333"/>
<circle cx="362.797" cy="47.5124" r="2.50064" fill="#333333"/>
<circle cx="377.801" cy="47.5124" r="2.50064" fill="#333333"/>
<circle cx="392.805" cy="47.5124" r="2.50064" fill="#333333"/>
<circle cx="407.809" cy="47.5124" r="2.50064" fill="#333333"/>
<circle cx="423.017" cy="2.50064" r="2.50064" fill="#333333"/>
<circle cx="438.021" cy="2.50064" r="2.50064" fill="#333333"/>
<circle cx="453.024" cy="2.50064" r="2.50064" fill="#333333"/>
<circle cx="468.028" cy="2.50064" r="2.50064" fill="#333333"/>
<circle cx="483.032" cy="2.50064" r="2.50064" fill="#333333"/>
<circle cx="498.036" cy="2.50064" r="2.50064" fill="#333333"/>
<circle cx="513.04" cy="2.50064" r="2.50064" fill="#333333"/>
<circle cx="528.044" cy="2.50064" r="2.50064" fill="#333333"/>
<circle cx="543.048" cy="2.50064" r="2.50064" fill="#333333"/>
<circle cx="558.051" cy="2.50064" r="2.50064" fill="#333333"/>
<circle cx="573.055" cy="2.50064" r="2.50064" fill="#333333"/>
<circle cx="588.059" cy="2.50064" r="2.50064" fill="#333333"/>
<circle cx="603.063" cy="2.50064" r="2.50064" fill="#333333"/>
<circle cx="618.067" cy="2.50064" r="2.50064" fill="#333333"/>
<circle cx="423.017" cy="17.5045" r="2.50064" fill="#333333"/>
<circle cx="438.021" cy="17.5045" r="2.50064" fill="#333333"/>
<circle cx="453.024" cy="17.5045" r="2.50064" fill="#333333"/>
<circle cx="468.028" cy="17.5045" r="2.50064" fill="#333333"/>
<circle cx="483.032" cy="17.5045" r="2.50064" fill="#333333"/>
<circle cx="498.036" cy="17.5045" r="2.50064" fill="#333333"/>
<circle cx="513.04" cy="17.5045" r="2.50064" fill="#333333"/>
<circle cx="528.044" cy="17.5045" r="2.50064" fill="#333333"/>
<circle cx="543.048" cy="17.5045" r="2.50064" fill="#333333"/>
<circle cx="558.051" cy="17.5045" r="2.50064" fill="#333333"/>
<circle cx="573.055" cy="17.5045" r="2.50064" fill="#333333"/>
<circle cx="588.059" cy="17.5045" r="2.50064" fill="#333333"/>
<circle cx="603.063" cy="17.5045" r="2.50064" fill="#333333"/>
<circle cx="618.067" cy="17.5045" r="2.50064" fill="#333333"/>
<circle cx="423.017" cy="32.5085" r="2.50064" fill="#333333"/>
<circle cx="438.021" cy="32.5085" r="2.50064" fill="#333333"/>
<circle cx="453.024" cy="32.5085" r="2.50064" fill="#333333"/>
<circle cx="468.028" cy="32.5085" r="2.50064" fill="#333333"/>
<circle cx="483.032" cy="32.5085" r="2.50064" fill="#333333"/>
<circle cx="498.036" cy="32.5085" r="2.50064" fill="#333333"/>
<circle cx="513.04" cy="32.5085" r="2.50064" fill="#333333"/>
<circle cx="528.044" cy="32.5085" r="2.50064" fill="#333333"/>
<circle cx="543.048" cy="32.5085" r="2.50064" fill="#333333"/>
<circle cx="558.051" cy="32.5085" r="2.50064" fill="#333333"/>
<circle cx="573.055" cy="32.5085" r="2.50064" fill="#333333"/>
<circle cx="588.059" cy="32.5085" r="2.50064" fill="#333333"/>
<circle cx="603.063" cy="32.5085" r="2.50064" fill="#333333"/>
<circle cx="618.067" cy="32.5085" r="2.50064" fill="#333333"/>
<circle cx="423.017" cy="47.5124" r="2.50064" fill="#333333"/>
<circle cx="438.021" cy="47.5124" r="2.50064" fill="#333333"/>
<circle cx="453.024" cy="47.5124" r="2.50064" fill="#333333"/>
<circle cx="468.028" cy="47.5124" r="2.50064" fill="#333333"/>
<circle cx="483.032" cy="47.5124" r="2.50064" fill="#333333"/>
<circle cx="498.036" cy="47.5124" r="2.50064" fill="#333333"/>
<circle cx="513.04" cy="47.5124" r="2.50064" fill="#333333"/>
<circle cx="528.044" cy="47.5124" r="2.50064" fill="#333333"/>
<circle cx="543.048" cy="47.5124" r="2.50064" fill="#333333"/>
<circle cx="558.051" cy="47.5124" r="2.50064" fill="#333333"/>
<circle cx="573.055" cy="47.5124" r="2.50064" fill="#333333"/>
<circle cx="588.059" cy="47.5124" r="2.50064" fill="#333333"/>
<circle cx="603.063" cy="47.5124" r="2.50064" fill="#333333"/>
<circle cx="618.067" cy="47.5124" r="2.50064" fill="#333333"/>
<circle cx="633.275" cy="2.50064" r="2.50064" fill="#333333"/>
<circle cx="648.279" cy="2.50064" r="2.50064" fill="#333333"/>
<circle cx="663.283" cy="2.50064" r="2.50064" fill="#333333"/>
<circle cx="678.287" cy="2.50064" r="2.50064" fill="#333333"/>
<circle cx="693.29" cy="2.50064" r="2.50064" fill="#333333"/>
<circle cx="708.294" cy="2.50064" r="2.50064" fill="#333333"/>
<circle cx="723.298" cy="2.50064" r="2.50064" fill="#333333"/>
<circle cx="738.302" cy="2.50064" r="2.50064" fill="#333333"/>
<circle cx="753.306" cy="2.50064" r="2.50064" fill="#333333"/>
<circle cx="768.31" cy="2.50064" r="2.50064" fill="#333333"/>
<circle cx="783.314" cy="2.50064" r="2.50064" fill="#333333"/>
<circle cx="798.317" cy="2.50064" r="2.50064" fill="#333333"/>
<circle cx="813.321" cy="2.50064" r="2.50064" fill="#333333"/>
<circle cx="828.325" cy="2.50064" r="2.50064" fill="#333333"/>
<circle cx="633.275" cy="17.5045" r="2.50064" fill="#333333"/>
<circle cx="648.279" cy="17.5045" r="2.50064" fill="#333333"/>
<circle cx="663.283" cy="17.5045" r="2.50064" fill="#333333"/>
<circle cx="678.287" cy="17.5045" r="2.50064" fill="#333333"/>
<circle cx="693.29" cy="17.5045" r="2.50064" fill="#333333"/>
<circle cx="708.294" cy="17.5045" r="2.50064" fill="#333333"/>
<circle cx="723.298" cy="17.5045" r="2.50064" fill="#333333"/>
<circle cx="738.302" cy="17.5045" r="2.50064" fill="#333333"/>
<circle cx="753.306" cy="17.5045" r="2.50064" fill="#333333"/>
<circle cx="768.31" cy="17.5045" r="2.50064" fill="#333333"/>
<circle cx="783.314" cy="17.5045" r="2.50064" fill="#333333"/>
<circle cx="798.317" cy="17.5045" r="2.50064" fill="#333333"/>
<circle cx="813.321" cy="17.5045" r="2.50064" fill="#333333"/>
<circle cx="828.325" cy="17.5045" r="2.50064" fill="#333333"/>
<circle cx="633.275" cy="32.5085" r="2.50064" fill="#333333"/>
<circle cx="648.279" cy="32.5085" r="2.50064" fill="#333333"/>
<circle cx="663.283" cy="32.5085" r="2.50064" fill="#333333"/>
<circle cx="678.287" cy="32.5085" r="2.50064" fill="#333333"/>
<circle cx="693.29" cy="32.5085" r="2.50064" fill="#333333"/>
<circle cx="708.294" cy="32.5085" r="2.50064" fill="#333333"/>
<circle cx="723.298" cy="32.5085" r="2.50064" fill="#333333"/>
<circle cx="738.302" cy="32.5085" r="2.50064" fill="#333333"/>
<circle cx="753.306" cy="32.5085" r="2.50064" fill="#333333"/>
<circle cx="768.31" cy="32.5085" r="2.50064" fill="#333333"/>
<circle cx="783.314" cy="32.5085" r="2.50064" fill="#333333"/>
<circle cx="798.317" cy="32.5085" r="2.50064" fill="#333333"/>
<circle cx="813.321" cy="32.5085" r="2.50064" fill="#333333"/>
<circle cx="828.325" cy="32.5085" r="2.50064" fill="#333333"/>
<circle cx="633.275" cy="47.5124" r="2.50064" fill="#333333"/>
<circle cx="648.279" cy="47.5124" r="2.50064" fill="#333333"/>
<circle cx="663.283" cy="47.5124" r="2.50064" fill="#333333"/>
<circle cx="678.287" cy="47.5124" r="2.50064" fill="#333333"/>
<circle cx="693.29" cy="47.5124" r="2.50064" fill="#333333"/>
<circle cx="708.294" cy="47.5124" r="2.50064" fill="#333333"/>
<circle cx="723.298" cy="47.5124" r="2.50064" fill="#333333"/>
<circle cx="738.302" cy="47.5124" r="2.50064" fill="#333333"/>
<circle cx="753.306" cy="47.5124" r="2.50064" fill="#333333"/>
<circle cx="768.31" cy="47.5124" r="2.50064" fill="#333333"/>
<circle cx="783.314" cy="47.5124" r="2.50064" fill="#333333"/>
<circle cx="798.317" cy="47.5124" r="2.50064" fill="#333333"/>
<circle cx="813.321" cy="47.5124" r="2.50064" fill="#333333"/>
<circle cx="828.325" cy="47.5124" r="2.50064" fill="#333333"/>
<circle cx="843.533" cy="2.50064" r="2.50064" fill="#333333"/>
<circle cx="858.537" cy="2.50064" r="2.50064" fill="#333333"/>
<circle cx="873.541" cy="2.50064" r="2.50064" fill="#333333"/>
<circle cx="888.544" cy="2.50064" r="2.50064" fill="#333333"/>
<circle cx="903.548" cy="2.50064" r="2.50064" fill="#333333"/>
<circle cx="918.552" cy="2.50064" r="2.50064" fill="#333333"/>
<circle cx="933.556" cy="2.50064" r="2.50064" fill="#333333"/>
<circle cx="948.56" cy="2.50064" r="2.50064" fill="#333333"/>
<circle cx="963.564" cy="2.50064" r="2.50064" fill="#333333"/>
<circle cx="978.568" cy="2.50064" r="2.50064" fill="#333333"/>
<circle cx="993.571" cy="2.50064" r="2.50064" fill="#333333"/>
<circle cx="1008.58" cy="2.50064" r="2.50064" fill="#333333"/>
<circle cx="1023.58" cy="2.50064" r="2.50064" fill="#333333"/>
<circle cx="1038.58" cy="2.50064" r="2.50064" fill="#333333"/>
<circle cx="843.533" cy="17.5045" r="2.50064" fill="#333333"/>
<circle cx="858.537" cy="17.5045" r="2.50064" fill="#333333"/>
<circle cx="873.541" cy="17.5045" r="2.50064" fill="#333333"/>
<circle cx="888.544" cy="17.5045" r="2.50064" fill="#333333"/>
<circle cx="903.548" cy="17.5045" r="2.50064" fill="#333333"/>
<circle cx="918.552" cy="17.5045" r="2.50064" fill="#333333"/>
<circle cx="933.556" cy="17.5045" r="2.50064" fill="#333333"/>
<circle cx="948.56" cy="17.5045" r="2.50064" fill="#333333"/>
<circle cx="963.564" cy="17.5045" r="2.50064" fill="#333333"/>
<circle cx="978.568" cy="17.5045" r="2.50064" fill="#333333"/>
<circle cx="993.571" cy="17.5045" r="2.50064" fill="#333333"/>
<circle cx="1008.58" cy="17.5045" r="2.50064" fill="#333333"/>
<circle cx="1023.58" cy="17.5045" r="2.50064" fill="#333333"/>
<circle cx="1038.58" cy="17.5045" r="2.50064" fill="#333333"/>
<circle cx="843.533" cy="32.5085" r="2.50064" fill="#333333"/>
<circle cx="858.537" cy="32.5085" r="2.50064" fill="#333333"/>
<circle cx="873.541" cy="32.5085" r="2.50064" fill="#333333"/>
<circle cx="888.544" cy="32.5085" r="2.50064" fill="#333333"/>
<circle cx="903.548" cy="32.5085" r="2.50064" fill="#333333"/>
<circle cx="918.552" cy="32.5085" r="2.50064" fill="#333333"/>
<circle cx="933.556" cy="32.5085" r="2.50064" fill="#333333"/>
<circle cx="948.56" cy="32.5085" r="2.50064" fill="#333333"/>
<circle cx="963.564" cy="32.5085" r="2.50064" fill="#333333"/>
<circle cx="978.568" cy="32.5085" r="2.50064" fill="#333333"/>
<circle cx="993.571" cy="32.5085" r="2.50064" fill="#333333"/>
<circle cx="1008.58" cy="32.5085" r="2.50064" fill="#333333"/>
<circle cx="1023.58" cy="32.5085" r="2.50064" fill="#333333"/>
<circle cx="1038.58" cy="32.5085" r="2.50064" fill="#333333"/>
<circle cx="843.533" cy="47.5124" r="2.50064" fill="#333333"/>
<circle cx="858.537" cy="47.5124" r="2.50064" fill="#333333"/>
<circle cx="873.541" cy="47.5124" r="2.50064" fill="#333333"/>
<circle cx="888.544" cy="47.5124" r="2.50064" fill="#333333"/>
<circle cx="903.548" cy="47.5124" r="2.50064" fill="#333333"/>
<circle cx="918.552" cy="47.5124" r="2.50064" fill="#333333"/>
<circle cx="933.556" cy="47.5124" r="2.50064" fill="#333333"/>
<circle cx="948.56" cy="47.5124" r="2.50064" fill="#333333"/>
<circle cx="963.564" cy="47.5124" r="2.50064" fill="#333333"/>
<circle cx="978.568" cy="47.5124" r="2.50064" fill="#333333"/>
<circle cx="993.571" cy="47.5124" r="2.50064" fill="#333333"/>
<circle cx="1008.58" cy="47.5124" r="2.50064" fill="#333333"/>
<circle cx="1023.58" cy="47.5124" r="2.50064" fill="#333333"/>
<circle cx="1038.58" cy="47.5124" r="2.50064" fill="#333333"/>
<circle cx="1053.79" cy="2.50064" r="2.50064" fill="#333333"/>
<circle cx="1068.79" cy="2.50064" r="2.50064" fill="#333333"/>
<circle cx="1083.8" cy="2.50064" r="2.50064" fill="#333333"/>
<circle cx="1098.8" cy="2.50064" r="2.50064" fill="#333333"/>
<circle cx="1113.81" cy="2.50064" r="2.50064" fill="#333333"/>
<circle cx="1128.81" cy="2.50064" r="2.50064" fill="#333333"/>
<circle cx="1143.81" cy="2.50064" r="2.50064" fill="#333333"/>
<circle cx="1158.82" cy="2.50064" r="2.50064" fill="#333333"/>
<circle cx="1173.82" cy="2.50064" r="2.50064" fill="#333333"/>
<circle cx="1188.83" cy="2.50064" r="2.50064" fill="#333333"/>
<circle cx="1203.83" cy="2.50064" r="2.50064" fill="#333333"/>
<circle cx="1218.83" cy="2.50064" r="2.50064" fill="#333333"/>
<circle cx="1233.84" cy="2.50064" r="2.50064" fill="#333333"/>
<circle cx="1248.84" cy="2.50064" r="2.50064" fill="#333333"/>
<circle cx="1053.79" cy="17.5045" r="2.50064" fill="#333333"/>
<circle cx="1068.79" cy="17.5045" r="2.50064" fill="#333333"/>
<circle cx="1083.8" cy="17.5045" r="2.50064" fill="#333333"/>
<circle cx="1098.8" cy="17.5045" r="2.50064" fill="#333333"/>
<circle cx="1113.81" cy="17.5045" r="2.50064" fill="#333333"/>
<circle cx="1128.81" cy="17.5045" r="2.50064" fill="#333333"/>
<circle cx="1143.81" cy="17.5045" r="2.50064" fill="#333333"/>
<circle cx="1158.82" cy="17.5045" r="2.50064" fill="#333333"/>
<circle cx="1173.82" cy="17.5045" r="2.50064" fill="#333333"/>
<circle cx="1188.83" cy="17.5045" r="2.50064" fill="#333333"/>
<circle cx="1203.83" cy="17.5045" r="2.50064" fill="#333333"/>
<circle cx="1218.83" cy="17.5045" r="2.50064" fill="#333333"/>
<circle cx="1233.84" cy="17.5045" r="2.50064" fill="#333333"/>
<circle cx="1248.84" cy="17.5045" r="2.50064" fill="#333333"/>
<circle cx="1053.79" cy="32.5085" r="2.50064" fill="#333333"/>
<circle cx="1068.79" cy="32.5085" r="2.50064" fill="#333333"/>
<circle cx="1083.8" cy="32.5085" r="2.50064" fill="#333333"/>
<circle cx="1098.8" cy="32.5085" r="2.50064" fill="#333333"/>
<circle cx="1113.81" cy="32.5085" r="2.50064" fill="#333333"/>
<circle cx="1128.81" cy="32.5085" r="2.50064" fill="#333333"/>
<circle cx="1143.81" cy="32.5085" r="2.50064" fill="#333333"/>
<circle cx="1158.82" cy="32.5085" r="2.50064" fill="#333333"/>
<circle cx="1173.82" cy="32.5085" r="2.50064" fill="#333333"/>
<circle cx="1188.83" cy="32.5085" r="2.50064" fill="#333333"/>
<circle cx="1203.83" cy="32.5085" r="2.50064" fill="#333333"/>
<circle cx="1218.83" cy="32.5085" r="2.50064" fill="#333333"/>
<circle cx="1233.84" cy="32.5085" r="2.50064" fill="#333333"/>
<circle cx="1248.84" cy="32.5085" r="2.50064" fill="#333333"/>
<circle cx="1053.79" cy="47.5124" r="2.50064" fill="#333333"/>
<circle cx="1068.79" cy="47.5124" r="2.50064" fill="#333333"/>
<circle cx="1083.8" cy="47.5124" r="2.50064" fill="#333333"/>
<circle cx="1098.8" cy="47.5124" r="2.50064" fill="#333333"/>
<circle cx="1113.81" cy="47.5124" r="2.50064" fill="#333333"/>
<circle cx="1128.81" cy="47.5124" r="2.50064" fill="#333333"/>
<circle cx="1143.81" cy="47.5124" r="2.50064" fill="#333333"/>
<circle cx="1158.82" cy="47.5124" r="2.50064" fill="#333333"/>
<circle cx="1173.82" cy="47.5124" r="2.50064" fill="#333333"/>
<circle cx="1188.83" cy="47.5124" r="2.50064" fill="#333333"/>
<circle cx="1203.83" cy="47.5124" r="2.50064" fill="#333333"/>
<circle cx="1218.83" cy="47.5124" r="2.50064" fill="#333333"/>
<circle cx="1233.84" cy="47.5124" r="2.50064" fill="#333333"/>
<circle cx="1248.84" cy="47.5124" r="2.50064" fill="#333333"/>
</svg>
