<svg width="256" height="90" viewBox="0 0 256 90" fill="none" xmlns="http://www.w3.org/2000/svg">
<rect width="256" height="90" fill="white"/>
<path d="M84.9092 36.9532H92.6115V28.2955C92.6115 25.8776 91.4856 24.6556 89.1826 24.6556H88.3125C86.0351 24.6556 84.8836 25.8776 84.8836 28.2955V36.9532H84.9092ZM84.9092 42.4909L84.9348 52.0066C84.9348 54.4245 86.0863 55.6205 88.3637 55.6205H89.3617C91.6391 55.6205 92.7906 54.4245 92.7906 52.0066V47.3268H98.0363V51.7726C98.0363 57.8824 95.1192 61.0023 89.3361 61.0023H88.1846C82.4015 61.0023 79.4844 57.9084 79.4844 52.5006V29.2314C79.4844 22.3937 82.4015 19.2998 88.1846 19.2998H89.3361C95.1192 19.2998 98.0363 22.3937 98.0363 28.5035L98.0107 42.4649H84.9092V42.4909Z" fill="black"/>
<path d="M106.968 53.4369C108.452 54.7889 110.166 55.5428 111.958 55.5428C113.954 55.5428 115.105 54.5549 115.105 52.215V28.0359C115.105 25.6959 113.954 24.708 111.958 24.708C110.166 24.708 108.452 25.4619 106.968 26.8139V53.4369ZM101.543 19.7682H106.968V22.4201C108.247 20.9901 110.448 19.3262 113.595 19.3262C118.227 19.3262 120.504 22.5761 120.504 27.4119V52.9429C120.504 57.7787 118.227 61.0286 113.595 61.0286C110.448 61.0286 108.247 59.4427 106.968 58.0907V71.2463H101.543V19.7682Z" fill="black"/>
<path d="M136.753 53.6709V40.2294L131.84 42.2053C129.844 43.0373 129.204 44.1033 129.204 46.4432V52.6309C129.204 54.6069 130.126 55.5688 131.84 55.5688C133.478 55.5688 134.987 54.9709 136.753 53.6709ZM123.779 46.3392C123.779 41.2694 125.34 39.2414 129.486 37.7335L136.753 35.0816V28.2958C136.753 25.8779 135.602 24.604 133.324 24.604H132.454C130.177 24.604 129.025 25.8779 129.025 28.2958V34.0676H123.754V28.5298C123.754 22.4201 126.671 19.3262 132.454 19.3262H133.478C139.261 19.3262 142.178 22.4201 142.178 28.5298V60.5606H136.753V57.9867C135.269 59.4947 133.247 61.0026 130.126 61.0026C125.775 61.0026 123.779 58.3507 123.779 53.8269V46.3392Z" fill="black"/>
<path d="M164.082 60.5603H158.657V27.6975C158.657 25.6696 157.736 24.7596 156.098 24.7596C154.614 24.7596 153.028 25.3576 151.108 26.7875V60.5603H145.684V19.7678H151.108V22.4197C152.695 20.8337 154.742 19.2998 157.736 19.2998C160.525 19.2998 162.368 20.5218 163.366 22.6277C165.31 20.8857 167.588 19.2998 170.71 19.2998C174.906 19.2998 177.056 22.0297 177.056 26.4755V60.5343H171.631V27.6975C171.631 25.6696 170.71 24.7596 169.072 24.7596C167.588 24.7596 166.001 25.3576 164.082 26.7875V60.5603Z" fill="black"/>
<path d="M58.6289 37.5512V43.063L72.5493 56.9205V49.2508L63.4396 40.2291L72.5493 31.0254V23.5117L58.6289 37.5512Z" fill="#00ABCD"/>
<path d="M183.938 31.0254L193.047 40.2291L183.938 49.2768V56.9205L197.858 43.063V37.5512L183.938 23.5117V31.0254Z" fill="#00ABCD"/>
</svg>
