<svg width="256" height="90" viewBox="0 0 256 90" fill="none" xmlns="http://www.w3.org/2000/svg">
<rect width="256" height="90" fill="white"/>
<path d="M30.0901 58.1885H31.8816L34.8505 65.8941H33.0387L32.4373 64.1776H29.4684L28.8468 65.8941H27.0781L30.0901 58.1885ZM29.9252 62.9143H31.9831L30.9833 60.0872H30.958L29.9252 62.9143Z" fill="black"/>
<path d="M38.6309 58.1885H40.3767V61.1461H43.5917V58.1885H45.3375V65.8941H43.5917V62.5695H40.3767V65.8941H38.6309V58.1885Z" fill="black"/>
<path d="M48.217 59.4489H46.6387V58.1855H48.217V59.4489ZM46.6387 60.3133H48.217V65.8936H46.6387V60.3133Z" fill="black"/>
<path d="M51.6873 60.3137H52.8444V61.3407H51.6873V64.1038C51.6873 64.6209 51.8218 64.7514 52.3547 64.7514C52.5323 64.7514 52.6998 64.7416 52.8444 64.7096V65.9064C52.578 65.9507 52.2329 65.9606 51.9208 65.9606C50.9413 65.9606 50.109 65.7562 50.109 64.6332V61.3407H49.1523V60.3137H50.109V58.6416H51.6873V60.3137Z" fill="black"/>
<path d="M53.756 62.0308C53.8448 60.6049 55.1694 60.1641 56.4584 60.1641C57.6028 60.1641 58.9832 60.4128 58.9832 61.75V64.6535C58.9832 65.1608 59.0391 65.6681 59.1837 65.8946H57.5825C57.5267 65.7223 57.481 65.5376 57.4709 65.3553C56.971 65.8626 56.2478 66.0449 55.5348 66.0449C54.4335 66.0449 53.5784 65.5154 53.5784 64.3727C53.6012 61.8362 57.4709 63.1956 57.4049 61.9446C57.4049 61.2969 56.938 61.1885 56.3823 61.1885C55.7708 61.1885 55.3927 61.4249 55.3369 62.0308H53.756ZM57.4024 63.1636C57.1359 63.3901 56.5802 63.4 56.0905 63.4886C55.6008 63.5748 55.1567 63.7472 55.1567 64.3087C55.1567 64.8702 55.6134 65.0204 56.1235 65.0204C57.3592 65.0204 57.4024 64.0821 57.4024 63.7349V63.1636Z" fill="black"/>
<path d="M64.0065 62.2795C63.9075 61.6417 63.5167 61.319 62.8392 61.319C61.8268 61.319 61.4943 62.3115 61.4943 63.1316C61.4943 63.9418 61.8166 64.8899 62.8062 64.8899C63.5523 64.8899 63.9633 64.4466 64.0623 63.7571H65.5873C65.3767 65.2347 64.3414 66.0449 62.8189 66.0449C61.0833 66.0449 59.916 64.8579 59.916 63.1857C59.916 61.4471 60.9843 60.1641 62.8519 60.1641C64.2095 60.1641 65.4655 60.8536 65.5543 62.2795H64.0065Z" fill="black"/>
<path d="M66.584 58.1885H68.1623V61.0919H68.1953C68.5962 60.4541 69.2839 60.1635 69.8751 60.1635C71.5549 60.1635 71.9762 61.0821 71.9762 62.4636V65.8966H70.3978V62.7444C70.3978 61.8258 70.1314 61.3727 69.3854 61.3727C68.5277 61.3727 68.1623 61.8357 68.1623 62.9709V65.8966H66.584V58.1885Z" fill="black"/>
<path d="M74.6916 59.4489H73.1133V58.1855H74.6916V59.4489ZM73.1133 60.3133H74.6916V65.8936H73.1133V60.3133Z" fill="black"/>
<path d="M84.4906 65.02C83.8689 65.7982 83.0772 66.0765 82.3109 66.0765C79.8647 66.0765 78.4082 64.296 78.4082 62.0722C78.4082 59.7844 79.8647 58.0039 82.3109 58.0039C83.9349 58.0039 85.4802 58.9643 85.6578 60.7251H83.9907C83.7801 59.8607 83.1457 59.4298 82.3109 59.4298C80.7427 59.4298 80.154 60.7251 80.154 62.0747C80.154 63.3602 80.7427 64.6531 82.3109 64.6531C83.4553 64.6531 84.1024 64.0719 84.2013 62.9908H82.4428V61.7274H85.7796V65.8942H84.6682L84.4906 65.02Z" fill="black"/>
<path d="M87.0234 60.3143H88.5256V61.3511H88.5485C88.8479 60.6492 89.5939 60.1641 90.3831 60.1641C90.5049 60.1641 90.6165 60.1862 90.7282 60.2182V61.6441C90.5835 61.6121 90.3501 61.5899 90.1623 61.5899C88.9951 61.5899 88.6043 62.3878 88.6043 63.3827V65.8971H87.026V60.3143H87.0234Z" fill="black"/>
<path d="M93.92 60.1641C95.7318 60.1641 96.9016 61.3289 96.9016 63.1094C96.9016 64.88 95.7344 66.0449 93.92 66.0449C92.1184 66.0449 90.9512 64.88 90.9512 63.1094C90.9512 61.3289 92.1184 60.1641 93.92 60.1641ZM93.92 64.8899C94.9985 64.8899 95.3207 64.0058 95.3207 63.1094C95.3207 62.213 94.9985 61.319 93.92 61.319C92.8518 61.319 92.5295 62.2154 92.5295 63.1094C92.5295 64.0058 92.8518 64.8899 93.92 64.8899Z" fill="black"/>
<path d="M102.982 65.8938H101.48V65.1156H101.447C101.046 65.7535 100.356 66.0441 99.6909 66.0441C98.0111 66.0441 97.5898 65.128 97.5898 63.7464V60.3135H99.1682V63.4657C99.1682 64.3842 99.4346 64.8374 100.181 64.8374C101.036 64.8374 101.404 64.3719 101.404 63.2391V60.3135H102.982V65.8938Z" fill="black"/>
<path d="M103.959 60.3138H105.461V61.0255H105.484C105.872 60.4222 106.484 60.1611 107.197 60.1611C108.998 60.1611 109.81 61.5747 109.81 63.1606C109.81 64.6505 108.976 66.0419 107.286 66.0419C106.585 66.0419 105.951 65.7514 105.563 65.1997H105.54V67.8545H103.962V60.3138H103.959ZM108.23 63.1212C108.23 62.2248 107.862 61.3186 106.852 61.3186C105.816 61.3186 105.484 62.215 105.484 63.1212C105.484 64.0275 105.839 64.8919 106.862 64.8919C107.895 64.8894 108.23 64.0275 108.23 63.1212Z" fill="black"/>
<path d="M118.302 60.7768C118.181 60.011 117.424 59.4273 116.567 59.4273C114.999 59.4273 114.41 60.7227 114.41 62.0722C114.41 63.3577 114.999 64.6506 116.567 64.6506C117.635 64.6506 118.234 63.9487 118.368 62.9243H120.058C119.881 64.8575 118.523 66.0765 116.567 66.0765C114.121 66.0765 112.664 64.296 112.664 62.0722C112.664 59.7844 114.121 58.0039 116.567 58.0039C118.302 58.0039 119.782 58.9964 119.992 60.7768H118.302Z" fill="black"/>
<path d="M123.652 60.1641C125.467 60.1641 126.634 61.3289 126.634 63.1094C126.634 64.88 125.467 66.0449 123.652 66.0449C121.851 66.0449 120.684 64.88 120.684 63.1094C120.681 61.3289 121.851 60.1641 123.652 60.1641ZM123.652 64.8899C124.731 64.8899 125.053 64.0058 125.053 63.1094C125.053 62.213 124.731 61.319 123.652 61.319C122.584 61.319 122.262 62.2154 122.262 63.1094C122.262 64.0058 122.584 64.8899 123.652 64.8899Z" fill="black"/>
<path d="M127.033 60.3143H128.523V61.0703H128.546C128.957 60.499 129.545 60.1641 130.304 60.1641C131.027 60.1641 131.672 60.4128 131.984 61.0925C132.329 60.6073 132.918 60.1641 133.72 60.1641C134.943 60.1641 135.821 60.7132 135.821 62.1613V65.8971H134.242V62.7351C134.242 61.9913 134.176 61.3757 133.275 61.3757C132.385 61.3757 132.22 62.0997 132.22 62.7892V65.8971H130.642V62.7671C130.642 62.1194 130.687 61.3757 129.685 61.3757C129.373 61.3757 128.617 61.5702 128.617 62.6612V65.8996H127.038V60.3143H127.033Z" fill="black"/>
<path d="M136.729 60.3138H138.231V61.0255H138.254C138.642 60.4222 139.253 60.1611 139.966 60.1611C141.768 60.1611 142.58 61.5747 142.58 63.1606C142.58 64.6505 141.745 66.0419 140.055 66.0419C139.355 66.0419 138.72 65.7514 138.332 65.1997H138.309V67.8545H136.731V60.3138H136.729ZM140.999 63.1212C140.999 62.2248 140.631 61.3186 139.621 61.3186C138.586 61.3186 138.254 62.215 138.254 63.1212C138.254 64.0275 138.609 64.8919 139.631 64.8919C140.664 64.8894 140.999 64.0275 140.999 63.1212Z" fill="black"/>
<path d="M143.232 62.0308C143.321 60.6049 144.643 60.1641 145.935 60.1641C147.079 60.1641 148.46 60.4128 148.46 61.75V64.6535C148.46 65.1608 148.515 65.6681 148.66 65.8946H147.059C147.003 65.7223 146.96 65.5376 146.947 65.3553C146.447 65.8626 145.724 66.0449 145.011 66.0449C143.91 66.0449 143.055 65.5154 143.055 64.3727C143.078 61.8362 146.947 63.1956 146.881 61.9446C146.881 61.2969 146.414 61.1885 145.859 61.1885C145.247 61.1885 144.869 61.4249 144.813 62.0308H143.232ZM146.881 63.1636C146.615 63.3901 146.059 63.4 145.569 63.4886C145.08 63.5748 144.636 63.7472 144.636 64.3087C144.636 64.8702 145.092 65.0204 145.602 65.0204C146.836 65.0204 146.881 64.0821 146.881 63.7349V63.1636Z" fill="black"/>
<path d="M149.457 60.3143H150.959V61.0925H150.992C151.393 60.4547 152.081 60.1641 152.748 60.1641C154.428 60.1641 154.849 61.0826 154.849 62.4642V65.8971H153.271V62.7449C153.271 61.8264 153.004 61.3732 152.258 61.3732C151.403 61.3732 151.035 61.8362 151.035 62.9715V65.8971H149.457V60.3143Z" fill="black"/>
<path d="M158.668 66.5957C158.323 67.4921 157.767 67.859 156.689 67.859C156.366 67.859 156.044 67.8369 155.722 67.8049V66.5415C156.021 66.5735 156.333 66.6055 156.645 66.5957C157.056 66.5514 157.257 66.2386 157.257 65.8938C157.257 65.7756 157.234 65.655 157.191 65.5491L155.166 60.3135H156.856L158.158 64.1355H158.181L159.437 60.3135H161.071L158.668 66.5957Z" fill="black"/>
<path d="M39.7967 39.1476H48.7236C47.5665 43.1322 43.7983 46.0628 39.3272 46.0628C33.9503 46.0628 29.568 41.8122 29.568 36.584C29.568 31.3607 33.9528 27.1077 39.3272 27.1077C43.3974 27.1077 46.889 29.5384 48.3556 32.9812H51.0048C49.429 28.1765 44.793 24.6943 39.3272 24.6943C32.5775 24.6943 27.0762 30.026 27.0762 36.584C27.0762 43.142 32.5775 48.4786 39.3272 48.4786C43.1868 48.4786 46.7773 46.5996 48.8758 43.8808V47.9664H51.1444V36.7712H39.7967V39.1476Z" fill="black"/>
<path d="M57.7307 25.4336H55.2871V47.9644H57.7307V25.4336Z" fill="black"/>
<path d="M129.936 25.4336H127.49V47.9373H129.936V25.4336Z" fill="black"/>
<path d="M70.4708 46.3343C66.7128 46.3343 63.6652 43.2018 63.6652 39.5669C63.6652 35.9222 66.7128 32.8168 70.4708 32.8168C74.2187 32.8168 77.2764 35.9222 77.2764 39.5669C77.2764 43.2018 74.2187 46.3343 70.4708 46.3343ZM70.4708 30.5635C65.3527 30.5635 61.1912 34.5998 61.1912 39.5669C61.1912 44.5316 65.3501 48.5654 70.4708 48.5654C75.5839 48.5654 79.7504 44.5242 79.7504 39.5645C79.7479 34.5973 75.5839 30.5635 70.4708 30.5635Z" fill="black"/>
<path d="M91.8611 46.3341C88.1005 46.3341 85.053 43.2016 85.053 39.5643C85.053 35.9196 88.1031 32.8142 91.8611 32.8142C95.6115 32.8142 98.6616 35.9196 98.6616 39.5643C98.6616 43.2016 95.6115 46.3341 91.8611 46.3341ZM91.9651 30.3958C89.2196 30.3958 86.7582 31.5705 85.0505 33.4249V25.4336H82.6094V47.9668H85.0505V45.7012C86.7582 47.5556 89.2196 48.7229 91.9651 48.7229C97.1188 48.7229 101.303 44.625 101.303 39.5643C101.303 34.5011 97.1188 30.3958 91.9651 30.3958Z" fill="black"/>
<path d="M113.924 46.3239C110.174 46.3239 107.119 43.1914 107.119 39.5492C107.119 35.9069 110.174 32.7991 113.924 32.7991C117.68 32.7991 120.727 35.9069 120.727 39.5492C120.727 43.1914 117.68 46.3239 113.924 46.3239ZM120.747 33.4566C119.017 31.58 116.515 30.3955 113.716 30.3955C108.499 30.3955 104.271 34.5007 104.271 39.564C104.271 44.6247 108.499 48.7225 113.716 48.725C116.515 48.725 119.017 47.538 120.747 45.6689V47.9665H123.216V31.4668H120.747V33.4566Z" fill="black"/>
<path d="M198.59 23.1406H194.256V27.1252H198.59V23.1406Z" fill="black"/>
<path d="M138.65 25.4336H134.682V44.3246V47.9447H147.689V44.3246H138.65V25.4336Z" fill="black"/>
<path d="M198.59 30.2305H194.256V47.9123H198.59V30.2305Z" fill="black"/>
<path d="M158.691 44.8729C155.793 44.8729 153.435 42.425 153.435 39.4083C153.435 36.3916 155.793 33.9461 158.691 33.9461C161.588 33.9461 163.943 36.3916 163.943 39.4083C163.943 42.425 161.588 44.8729 158.691 44.8729ZM158.691 30.1709C153.435 30.1709 149.17 34.3081 149.17 39.4083C149.17 44.5084 153.435 48.6432 158.691 48.6432C163.943 48.6432 168.204 44.5109 168.204 39.4083C168.204 34.3057 163.943 30.1709 158.691 30.1709Z" fill="black"/>
<path d="M216.656 41.8963C215.788 43.6891 214.012 44.918 211.957 44.918C209.056 44.918 206.701 42.4627 206.701 39.446C206.701 36.1509 209.056 33.9789 211.957 33.9789C213.913 33.9789 215.623 35.092 216.527 36.737H221.064C219.876 32.9544 216.245 30.2012 211.954 30.2012C206.699 30.2012 202.426 34.3409 202.426 39.4533C202.426 44.5535 206.701 48.6932 211.954 48.6932C216.341 48.6932 220.026 45.8144 221.135 41.8988H216.656V41.8963Z" fill="black"/>
<path d="M179.852 54.0568C177.914 54.0568 176.056 53.0693 174.929 51.5868L171.08 53.4067C172.897 56.1723 175.932 58.0119 179.852 58.0069C184.927 58.0069 189.081 54.1135 189.492 49.3926H185.138C184.765 52.0276 182.542 54.0568 179.852 54.0568Z" fill="black"/>
<path d="M180.052 44.9599C177.164 44.9599 174.822 42.5145 174.822 39.5125C174.822 36.5081 177.167 34.0701 180.052 34.0701C182.947 34.0701 185.295 36.5056 185.295 39.5125C185.295 42.5145 182.947 44.9599 180.052 44.9599ZM185.619 32.0729C184.051 30.9745 182.135 30.3145 180.052 30.3145C174.822 30.3145 170.572 34.4321 170.572 39.5175C170.572 44.5979 174.82 48.713 180.052 48.713C185.282 48.713 189.512 44.6176 189.535 39.5569V30.248H185.619V32.0729Z" fill="black"/>
<path d="M224.785 27.1274C224.785 25.6621 225.93 24.5859 227.358 24.5859C228.789 24.5859 229.924 25.6621 229.924 27.1274C229.924 28.5853 228.789 29.659 227.358 29.659C225.927 29.659 224.785 28.5853 224.785 27.1274ZM229.528 27.1274C229.528 25.8517 228.609 24.9159 227.356 24.9159C226.115 24.9159 225.194 25.8517 225.194 27.1274C225.194 28.3932 226.115 29.3216 227.356 29.3216C228.609 29.3216 229.528 28.3932 229.528 27.1274ZM226.338 25.7483H227.635C228.145 25.7483 228.528 26.0512 228.528 26.5117C228.528 26.8245 228.36 27.0658 227.967 27.1619V27.1717C228.289 27.2505 228.396 27.4057 228.432 27.7357C228.477 28.1075 228.477 28.3858 228.566 28.4203V28.4646H228.031C227.949 28.4301 227.939 28.1445 227.914 27.8317C227.896 27.5387 227.726 27.3737 227.386 27.3737H226.886V28.4671H226.341V25.7483H226.338ZM226.884 26.9624H227.51C227.823 26.9624 227.985 26.8072 227.985 26.5733C227.985 26.3467 227.833 26.1916 227.521 26.1916H226.886V26.9624H226.884Z" fill="black"/>
</svg>
