<svg width="80" height="81" viewBox="0 0 80 81" fill="none" xmlns="http://www.w3.org/2000/svg">
<g clip-path="url(#clip0)">
<circle cx="46.5" cy="37.8057" r="26.5" fill="#00FA9A"/>
<path d="M30.3918 42.9495C31.1285 43.3945 31.975 43.6118 32.8234 43.6118C34.0032 43.6118 35.1861 43.1919 36.0784 42.3801C37.5817 41.0129 38.0761 38.6606 37.254 36.7862C36.5319 35.1395 34.8498 34.1916 32.8649 34.3155C30.6963 34.4498 28.8696 35.7797 28.319 37.6254C27.7325 39.592 28.6236 41.8808 30.3918 42.9495ZM29.5257 37.9855C29.8589 36.8692 31.0442 35.69 32.9424 35.5728C33.034 35.5673 33.1237 35.5643 33.2128 35.5643C34.5519 35.5643 35.6201 36.1978 36.0998 37.2922C36.7016 38.6637 36.3274 40.4502 35.2306 41.4481C34.118 42.4594 32.3181 42.6419 31.043 41.8711C29.7717 41.1026 29.1052 39.3961 29.5257 37.9855Z" fill="black" stroke="black"/>
<path d="M44.4494 42.9495C45.1861 43.3945 46.0333 43.6118 46.8817 43.6118C48.0615 43.6118 49.2443 43.1919 50.1361 42.3801C51.6393 41.0129 52.1337 38.6606 51.3116 36.7862C50.5895 35.1395 48.9074 34.1916 46.9232 34.3155C44.754 34.4498 42.9272 35.7797 42.3766 37.6254C41.7901 39.592 42.6812 41.8808 44.4494 42.9495ZM43.5839 37.9855C43.9166 36.8692 45.1025 35.69 47.0007 35.5728C47.0916 35.5673 47.1819 35.5643 47.2711 35.5643C48.6102 35.5643 49.6777 36.1978 50.158 37.2922C50.7592 38.6637 50.3857 40.4502 49.2883 41.4481C48.1756 42.4594 46.3757 42.6419 45.1013 41.8711C43.8299 41.1026 43.1634 39.3961 43.5839 37.9855Z" fill="black" stroke="black"/>
<path d="M32.0439 45.3026C31.0862 45.7329 30.3898 46.4702 30.1335 47.3253C29.7325 48.6644 30.4551 50.0169 31.3493 50.7634C32.2679 51.5306 33.4398 51.873 34.4651 52.1068C36.3279 52.5304 38.2457 52.7428 40.164 52.7428C41.989 52.7428 43.8145 52.5505 45.5912 52.166C47.722 51.7046 49.0269 50.8678 49.5811 49.6068C50.0688 48.4984 50.0431 47.5273 49.5066 46.7192C48.1175 44.6306 43.7925 44.4182 39.7459 44.4859C39.5372 44.4896 39.3571 44.4927 39.2125 44.4933C37.6445 44.5006 36.06 44.5866 34.5024 44.749C33.6955 44.8326 32.8404 44.9443 32.0439 45.3026ZM48.4575 47.4168C48.7449 47.8502 48.7352 48.4007 48.4282 49.0996C48.0552 49.9486 47.0689 50.5418 45.4179 50.9135C45.4417 50.8501 45.4582 50.7823 45.46 50.7109L45.5943 46.0765C46.8919 46.3194 48.0003 46.7296 48.4575 47.4168ZM44.3388 45.894L44.2009 50.6749C44.196 50.8458 44.2601 51.0027 44.3675 51.1192C43.2127 51.3207 42.0408 51.4384 40.8659 51.472L40.7774 45.7347C41.7601 45.7311 43.0681 45.7555 44.3388 45.894ZM39.218 45.753C39.3058 45.7524 39.4066 45.7512 39.5176 45.7494L39.6061 51.4751C38.4337 51.4488 37.2636 51.3402 36.11 51.1467C36.1253 51.0899 36.1357 51.0307 36.1345 50.9685L36.0093 45.8818C37.0775 45.8031 38.1517 45.7585 39.218 45.753ZM34.7514 45.9911L34.8723 50.905C34.8301 50.8958 34.7874 50.8879 34.7447 50.8781C33.8212 50.6676 32.8685 50.3911 32.1568 49.7966C31.5983 49.3303 31.1052 48.4715 31.3401 47.6872C31.4891 47.1898 31.9456 46.7278 32.5602 46.4513C33.1871 46.1699 33.8981 46.0783 34.6324 46.0021C34.6721 45.9978 34.7117 45.9947 34.7514 45.9911Z" fill="black" stroke="black"/>
<path d="M47.3052 16.8156C41.7803 14.8051 35.6975 15.095 29.7143 17.6542C26.3628 19.0879 23.3465 21.2516 20.9917 23.9103C16.5758 28.8963 14.3187 35.8317 14.9547 42.4619C15.4863 48.0094 17.9259 53.2566 21.8242 57.2373C25.7238 61.2186 30.9197 63.7669 36.4544 64.4102C37.332 64.5127 38.2128 64.5621 39.0941 64.5621C47.1428 64.5621 55.1568 60.3928 59.6435 53.6704C64.6056 46.2357 65.0383 35.9708 60.7195 28.1272C57.9052 23.0167 53.0156 18.8932 47.3052 16.8156ZM23.85 45.4819C22.1428 44.8374 20.5388 43.1138 20.653 41.2693C20.7622 39.4938 22.1392 37.8483 23.8402 37.3405C23.7969 38.1034 23.7743 38.837 23.7542 39.5194C23.6956 41.4744 23.6364 43.4837 23.85 45.4819ZM25.0139 39.5567C25.1372 35.4258 25.4125 31.7832 27.539 29.0531C29.2205 26.8937 32.1404 25.4527 35.5504 25.0993C36.1504 25.0376 36.7443 25.0108 37.3357 25.0108C39.1887 25.0108 41.0161 25.275 42.9235 25.5515C43.9318 25.698 44.9749 25.8488 46.0161 25.9556C48.8103 26.2424 51.1559 27.9063 52.4511 30.5216C53.9373 33.5227 54.0062 37.0713 54.0661 40.2018C54.1149 42.711 54.1698 45.554 53.5253 48.1736C52.8331 50.9904 51.3738 53.2212 49.4164 54.4547C46.95 56.0099 43.6632 56.0105 41.0222 56.0111C38.7017 56.0111 36.3012 56.0123 34.0148 55.5473C31.5178 55.0394 29.4542 54.0006 28.0486 52.5437C26.6533 51.0984 25.6902 49.0165 25.2636 46.5244C24.8736 44.2411 24.945 41.8601 25.0139 39.5567ZM35.421 23.8468C35.1671 23.8731 34.9169 23.9054 34.6691 23.942C35.4766 22.0426 37.5261 20.6907 39.5983 20.7804C41.7107 20.8714 43.6712 22.4534 44.273 24.4712C43.8805 24.4169 43.4893 24.3607 43.1035 24.3046C40.6225 23.9451 38.0571 23.5734 35.421 23.8468ZM55.3258 40.178C55.3093 39.3082 55.291 38.3793 55.2385 37.421C56.9793 37.9929 58.3141 39.7343 58.322 41.5794C58.33 43.4507 56.9732 45.2287 55.2007 45.7896C55.3966 43.8633 55.36 41.9407 55.3258 40.178ZM33.7639 56.782C36.0949 57.2556 38.4758 57.2709 40.7854 57.2709H41.0228C42.6983 57.2709 44.6178 57.2697 46.4831 56.8961L46.4354 59.0244C42.2582 60.2238 37.7099 60.1908 33.5515 58.9298L33.5582 56.7368C33.6266 56.7515 33.6944 56.768 33.7639 56.782ZM36.5996 63.159C35.5651 63.0387 34.5434 62.8471 33.5405 62.5901L33.5473 60.2421C35.6896 60.8536 37.9229 61.1637 40.1574 61.1637C42.2661 61.1637 44.3749 60.8884 46.4055 60.3422L46.3659 62.1195C44.0221 62.8898 41.5648 63.3036 39.1039 63.3036C38.2683 63.3036 37.4315 63.256 36.5996 63.159ZM58.5955 52.9716C55.9612 56.9175 52.0464 59.9345 47.636 61.6624L47.7508 56.5769C48.5631 56.3261 49.3511 55.9861 50.0884 55.521C52.3235 54.1117 53.9788 51.6093 54.749 48.4745C54.8583 48.0308 54.9468 47.5828 55.0213 47.1329C57.5622 46.6264 59.5934 44.1709 59.5818 41.5739C59.5708 39.0342 57.6079 36.6471 55.1415 36.0899C54.9486 34.0232 54.5336 31.887 53.5802 29.9619C52.0885 26.9511 49.3786 25.0339 46.1443 24.7025C45.9673 24.6842 45.7897 24.6635 45.6121 24.6427C45.0628 21.8833 42.4657 19.6427 39.6526 19.5219C36.8047 19.3974 33.9904 21.4585 33.2457 24.21C33.2451 24.213 33.2451 24.2161 33.2445 24.2185C30.418 24.9003 28.0846 26.3023 26.5453 28.2786C24.804 30.5137 24.1869 33.3652 23.9385 36.0184C21.5142 36.5049 19.5488 38.7107 19.3956 41.1912C19.2278 43.9079 21.6533 46.2437 23.9965 46.8491C24.013 46.8534 24.0288 46.8558 24.0453 46.8589C24.5257 49.5481 25.5944 51.815 27.1422 53.419C28.435 54.7587 30.1995 55.7798 32.2991 56.4133L32.2814 62.23C28.6846 61.0868 25.3862 59.0739 22.7239 56.3554C19.027 52.5803 16.7132 47.6035 16.2084 42.3417C15.606 36.0532 17.7465 29.4749 21.9353 24.7453C24.1668 22.2251 27.0281 20.1737 30.2099 18.8126C33.4105 17.4436 36.6362 16.7564 39.7759 16.7564C42.2106 16.7564 44.5946 17.1696 46.8743 17.999C52.3028 19.9747 56.9469 23.8877 59.616 28.7351C63.7139 36.1777 63.3037 45.9171 58.5955 52.9716Z" fill="black" stroke="black"/>
<path d="M79.8125 32.5701C79.6825 32.4413 79.5025 32.376 79.3194 32.3901L69.041 33.211C69.9004 31.798 70.338 30.0756 70.263 28.3044C70.1763 26.2548 69.4121 24.3291 68.1438 22.9168L72.8899 18.5363C73.0187 18.4179 73.0919 18.2513 73.0926 18.0761C73.0932 17.9009 73.0211 17.7331 72.893 17.6134L63.0651 8.4185C62.8332 8.20122 62.4755 8.19084 62.2314 8.3947L56.8609 12.871C54.5336 9.90715 50.4143 8.41545 46.7248 9.17778C46.7718 8.59001 46.8291 7.99309 46.8847 7.40959C47.0678 5.49492 47.257 3.51494 47.1306 1.62468C47.1117 1.33903 46.9024 1.10222 46.6216 1.0479C45.7354 0.876999 42.196 0.781174 39.1582 0.77507C32.7471 0.758591 32.3919 1.05644 32.1789 1.23222C32.0202 1.36345 31.9292 1.55266 31.9292 1.75285C31.9292 1.76933 31.9298 1.78581 31.9311 1.80229L32.448 8.36784C28.7517 8.41423 25.1452 10.241 22.9168 13.189L18.3904 7.97783C18.2769 7.84599 18.1139 7.76787 17.94 7.76115C17.7654 7.75505 17.5976 7.81975 17.4737 7.94121L8.36722 16.8902C8.12003 17.1325 8.11515 17.5286 8.35562 17.777L13.6919 23.2922C12.1654 24.0728 10.8782 25.3558 10.0097 26.9805C9.10575 28.6724 8.76151 30.5364 9.01663 32.3028L0.577914 33.0035C0.245882 33.0309 -0.00741348 33.3123 -8.92576e-05 33.6449L0.27579 46.1517C0.283724 46.4904 0.557162 46.762 0.895297 46.7681L8.92081 46.9024C8.46976 48.7298 8.64371 50.7708 9.42862 52.6281C10.2001 54.4543 11.5105 55.9814 13.0981 56.9353L7.78067 61.5228C7.64762 61.6375 7.56888 61.8017 7.56278 61.9769C7.55606 62.152 7.62259 62.3217 7.74649 62.4456L16.3885 71.0833C16.6192 71.314 16.9872 71.3305 17.2375 71.1217L22.9931 66.3213C24.688 68.9275 27.7721 70.5749 30.8776 70.5749C31.0808 70.5749 31.2847 70.5676 31.4879 70.5535L31.8139 79.1351C31.8267 79.4738 32.105 79.7411 32.4431 79.7411H32.4578L46.7864 79.4158C46.9659 79.4115 47.1355 79.331 47.2521 79.1936C47.3687 79.0563 47.4206 78.8763 47.3955 78.698L46.3244 71.0986C50.1928 71.5569 54.204 69.6124 56.242 66.2939L61.9012 72.5903C62.0165 72.7184 62.1789 72.7935 62.3504 72.799C62.5225 72.8057 62.6891 72.7392 62.8118 72.6183L72.7178 62.8667C72.8484 62.738 72.9168 62.5585 72.904 62.3754C72.8918 62.1923 72.8002 62.0232 72.6531 61.9134L66.3213 57.1728C69.4909 55.0378 71.3579 51.0076 70.9154 47.2106L78.4386 47.2832H78.4447C78.7755 47.2832 79.0508 47.0269 79.0728 46.6961L79.9987 33.0614C80.0109 32.8783 79.9431 32.6989 79.8125 32.5701ZM77.8557 46.0168L70.183 45.9429C69.9871 45.9399 69.8119 46.0253 69.6911 46.1718C69.5702 46.3183 69.5214 46.5112 69.5592 46.6973C70.3258 50.4986 68.3221 54.7387 64.8986 56.5594C64.7082 56.6607 64.5824 56.8523 64.5659 57.0672C64.5495 57.282 64.6441 57.4908 64.8168 57.6196L71.3116 62.4822L62.3974 71.2572L56.5856 64.7912C56.4458 64.6349 56.2365 64.5592 56.0296 64.5885C55.8221 64.6178 55.6426 64.7485 55.5504 64.9371C53.8457 68.4435 49.5244 70.5444 45.714 69.7204C45.5126 69.677 45.3026 69.735 45.1519 69.8748C45.0011 70.0152 44.9285 70.2203 44.9572 70.4241L46.0485 78.1719L33.0486 78.4673L32.7209 69.8278C32.7135 69.6484 32.6305 69.4799 32.492 69.3658C32.3785 69.2718 32.2362 69.2217 32.0916 69.2217C32.0592 69.2217 32.0269 69.2242 31.9945 69.2297C28.7365 69.735 25.255 67.9845 23.7163 65.0683C23.6278 64.8998 23.4679 64.7808 23.2812 64.7442C23.095 64.707 22.9015 64.7564 22.7556 64.8785L16.8719 69.7857L9.11673 62.0336L14.6233 57.2832C14.7869 57.1423 14.8662 56.9274 14.8351 56.7144C14.8034 56.5008 14.6648 56.3183 14.4677 56.231C10.9453 54.6655 9.02518 50.1208 10.3582 46.5038C10.429 46.3128 10.4021 46.0986 10.2868 45.9301C10.1714 45.7616 9.9816 45.6597 9.77774 45.6561L1.52213 45.5181L1.27249 34.2095L9.81925 33.5003C10.0024 33.485 10.1702 33.3904 10.2776 33.2415C10.3857 33.092 10.4229 32.9034 10.3795 32.7245C9.54459 29.2718 11.6564 25.3204 14.9914 24.096C15.191 24.0228 15.3405 23.8531 15.3881 23.6456C15.4357 23.4374 15.3747 23.2201 15.227 23.0669L9.69596 17.3498L17.8795 9.30901L22.495 14.6233C22.625 14.7729 22.8161 14.8516 23.015 14.8388C23.2122 14.8248 23.3916 14.7186 23.4991 14.5525C25.5547 11.3787 29.3236 9.45122 33.0999 9.6386C33.2812 9.64836 33.4563 9.57878 33.5827 9.44878C33.709 9.31877 33.7731 9.14055 33.7591 8.96049L33.2275 2.20573C35.1897 1.96709 43.4209 1.97563 45.9002 2.22038C45.9588 3.86162 45.7928 5.60173 45.631 7.28935C45.5468 8.17375 45.4589 9.08806 45.4064 9.96819C45.3942 10.1751 45.4845 10.3747 45.6475 10.5022C45.8105 10.6298 46.0259 10.6689 46.2237 10.6066C49.8272 9.47807 54.1265 10.9948 56.2237 14.1357C56.3225 14.284 56.4806 14.3835 56.657 14.4091C56.834 14.4341 57.0135 14.3841 57.1508 14.2693L62.611 9.71794L71.538 18.07L66.812 22.4316C66.6833 22.5506 66.6094 22.7184 66.6094 22.8942C66.6094 23.07 66.6826 23.2378 66.8114 23.3569C69.5653 25.9057 69.7704 30.7525 67.2417 33.5247C67.0678 33.7157 67.0275 33.9941 67.1416 34.226C67.2552 34.4585 67.4999 34.5965 67.7575 34.577L78.6919 33.7041L77.8557 46.0168Z" fill="black" stroke="black"/>
</g>
<defs>
<clipPath id="clip0">
<rect width="80" height="80" fill="white" transform="translate(0 0.305664)"/>
</clipPath>
</defs>
</svg>
