<svg width="83" height="81" viewBox="0 0 83 81" fill="none" xmlns="http://www.w3.org/2000/svg">
<rect x="46.4429" y="7.30566" width="14.4192" height="65.227" transform="rotate(11.8934 46.4429 7.30566)" fill="#00FA9A"/>
<rect x="22.3457" y="10.3057" width="8.11876" height="34.2349" transform="rotate(28.5194 22.3457 10.3057)" fill="#00FA9A"/>
<rect width="8.11876" height="34.2349" transform="matrix(-0.878655 0.477457 0.477457 0.878655 66.1335 16.3057)" fill="#00FA9A"/>
<rect width="8.11876" height="34.2349" transform="matrix(0.878655 -0.477457 -0.477457 -0.878655 22.3457 70.2627)" fill="#00FA9A"/>
<rect x="66.1335" y="76.2627" width="8.11876" height="34.2349" transform="rotate(-151.481 66.1335 76.2627)" fill="#00FA9A"/>
<path d="M26.2803 62.1491C22.6488 55.1949 19.6339 47.9395 15.8452 41.0655C15.8352 41.0482 15.8237 41.0365 15.8137 41.02C19.9111 33.9768 22.6488 26.3067 26.0668 18.9287C26.5881 17.8032 25.4502 16.7872 24.5662 17.0106C24.5555 17.0098 24.5472 17.0066 24.5372 17.0057C21.5588 16.7947 18.5719 16.7769 15.5918 16.5796C15.0215 16.5416 14.655 16.8271 14.4812 17.216C14.3256 17.3136 14.1809 17.4489 14.0634 17.6381C9.45276 25.0244 5.16093 32.6101 0.220947 39.7869C0.0232559 40.0754 -0.0280817 40.358 0.0133143 40.6137C-0.0280817 40.8693 0.0232559 41.1517 0.220947 41.4395C5.16093 48.6164 9.45276 56.2021 14.064 63.5876C14.1815 63.7769 14.3264 63.9135 14.4819 64.0095C14.6556 64.3994 15.0223 64.6849 15.5924 64.6459C18.5718 64.4489 21.5585 64.4316 24.5379 64.2197C24.7356 64.2057 24.9095 64.1552 25.0601 64.0775C25.9145 64.0866 26.8075 63.158 26.2803 62.1491ZM16.1258 62.0631C11.6676 54.9094 7.49573 47.5787 2.73959 40.6136C7.49492 33.6489 11.6668 26.3177 16.1258 19.164C18.4266 19.3006 20.7322 19.3515 23.0338 19.4735C19.8815 26.5242 17.1927 33.7751 13.2128 40.4263C12.8345 41.057 13.0646 41.6594 13.5083 42.0119C13.5355 42.1253 13.5744 42.2388 13.6382 42.3546C17.1206 48.6734 19.9551 55.3106 23.2093 61.7427C20.8489 61.8727 18.4852 61.9223 16.1258 62.0631Z" fill="black"/>
<path d="M79.7782 39.787C74.8382 32.6101 70.548 25.0244 65.9351 17.6391C65.8176 17.4499 65.6737 17.3138 65.5165 17.217C65.3427 16.8272 64.976 16.5424 64.4059 16.5806C61.4266 16.7779 58.4399 16.7949 55.4613 17.0068C55.4505 17.0076 55.4422 17.0108 55.4323 17.0116C54.5483 16.7882 53.4096 17.804 53.9309 18.9297C57.3499 26.3077 60.0874 33.977 64.1848 41.021C64.1742 41.0377 64.1625 41.0492 64.1535 41.0665C60.3664 47.9389 57.3515 55.1951 53.7199 62.1493C53.1928 63.1582 54.0866 64.0876 54.9398 64.0793C55.0904 64.1572 55.2633 64.2076 55.4619 64.2216C58.4397 64.4326 61.4264 64.4509 64.4066 64.6478C64.9768 64.6867 65.3434 64.4004 65.5171 64.0115C65.6744 63.9145 65.8176 63.7789 65.9358 63.5902C70.548 56.2031 74.8391 48.6192 79.7789 41.4415C79.9775 41.1534 80.0279 40.8713 79.9865 40.6156C80.0274 40.358 79.9769 40.0754 79.7782 39.787ZM63.8753 62.0633C61.5151 61.9226 59.1514 61.8729 56.791 61.743C60.0452 55.3102 62.8803 48.673 66.3621 42.355C66.4259 42.2391 66.4648 42.1259 66.492 42.0123C66.9358 41.6597 67.1658 41.0574 66.7875 40.4267C62.8084 33.7753 60.1187 26.5244 56.9664 19.4739C59.2679 19.3518 61.5737 19.3008 63.8753 19.1644C68.3327 26.3189 72.5044 33.6493 77.2607 40.6139C72.5044 47.5779 68.3327 54.9096 63.8753 62.0633Z" fill="black"/>
<path d="M51.2113 5.71859C51.1601 5.71158 51.1121 5.70001 51.0567 5.69822L43.6375 5.44919C42.7312 5.41855 42.2768 6.13451 42.2875 6.84574C39.9157 15.8971 37.9494 25.0548 35.9947 34.2038C34.0316 43.4017 32.0554 52.5978 29.7926 61.7278C29.1604 64.2784 28.4934 66.8226 27.7873 69.3541C27.4919 70.4117 27.3189 71.5729 26.7826 72.5436C26.2678 73.4787 25.5296 75.0809 27.3379 75.1315C30.4181 75.2192 33.4927 75.1091 36.5721 74.9916C36.6358 74.9892 36.6939 74.9768 36.7533 74.9677C37.3327 75.0497 37.9361 74.7907 38.1305 74.0534C43.9237 52.0924 48.5258 29.7772 52.7506 7.46538C52.9501 6.40505 52.0174 5.68779 51.2113 5.71859ZM35.7893 72.3244C33.7674 72.3988 31.7473 72.4618 29.7248 72.4618C35.7264 51.2878 39.2454 29.4869 44.7297 8.18606L49.8467 8.35816C45.77 29.7911 41.3226 51.2182 35.7893 72.3244Z" fill="black"/>
</svg>
