<svg width="100" height="100" viewBox="0 0 100 100" fill="none" xmlns="http://www.w3.org/2000/svg">
<rect x="51.4512" y="12.3057" width="49.8711" height="61.5529" rx="16" transform="rotate(22.3952 51.4512 12.3057)" fill="#00FA9A"/>
<path d="M83.6225 63.6654C83.6563 60.1681 81.1626 57.2237 77.8992 56.2165C77.8675 55.6116 77.4073 55.0648 76.6764 55.3291C70.0551 57.7248 64.3426 62.0957 58.5148 65.9416C53.9024 68.9854 49.3487 72.7652 44.1014 74.6302C43.6449 74.7923 43.4046 75.2451 43.3974 75.6735C43.1066 75.6531 42.8115 75.7639 42.6346 76.0702C40.573 79.6317 38.4746 82.9791 35.9306 86.2275C35.3726 86.9399 36.1102 87.783 36.8247 87.8668C41.2823 88.3929 45.7125 86.5609 49.8261 85.0858C50.3104 84.912 50.5432 84.5101 50.5777 84.099C55.2459 81.9787 59.6042 79.0069 64.193 76.7003C68.7724 74.3984 73.2877 72.0011 77.8941 69.7581C80.1708 68.6501 83.5941 66.6169 83.6225 63.6654ZM56.7686 69.6291C62.8413 65.2653 69.5832 60.4072 76.5814 57.5985C76.6431 57.66 76.7051 57.7217 76.7958 57.7687C77.6798 58.2252 78.4671 58.6945 79.1553 59.2564C79.1468 59.2628 79.1387 59.2662 79.1305 59.273C72.9586 64.2712 65.555 67.3815 58.942 71.7167C56.2905 73.4551 53.4622 74.9182 50.779 76.6092C49.588 77.3596 47.7984 78.3748 47.0771 79.7376C46.9399 78.2442 45.9444 77.1442 44.4649 76.5604C48.8361 76.178 53.3544 72.0817 56.7686 69.6291ZM43.2178 85.0587C43.0454 84.3676 42.795 83.6872 42.3671 83.1119C42.0339 82.6636 41.7501 82.5788 41.3203 82.5101C42.3388 80.9618 43.2298 79.3396 43.8951 77.6277C45.0391 78.2364 45.7138 79.2151 45.343 80.6287C45.2194 81.1004 45.4733 81.5307 45.9229 81.6916C46.909 82.0448 47.4374 82.6475 47.6549 83.5875C46.2054 84.1175 44.7227 84.6489 43.2178 85.0587ZM77.6671 67.3755C74.8034 69.0028 71.7034 70.3095 68.7853 71.8521C62.6621 75.089 54.6185 77.6272 49.8697 82.9458C49.7046 82.9065 49.5163 82.9096 49.3042 82.9863C49.3037 82.9866 49.3027 82.9868 49.3027 82.9868C49.0397 81.9591 48.4389 81.1827 47.5957 80.6341C49.514 79.6905 51.3193 78.0329 53.1509 76.9278C55.7385 75.366 58.4304 73.9708 60.9105 72.237C67.1204 67.8961 74.3638 65.338 80.2366 60.449C80.253 60.4352 80.2635 60.4206 80.2782 60.4068C80.6866 60.9338 81.0392 61.5348 81.3152 62.2666C82.2508 64.7428 79.3621 66.4127 77.6671 67.3755Z" fill="black"/>
<path d="M80.323 51.8499C80.8549 46.8391 81.6775 41.9226 83.4003 37.1724C84.6451 33.741 86.2718 30.4915 87.2178 26.9496C88.9187 20.5822 84.4892 18.8155 79.1945 17.0544C71.6523 14.5453 63.7699 12.648 56.1092 10.5527C49.4698 8.73602 42.4097 6.22165 35.529 5.65204C33.0036 5.44287 31.5125 6.85579 30.5561 8.82407C28.3915 8.88485 25.432 9.24829 24.1819 11.1656C23.0733 12.8651 24.2942 14.3542 25.8631 15.3735C22.7534 16.8624 21.7042 21.9984 23.8583 24.3974C20.2617 25.2813 19.6568 29.0461 21.3314 31.5482C18.5824 31.869 16.5768 33.8947 16.2752 36.6666C16.0956 38.3127 16.7836 39.7688 17.9095 40.7615C15.1118 40.9754 12.7942 43.1356 12.9602 46.0858C13.042 47.5399 13.8235 49.0306 14.9608 50.0221C14.7538 50.0574 14.5457 50.0813 14.3414 50.1297C11.6407 50.7685 10.2399 53.1261 10.5796 55.773C10.7413 57.0341 11.3769 58.1395 12.2633 59.0099C10.0079 59.5892 8.11718 61.2885 7.81937 63.7343C7.40186 67.1613 10.7557 69.5211 13.7652 69.8553C13.8495 70.2632 13.98 70.6492 14.1754 71.0016C15.5946 73.5664 18.6485 74.3977 21.2407 75.3679C25.9623 77.135 30.5367 79.2916 35.328 80.8958C36.4396 81.2678 37.0442 79.7023 36.139 79.0815C32.6252 76.6724 28.4056 75.7828 24.6225 73.9036C22.2279 72.7133 16.5697 72.0921 16.3611 68.7113C16.2581 67.037 17.1696 65.1295 17.6516 63.5546C17.7483 63.2376 17.8347 62.9166 17.9251 62.5973C18.5509 63.0838 19.1245 63.632 19.6265 64.1812C20.1728 64.7799 20.6556 65.4834 20.8694 66.2717C21.0668 66.9998 20.1704 67.0569 19.7818 67.5021C19.32 68.032 19.479 68.7492 20.142 69.0066C21.19 69.413 22.4079 68.6359 22.8488 67.6694C23.3797 66.5052 22.9677 65.2733 22.376 64.2171C21.5475 62.7357 20.1494 61.3025 18.5472 60.2805C18.8734 58.9977 19.1903 57.7117 19.5506 56.4425C19.8486 55.3927 20.1615 54.3465 20.4758 53.3011C20.9489 53.6174 21.3924 53.9767 21.7932 54.3687C22.616 55.1735 23.165 56.1848 23.4523 57.2896C23.7057 58.2641 23.2027 59.0804 23.2019 60.0292C23.201 60.9046 24.1435 61.1772 24.7679 60.7208C27.1753 58.9616 25.1729 54.926 23.7894 53.2097C23.0573 52.3013 22.1616 51.5756 21.1709 51.0333C21.8321 48.906 22.5179 46.7856 23.2093 44.6672C23.861 45.0988 24.4664 45.593 25.0062 46.1268C25.6118 46.7256 26.0782 47.4367 26.3052 48.2585C26.5728 49.2283 25.7856 49.8557 25.6028 50.7307C25.4689 51.3716 26.0051 52.1838 26.749 51.9268C29.7479 50.8929 28.6449 47.0264 27.2542 45.1627C26.4154 44.0388 25.2531 43.1036 23.9589 42.3764C24.1101 41.9164 24.2597 41.4555 24.4109 40.9955C25.0117 39.1689 25.6179 37.3492 26.2111 35.5289C26.7054 35.9187 27.1623 36.3337 27.5493 36.7363C28.1874 37.3995 28.6701 38.1858 28.9082 39.0756C29.1896 40.1265 28.4441 40.8077 28.1938 41.7466C27.9579 42.6321 28.8476 43.2635 29.636 42.9093C32.5457 41.6016 31.1564 37.5641 29.7877 35.71C29.0773 34.7474 28.0967 33.8453 26.9849 33.1225C27.6199 31.1146 28.224 29.1004 28.7751 27.0705C31.0785 28.4116 32.4256 31.3258 31.3934 34.0234C30.8637 35.408 33.08 36.0525 33.6005 34.6722C35.1655 30.5205 32.8633 26.5991 29.3244 24.9684C29.7675 23.1929 30.1629 21.4034 30.4894 19.5906C30.5806 19.0832 30.6763 18.5768 30.7716 18.0703C31.8025 18.577 32.7552 19.2712 33.5504 20.048C34.1327 20.6164 34.7375 21.3943 34.8223 22.2342C34.9141 23.1425 34.1027 23.7331 33.6024 24.3774C32.9203 25.2558 34.1209 26.1495 34.9417 25.7933C37.6594 24.6134 37.4914 21.2557 35.9064 19.2485C34.7201 17.746 33.0551 16.5293 31.2308 15.7729C31.5662 14.1952 31.9456 12.6273 32.4226 11.0846C34.1256 11.1928 35.8755 11.5526 37.3179 12.4209C39.467 13.7143 37.9543 15.1222 37.3441 16.8229C37.0409 17.6674 38.1126 18.5821 38.8847 18.065C41.2225 16.5002 41.4816 12.8889 39.3662 11.0756C37.8029 9.73605 35.6731 9.1529 33.5668 8.93274C34.7449 7.74671 36.4344 8.14813 38.8394 8.63724C51.6167 11.2361 64.3129 15.298 76.8155 18.9836C79.3705 19.7369 82.0112 20.5601 84.2592 22.0204C86.5752 23.525 84.0143 28.8242 83.2877 30.7352C80.6242 37.7452 78.599 44.2786 77.8104 51.8079C77.6429 53.4173 80.153 53.4497 80.323 51.8499ZM26.0685 12.2327C26.8584 11.367 28.3793 11.1365 29.7194 11.072C29.3339 12.4211 29.0812 13.8367 28.8531 15.0855C28.6191 15.0454 28.3851 14.9992 28.1509 14.9765C27.5244 14.4362 26.904 13.8862 26.3668 13.2624C25.9263 12.7511 25.8883 12.4299 26.0685 12.2327ZM28.401 17.3269C27.9146 19.6565 27.3845 21.9614 26.802 24.2428C26.6427 24.2226 26.4818 24.2112 26.3207 24.2001C23.7543 22.1808 24.8356 16.9342 28.401 17.3269ZM12.8822 55.9884C12.1354 53.9473 13.4903 52.6289 15.3825 52.1852C16.3585 51.9566 17.3317 52.0208 18.2588 52.2765C17.5563 54.5652 16.8701 56.8587 16.2184 59.1632C15.821 59.034 15.4227 58.9409 15.0268 58.8776C14.0979 58.0948 13.3157 57.173 12.8822 55.9884ZM10.0077 64.0791C9.97737 61.8141 12.882 60.7122 14.7724 61.0611C15.0414 61.1105 15.3048 61.1862 15.5653 61.2747C14.8389 63.3571 13.7323 66.0819 13.6527 68.409C11.8275 67.6288 10.0373 66.2247 10.0077 64.0791ZM18.9146 50.1556C18.5273 50.0599 18.1336 49.9907 17.737 49.9432C16.4375 49.0169 15.3776 47.7982 15.1874 46.1236C14.8908 43.5106 17.6593 42.7544 19.7422 43.1807C20.177 43.27 20.6055 43.4004 21.0271 43.5558C20.3105 45.7522 19.6043 47.9513 18.9146 50.1556ZM21.7289 41.3838C21.7055 41.376 21.6824 41.3701 21.6591 41.362C21.6215 41.2654 21.5556 41.1792 21.4478 41.1227C19.8195 40.2649 18.6041 38.9333 18.5617 37.0301C18.5153 34.9207 20.5556 33.7715 22.4468 33.8571C22.9638 33.8807 23.4813 34.0125 23.9883 34.2102C23.2617 36.5977 22.5069 38.9844 21.7289 41.3838ZM24.0815 31.7946C23.3309 31.0833 22.7297 30.3109 22.5084 29.17C22.2275 27.7211 23.4576 26.8015 24.6908 26.4859C25.2214 26.3501 25.7434 26.3011 26.2488 26.3204C25.7431 28.2108 25.2193 30.0949 24.6644 31.9722C24.4712 31.9048 24.2764 31.8488 24.0815 31.7946Z" fill="black"/>
<path d="M71.5728 85.1412C72.1527 82.5237 73.3915 79.5015 73.2749 76.8051C73.2574 76.4053 73.0865 75.9547 72.7043 75.76C70.966 74.8725 70.7789 77.1936 70.5571 78.3109C70.0459 80.895 69.4905 83.5875 68.7218 86.1043C67.4779 90.179 58.4301 84.632 55.876 84.6062C54.8584 84.5954 54.6062 85.8477 55.348 86.4023C57.0647 87.6856 59.6614 88.2882 61.6573 88.9879C63.8157 89.7451 65.7459 90.2961 68.0409 89.8729C70.3554 89.4465 71.1314 87.1338 71.5728 85.1412Z" fill="black"/>
<path d="M75.8911 29.1141C75.4824 28.6604 75.1903 28.467 74.7645 28.3666C70.0764 25.5982 64.54 24.2988 59.3915 22.6808C56.116 21.6514 51.6913 20.3565 48.2274 20.7063C47.4597 20.7835 46.8949 21.8824 47.751 22.3267C50.8318 23.9264 54.7712 24.1663 58.0989 25.083C63.4681 26.5622 69.5079 28.1451 74.2101 31.1714C75.5128 32.0101 76.8945 30.2284 75.8911 29.1141Z" fill="black"/>
<path d="M73.246 38.2668C71.244 34.7317 64.8107 33.6766 61.2497 32.8472C55.9838 31.6208 50.217 30.6097 44.8076 30.4031C43.8655 30.3671 43.776 31.642 44.5709 31.9541C48.8749 33.6414 53.9239 34.0207 58.4399 34.9355C61.1017 35.4748 63.729 36.1028 66.3076 36.9596C68.3754 37.6467 70.0674 38.9794 72.0644 39.7312C72.9113 40.0502 73.6629 39.0031 73.246 38.2668Z" fill="black"/>
<path d="M70.027 47.2729C70.2264 44.3712 59.3095 42.8786 57.4899 42.4274C53.9321 41.5449 50.3629 40.695 46.7697 39.9691C45.2467 39.6613 42.933 38.765 41.3837 39.2972C41.0833 39.4002 40.9765 39.7289 41.1832 39.9792C42.0218 40.9955 43.8726 41.2411 45.0635 41.5819C48.2165 42.484 51.3866 43.3247 54.5611 44.1463C57.6083 44.9353 60.6546 45.7365 63.6851 46.5911C64.8422 46.9171 65.9932 47.2625 67.1307 47.6505C67.4732 47.7676 68.9637 48.5746 68.3219 47.9329C68.9524 48.5633 69.9682 48.1392 70.027 47.2729Z" fill="black"/>
<path d="M53.9519 51.8625C51.7809 50.4555 49.1686 49.9603 46.6609 49.4964C44.4065 49.0795 41.6295 48.1847 39.3514 48.3711C38.9598 48.4031 38.7707 48.8054 39.0214 49.1187C40.1736 50.5567 42.7278 50.7916 44.4043 51.1901C47.2808 51.8727 50.0166 52.576 52.6454 53.9719C54.049 54.7158 55.3034 52.7386 53.9519 51.8625Z" fill="black"/>
</svg>
