<svg width="84" height="81" viewBox="0 0 84 81" fill="none" xmlns="http://www.w3.org/2000/svg">
<rect x="16" y="6.30566" width="68" height="47" rx="8" fill="#00FA9A"/>
<path d="M41.4657 51.1785C40.9573 50.3958 39.9914 49.9511 39.0659 49.8839C38.3054 49.8288 37.7904 50.1624 37.2543 50.528C36.9686 50.6564 36.7065 50.826 36.4748 51.0297C36.47 51.0346 36.4639 51.0385 36.4597 51.0436C35.7125 51.7092 35.2954 52.7247 35.5226 53.8306C35.8956 55.647 38.5323 56.9903 40.1571 55.9867C41.7579 54.9978 42.5568 52.8577 41.4657 51.1785ZM40.242 54.6224C39.699 55.1517 39.1235 55.4738 38.3412 55.2925C37.6617 55.135 36.8642 54.6175 36.4929 54.0066C35.7868 52.8449 36.5553 51.843 37.5453 51.19C38.1778 50.9756 38.764 50.6872 39.5356 50.9627C41.0731 51.5116 41.3882 53.5053 40.242 54.6224Z" fill="black" stroke="black" stroke-width="0.5"/>
<path d="M80.5611 40.8329C80.1862 40.1541 79.5464 39.7649 78.8228 39.5437C77.7003 39.2007 77.3363 39.5484 77.0173 38.2701C76.6022 36.6059 76.2072 35.3091 76.1858 33.529C76.1328 29.1365 76.6111 24.7568 76.5636 20.3645C76.537 17.902 76.3623 15.4213 76.2191 12.96C76.1355 11.5247 76.0483 9.76674 74.9191 8.71081C73.5244 7.40644 71.106 6.85504 69.2891 6.68035C67.016 6.46176 64.6913 6.31191 62.4063 6.28473C58.2999 6.23598 54.197 6.44332 50.094 6.42238C46.012 6.40144 41.9301 6.19223 37.8453 6.19238C28.8119 6.19254 19.8398 6.43519 10.8218 6.87644C7.44996 7.04144 3.66451 7.51425 2.43264 11.1116C1.79998 12.9585 1.72139 15.2869 1.5442 17.2348C1.36264 19.2308 1.16452 21.2142 1.09186 23.22C0.792175 31.4887 1.32889 39.7533 1.24561 48.0316C1.22686 49.8947 1.32139 51.9019 1.60764 53.747C1.8842 55.5289 2.79826 56.4842 4.42841 57.1716C8.0784 58.7106 12.772 58.4572 16.6606 58.485C20.1371 58.5098 23.6129 58.5547 27.0885 58.603C26.8988 60.5161 26.8464 62.4959 26.9397 64.3993C26.9794 65.2062 27.0369 65.9322 27.3891 66.5434C26.989 66.5037 26.5886 66.4681 26.1886 66.4432C24.614 66.345 22.5994 66.419 21.4801 67.7407C20.5201 68.8743 20.9085 70.5975 22.213 71.202C24.0772 72.0659 26.546 71.941 28.5474 71.9317C34.01 71.9059 39.4889 71.7246 44.9487 71.7717C47.5737 71.7942 50.4895 72.1415 53.0762 71.6807C54.6321 71.4035 56.0579 70.5028 55.5627 68.7142C54.9688 66.5687 52.4031 66.3318 50.5478 66.4218C50.2112 66.4382 49.8782 66.4584 49.5467 66.4807C50.0978 65.6381 50.1787 64.6461 50.184 63.5423C50.1914 62.0417 50.3164 60.3634 50.1037 58.8245C52.3073 58.8203 54.5109 58.8287 56.7074 58.8925C56.7312 60.1672 56.7473 61.4415 56.7884 62.717C56.8643 65.0806 56.7871 67.5267 57.0504 69.8756C57.4551 73.487 61.4904 73.6473 64.3188 74.0867C65.9385 74.3384 67.5993 74.2596 69.2328 74.377C71.0196 74.5054 73.1739 74.3306 74.9469 73.9893C76.0492 73.7773 76.4762 72.9902 76.8772 71.9823C77.6673 69.9965 78.0756 67.8432 78.3644 65.7336C78.9136 61.7197 79.0698 57.6078 79.1005 53.562C79.1147 51.6728 79.0603 49.8305 79.255 47.9453C79.3667 46.8639 79.6558 45.5147 79.2451 44.4616C79.6845 44.4883 80.1206 44.453 80.44 44.2136C81.3123 43.5602 81.0147 41.6538 80.5611 40.8329ZM75.9709 39.2679C73.4817 39.1969 70.9911 39.2716 68.5018 39.1713C65.9358 39.0679 63.3704 38.9549 60.8012 38.9532C59.8874 38.9526 58.9765 38.9777 58.0649 38.9455C58.2077 38.2082 58.3571 37.2262 58.7309 36.7212C59.1505 36.1545 60.5418 36.3882 61.3012 36.3943C63.5468 36.4121 65.7893 36.5037 68.035 36.4927C70.0392 36.4829 72.1331 36.3699 74.1258 36.5765C76.3709 36.8091 75.5234 38.2609 75.9709 39.2679ZM2.70826 37.7724C2.67795 34.2474 2.41451 30.7315 2.41545 27.2053C2.41654 23.665 2.64826 20.1584 3.0217 16.6392C3.21545 14.8139 3.28154 12.0692 4.3956 10.5342C5.69075 8.74972 8.79496 8.56987 10.822 8.45487C19.8309 7.94409 28.8182 7.61441 37.8455 7.54644C45.439 7.48925 52.9953 7.99722 60.5933 7.75347C64.2068 7.92566 68.2078 7.58222 71.6353 8.78722C72.4645 9.07878 73.672 9.54971 74.1511 10.3713C74.5809 11.1085 74.5714 12.1413 74.6149 12.9603C74.7238 15.007 74.8197 17.0489 74.9411 19.0931C75.1828 23.1686 74.7156 27.287 74.7003 31.3653C74.6953 32.7071 74.648 34.0434 74.5763 35.3774C71.8761 35.2209 69.1475 35.352 66.4421 35.3171C64.9024 35.2973 63.3724 35.2266 61.8316 35.2249C60.8896 35.2238 59.5134 34.9996 58.5893 35.3063C57.4012 35.7006 57.0852 37.6435 57.2351 38.898C56.5731 38.8341 55.7021 38.6896 55.1121 38.9952C54.0846 39.5273 54.3512 41.0562 54.7834 41.961C55.1235 42.673 55.6599 42.8912 56.2737 42.9013C55.8181 43.9682 56.3529 45.5894 56.3816 46.5989C56.3918 46.955 56.411 47.3091 56.4279 47.6636C56.3026 47.6608 56.1773 47.6588 56.052 47.6546C50.0231 47.4536 43.9893 47.4808 37.9572 47.3999C34.9731 47.3599 32.0053 46.9775 29.0214 46.9671C25.73 46.9553 22.4385 46.9888 19.1471 46.9971C16.2146 47.0044 13.2849 46.9972 10.3567 47.1686C7.82465 47.3168 5.25497 47.7283 2.71514 47.6614C2.62029 44.3749 2.73639 41.041 2.70826 37.7724ZM52.494 67.8911C52.9909 68.0409 54.1137 68.3593 54.0877 69.0657C54.0807 69.2554 53.9604 69.4206 53.8349 69.5631C53.002 70.5089 52.321 70.342 51.1596 70.3429C46.2998 70.3467 41.4483 70.4071 36.5886 70.4106C34.1888 70.4123 31.7952 70.4204 29.3972 70.491C27.6555 70.5423 24.6786 70.936 23.1285 70.0159C21.3066 68.9345 23.5697 68.0132 24.619 67.8862C27.0407 67.5932 29.4888 68.0048 31.8831 68.344C34.2058 68.6731 36.5427 68.6831 38.8848 68.6426C40.7192 68.6109 42.5648 68.6806 44.3943 68.5712C47.0431 68.4129 49.8206 67.2011 52.494 67.8911ZM28.2621 58.6195C33.5939 58.695 38.9256 58.7776 44.2598 58.8227C45.6528 58.8344 47.0489 58.8319 48.4459 58.8283C48.4751 59.8494 48.5514 60.877 48.5695 61.897C48.6035 63.8029 48.9871 65.7431 46.8179 66.5395C44.3597 67.4421 41.2041 67.042 38.603 67.0773C35.8822 67.1143 33.0142 67.1842 30.368 66.4689C29.1127 66.1295 28.7136 65.9403 28.516 64.6479C28.4316 64.0956 28.4427 63.5314 28.4272 62.9745C28.3868 61.524 28.3874 60.0662 28.2621 58.6195ZM49.3881 57.267C49.2546 57.2336 49.1126 57.235 48.9792 57.2711C48.4057 57.2795 47.8328 57.2919 47.2603 57.3125C39.2305 57.6036 31.138 57.0167 23.1018 57.0214C18.9719 57.0237 14.8424 56.9081 10.7165 56.7353C8.80168 56.6552 6.48825 56.5367 4.74294 55.6405C2.60639 54.5434 2.9381 51.8646 2.80764 49.7914C2.78654 49.4563 2.77248 49.1194 2.75717 48.7828C5.05982 49.0083 7.44746 48.5819 9.74386 48.4561C12.6571 48.2964 15.5662 48.2858 18.483 48.2932C21.7772 48.3014 25.0715 48.2861 28.3657 48.296C31.4678 48.3052 34.5467 48.678 37.6469 48.7441C43.7829 48.8749 49.9189 48.8183 56.0523 49.0335C56.2031 49.0388 56.3537 49.0416 56.5043 49.045C56.5245 49.3568 56.5427 49.6688 56.5649 49.9803C56.5352 52.0056 56.5395 54.0325 56.6284 56.0698C56.6466 56.4895 56.6587 56.9092 56.6707 57.3287C54.2442 57.2995 51.8135 57.2416 49.3881 57.267ZM76.1683 68.6484C75.982 69.4435 75.767 70.2268 75.4902 70.9953C75.1295 71.996 74.9391 72.3443 73.8899 72.4681C72.556 72.6254 71.1097 72.7765 69.7672 72.7606C68.148 72.7412 66.3621 72.7221 64.7582 72.4946C63.4913 72.3149 62.1002 72.2206 60.8733 71.8567C59.5726 71.4707 58.764 70.6946 58.6294 69.3292C58.5338 68.3604 58.5315 67.4026 58.5341 66.4306C58.5366 65.5675 58.5235 64.7018 58.503 63.8354C59.3738 63.9864 60.2934 63.9731 61.1676 63.9861C63.2497 64.0172 65.3322 64.014 67.4144 64.0209C69.3652 64.0273 71.3133 64.1108 73.2633 64.1161C74.4352 64.1193 75.6927 64.2315 76.9008 64.1901C76.75 65.6904 76.5127 67.1781 76.1683 68.6484ZM77.0081 62.9776C75.7689 63.0256 74.4647 62.9126 73.2635 62.9097C71.3128 62.9048 69.3658 62.8259 67.4146 62.8323C64.4354 62.8422 61.4512 62.8542 58.4762 62.8556C58.3837 59.9325 58.1952 57 58.0318 54.0934C58.021 53.9022 58.0134 53.7108 58.0035 53.5195C58.4021 53.5389 58.8299 53.477 59.0677 53.4661C61.3477 53.361 63.6288 53.2513 65.9108 53.2459C68.2675 53.2405 70.6285 53.3347 72.9809 53.1869C74.4513 53.0945 75.9975 53.1542 77.4714 52.9724C77.472 53.1689 77.4747 53.3652 77.4725 53.5624C77.4381 56.7119 77.2389 59.8375 77.0081 62.9776ZM77.5227 49.1767C77.4525 50.0492 77.4545 50.9164 77.4637 51.7849C74.1794 51.7128 70.8472 52.0824 67.5596 52.0972C65.7741 52.1053 63.9843 52.1297 62.2008 52.1894C61.1649 52.2241 60.0985 52.3283 59.0679 52.4419C58.8565 52.4652 58.3084 52.4802 57.9574 52.5775C57.8777 50.7897 57.8218 49.0032 57.7071 47.2207C57.7085 47.0136 57.7085 46.8066 57.7027 46.5991C57.6835 45.908 57.4005 44.8875 57.6027 44.2347C58.0066 42.9311 60.5827 43.3583 61.7663 43.4291C63.404 43.5269 65.0496 43.5713 66.6883 43.651C68.1416 43.7216 69.5924 43.6402 71.0456 43.7388C72.2136 43.8182 73.5531 43.8505 74.8095 44.0251C74.8117 44.0254 74.8128 44.0266 74.8148 44.0269C74.8324 44.0294 74.8499 44.031 74.8672 44.0333C75.4509 44.1168 76.0177 44.2286 76.5366 44.3966C78.5503 45.0485 77.6528 47.5577 77.5227 49.1767ZM79.8523 42.5963C79.7562 42.8149 79.5781 42.9619 79.343 43.0544C78.143 43.5263 75.4558 42.581 74.5836 42.4916C72.5267 42.2805 70.4903 42.0544 68.4203 42.0766C66.3143 42.0991 64.1827 41.9752 62.0776 41.8855C61.0751 41.8429 59.3029 41.5451 57.9518 41.7915C57.2312 41.9229 56.0687 42.1022 55.7098 41.3472C54.6949 39.2127 58.8015 40.0812 59.6148 40.0751C62.4835 40.0533 65.3493 40.1698 68.2139 40.2958C71.0663 40.4215 73.9249 40.3521 76.775 40.4865C77.6825 40.5291 80.5964 40.9026 79.8523 42.5963Z" fill="black" stroke="black" stroke-width="0.5"/>
<path d="M71.003 56.4188C70.2078 54.9607 68.1174 54.5647 66.7353 55.3951C65.0136 56.1049 64.03 57.9932 64.7075 59.8503C65.3939 61.7317 67.807 62.6231 69.528 61.5333C71.1248 60.5221 71.9389 58.1357 71.003 56.4188ZM69.2913 60.3939C68.0597 61.3841 66.257 61.0338 65.6333 59.5264C65.1485 58.3546 65.5849 57.1652 66.4663 56.4044C67.6342 55.8877 69.4142 55.6321 70.1112 56.9402C70.6891 58.0246 70.2105 59.6549 69.2913 60.3939Z" fill="black" stroke="black" stroke-width="0.5"/>
<path d="M32.7452 15.2152C31.5727 13.5577 29.1604 14.4535 27.5616 14.8866C25.6449 15.4059 23.8857 16.2399 22.1428 17.1393C21.9645 16.7935 21.7846 16.4482 21.6029 16.1026C20.8643 14.6977 19.5264 12.5151 17.8759 14.0732C16.1587 15.6943 15.1501 17.9087 13.9542 19.9133C13.0122 21.4927 11.0422 24.5636 11.5291 26.5491C12.025 28.5716 14.7334 28.6525 16.4025 28.6969C18.7817 28.7603 21.9851 29.181 24.0543 27.7172C24.8631 27.1452 25.0618 26.2774 25.0052 25.3536C26.6016 26.3091 29.6171 28.2211 31.5771 27.7405C33.5996 27.2446 33.6805 24.5361 33.7249 22.8671C33.7885 20.4879 34.209 17.2844 32.7452 15.2152ZM21.6181 18.6205C22.1417 19.6799 22.6615 20.7166 23.0468 21.8727C23.2012 22.3352 23.3709 22.8357 23.5093 23.3411C22.1534 22.6882 19.1201 21.2883 19.7934 19.9315C19.9664 19.5829 20.4967 19.2718 20.8028 19.0729C21.064 18.903 21.3389 18.7577 21.6181 18.6205ZM21.7954 27.4272C20.002 27.8203 18.0057 27.6724 16.1742 27.6066C15.4118 27.5793 14.5159 27.5439 13.7901 27.2653C12.1131 26.6218 12.6264 25.3996 13.0853 24.1371C13.7661 22.2646 14.7992 20.6402 15.7237 18.8943C16.2384 17.9221 17.8157 14.0102 19.3381 14.7657C19.6867 14.9387 19.9978 15.469 20.1967 15.7751C20.577 16.3601 20.8435 17.0096 21.1393 17.6359C21.1426 17.6429 21.146 17.6498 21.1493 17.6568C21.1428 17.6602 21.1362 17.6637 21.1296 17.6671C20.2045 18.1535 17.9326 19.3899 18.5845 20.726C18.7064 20.9757 18.9684 21.1797 19.2473 21.3707C20.3331 22.7621 22.1481 23.7504 23.7663 24.6472C23.8907 25.9277 23.5178 27.0497 21.7954 27.4272ZM32.6346 23.0955C32.6072 23.8579 32.5719 24.7539 32.2933 25.4796C31.6496 27.1564 30.4274 26.6432 29.1649 26.1841C27.6046 25.6169 26.216 24.805 24.7862 24.0152C24.6588 23.488 24.5035 22.9788 24.3829 22.5336C23.9649 20.9908 23.3418 19.5505 22.6463 18.1382C22.6521 18.1355 22.6581 18.1329 22.6637 18.1302C24.0838 17.4593 25.3899 16.726 26.9007 16.2226C28.9735 15.5316 31.8079 14.5215 32.4552 17.4743C32.8483 19.2677 32.7004 21.264 32.6346 23.0955Z" fill="black" stroke="black" stroke-width="0.5"/>
<path d="M33.973 30.871C26.955 30.5158 19.7458 30.661 12.7245 30.9274C12.306 30.9433 12.3054 31.5621 12.7245 31.578C19.7458 31.8444 26.955 31.9896 33.973 31.6344C34.4639 31.6096 34.4647 30.8958 33.973 30.871Z" fill="black" stroke="black" stroke-width="0.5"/>
<path d="M33.973 33.538C26.955 33.1828 19.7458 33.328 12.7245 33.5944C12.306 33.6103 12.3054 34.2291 12.7245 34.245C19.7458 34.5116 26.955 34.6566 33.973 34.3014C34.4639 34.2766 34.4647 33.5628 33.973 33.538Z" fill="black" stroke="black" stroke-width="0.5"/>
<path d="M33.973 36.205C26.955 35.8498 19.7458 35.995 12.7245 36.2614C12.306 36.2773 12.3054 36.896 12.7245 36.912C19.7458 37.1784 26.955 37.3235 33.973 36.9684C34.4639 36.9437 34.4647 36.23 33.973 36.205Z" fill="black" stroke="black" stroke-width="0.5"/>
<path d="M33.973 38.872C26.955 38.5168 19.7458 38.662 12.7245 38.9284C12.306 38.9443 12.3054 39.563 12.7245 39.579C19.7458 39.8454 26.955 39.9905 33.973 39.6354C34.4639 39.6105 34.4647 38.8968 33.973 38.872Z" fill="black" stroke="black" stroke-width="0.5"/>
<path d="M33.973 41.5389C26.955 41.1838 19.7458 41.3289 12.7245 41.5953C12.306 41.6113 12.3054 42.23 12.7245 42.246C19.7458 42.5125 26.955 42.6575 33.973 42.3024C34.4639 42.2775 34.4647 41.5638 33.973 41.5389Z" fill="black" stroke="black" stroke-width="0.5"/>
<path d="M50.3861 26.5346C50.1096 25.7145 49.1456 24.9812 48.4795 24.4948C48.4001 24.4368 47.9554 24.1801 47.9237 24.1048C47.6567 24.0274 47.6339 23.996 47.8556 24.0103C48.0131 23.7971 48.1525 23.5726 48.2736 23.3363C49.1245 21.8493 48.9136 21.0371 47.2611 20.4085C46.1398 19.9821 44.9276 19.8979 43.7775 19.5709C42.6084 19.2386 41.5103 18.6901 40.3125 18.4512C38.8556 18.1615 39.5417 21.1743 39.5805 21.7717C39.6809 23.3174 39.8597 25.2323 39.8956 25.5029C40.0089 26.3562 39.8495 28.6043 41.1959 28.5763C42.1137 28.5566 42.9467 27.6101 43.535 27.0052C43.6441 27.0451 43.7114 27.1257 43.7669 27.2296C44.2075 28.0571 45.0434 28.8045 45.6369 29.5174C46.0514 30.0157 46.6625 31.2619 47.4939 30.7343C47.8897 30.4832 48.2193 29.944 48.5526 29.6057C48.9906 29.1612 49.4359 28.722 49.8326 28.2393C50.2789 27.6963 50.6228 27.2368 50.3861 26.5346ZM48.4826 28.1099C48.0998 28.488 47.6426 29.1462 47.1981 29.4157C47.1281 29.4582 47.0772 29.4932 47.0403 29.5221C47.0247 29.5013 46.9973 29.4788 46.9504 29.4554C46.5437 29.253 46.0136 28.3732 45.7192 28.021C45.1865 27.3835 44.6405 26.3648 43.9109 25.9109C43.7539 25.8132 43.5491 25.8221 43.3914 25.9109C42.7986 26.2446 42.2906 27.0216 41.6442 27.2165C41.043 27.3977 41.3442 27.5965 41.1131 26.8698C40.9327 26.3023 40.8945 25.2765 40.8216 24.7751C40.5905 23.1874 40.5506 21.4828 40.1625 19.9125C40.1716 19.7246 40.2069 19.5878 40.2827 19.5342C40.6617 19.2664 43.2748 20.55 43.7572 20.6768C44.7409 20.9356 46.3783 20.9043 47.1978 21.5517C48.1859 22.332 46.8164 23.2565 46.6142 24.1468C46.5736 24.3257 46.6048 24.5481 46.7537 24.6746C47.3623 25.1921 48.1275 25.4568 48.6895 26.0782C49.5178 26.9941 49.287 27.3156 48.4826 28.1099Z" fill="black" stroke="black" stroke-width="0.5"/>
<path d="M67.9601 20.8351C67.9628 18.617 68.1915 15.9889 67.5309 13.8492C66.9726 12.0411 65.0531 11.7613 63.3672 11.5878C61.2412 11.3692 59.7289 11.6544 59.553 13.9355C59.5042 14.5675 59.4619 15.2241 59.429 15.8902C59.4198 15.9281 59.4176 15.9658 59.4237 16.0036C59.3511 17.5441 59.3378 19.1367 59.4631 20.6295C59.2609 23.3933 59.1033 26.1592 59.1442 28.9486C59.1684 30.6257 59.2266 32.5657 60.9853 33.3492C61.7936 33.7092 62.6742 33.6629 63.5353 33.6745C64.4117 33.6863 65.4128 33.9604 66.2392 33.5576C67.8983 32.7488 67.9064 30.2145 68.0287 28.6525C68.2342 26.0278 67.9572 23.459 67.9601 20.8351ZM60.9165 13.0019C61.7706 11.9925 63.6262 12.5913 64.7212 12.8736C66.2134 13.2585 66.6097 14.0863 66.7553 15.4286C65.7619 15.1559 64.5039 15.5503 63.4994 15.4981C62.5794 15.4503 61.489 15.3061 60.512 15.4449C60.452 14.581 60.3667 13.6519 60.9165 13.0019ZM60.5356 16.3469C60.5358 16.3441 60.5356 16.3411 60.5359 16.3383C61.4437 16.3864 62.3755 16.3295 63.2725 16.3828C64.4625 16.4536 65.6306 16.3067 66.8117 16.24C66.8595 17.2095 66.8429 18.1858 66.8737 19.1566C65.8162 18.9689 64.5233 19.1827 63.4722 19.1894C62.4334 19.1961 61.3964 19.2034 60.3576 19.235C60.3995 18.2714 60.4776 17.3095 60.5356 16.3469ZM60.3283 20.4833C60.3276 20.2933 60.3347 20.1036 60.3387 19.9137C61.2394 20.0059 62.0667 20.0862 63.0033 20.0558C64.2175 20.0161 65.7053 19.8909 66.9104 20.0444C66.9569 21.0291 67.0093 22.0239 67.0501 23.0179C67.0445 23.0158 67.0411 23.0119 67.0353 23.0098C66.2245 22.7281 65.3511 22.9404 64.5047 22.9667C63.0925 23.0104 61.6945 23.0915 60.2906 23.222C60.3123 22.3092 60.3311 21.3965 60.3283 20.4833ZM66.7826 30.286C66.5256 31.8615 65.8009 32.6881 64.0736 32.6043C62.4653 32.5263 60.7219 32.8817 60.3355 30.7314C60.1573 29.74 60.2059 28.6661 60.2155 27.65C61.3314 27.8967 62.5472 27.66 63.6833 27.7371C64.7958 27.8126 65.9264 28.0651 67.0433 28.0018C66.9883 28.7712 66.9044 29.5398 66.7826 30.286ZM67.0947 27.1117C64.8426 27.0328 62.4422 26.5423 60.2201 27.1048C60.223 26.0565 60.2475 25.0093 60.2739 23.9628C62.4417 24.124 64.7901 23.9467 66.9211 23.8545C66.9793 23.852 67.0308 23.8392 67.0773 23.8206C67.1036 24.6139 67.1225 25.4056 67.1175 26.1889C67.1154 26.494 67.1068 26.8025 67.0947 27.1117Z" fill="black" stroke="black" stroke-width="0.5"/>
</svg>
