<svg width="80" height="81" viewBox="0 0 80 81" fill="none" xmlns="http://www.w3.org/2000/svg">
<g clip-path="url(#clip0)">
<rect x="7" y="3.30566" width="72" height="9" rx="4" fill="#00FA9A"/>
<rect x="7" y="22.3057" width="72" height="9" rx="4" fill="#00FA9A"/>
<path d="M74.2836 9.98526C74.2547 7.60543 74.0042 5.10388 71.2975 4.61717C67.8796 4.00264 64.3961 4.4631 60.961 4.41029C57.1791 4.35217 53.3564 4.80951 49.5864 5.09201C45.6027 5.3906 41.658 5.20373 37.6843 5.04623C33.9305 4.89748 30.1679 5.01779 26.4165 4.96388C26.286 4.26357 26.0865 3.58233 25.7123 2.95968C24.2959 0.603752 21.3665 0.317972 18.8733 0.305785C16.8611 0.296254 14.826 0.847188 14.3596 3.03186C14.2022 3.76889 14.1313 4.52498 14.1039 5.28513C12.8492 5.1531 11.5618 5.31201 10.3016 5.31544C8.81974 5.31951 7.26834 5.37872 5.80351 5.61388C2.73634 6.10638 0.931351 6.80137 0.856351 10.1584C0.83432 11.1543 0.65354 12.352 1.25557 13.214C2.06166 14.3679 3.70774 14.506 4.97445 14.7477C6.82585 15.101 8.5524 15.4294 10.4418 15.4307C11.4221 15.4315 12.8711 15.7248 13.9025 15.3979C13.9031 15.4862 13.9017 15.5743 13.9027 15.6627C13.9296 18.1757 14.8838 19.6663 17.3542 20.5308C19.8934 21.4194 23.1923 21.2238 25.3451 19.506C26.5921 18.511 27.1082 17.2087 27.2903 15.8027C28.8159 15.4434 30.7538 15.7785 32.2904 15.7532C34.034 15.7244 35.773 15.9015 37.5239 15.9019C41.3564 15.9029 45.1923 15.7673 49.029 15.768C52.7975 15.7688 56.5541 15.954 60.3162 15.9126C62.1605 15.8923 63.9925 15.914 65.8327 15.8102C67.5442 15.7137 69.4148 15.9063 71.0964 15.5193C73.6737 14.926 74.3119 12.3281 74.2836 9.98526ZM13.9017 13.6595C13.8955 13.6606 13.8899 13.6604 13.8836 13.6616C11.6952 14.099 8.8363 13.7352 6.70319 13.3391C5.75273 13.1626 4.58961 13.1279 3.68977 12.759C2.28306 12.1821 2.48525 10.8646 2.5654 9.61401C2.74087 6.88012 7.07085 7.27418 8.98583 7.13106C10.6822 7.00418 12.406 7.05606 14.096 6.80028C14.1006 7.07543 14.1066 7.35012 14.1135 7.62293C13.9988 9.63292 13.9211 11.6431 13.9017 13.6595ZM23.7112 18.4561C21.9901 19.5166 18.8623 19.6202 17.1147 18.4708C14.8528 16.9833 15.6461 13.1727 15.6217 10.8151C15.6197 10.6199 15.6183 10.4257 15.6166 10.2309C15.7097 9.0948 15.7074 7.94855 15.7339 6.80184C15.7588 5.73388 15.7722 4.61404 16.0502 3.57686C16.3392 2.49796 17.1941 2.3078 18.2153 2.16343C19.6486 1.96078 21.2489 2.04593 22.5758 2.66811C25.4396 4.01092 25.0618 8.2898 25.3506 10.8912C25.6335 13.4418 26.296 16.8635 23.7112 18.4561ZM72.1237 12.2877C71.293 14.3762 68.3747 13.8218 66.5035 13.892C59.9296 14.1382 53.3696 13.8968 46.7878 13.9016C43.178 13.9043 39.5742 14.0598 35.9669 14.0415C34.1226 14.0321 32.2959 13.9049 30.4443 13.9054C29.426 13.9057 28.3404 13.7632 27.3717 14.0438C27.357 13.2304 27.2895 12.4107 27.2339 11.6193C27.1357 10.2224 26.9293 8.83714 26.739 7.45512C26.6949 7.13543 26.6601 6.81043 26.6248 6.48434C28.894 6.76731 31.2252 6.76137 33.5013 6.7734C36.843 6.7909 40.1532 7.07293 43.4899 7.07356C46.7042 7.07418 49.8728 6.79075 53.0768 6.63294C56.4398 6.46747 59.8126 6.39419 63.1685 6.21106C64.6239 6.13153 66.0785 6.03044 67.5353 6.12513C68.9772 6.21888 71.6198 5.86888 72.2433 7.45324C72.7365 8.70667 72.6106 11.064 72.1237 12.2877Z" fill="black" stroke="black" stroke-width="0.5"/>
<path d="M22.7392 6.73805C22.1895 6.1054 21.0566 6.31446 20.2855 6.24477C19.4642 6.1704 18.3122 6.17571 17.6166 6.66805C17.3747 6.8393 17.3757 7.14805 17.6166 7.31945C18.3986 7.8757 19.5222 7.7107 20.4324 7.84023C21.1797 7.94664 22.1939 8.16101 22.7392 7.52445C22.9453 7.28398 22.9494 6.97977 22.7392 6.73805Z" fill="black" stroke="black" stroke-width="0.5"/>
<path d="M22.7392 10.0398C22.1895 9.40715 21.0566 9.61637 20.2855 9.54653C19.4642 9.47215 18.3122 9.47747 17.6166 9.96981C17.3747 10.1411 17.3757 10.4498 17.6166 10.6212C18.3986 11.1773 19.5222 11.0125 20.4324 11.142C21.1797 11.2484 22.1939 11.4628 22.7392 10.8262C22.9453 10.5857 22.9494 10.2815 22.7392 10.0398Z" fill="black" stroke="black" stroke-width="0.5"/>
<path d="M22.7392 13.3406C22.1895 12.7079 21.0566 12.917 20.2855 12.8473C19.4642 12.7729 18.3122 12.7782 17.6166 13.2706C17.3747 13.4418 17.3757 13.7506 17.6166 13.922C18.3986 14.4782 19.5222 14.3132 20.4324 14.4428C21.1797 14.5492 22.1939 14.7635 22.7392 14.127C22.9453 13.8865 22.9494 13.5823 22.7392 13.3406Z" fill="black" stroke="black" stroke-width="0.5"/>
<path d="M74.8401 28.2188C74.6816 25.7674 74.3315 23.1812 71.4573 22.8638C69.2784 22.6232 66.7584 22.7613 64.5648 22.8624C63.2815 22.9216 61.9245 22.994 60.6256 23.1919C60.5006 22.759 60.3372 22.338 60.0991 21.9421C58.6827 19.5862 55.7533 19.3004 53.26 19.2882C51.2479 19.2784 49.2127 19.8293 48.7463 22.014C48.6118 22.6446 48.5422 23.2894 48.5071 23.9387C45.4934 23.1688 42.4248 23.3243 39.2817 23.188C35.9483 23.0435 32.6217 22.944 29.2881 22.7966C22.146 22.4809 14.8909 23.081 7.77374 23.5952C5.455 23.7627 2.99111 24.4091 2.45533 26.9861C1.96205 29.3575 1.65784 32.7303 4.13891 34.0725C6.90343 35.5678 10.7214 35.007 13.7243 35.0087C17.5057 35.0109 21.3208 35.1681 25.0949 34.9531C29.1413 34.7227 33.1627 35.1678 37.1942 35.1464C40.9004 35.1269 44.5946 35.2783 48.3121 35.1775C48.4655 37.3705 49.4511 38.7114 51.7411 39.5128C54.2803 40.4014 57.5792 40.2058 59.732 38.4879C60.7756 37.6553 61.3058 36.6067 61.5584 35.463C63.2228 35.4741 64.8879 35.4564 66.552 35.4561C68.4774 35.4556 70.5771 35.5719 72.4316 34.9478C75.1479 34.0338 74.9966 30.6435 74.8401 28.2188ZM48.2891 33.3027C42.6037 33.4741 36.9848 33.2611 31.3053 33.0436C28.3388 32.93 25.3872 33.2269 22.4274 33.1913C19.1385 33.1519 15.8485 33.1725 12.5592 33.1745C10.9811 33.1755 9.37404 33.2661 7.79983 33.13C7.00812 33.0616 6.14984 32.9641 5.41891 32.6234C4.03142 31.9769 3.93876 30.8622 4.0497 29.4025C4.11798 28.5046 4.22657 27.768 4.62876 26.9561C5.11157 25.9813 5.50328 25.8394 6.49734 25.6165C7.86296 25.3102 9.47529 25.2743 10.8762 25.248C17.1556 25.1307 23.3491 24.4005 29.6464 24.6712C35.903 24.9401 42.2171 25.1668 48.4776 25.1026C48.4771 25.6054 48.4879 26.1076 48.5005 26.6049C48.3733 28.8344 48.2962 31.0644 48.2891 33.3027ZM58.0983 37.4378C56.3774 38.4983 53.2494 38.6019 51.5018 37.4525C49.2401 35.965 50.0332 32.1544 50.0088 29.7967C50.0068 29.6019 50.0054 29.4075 50.0036 29.2128C50.0968 28.0768 50.0944 26.9305 50.121 25.7838C50.1458 24.7158 50.1593 23.596 50.4372 22.5587C50.7263 21.4798 51.5811 21.2896 52.6025 21.1451C54.8344 20.8295 58.1117 21.2718 58.8886 23.693C59.5002 25.5991 59.5177 27.8902 59.7377 29.873C60.0364 32.5655 60.9247 35.6962 58.0983 37.4378ZM72.8773 31.4624C72.6129 33.38 70.8304 33.4722 69.1762 33.538C66.7085 33.6359 64.2317 33.5506 61.7595 33.5491C61.7739 32.5661 61.6884 31.5627 61.6209 30.6011C61.5228 29.2043 61.3164 27.8189 61.1261 26.4369C61.0448 25.8474 60.9936 25.2413 60.9145 24.6407C62.674 24.8088 64.4497 24.638 66.2223 24.6697C67.7101 24.6965 69.1984 24.6618 70.6859 24.683C72.7512 24.7126 72.8937 26.5352 73.0149 28.2186C73.0927 29.2996 73.0245 30.3942 72.8773 31.4624Z" fill="black" stroke="black" stroke-width="0.5"/>
<path d="M57.1262 25.7195C56.5765 25.0868 55.4435 25.2961 54.6725 25.2262C53.8512 25.1518 52.6992 25.1572 52.0036 25.6495C51.7617 25.8207 51.7626 26.1295 52.0036 26.3009C52.7856 26.8571 53.9092 26.6921 54.8193 26.8217C55.5667 26.9281 56.5809 27.1425 57.1262 26.5059C57.3323 26.2654 57.3363 25.9612 57.1262 25.7195Z" fill="black" stroke="black" stroke-width="0.5"/>
<path d="M57.1262 29.0213C56.5765 28.3886 55.4435 28.5978 54.6725 28.528C53.8512 28.4536 52.6992 28.4589 52.0036 28.9513C51.7617 29.1225 51.7626 29.4313 52.0036 29.6027C52.7856 30.1587 53.9092 29.9939 54.8193 30.1234C55.5667 30.2298 56.5809 30.4442 57.1262 29.8077C57.3323 29.5672 57.3363 29.263 57.1262 29.0213Z" fill="black" stroke="black" stroke-width="0.5"/>
<path d="M57.1262 32.322C56.5765 31.6894 55.4435 31.8984 54.6725 31.8288C53.8512 31.7544 52.6992 31.7597 52.0036 32.252C51.7617 32.4233 51.7626 32.732 52.0036 32.9034C52.7856 33.4597 53.9092 33.2947 54.8193 33.4242C55.5667 33.5306 56.5809 33.745 57.1262 33.1084C57.3323 32.868 57.3363 32.5638 57.1262 32.322Z" fill="black" stroke="black" stroke-width="0.5"/>
<path d="M69.8049 78.2472C68.8778 78.1108 67.936 78.0639 66.9893 78.0553C67.2936 75.7783 66.6726 73.0355 66.4678 70.7769C66.3686 69.6824 66.4411 68.2267 65.9756 67.2093C65.3786 65.9041 63.9004 65.005 62.9076 64.0404C60.29 61.4971 57.5924 59.0338 54.9888 56.4692C53.763 55.2618 52.5316 54.0629 51.2432 52.9232C50.2233 52.021 49.2232 50.8204 48.0598 50.1192C47.3177 49.6718 46.7801 49.6943 46.0612 50.1381C44.6246 51.0246 43.2549 52.4973 41.9909 53.6106C40.5351 54.8927 39.0679 56.1518 37.5962 57.4154C36.8378 58.0666 36.1112 58.7538 35.3659 59.4201C34.8526 59.8788 33.4212 61.6051 32.6903 61.6144C31.563 61.6288 29.985 58.9974 29.2792 58.164C28.3222 57.034 27.3814 55.9056 26.3858 54.8146C26.9052 53.694 27.6464 52.6464 28.7157 51.6329C31.0355 49.4342 34.0625 48.252 37.1411 47.5409C40.5579 46.7517 43.5378 47.2228 46.8741 48.0092C49.4732 48.6218 52.0899 48.7272 54.7408 48.5717C57.4766 48.4112 60.4886 47.5423 62.7919 46.023C63.4006 45.6214 64.852 44.5689 65.1726 43.5712C65.19 43.5727 65.2037 43.5762 65.222 43.5772C65.7984 43.6048 66.5482 43.3192 66.9404 42.8958C67.7465 42.0252 67.6048 40.1217 66.7665 39.2944C65.7117 38.2535 64.08 38.6017 63.3175 39.7614C62.9462 40.3263 62.9383 41.0133 63.1956 41.6263C63.357 42.0105 63.6651 42.335 63.817 42.7194C63.9278 43 63.895 43.2364 63.8078 43.4681C63.6209 43.6917 63.4054 44.0503 63.2589 44.1992C62.7023 44.7645 62.0289 45.1955 61.3298 45.5597C59.7939 46.3598 57.9675 46.9833 56.2556 47.2783C52.7702 47.879 49.2297 47.4336 45.839 46.5608C40.3803 45.1556 33.6972 46.2631 29.1681 49.7584C27.7152 50.8798 26.4285 52.2526 25.5143 53.8446C24.3482 52.4226 22.6177 49.6139 20.8221 49.7925C19.6168 49.9123 18.3568 51.3682 17.5418 52.147C16.154 53.4729 14.7803 54.8078 13.4229 56.1654C12.0357 57.5529 10.6237 58.9576 9.32857 60.4299C8.64358 61.2085 7.88796 61.9271 7.21656 62.7161C7.02171 62.9451 6.82031 63.2591 6.6075 63.5707C6.62062 63.0668 6.63406 62.5627 6.64734 62.0588C6.75093 58.0876 6.70828 54.087 6.68593 50.1132C6.66734 46.8206 6.46593 43.3072 6.8764 40.04C6.96968 39.2974 5.76313 39.16 5.58453 39.8652C4.88001 42.6475 4.97219 45.882 4.93626 48.7379C4.89079 52.359 4.77282 55.981 4.80032 59.6012C4.82844 63.3138 4.59204 67.0189 4.69032 70.7349C4.73391 72.3828 4.79969 74.0387 4.88719 75.685C4.9411 76.698 4.76235 78.0914 5.49735 78.9139C6.11094 79.6006 7.03406 79.6434 7.88686 79.7264C9.66607 79.8996 11.467 80.0298 13.2536 80.0979C16.6795 80.2286 20.1015 80.0479 23.5252 80.1189C30.7672 80.2692 38.0223 80.2479 45.2685 80.2876C49.3202 80.3098 53.431 80.3504 57.4756 80.1286C59.5988 80.0121 61.7197 80.0971 63.845 80.0776C65.7534 80.0601 67.6551 79.8364 69.5596 80.0615C70.5832 80.1825 70.8349 78.3987 69.8049 78.2472ZM64.1803 40.6375C64.5125 39.3961 65.974 39.685 66.2667 40.7453C66.9137 43.0892 63.6964 42.4475 64.1803 40.6375ZM6.60578 71.7989C6.50281 69.573 6.52156 67.348 6.57015 65.1232C7.00218 64.8055 7.33749 64.3499 7.7264 63.9585C8.85952 62.818 9.99138 61.661 11.1404 60.5371C13.4323 58.2954 15.6623 55.9923 17.9835 53.7782C18.8709 52.9318 20.2496 51.0959 21.4704 51.6392C22.5018 52.0981 23.554 53.9951 24.2965 54.8142C24.4633 54.9984 24.6252 55.1867 24.7907 55.372C24.7433 55.4951 24.6888 55.6146 24.6461 55.7399C23.5732 58.8909 24.2558 62.4251 23.3047 65.6564C21.5238 71.7072 13.5098 78.4951 6.83515 76.6292C6.4089 75.2517 6.67281 73.2486 6.60578 71.7989ZM31.6308 78.2929C31.1999 78.2787 30.7681 78.2695 30.3375 78.2531C23.9122 78.0092 17.4859 78.4783 11.062 78.0758C9.94388 78.0058 8.45014 78.1904 7.53655 77.5856C11.3187 78.5806 15.7323 76.4508 18.6271 74.0466C20.6173 72.3936 22.6121 70.4252 23.6547 68.0219C24.726 65.553 25.1091 62.9232 25.2472 60.251C25.3177 58.8851 25.4682 57.6445 25.7805 56.4898C27.2724 58.2076 28.7211 59.9605 30.2135 61.6827C30.8236 62.3869 31.3533 62.8305 31.8694 63.0444C31.7088 68.118 31.4038 73.2188 31.6308 78.2929ZM45.4076 72.2024C45.3284 74.2416 45.4715 76.3837 45.262 78.4206C41.1029 78.474 36.9361 78.4468 32.7833 78.3284C32.6131 73.2852 32.8608 68.231 32.7598 63.1843C33.4564 63.1168 34.1961 62.6549 35.1376 61.8347C37.9211 59.4102 40.6706 56.9481 43.4465 54.5154C44.1054 53.9381 44.7929 53.3954 45.4559 52.8229C45.6795 52.6298 46.2955 51.8793 46.7007 51.6282C46.1687 56.242 45.8887 60.9519 45.6768 65.5825C45.5759 67.7894 45.4934 69.9956 45.4076 72.2024ZM65.3518 77.5864C65.2525 77.7278 65.2117 77.9 65.2226 78.0754C63.7989 78.1195 62.3731 78.2026 60.9723 78.1887C57.5488 78.1548 54.0764 78.2172 50.6526 78.3117C49.2229 78.3512 47.7905 78.3809 46.3573 78.4039C46.5043 76.58 46.3413 74.7175 46.4329 72.8913C46.5485 70.5838 46.5873 68.2644 46.6698 65.9541C46.8376 61.2601 47.7323 56.3584 47.4149 51.6511C48.3469 52.0643 49.5335 53.5407 50.1124 54.0543C52.7432 56.3879 55.1169 58.9874 57.688 61.3844C59.0011 62.6087 60.3527 63.793 61.6251 65.0582C63.0894 66.5141 64.4618 67.343 64.6958 69.5561C64.8457 70.9742 64.9409 72.3967 65.0379 73.8186C65.1168 74.9756 65.4672 76.4119 65.3518 77.5864Z" fill="black" stroke="black" stroke-width="0.5"/>
<path d="M79.0627 59.268C78.1488 57.9662 76.5936 57.596 75.4894 56.6452C76.3385 54.9782 78.7194 52.9759 77.1381 51.3618C76.268 50.4735 74.4303 50.1982 73.2905 49.7548C71.9177 49.2209 70.5832 48.636 69.2258 48.0662C68.0477 47.5717 64.124 45.4689 63.2532 47.3118C62.8229 48.2226 63.1487 49.9707 63.2274 50.9271C63.2965 51.7671 63.4156 52.689 63.6337 53.5623C63.6373 53.698 63.6392 53.8346 63.6473 53.9679C63.7456 55.5741 63.9313 57.1737 64.127 58.7705C64.4138 61.1121 64.5391 63.7647 67.5691 62.8514C68.0538 62.7053 68.4898 62.4699 68.9472 62.2521C69.588 61.9469 69.8929 61.7494 70.3613 61.8739C71.6363 62.2128 72.2472 64.4666 73.4714 64.9797C74.5153 65.4172 75.1986 64.5952 75.8314 63.9264C76.9141 62.7822 77.855 61.5055 78.923 60.35C79.1742 60.0783 79.2934 59.5968 79.0627 59.268ZM75.0942 61.9658C73.8924 63.3413 74.316 63.2022 73.0693 61.9371C71.295 60.1361 71.0435 59.2071 68.6404 60.3416C68.2743 60.5144 67.2438 61.1324 66.833 61.1157C66.0509 61.0839 66.2363 60.7466 66.0885 59.9211C65.7324 57.9305 65.4876 55.9213 65.3134 53.9071C65.2274 52.9138 65.2551 51.8715 65.1009 50.8887C65.0709 50.6974 64.6809 48.3971 64.8316 48.4381C65.2996 48.5653 65.7385 48.7376 66.1993 48.8829C68.9482 49.7421 71.5457 51.061 74.2602 52.0295C74.5947 52.1488 75.0717 52.2557 75.2925 52.6013C75.6999 53.2391 75.0641 53.7632 74.7714 54.3429C74.4107 55.0044 73.6547 55.861 73.585 56.619C73.446 58.1318 75.8883 58.7338 77.0789 59.7019C76.3999 60.4393 75.751 61.2144 75.0942 61.9658Z" fill="black" stroke="black" stroke-width="0.5"/>
</g>
<defs>
<clipPath id="clip0">
<rect width="80" height="80" fill="white" transform="translate(0 0.305664)"/>
</clipPath>
</defs>
</svg>
