<svg width="32" height="32" viewBox="0 0 32 32" fill="none" xmlns="http://www.w3.org/2000/svg">
<rect width="32" height="32" fill="#00FA9A"/>
<g clip-path="url(#clip0_1759_267)">
<path d="M6.36629 12.6373H10.5128V26H6.36629V12.6373ZM8.44688 6C8.92213 6 9.38671 6.14123 9.78187 6.40585C10.177 6.67047 10.485 7.0466 10.6669 7.48665C10.8488 7.92669 10.8964 8.41089 10.8036 8.87804C10.7109 9.34519 10.4821 9.77429 10.146 10.1111C9.80994 10.4479 9.38178 10.6773 8.91566 10.7702C8.44954 10.8631 7.9664 10.8154 7.52732 10.6331C7.08825 10.4509 6.71296 10.1422 6.44892 9.74616C6.18489 9.35013 6.04395 8.88452 6.04395 8.40822C6.04395 7.76952 6.29711 7.15698 6.74775 6.70535C7.19839 6.25373 7.80958 6 8.44688 6Z" fill="black"/>
<path d="M13.0772 12.6377H17.0479V14.4586C17.4499 13.7841 18.0247 13.2296 18.7126 12.8526C19.4004 12.4757 20.1764 12.2899 20.96 12.3147C25.1651 12.3147 25.927 15.0753 25.927 18.673V26.0151H21.7951V19.51C21.7951 18.0416 21.7951 15.9711 19.6413 15.9711C17.4874 15.9711 17.1504 17.6598 17.1504 19.4072V26.0151H13.0186L13.0772 12.6377Z" fill="black"/>
</g>
<defs>
<clipPath id="clip0_1759_267">
<rect width="20" height="20" fill="white" transform="translate(6 6)"/>
</clipPath>
</defs>
</svg>
