<svg width="32" height="32" viewBox="0 0 32 32" fill="none" xmlns="http://www.w3.org/2000/svg">
<path fill-rule="evenodd" clip-rule="evenodd" d="M21.4886 7.33496H10.513C8.76135 7.33496 7.33594 8.76028 7.33594 10.512V21.4875C7.33594 23.2395 8.76135 24.6649 10.513 24.6649H21.4886C23.2405 24.6649 24.6659 23.2395 24.6659 21.4875V10.512C24.6659 8.76037 23.2405 7.33496 21.4886 7.33496ZM16.0006 21.7047C12.8552 21.7047 10.2958 19.1453 10.2958 15.9996C10.2958 12.8542 12.8552 10.2948 16.0006 10.2948C19.1463 10.2948 21.7057 12.8542 21.7057 15.9996C21.7057 19.1453 19.1463 21.7047 16.0006 21.7047ZM21.8893 11.4745C21.1446 11.4745 20.539 10.8689 20.539 10.1247C20.539 9.38032 21.1446 8.77479 21.8893 8.77479C22.6335 8.77479 23.2391 9.38032 23.2391 10.1247C23.2391 10.869 22.6335 11.4745 21.8893 11.4745Z" fill="#00FA9A"/>
<path fill-rule="evenodd" clip-rule="evenodd" d="M15.9996 12.7061C14.1838 12.7061 12.7051 14.184 12.7051 15.9999C12.7051 17.8164 14.1838 19.2947 15.9996 19.2947C17.8161 19.2947 19.2937 17.8164 19.2937 15.9999C19.2937 14.184 17.8161 12.7061 15.9996 12.7061Z" fill="#00FA9A"/>
<path fill-rule="evenodd" clip-rule="evenodd" d="M0 0V32H32V0H0ZM27.0755 21.4877C27.0755 24.5693 24.5693 27.0755 21.4878 27.0755H10.5123C7.43103 27.0755 4.92448 24.5693 4.92448 21.4877V10.5123C4.92448 7.43103 7.43103 4.92448 10.5123 4.92448H21.4878C24.5693 4.92448 27.0755 7.43103 27.0755 10.5123V21.4877Z" fill="#00FA9A"/>
</svg>
