<svg width="32" height="32" viewBox="0 0 32 32" fill="none" xmlns="http://www.w3.org/2000/svg">
<path fill-rule="evenodd" clip-rule="evenodd" d="M0 0V32H32V0H0ZM26.6896 21.2368C26.4181 22.4148 25.4544 23.2847 24.2944 23.4142C21.5485 23.7204 18.7682 23.7224 15.9989 23.7204C13.2306 23.7224 10.4504 23.7204 7.70363 23.4142C6.54333 23.2847 5.57975 22.4148 5.30961 21.2368C4.92308 19.5597 4.92308 17.7274 4.92308 15.9999C4.92308 14.2725 4.92765 12.441 5.31383 10.7639C5.58397 9.58474 6.5479 8.71603 7.70673 8.58655C10.4538 8.27956 13.2352 8.27837 16.0034 8.27956C18.7714 8.27844 21.5519 8.27956 24.2987 8.58655C25.459 8.71603 26.4226 9.58474 26.6939 10.7639C27.0804 12.441 27.0769 14.2725 27.0769 15.9999C27.0769 17.7274 27.0758 19.5597 26.6896 21.2368Z" fill="#00FA9A"/>
<path fill-rule="evenodd" clip-rule="evenodd" d="M13.1406 19.4394C15.4944 18.2189 17.8273 17.0085 20.1833 15.7871C17.8204 14.5542 15.4878 13.3381 13.1406 12.1133V19.4394Z" fill="#00FA9A"/>
</svg>
