<svg width="80" height="80" viewBox="0 0 80 80" fill="none" xmlns="http://www.w3.org/2000/svg">
<path d="M77.3559 7.50144C74.0448 4.43926 69.501 7.08988 67.2853 10.0313C67.0068 10.4008 66.7346 10.775 66.4624 11.1493C65.6835 12.2199 65.0695 13.2046 64.5081 14.4058C64.187 15.0928 63.7918 15.7985 63.4003 16.5203C62.8262 17.3874 62.2696 18.2688 61.7223 19.1608C61.2904 19.8645 60.8293 20.5475 60.3598 21.2247C60.3484 20.6624 60.2943 20.0927 60.2609 19.561C60.3789 18.3777 60.509 17.2 60.4961 15.9771C60.4715 13.6739 60.0078 11.4394 59.9731 9.12941C59.9456 7.29863 60.0543 5.50817 60.1232 3.67505C60.167 2.50942 60.2231 1.17364 59.074 0.535521C57.7382 -0.206197 55.6434 0.109897 54.192 0.0453654C51.8386 -0.0594781 49.4623 0.0511467 47.1064 0.0445842C42.5609 0.0320842 37.9383 0.0341154 33.4019 0.352552C28.9505 0.665052 24.3649 1.05302 19.9068 0.989739C17.95 0.96177 16.0168 1.11396 14.0624 1.10927C11.7871 1.1038 9.42943 0.929895 7.16288 1.12724C5.7646 1.24911 3.64023 1.34864 2.54398 2.28677C1.41039 3.25677 1.69882 4.95551 1.69914 6.28114C1.70039 10.8539 1.71085 15.4217 1.7057 19.9972C1.69507 29.5712 1.55898 39.1389 1.55398 48.7092C1.55289 50.8168 1.58664 52.9087 1.69617 55.0129C1.81789 57.3498 1.62085 59.6404 1.65367 61.9785C1.68445 64.1763 1.67585 66.3741 1.67445 68.5724C1.67367 69.7707 1.68382 70.9688 1.68523 72.1671C1.68648 73.3132 1.4382 74.4562 1.53023 75.594C1.80835 79.0369 5.48288 78.7969 8.17647 78.8683C12.3313 78.9785 16.4661 79.1415 20.6325 79.1435C24.7178 79.1455 28.7405 79.6408 32.8127 79.8129C34.8255 79.8979 36.887 80.0579 38.8914 79.9785C41.2228 79.886 43.5642 79.7074 45.8925 79.663C47.9123 79.6244 49.922 79.5449 51.9244 79.5382C53.7022 79.5322 54.4992 79.1224 55.6323 77.796C57.0873 76.0929 58.5448 74.2604 60.1017 72.6551C61.4414 71.2737 62.3121 70.9129 62.4462 68.9084C62.7315 64.6423 62.5131 60.2368 62.2868 55.9668C62.1342 53.0846 62.2811 50.1993 62.3461 47.317C62.4018 44.8481 62.2981 42.4476 62.0989 39.9875C62.0781 39.7309 62.0575 39.4714 62.0979 39.2172C62.2604 38.1986 63.3189 37.0361 63.9068 36.199C68.8167 29.2091 74.3826 22.2919 77.4952 14.2014C78.2951 12.1224 79.3291 9.32644 77.3559 7.50144ZM62.1656 21.4866C63.3304 19.7536 64.4834 18.012 65.557 16.2152C66.0128 16.3891 66.7684 16.8486 66.9312 16.9291C67.5514 17.2355 68.1099 17.6364 68.6854 18.0156C67.5315 19.5517 66.721 21.3605 65.4949 22.8417C63.7334 24.97 62.1165 27.1155 60.4836 29.3509C57.4543 33.4978 54.8358 37.8536 52.0851 42.1611C51.9811 41.5772 51.7317 41.0522 51.0739 40.6368C50.6545 40.372 50.2412 40.277 49.7497 40.304C50.852 38.5881 51.8545 36.7917 52.9984 35.1064C54.709 32.5859 56.545 30.1828 58.1495 27.5906C59.4325 25.5178 60.807 23.508 62.1656 21.4866ZM48.7806 47.7417C48.4617 47.5253 48.08 47.3848 47.7095 47.2853C47.5662 47.2468 47.4153 47.2126 47.2644 47.1945C47.3098 46.9129 47.3548 46.6315 47.4019 46.3501C47.5917 45.2128 47.5625 43.7789 48.2448 42.7728C48.529 42.3537 49.127 41.8372 49.6892 42.0497C50.4201 42.3261 50.3865 43.4811 50.4576 44.0979C50.5303 44.7276 51.0014 45.0268 51.5965 44.9378C51.889 44.894 51.9325 44.6328 52.2925 44.6876C52.6901 44.7492 54.1139 46.1893 53.6267 46.6067C52.5828 47.5011 51.232 48.4189 50.1404 49.1696C49.8412 48.6114 49.2789 48.08 48.7806 47.7417ZM49.2209 49.7967C48.8308 50.0603 48.4389 50.3218 48.0475 50.5743C47.7811 50.7462 47.1776 50.9617 46.9614 51.187C46.8226 51.3317 46.7305 51.3665 46.6775 51.3787C46.6323 50.692 46.9358 49.4939 46.9986 48.995C47.0303 48.7437 47.0692 48.4937 47.1055 48.2431C47.2844 48.2764 47.4636 48.3157 47.6381 48.3886C48.0909 48.5775 48.3626 48.8429 48.7078 49.1843C48.8794 49.3542 49.0419 49.6039 49.2209 49.7967ZM60.4284 68.431C60.2804 69.461 60.1732 69.9035 59.4003 70.5746C58.6497 71.2263 58.0531 71.9734 57.4114 72.729C56.259 74.0863 55.1579 75.5133 53.8983 76.7719C52.8975 77.7718 51.6983 77.3549 50.3865 77.4116C46.797 77.5666 43.2212 77.8199 39.6277 77.9388C35.7552 78.0669 31.9261 77.5332 28.0571 77.3997C20.9057 77.1532 13.7219 77.2569 6.57491 76.8907C5.79288 76.8505 4.23054 76.838 3.65069 76.1469C3.22616 75.641 3.60241 74.2519 3.65007 73.5654C3.78976 71.5569 3.64257 69.4882 3.64132 67.4745C3.63882 63.4501 3.89398 59.3549 3.66007 55.352C3.17851 47.1107 3.62335 38.8211 3.61804 30.5709C3.61273 22.2308 3.6196 13.8925 3.62663 5.55739C3.62773 4.18926 3.95554 3.61864 5.33382 3.36614C6.24381 3.19942 7.13897 3.0402 8.06584 3.02942C10.1868 3.00473 12.3143 3.04177 14.4358 3.05067C18.1418 3.0663 21.8374 2.77099 25.5364 2.6502C34.625 2.35349 43.6867 2.02333 52.7869 1.98489C53.8534 1.98036 54.9017 2.07255 55.9647 2.10474C57.1718 2.14146 58.1084 1.76755 58.2297 3.19192C58.395 5.13379 58.0376 7.17426 58.0981 9.12941C58.1626 11.2178 58.5356 13.2158 58.6415 15.2892C58.6668 15.7855 58.6742 16.2841 58.6743 16.7833C58.5572 18.9295 58.49 21.0658 58.9482 23.2238C58.1354 24.3586 57.327 25.4952 56.5889 26.6786C54.9764 29.2636 53.1395 31.6703 51.4283 34.1887C50.6354 35.3555 49.9145 36.5684 49.1794 37.7717C48.5301 38.8345 47.699 39.8564 47.1195 40.9489C46.0167 43.0279 45.6856 45.9247 45.3453 48.2275C45.1603 49.479 44.1655 52.7214 45.7789 53.3653C47.1258 53.9029 49.428 51.7751 50.4086 51.1156C51.8876 50.1206 53.2525 48.9492 54.7137 47.922C56.569 46.6179 57.7345 45.0717 59.1559 43.3434C59.5937 42.8112 60.004 42.2493 60.3986 41.6714C60.3992 41.7318 60.3993 41.7893 60.3982 41.8428C60.3773 42.86 60.3465 43.8736 60.4615 44.8701C60.3564 47.6847 60.1748 50.4917 60.1706 53.3175C60.1653 56.9195 60.4784 60.5213 60.5631 64.1323C60.5967 65.5674 60.6325 67.0099 60.4284 68.431ZM68.4903 26.2241C66.1754 29.8747 63.601 33.3469 61.2334 36.9647C60.0753 38.7342 58.9789 40.7192 57.6365 42.3429C56.9448 43.1797 56.1608 44.5654 55.2275 45.4295C55.1253 44.4698 54.9573 43.5253 54.0701 42.9379C53.7158 42.7033 53.415 42.6158 53.1367 42.6086C53.4972 42.0034 53.8087 41.364 54.2025 40.7764C54.8764 39.7704 55.5754 38.7864 56.2339 37.7705C57.7386 35.4487 59.1543 33.1009 60.787 30.858C63.737 26.8055 67.0665 22.9158 69.3617 18.4563C70.3484 19.1181 71.4974 20.0772 71.9328 21.1136C71.941 21.1333 71.9548 21.1466 71.9645 21.1647C70.8007 22.8424 69.5807 24.5042 68.4903 26.2241ZM72.7435 19.8472C71.9526 18.6858 70.8099 17.8883 69.6048 17.191C68.8868 16.7755 67.3584 15.5921 66.0949 15.2786C66.1137 15.2833 66.9131 13.6471 67.0604 13.4944C67.7239 12.8064 68.2243 13.2153 68.9573 13.5524C70.376 14.2047 71.5231 15.2113 72.6501 16.2617C74.0293 17.5472 73.2676 18.4047 72.7435 19.8472ZM74.9757 15.491C74.8007 15.8108 74.6377 16.1416 74.4774 16.4742C74.299 15.99 74.0631 15.5238 73.771 15.0919C72.7704 13.6125 70.4193 11.7074 68.5254 11.1535C68.8843 10.6535 69.229 10.1668 69.5899 9.81894C71.1446 8.32051 73.954 7.21176 75.8802 8.71035C77.7556 10.1693 75.8563 13.8822 74.9757 15.491Z" fill="black"/>
<path d="M21.9111 13.3367C20.2769 13.8692 19.221 15.6092 18.1346 16.8754C17.9228 17.1221 17.7078 17.3645 17.4924 17.6063C17.3914 16.8499 17.2903 16.139 17.2543 15.5368C17.1746 14.2123 17.2211 13.2901 15.7674 13.0124C14.0704 12.6884 10.5257 12.8364 8.99724 13.8095C7.57552 14.7146 7.57708 16.6873 7.63865 18.1812C7.69708 19.6013 7.64677 20.9892 7.7613 22.4071C7.8124 23.0409 7.74318 23.7577 8.17974 24.2846C9.5927 25.9896 13.8486 25.2301 15.5947 24.5741C17.3861 23.901 17.7825 22.1485 17.7388 20.2427C18.2691 19.6507 18.7714 19.031 19.246 18.4817C20.3902 17.1576 22.1394 15.7751 22.653 14.0785C22.7825 13.6504 22.3464 13.1949 21.9111 13.3367ZM16.0778 22.604C15.4669 23.7482 14.2374 23.511 13.2468 23.5701C12.4449 23.6179 9.62536 24.1693 9.05349 23.3046C8.90614 23.0818 8.9738 22.0166 8.9388 21.6335C8.85583 20.7251 8.8838 19.8432 8.87755 18.9321C8.86646 17.3184 8.32271 15.2278 10.341 14.7988C11.7933 14.4903 13.4443 14.3429 14.9324 14.1804C15.7107 14.2292 15.7774 14.3659 15.9883 15.0878C16.3153 16.2067 16.2318 17.6995 16.2105 19.0038C15.9041 19.3687 15.4194 19.9706 15.0199 20.287C13.9455 19.2999 13.0413 18.0484 11.7849 17.3359C11.7858 17.3429 11.7868 17.3499 11.7875 17.357C11.2191 17.1168 10.2352 17.6334 10.903 18.4787C11.7977 19.611 12.6746 20.4837 13.6889 21.4988C14.4646 22.2751 15.0314 22.5912 16.0107 21.8759C16.0971 21.8126 16.1816 21.7413 16.2669 21.6727C16.25 22.0416 16.1985 22.3784 16.0778 22.604Z" fill="black"/>
<path d="M23.2699 27.4283C21.0707 28.4102 19.2411 30.6666 17.5302 32.5205C17.4178 31.6574 17.295 30.8418 17.2543 30.164C17.1746 28.8394 17.2211 27.9171 15.7674 27.6396C14.0704 27.3155 10.5257 27.4633 8.99724 28.4365C7.57552 29.3416 7.57708 31.3143 7.63865 32.8082C7.69708 34.2282 7.64677 35.616 7.7613 37.0338C7.8124 37.6675 7.74318 38.3844 8.17974 38.9114C9.59271 40.6164 13.8486 39.8569 15.5947 39.201C17.2936 38.5627 17.7372 36.9535 17.7416 35.1636C18.5155 34.3893 19.24 33.5127 19.9685 32.7854C21.3757 31.3801 23.1652 29.9832 23.9864 28.1447C24.2058 27.653 23.7624 27.2085 23.2699 27.4283ZM16.0779 37.2308C15.4669 38.375 14.2374 38.1379 13.2468 38.1969C12.4449 38.2447 9.62536 38.7961 9.05349 37.9314C8.90614 37.7086 8.9738 36.6435 8.9388 36.2604C8.85583 35.3519 8.8838 34.47 8.87755 33.559C8.8663 31.9451 8.32255 29.8544 10.341 29.4255C11.7933 29.1169 13.4443 28.9696 14.9324 28.8071C15.7107 28.8558 15.7774 28.9926 15.9883 29.7144C16.3432 30.9286 16.2133 32.5866 16.2058 33.9621C15.9463 34.2546 15.666 34.5463 15.5443 34.5705C14.9208 34.694 14.3461 33.8319 14.0343 33.4271C13.4761 32.7027 13.1947 32.066 12.3149 31.671C11.6671 31.3802 10.8027 32.2336 11.4765 32.7575C12.8057 33.791 13.9558 37.7393 16.2589 36.4C16.2375 36.7283 16.1871 37.0263 16.0779 37.2308Z" fill="black"/>
<path d="M17.2544 44.7907C17.1746 43.4663 17.2211 42.544 15.7674 42.2664C14.0704 41.9423 10.5257 42.0903 8.99724 43.0634C7.57552 43.9685 7.57708 45.9412 7.63865 47.4349C7.69708 48.8549 7.64677 50.2427 7.7613 51.6606C7.8124 52.2943 7.74318 53.0112 8.17974 53.5382C9.5927 55.2432 13.8486 54.4837 15.5947 53.8277C18.9422 52.5701 17.42 47.544 17.2544 44.7907ZM16.0778 51.8576C15.4669 53.0016 14.2374 52.7646 13.2468 52.8237C12.4449 52.8715 9.62536 53.4229 9.05349 52.558C8.90614 52.3352 8.9738 51.2701 8.9388 50.8871C8.85583 49.9787 8.8838 49.0968 8.87755 48.1859C8.8663 46.572 8.32255 44.4812 10.341 44.0524C11.7933 43.7438 13.4443 43.5965 14.9324 43.434C15.7107 43.4828 15.7774 43.6195 15.9883 44.3413C16.3972 45.7401 16.1622 47.7288 16.2127 49.1948C16.2368 49.8937 16.396 51.2616 16.0778 51.8576Z" fill="black"/>
<path d="M17.2544 59.4175C17.1746 58.0928 17.2211 57.1705 15.7674 56.8928C14.0704 56.5688 10.5257 56.7167 8.99724 57.6898C7.57552 58.595 7.57708 60.5677 7.63865 62.0616C7.69708 63.4816 7.64677 64.8694 7.7613 66.2873C7.8124 66.9211 7.74318 67.6379 8.17974 68.165C9.5927 69.87 13.8486 69.1104 15.5947 68.4545C18.9422 67.1969 17.42 62.1708 17.2544 59.4175ZM16.0778 66.484C15.4669 67.6281 14.2374 67.3911 13.2468 67.4501C12.4449 67.498 9.62536 68.0494 9.05349 67.1847C8.90614 66.9619 8.9738 65.8967 8.9388 65.5136C8.85583 64.6051 8.8838 63.7233 8.87755 62.8122C8.8663 61.1983 8.32255 59.1077 10.341 58.6788C11.7933 58.3702 13.4443 58.2228 14.9324 58.0603C15.7107 58.1091 15.7774 58.2458 15.9883 58.9677C16.3972 60.3664 16.1622 62.3551 16.2127 63.8211C16.2368 64.5201 16.396 65.8881 16.0778 66.484Z" fill="black"/>
<path d="M51.023 14.7814C49.0324 14.4679 46.8741 14.6126 44.8547 14.5742C42.7074 14.5334 40.5269 14.5565 38.3825 14.6689C34.0055 14.8986 29.6078 14.4136 25.2286 14.8445C24.7524 14.8911 24.7514 15.539 25.2286 15.5861C29.5177 16.0081 34.0846 16.0296 38.3825 15.8059C42.4972 15.5917 46.9986 16.205 51.023 15.2501C51.2447 15.1975 51.2647 14.8193 51.023 14.7814Z" fill="black"/>
<path d="M51.023 17.5734C49.0324 17.2599 46.8741 17.4046 44.8547 17.3662C42.7074 17.3254 40.5269 17.3485 38.3825 17.4609C34.0055 17.6904 29.6078 17.2054 25.2286 17.6365C24.7524 17.6834 24.7514 18.3312 25.2286 18.3782C29.5177 18.8002 34.0846 18.8218 38.3825 18.598C42.4972 18.3838 46.9986 18.9971 51.023 18.0423C51.2447 17.9896 51.2647 17.6115 51.023 17.5734Z" fill="black"/>
<path d="M51.023 20.3658C49.0324 20.0524 46.8741 20.1971 44.8547 20.1587C42.7074 20.1179 40.5269 20.141 38.3825 20.2533C34.0055 20.4829 29.6078 19.9979 25.2286 20.4288C24.7524 20.4757 24.7514 21.1237 25.2286 21.1705C29.5177 21.5926 34.0846 21.6141 38.3825 21.3904C42.4972 21.1762 46.9986 21.7894 51.023 20.8346C51.2447 20.7821 51.2647 20.4038 51.023 20.3658Z" fill="black"/>
<path d="M49.3019 29.7399C47.4426 29.4264 45.4263 29.5711 43.5401 29.5327C41.5341 29.4919 39.4973 29.515 37.4943 29.6274C33.4056 29.8569 29.2977 29.3719 25.207 29.8028C24.7621 29.8499 24.7613 30.4978 25.207 30.5447C29.2134 30.9667 33.4795 30.9883 37.4943 30.7645C41.3379 30.5503 45.5427 31.1636 49.3019 30.2088C49.509 30.1561 49.5277 29.778 49.3019 29.7399Z" fill="black"/>
<path d="M49.3019 32.5328C47.4426 32.2194 45.4263 32.3641 43.5401 32.3256C41.5341 32.2849 39.4973 32.308 37.4943 32.4203C33.4056 32.6499 29.2977 32.1649 25.207 32.5958C24.7621 32.6427 24.7613 33.2906 25.207 33.3375C29.2134 33.7596 33.4795 33.7811 37.4943 33.5574C41.3379 33.3431 45.5427 33.9564 49.3019 33.0016C49.509 32.9489 49.5277 32.5708 49.3019 32.5328Z" fill="black"/>
<path d="M49.3 35.3249C47.4406 35.0114 45.4244 35.1561 43.5382 35.1177C41.5322 35.0769 39.4954 35.0999 37.4924 35.2124C33.4037 35.4419 29.2958 34.9569 25.2051 35.388C24.7602 35.4349 24.7593 36.0828 25.2051 36.1297C29.2115 36.5517 33.4776 36.5733 37.4924 36.3496C41.336 36.1353 45.5408 36.7486 49.3 35.7938C49.507 35.7411 49.5258 35.363 49.3 35.3249Z" fill="black"/>
<path d="M41.8716 45.8961C40.5777 45.5827 39.1748 45.7274 37.8623 45.689C36.4665 45.6482 35.0492 45.6712 33.6554 45.7837C30.8103 46.0132 27.9518 45.5282 25.1054 45.9593C24.7959 46.0061 24.7953 46.6541 25.1054 46.701C27.8932 47.123 30.8618 47.1446 33.6554 46.9208C36.3299 46.7066 39.2559 47.3199 41.8716 46.3651C42.0157 46.3124 42.0288 45.9343 41.8716 45.8961Z" fill="black"/>
<path d="M41.8716 48.6881C40.5777 48.3747 39.1748 48.5194 37.8623 48.4809C36.4665 48.4401 35.0492 48.4633 33.6554 48.5756C30.8103 48.8051 27.9518 48.3201 25.1054 48.7512C24.7959 48.7981 24.7953 49.4461 25.1054 49.4929C27.8932 49.915 30.8618 49.9365 33.6554 49.7128C36.3299 49.4986 39.2559 50.1119 41.8716 49.157C42.0157 49.1044 42.0288 48.7262 41.8716 48.6881Z" fill="black"/>
<path d="M41.8716 51.4811C40.5777 51.1676 39.1748 51.3123 37.8623 51.2739C36.4665 51.2331 35.0492 51.2562 33.6554 51.3686C30.8103 51.5983 27.9518 51.1131 25.1054 51.5442C24.7959 51.5911 24.7953 52.2391 25.1054 52.2859C27.8932 52.708 30.8618 52.7295 33.6554 52.5059C36.3299 52.2917 39.2559 52.905 41.8716 51.9501C42.0157 51.8972 42.0288 51.519 41.8716 51.4811Z" fill="black"/>
<path d="M41.8716 59.7582C40.5777 59.4447 39.1748 59.5894 37.8623 59.551C36.4665 59.5102 35.0492 59.5333 33.6554 59.6457C30.8103 59.8752 27.9518 59.3902 25.1054 59.8211C24.7959 59.868 24.7953 60.516 25.1054 60.5629C27.8932 60.9849 30.8618 61.0065 33.6554 60.7827C36.3299 60.5685 39.2559 61.1818 41.8716 60.2269C42.0157 60.1744 42.0288 59.7961 41.8716 59.7582Z" fill="black"/>
<path d="M41.8716 62.5504C40.5777 62.237 39.1748 62.3817 37.8623 62.3432C36.4665 62.3024 35.0492 62.3256 33.6554 62.4379C30.8103 62.6675 27.9518 62.1824 25.1054 62.6135C24.7959 62.6604 24.7953 63.3084 25.1054 63.3553C27.8932 63.7773 30.8618 63.7989 33.6554 63.5751C36.3299 63.3609 39.2559 63.9742 41.8716 63.0193C42.0157 62.9667 42.0288 62.5885 41.8716 62.5504Z" fill="black"/>
<path d="M41.8716 65.3427C40.5777 65.0292 39.1748 65.1739 37.8623 65.1355C36.4665 65.0947 35.0492 65.1178 33.6554 65.2302C30.8103 65.4597 27.9518 64.9747 25.1054 65.4058C24.7959 65.4526 24.7953 66.1006 25.1054 66.1475C27.8932 66.5695 30.8618 66.5911 33.6554 66.3673C36.3299 66.1531 39.2559 66.7664 41.8716 65.8116C42.0157 65.7589 42.0288 65.3808 41.8716 65.3427Z" fill="black"/>
</svg>
