<svg width="60" height="60" viewBox="0 0 60 60" fill="none" xmlns="http://www.w3.org/2000/svg">
<path d="M11.8015 38.2702H11.111H10.5106H6.99844H4.69698H3.90647C1.65505 38.2702 1.63503 39.0276 1.57499 41.0506V41.3722C1.4531 44.37 1.47982 47.3722 1.65505 50.367C1.6626 50.4249 1.67951 50.481 1.70508 50.533H1.79514L1.7351 50.6575C1.78007 50.7611 1.85333 50.8487 1.9458 50.9096C2.03828 50.9704 2.14592 51.0018 2.25543 50.9999H13.5025C13.6602 50.9947 13.81 50.9275 13.9215 50.8119C14.0331 50.6962 14.0979 50.5409 14.1029 50.3774C14.1029 49.4437 14.1029 48.51 14.153 47.5763C14.153 46.2794 14.223 44.993 14.213 43.6961C14.213 43.4472 14.213 43.1359 14.213 42.8039C14.273 41.5279 14.3431 39.7849 13.6927 38.9134C13.4439 38.6663 13.1449 38.4802 12.8176 38.3689C12.4903 38.2576 12.143 38.2238 11.8015 38.2702ZM7.73889 39.5774H8.64947C8.85961 39.5774 9.12977 39.5774 9.43997 39.5774C9.75016 39.5774 10.3706 39.5048 10.8609 39.5048C11.8615 39.5048 12.5519 39.6811 12.8621 40.0546C13.0357 40.847 13.0931 41.6619 13.0322 42.4719C13.0322 42.6794 13.0322 42.8454 13.0322 42.9596C13.0322 43.7999 13.0322 44.6506 13.0322 45.491C13.0322 46.3313 13.0322 46.9434 12.9822 47.6593C12.9322 48.3751 12.9822 49.1325 12.9822 49.8587H2.82579C2.77575 48.759 2.82579 47.6385 2.82579 46.5596C2.82579 45.4806 2.82579 44.4846 2.82579 43.3849C2.82579 42.6691 2.82579 41.9739 2.82579 41.2581C2.87582 39.8471 3.05594 39.65 4.2567 39.65H5.5275L7.73889 39.5774Z" fill="black"/>
<path d="M25.4432 28.5191C24.9151 28.5191 24.3586 28.5669 23.8305 28.6147C23.3023 28.6625 22.9439 28.6912 22.5006 28.7007C22.0573 28.7103 21.7744 28.7007 21.3028 28.6147C20.8312 28.5287 20.0295 28.5 19.4165 28.5C17.898 28.5 17.0303 28.8632 16.7662 29.6183C16.4725 30.8481 16.4212 32.1246 16.6153 33.3746C16.6153 33.8621 16.6908 34.3304 16.7002 34.7605C16.7002 36.8824 16.7002 39.0426 16.6436 41.1358C16.5101 44.2349 16.5322 47.3389 16.7096 50.4358C16.7073 50.4835 16.7073 50.5314 16.7096 50.5791V50.6747C16.7484 50.7735 16.8163 50.8577 16.9041 50.9158C16.9919 50.974 17.0953 51.0033 17.2001 50.9997H27.8011C27.9497 50.9949 28.0909 50.9329 28.1961 50.8264C28.3012 50.7199 28.3623 50.5768 28.367 50.4262C28.367 48.5146 28.367 46.6794 28.4142 44.8061C28.4142 41.9386 28.4802 38.9852 28.4708 36.0795C28.4708 35.5921 28.4708 35.1237 28.4708 34.6076C28.5374 33.2456 28.4901 31.8803 28.3293 30.5263C28.1218 28.7485 26.6882 28.5191 25.4432 28.5191ZM17.7943 30.2109C17.8886 30.0293 17.9263 29.9242 17.964 29.8477H18.1998C18.3097 29.8557 18.42 29.8557 18.5299 29.8477C18.7894 29.8124 19.051 29.7964 19.3127 29.7999C19.6523 29.7999 19.9918 29.7999 20.3408 29.7999C20.6897 29.7999 21.0104 29.7999 21.416 29.7999C21.7744 29.7999 22.2365 29.7999 22.7458 29.7043C23.2551 29.6087 24.1323 29.5705 24.8113 29.5705C25.503 29.5094 26.1973 29.6521 26.8108 29.9815C27.6314 30.5645 27.5182 32.8489 27.4333 34.4356C27.4333 34.8465 27.4333 35.2098 27.4333 35.4869C27.4333 38.0963 27.4333 40.6961 27.4333 43.2959V46.8897C27.4333 47.1382 27.4333 47.425 27.4333 47.7308C27.5167 48.3414 27.4975 48.9619 27.3767 49.566V49.7189C27.2664 49.7266 27.1581 49.7524 27.056 49.7954C26.7142 49.9015 26.3568 49.9468 25.9997 49.9292C25.5564 49.9292 25.0566 49.9292 24.6321 49.8527C24.2077 49.7763 23.8682 49.7858 23.5664 49.7858H17.9074C17.7188 46.8706 17.7943 43.8885 17.9074 41.0115C17.9074 39.2433 17.9923 37.4177 17.9735 35.6303C17.9735 35.248 17.9169 34.7223 17.8603 34.1201C17.5396 32.7629 17.351 31.0329 17.7943 30.2109Z" fill="black"/>
<path d="M43.4555 36.6271C43.5755 35.7235 43.4517 34.8035 43.0977 33.9672C42.7022 33.3385 41.883 33 40.6118 33C40.075 33 39.5383 33.0484 39.0675 33.0967L38.3707 33.1548H37.6268C36.7887 33.2031 35.913 33.2515 35.0467 33.2515C34.8489 33.2515 34.623 33.2515 34.3876 33.2515C34.1155 33.2206 33.842 33.2045 33.5683 33.2031C33.2469 33.1923 32.9266 33.2483 32.6267 33.3675C31.6851 33.7931 31.6851 34.6056 31.6851 35.4567C31.6851 35.6115 31.6851 35.7662 31.6851 35.921C31.4383 40.7538 31.4383 45.5965 31.6851 50.4293C31.7018 50.5155 31.727 50.5998 31.7604 50.6808C31.8027 50.7773 31.8716 50.859 31.9587 50.9157C32.0457 50.9724 32.147 51.0017 32.25 50.9999H42.7963C42.9447 50.9951 43.0857 50.9324 43.1906 50.8246C43.2956 50.7168 43.3566 50.572 43.3613 50.4196C43.3613 48.9688 43.3613 47.5179 43.4178 46.0478C43.4649 43.2041 43.512 40.2445 43.4178 37.3428C43.4366 37.1784 43.4461 36.9269 43.4555 36.6271ZM32.7209 37.4492C32.7209 37.2364 32.7209 36.9946 32.7209 36.7431C32.6606 36.2036 32.6893 35.6576 32.8056 35.1279C32.8584 34.9964 32.8778 34.8533 32.8621 34.712L33.154 34.5185C33.3637 34.4217 33.5931 34.3786 33.8226 34.3928C34.0768 34.3928 34.3499 34.3928 34.5853 34.3928C34.8207 34.3928 34.9431 34.3928 35.0749 34.3928C35.4328 34.3928 36.0166 34.3348 36.6098 34.2671C37.5693 34.1476 38.5342 34.0798 39.5006 34.0639C41.0449 34.0639 41.9395 34.3444 42.2408 34.9248C42.5408 36.0525 42.6018 37.2333 42.4197 38.3874C42.4197 38.842 42.3538 39.2579 42.3538 39.5577C42.3538 41.5792 42.3538 43.6007 42.3067 45.6125V48.4368C42.3067 48.5239 42.3067 48.6399 42.3067 48.7753C42.3745 49.0417 42.3745 49.3215 42.3067 49.5878C42.2408 49.7039 42.1937 49.8006 42.1654 49.8006C42.0435 49.7472 41.9119 49.7208 41.7794 49.7232H41.5345C40.5127 49.8473 39.4843 49.9054 38.4554 49.8973C37.4102 49.8973 36.3556 49.849 35.3103 49.8103C34.4723 49.8103 33.6531 49.7425 32.8339 49.7329C32.5043 45.7092 32.6173 41.3471 32.7209 37.4879V37.4492Z" fill="black"/>
<path d="M58.1468 22.7456C57.9121 19.7222 57.511 19.5386 54.4591 19.5H53.119H50.429C49.5193 19.5 48.6096 19.5 47.7097 19.5H47.514C46.9075 19.5 46.4674 19.5 46.125 20.1472C45.587 21.1131 45.7435 22.7166 45.8903 24.1462C45.8903 24.6388 45.9783 25.1121 45.9881 25.4985C45.9881 27.7202 45.9881 29.9805 45.9881 32.1635V33.1874C45.9881 34.8682 45.9294 36.5489 45.8903 38.2297C45.7924 42.2383 45.6848 46.3822 45.9979 50.4102C45.9955 50.4585 45.9955 50.5068 45.9979 50.5551H46.0957L46.037 50.671C46.076 50.7716 46.1461 50.8575 46.2375 50.9165C46.3288 50.9755 46.4366 51.0045 46.5456 50.9994H57.6088C57.7629 50.9946 57.9094 50.932 58.0184 50.8243C58.1274 50.7166 58.1908 50.572 58.1957 50.4199C58.1957 47.6379 58.274 44.7787 58.3425 42.0161C58.6048 35.5934 58.5395 29.1618 58.1468 22.7456ZM47.0738 40.2581C47.0738 39.0217 47.1325 37.7757 47.1423 36.5393C47.1423 33.8539 47.1423 31.1106 47.1423 28.4736C47.1423 26.6866 47.1423 24.9093 47.1423 23.132C47.1423 22.5814 47.1423 22.0211 47.201 21.4705V21.258C47.201 20.7171 47.201 20.7171 47.5727 20.6978H47.9346C48.783 20.6151 49.6352 20.5764 50.4877 20.5819C51.3778 20.5819 52.2778 20.5819 53.1679 20.6398L54.8993 20.6881C56.7969 20.6881 56.9241 21.287 57.0415 23.0547C57.0415 23.7791 57.1002 24.4939 57.11 25.2474C57.198 29.768 57.1686 34.3755 57.11 38.8285L57.0317 48.7777C57.0317 48.8647 57.0317 48.9903 57.0317 49.1158C57.0774 49.3714 57.0774 49.633 57.0317 49.8886C57.0116 49.958 57.0116 50.0316 57.0317 50.1011C56.4663 49.9697 55.8901 49.8889 55.3101 49.8596H47.1814C46.9369 46.672 47.0054 43.3781 47.0738 40.2581Z" fill="black"/>
<path d="M37.036 23.3023C37.1083 23.3059 37.1806 23.2926 37.2472 23.2634C37.3139 23.2342 37.3734 23.1898 37.4211 23.1337C41.6733 18.6293 46.233 14.4446 51.0653 10.6115V10.7703C50.9195 11.4228 50.8261 12.0865 50.7861 12.7548C50.7819 12.9044 50.8336 13.05 50.9305 13.1616C51.0446 13.2732 51.1969 13.3338 51.3542 13.3303C51.4299 13.3343 51.5056 13.3224 51.5768 13.2953C51.6479 13.2682 51.7129 13.2265 51.7679 13.1726C51.8228 13.1188 51.8666 13.054 51.8964 12.9821C51.9263 12.9103 51.9416 12.8329 51.9415 12.7548C51.9765 12.1089 52.07 11.4677 52.2208 10.8398C52.3687 10.1877 52.4621 9.52377 52.5 8.85527C52.5 8.69645 52.4395 8.54398 52.3314 8.43075C52.2233 8.31752 52.0764 8.2526 51.9223 8.25C50.5127 8.31949 49.1193 8.58997 47.7818 9.05372C47.6481 9.09736 47.5348 9.19043 47.4637 9.31499C47.3926 9.43956 47.3687 9.58683 47.3967 9.72845C47.4086 9.86273 47.4683 9.98772 47.5643 10.0793C47.6603 10.1709 47.7858 10.2227 47.9166 10.2246C47.9773 10.2341 48.039 10.2341 48.0996 10.2246C48.863 9.9651 49.6455 9.76933 50.4394 9.63915C46.453 12.8739 43.2755 15.6621 40.4638 18.3808C40.1172 18.7182 39.7802 19.0853 39.4432 19.4425C38.9239 20.0259 38.3674 20.5729 37.7774 21.0797C37.4438 21.4131 37.0081 21.6166 36.5449 21.6552C36.0407 21.6095 35.5516 21.454 35.1102 21.1988L34.7539 21.04C32.6259 20.0478 30.4594 19.1448 28.3122 18.2518C27.85 18.0633 27.3493 17.8252 26.8293 17.5672C25.4863 16.7895 24.007 16.2937 22.477 16.1086C21.2156 16.1086 20.1179 17.1008 19.1454 18.0931C18.8951 18.3312 18.6543 18.5594 18.4232 18.7579C14.6487 21.9529 10.7779 25.396 6.93595 28.9879C6.85394 29.0588 6.79513 29.1539 6.76755 29.2605C6.73998 29.367 6.74499 29.4798 6.78188 29.5833C6.83052 29.7016 6.91049 29.8035 7.01266 29.8771C7.11482 29.9508 7.23506 29.9934 7.35961 30C7.50194 29.9945 7.63805 29.9384 7.74477 29.8412C11.6926 26.1501 15.679 22.6078 19.5691 19.3235C20.5324 18.3919 21.7838 17.8402 23.1029 17.7656C23.6069 17.7679 24.1063 17.8654 24.5761 18.0534L28.4277 19.6112C31.0756 20.7225 33.791 21.9132 36.7182 23.2527C36.8193 23.293 36.9278 23.3099 37.036 23.3023Z" fill="black"/>
<path d="M48.9518 27.7499C49.0471 27.7509 49.1416 27.7387 49.2292 27.7142C49.3168 27.6897 49.3955 27.6534 49.4602 27.6076C49.521 27.5646 49.5658 27.5129 49.591 27.4567C49.6162 27.4004 49.6212 27.3412 49.6054 27.2835V27.2044C49.2786 25.1566 49.3754 23.9311 49.8959 23.5516C49.9395 23.5182 49.9932 23.4912 50.0536 23.4721C50.114 23.4531 50.1798 23.4424 50.2469 23.4409V23.3697L50.3679 23.4488C50.4506 23.4488 50.5324 23.4382 50.6088 23.4175C50.6852 23.3968 50.7545 23.3665 50.813 23.3284C50.8714 23.2902 50.9178 23.2449 50.9494 23.195C50.9811 23.1451 50.9973 23.0916 50.9973 23.0376C51.0141 22.9067 50.9511 22.7767 50.8218 22.676C50.6926 22.5753 50.5077 22.5121 50.3074 22.5H50.0169C48.9881 22.5 48.3708 22.8874 48.1772 23.6464C47.9409 24.8645 47.9409 26.0971 48.1772 27.3151C48.206 27.4359 48.2998 27.5461 48.4418 27.6258C48.5837 27.7055 48.7646 27.7495 48.9518 27.7499Z" fill="black"/>
</svg>
