<svg width="60" height="60" viewBox="0 0 60 60" fill="none" xmlns="http://www.w3.org/2000/svg">
<path fill-rule="evenodd" clip-rule="evenodd" d="M32.7899 49.779C32.9215 51.4236 33.0478 53.0024 33.0639 54.0562C34.3444 54.5969 37.3788 56.0224 39.0677 57.6296C35.9875 57.9395 21.6829 57.5867 20.0314 57.3093C22.1473 56.0367 24.5616 54.8764 26.8911 54.0807C26.853 52.181 26.9691 50.3904 27.0924 48.4911C27.1898 46.9899 27.2916 45.4207 27.3251 43.6761C27.0921 43.6323 26.7072 43.5321 26.3264 43.4329C25.97 43.3401 25.6172 43.2482 25.3955 43.2043C22.6291 42.6569 20.6134 41.1237 19.157 39.1324C17.1758 40.0037 14.7023 38.9576 13.0746 37.8385C9.65802 35.4895 5.11175 30.7798 7.34214 26.2524C8.67333 23.5503 13.0527 22.6979 15.7386 22.5781C15.8877 21.3192 16.2234 20.0946 17.0046 19.2778C18.4208 17.7968 20.8565 17.1758 22.8044 16.8936C27.135 16.2661 31.5666 16.2084 35.8653 17.2103C35.9694 17.2343 36.0795 17.2595 36.1951 17.2859C38.1283 17.7278 41.5907 18.5192 43.7128 20.2028C44.1953 20.6201 44.582 21.0991 44.8291 21.6522C45.05 22.1469 45.178 23.0997 45.1825 24.3416C45.5301 24.4363 45.9071 24.5302 46.3025 24.6287C48.8877 25.2729 52.2589 26.1129 53.3223 28.6386C54.3321 31.0369 53.0518 33.3093 51.649 35.1997C49.0266 38.7337 44.0942 43.2705 39.2709 40.8613C38.4214 41.6616 37.4648 42.3191 36.3913 42.7804C35.316 43.2425 33.9341 43.6196 32.4907 43.8049C32.4169 45.119 32.6084 47.5116 32.7899 49.779ZM10.9711 25.9318C7.21325 27.2469 9.77172 32.7433 11.912 34.4375C12.5627 34.9526 13.2547 35.4188 13.9586 35.8568C14.7823 36.3693 16.6276 37.0569 17.63 36.6765C17.1485 35.5838 16.782 34.3732 16.4376 33.1707C15.7237 30.6787 15.4003 27.9152 15.2992 25.3176C13.8401 25.2535 12.3575 25.4466 10.9711 25.9318ZM50.84 31.452C49.2377 35.4015 45.489 39.1985 40.8954 38.7467C42.9097 35.2008 44.9143 30.9445 45.3855 26.8656C45.5082 26.8919 45.6321 26.9162 45.7562 26.9406C46.0514 26.9985 46.3481 27.0567 46.6338 27.1436C48.4779 27.7048 51.9172 28.7968 50.84 31.452Z" fill="white" stroke="black" stroke-width="1.32456" stroke-miterlimit="1.5" stroke-linecap="round" stroke-linejoin="round"/>
<path d="M36.1787 37.3561C31.7279 36.5197 27.2856 36.3747 23.7003 36.8635C22.2102 37.0666 20.6445 37.1822 19.248 37.7996" stroke="black" stroke-width="1.32456" stroke-miterlimit="1.5" stroke-linecap="round" stroke-linejoin="round"/>
<path d="M40.4901 34.6471C39.216 34.2548 37.9605 33.8566 36.6498 33.5992C31.4688 32.5815 26.3459 32.4809 21.1582 33.2988" stroke="black" stroke-width="1.32456" stroke-miterlimit="1.5" stroke-linecap="round" stroke-linejoin="round"/>
<path fill-rule="evenodd" clip-rule="evenodd" d="M14.5197 7.29492C14.369 8.59495 14.1861 9.94427 14.1602 11.2505L14.5197 7.29492Z" fill="white"/>
<path d="M14.5197 7.29492C14.369 8.59495 14.1861 9.94427 14.1602 11.2505" stroke="black" stroke-width="1.32456" stroke-miterlimit="1.5" stroke-linecap="round" stroke-linejoin="round"/>
<path fill-rule="evenodd" clip-rule="evenodd" d="M10.7188 12.1073C11.459 12.0564 12.2024 12.0673 12.9436 12.0923L10.7188 12.1073Z" fill="white"/>
<path d="M10.7188 12.1073C11.459 12.0564 12.2024 12.0673 12.9436 12.0923" stroke="black" stroke-width="1.32456" stroke-miterlimit="1.5" stroke-linecap="round" stroke-linejoin="round"/>
<path fill-rule="evenodd" clip-rule="evenodd" d="M15.3574 12.04C16.2045 12.1839 17.023 12.1451 17.8752 12.1588L15.3574 12.04Z" fill="white"/>
<path d="M15.3574 12.04C16.2045 12.1839 17.023 12.1451 17.8752 12.1588" stroke="black" stroke-width="1.32456" stroke-miterlimit="1.5" stroke-linecap="round" stroke-linejoin="round"/>
<path fill-rule="evenodd" clip-rule="evenodd" d="M14.0578 16.2257C13.9091 15.3968 13.7593 14.2188 13.9755 13.3789L14.0578 16.2257Z" fill="white"/>
<path d="M14.0578 16.2257C13.9091 15.3968 13.7593 14.2188 13.9755 13.3789" stroke="black" stroke-width="1.32456" stroke-miterlimit="1.5" stroke-linecap="round" stroke-linejoin="round"/>
<path fill-rule="evenodd" clip-rule="evenodd" d="M42.6592 44.8379C42.5298 45.5316 42.4707 46.236 42.4062 46.9382L42.6592 44.8379Z" fill="white"/>
<path d="M42.6592 44.8379C42.5298 45.5316 42.4707 46.236 42.4062 46.9382" stroke="black" stroke-width="1.32456" stroke-miterlimit="1.5" stroke-linecap="round" stroke-linejoin="round"/>
<path fill-rule="evenodd" clip-rule="evenodd" d="M40.1758 47.8369C40.5205 47.7991 40.8635 47.7615 41.2093 47.7368L40.1758 47.8369Z" fill="white"/>
<path d="M40.1758 47.8369C40.5205 47.7991 40.8635 47.7615 41.2093 47.7368" stroke="black" stroke-width="1.32456" stroke-miterlimit="1.5" stroke-linecap="round" stroke-linejoin="round"/>
<path fill-rule="evenodd" clip-rule="evenodd" d="M42.2805 48.7061C42.2404 49.4608 42.262 50.2143 42.2383 50.9689L42.2805 48.7061Z" fill="white"/>
<path d="M42.2805 48.7061C42.2404 49.4608 42.262 50.2143 42.2383 50.9689" stroke="black" stroke-width="1.32456" stroke-miterlimit="1.5" stroke-linecap="round" stroke-linejoin="round"/>
<path fill-rule="evenodd" clip-rule="evenodd" d="M43.1641 48.0308C43.695 47.9981 44.2289 47.9581 44.7609 47.9541L43.1641 48.0308Z" fill="white"/>
<path d="M43.1641 48.0308C43.695 47.9981 44.2289 47.9581 44.7609 47.9541" stroke="black" stroke-width="1.32456" stroke-miterlimit="1.5" stroke-linecap="round" stroke-linejoin="round"/>
<path fill-rule="evenodd" clip-rule="evenodd" d="M42.8421 11.3916C42.5903 9.31669 42.5466 7.73483 40.5449 6.65361C42.2932 6.18063 43.4974 3.95034 43.782 2.25C44.0948 3.87245 44.3501 5.7673 45.6421 6.93604C44.0045 7.60394 43.0372 9.49657 42.8424 11.1765" fill="white"/>
<path d="M42.8421 11.3916C42.5903 9.31669 42.5466 7.73483 40.5449 6.65361C42.2932 6.18063 43.4974 3.95034 43.782 2.25C44.0948 3.87245 44.3501 5.7673 45.6421 6.93604C44.0045 7.60394 43.0372 9.49657 42.8424 11.1765" stroke="black" stroke-width="1.32456" stroke-miterlimit="1.5" stroke-linecap="round" stroke-linejoin="round"/>
<path fill-rule="evenodd" clip-rule="evenodd" d="M18.9773 49.2837C18.8838 48.4281 18.6615 47.4187 17.7461 47.1251C18.5745 46.7886 18.9946 45.8801 19.0988 45.0308C19.1223 45.7529 19.2969 46.7188 20.0497 47.0093C19.207 47.3501 19.1716 48.4947 18.9773 49.2837Z" fill="white" stroke="black" stroke-width="1.32456" stroke-miterlimit="1.5" stroke-linecap="round" stroke-linejoin="round"/>
</svg>
