<svg width="149" height="71" viewBox="0 0 149 71" fill="none" xmlns="http://www.w3.org/2000/svg">
<circle cx="6.98306" cy="2.50064" r="2.50064" fill="white"/>
<circle cx="21.987" cy="2.50064" r="2.50064" fill="white"/>
<circle cx="36.9909" cy="2.50064" r="2.50064" fill="white"/>
<circle cx="51.9948" cy="2.50064" r="2.50064" fill="white"/>
<circle cx="66.9987" cy="2.50064" r="2.50064" fill="white"/>
<circle cx="82.0026" cy="2.50064" r="2.50064" fill="white"/>
<circle cx="97.0065" cy="2.50064" r="2.50064" fill="white"/>
<circle cx="112.01" cy="2.50064" r="2.50064" fill="white"/>
<circle cx="127.014" cy="2.50064" r="2.50064" fill="white"/>
<circle cx="142.018" cy="2.50064" r="2.50064" fill="white"/>
<circle cx="6.98306" cy="17.5045" r="2.50064" fill="white"/>
<circle cx="21.987" cy="17.5045" r="2.50064" fill="white"/>
<circle cx="36.9909" cy="17.5045" r="2.50064" fill="white"/>
<circle cx="51.9948" cy="17.5045" r="2.50064" fill="white"/>
<circle cx="66.9987" cy="17.5045" r="2.50064" fill="white"/>
<circle cx="82.0026" cy="17.5045" r="2.50064" fill="white"/>
<circle cx="97.0065" cy="17.5045" r="2.50064" fill="white"/>
<circle cx="112.01" cy="17.5045" r="2.50064" fill="white"/>
<circle cx="127.014" cy="17.5045" r="2.50064" fill="white"/>
<circle cx="142.018" cy="17.5045" r="2.50064" fill="white"/>
<circle cx="6.98306" cy="32.5085" r="2.50064" fill="white"/>
<circle cx="21.987" cy="32.5085" r="2.50064" fill="white"/>
<circle cx="36.9909" cy="32.5085" r="2.50064" fill="white"/>
<circle cx="51.9948" cy="32.5085" r="2.50064" fill="white"/>
<circle cx="66.9987" cy="32.5085" r="2.50064" fill="white"/>
<circle cx="82.0026" cy="32.5085" r="2.50064" fill="white"/>
<circle cx="97.0065" cy="32.5085" r="2.50064" fill="white"/>
<circle cx="112.01" cy="32.5085" r="2.50064" fill="white"/>
<circle cx="127.014" cy="32.5085" r="2.50064" fill="white"/>
<circle cx="142.018" cy="32.5085" r="2.50064" fill="white"/>
<circle cx="6.98306" cy="47.5124" r="2.50064" fill="white"/>
<circle cx="21.987" cy="47.5124" r="2.50064" fill="white"/>
<circle cx="36.9909" cy="47.5124" r="2.50064" fill="white"/>
<circle cx="51.9948" cy="47.5124" r="2.50064" fill="white"/>
<circle cx="66.9987" cy="47.5124" r="2.50064" fill="white"/>
<circle cx="82.0026" cy="47.5124" r="2.50064" fill="white"/>
<circle cx="97.0065" cy="47.5124" r="2.50064" fill="white"/>
<circle cx="112.01" cy="47.5124" r="2.50064" fill="white"/>
<circle cx="127.014" cy="47.5124" r="2.50064" fill="white"/>
<circle cx="142.018" cy="47.5124" r="2.50064" fill="white"/>
<circle cx="6.98306" cy="62.5163" r="2.50064" fill="white"/>
<circle cx="21.987" cy="62.5163" r="2.50064" fill="white"/>
<circle cx="36.9909" cy="62.5163" r="2.50064" fill="white"/>
<circle cx="51.9948" cy="62.5163" r="2.50064" fill="white"/>
<circle cx="66.9987" cy="62.5163" r="2.50064" fill="white"/>
<circle cx="82.0026" cy="62.5163" r="2.50064" fill="white"/>
<circle cx="97.0065" cy="62.5163" r="2.50064" fill="white"/>
<circle cx="112.01" cy="62.5163" r="2.50064" fill="white"/>
<circle cx="127.014" cy="62.5163" r="2.50064" fill="white"/>
<circle cx="142.018" cy="62.5163" r="2.50064" fill="white"/>
</svg>
