<svg width="75" height="132" viewBox="0 0 75 132" fill="none" xmlns="http://www.w3.org/2000/svg">
<g clip-path="url(#clip0_1736_34195)">
<path d="M74.9503 28.7592C74.9167 27.6466 74.8137 26.5372 74.6419 25.4375C74.5222 24.6752 74.3519 23.9222 74.1816 23.1784C74.0297 22.587 73.864 21.9957 73.6661 21.4182C73.4682 20.8407 73.2564 20.1847 73.0493 19.5702C72.9941 19.4039 72.9204 19.2376 72.856 19.0759L72.3957 17.9394C72.184 17.4035 71.9354 16.8861 71.696 16.3686L71.2357 15.3754C71.0332 14.9457 70.8031 14.5299 70.573 14.1187C69.7685 12.6958 68.8099 11.3665 67.7145 10.1549C66.6144 8.939 65.3789 7.85392 64.0322 6.92092C63.2865 6.39425 62.5086 5.92764 61.7307 5.45641C60.7881 4.91021 59.8153 4.41817 58.8171 3.98266C56.7417 3.0136 54.6061 2.18028 52.4236 1.48791C51.8759 1.3216 51.3327 1.1599 50.7804 1.02592C50.5548 0.965862 50.3201 0.891943 50.09 0.841124L49.1049 0.628609C48.9116 0.58703 48.7183 0.536212 48.5249 0.503873L47.4202 0.332935C46.762 0.231297 46.1084 0.166618 45.4502 0.10194C44.8979 0.0511205 44.3409 0.0372597 43.7839 0.0141602C43.586 0.0141602 43.3835 0.0141602 43.181 0.0141602H42.1269C41.5745 0.0141602 41.0268 0.0788404 40.4791 0.12042C39.9313 0.161999 39.2501 0.263637 38.6379 0.351415L37.7173 0.480772C37.4964 0.513111 37.257 0.568549 37.0545 0.610129C36.5297 0.716386 36.0004 0.818025 35.4803 0.942763C34.9601 1.0675 34.4124 1.18762 33.8877 1.33545L32.0235 1.84826C30.928 2.14856 29.8509 2.50429 28.7738 2.86002C28.6173 2.91084 28.4608 2.97552 28.3135 3.03558L27.1858 3.49757C26.592 3.72857 26.0166 4.00114 25.4367 4.25986C24.4148 4.72185 23.416 5.23466 22.4218 5.75209C21.9339 6.00156 21.4506 6.26952 20.9673 6.52823C20.7693 6.63449 20.576 6.74999 20.3827 6.86086C20.1894 6.97174 19.8856 7.13806 19.6416 7.28128C17.673 8.45043 15.772 9.73066 13.9478 11.1158C13.064 11.8042 12.1849 12.5018 11.3471 13.2456C10.8869 13.6475 10.4542 14.0448 10.0169 14.456C9.85579 14.6084 9.69009 14.7609 9.53359 14.918C9.37709 15.0751 9.07331 15.3476 8.88459 15.5786C8.10335 16.431 7.37474 17.3305 6.70281 18.272C6.0446 19.196 5.43241 20.1847 4.83403 21.1687C4.29088 22.0604 3.76155 22.9659 3.31046 23.9037C3.02508 24.495 2.75348 25.091 2.50953 25.7055C2.2978 26.2368 2.1229 26.7865 1.94799 27.3363C1.3046 29.389 0.851585 31.4969 0.594727 33.6332C0.475051 34.2061 0.378402 34.7836 0.290947 35.3565C0.180477 36.0864 0.0976106 36.821 0.0469785 37.5601C-0.00747787 38.423 -0.0182352 39.288 0.0147546 40.1519C0.0772942 41.7481 0.333906 43.3306 0.778855 44.8642C0.893928 45.2662 1.0228 45.6635 1.17009 46.0562C1.31739 46.4488 1.38183 46.9108 1.4923 47.3405C1.71426 48.1977 2.00995 49.034 2.37606 49.8399C2.72282 50.5352 3.15755 51.1827 3.66948 51.7664C4.20126 52.3768 4.80394 52.9212 5.46463 53.388C5.82227 53.646 6.19416 53.8835 6.57853 54.0994C6.82248 54.2426 7.03883 54.3766 7.3104 54.5014C7.73847 54.7092 8.16194 54.8987 8.60382 55.0742C9.36221 55.3688 10.1489 55.584 10.9513 55.7164C11.7275 55.8462 12.512 55.9188 13.2988 55.9335C14.1231 55.9384 14.9456 55.8548 15.7521 55.684C16.501 55.5259 17.2319 55.2922 17.9339 54.9864C18.7413 54.6529 19.5189 54.251 20.2584 53.7853C20.9195 53.3621 21.5364 52.873 22.0996 52.3254C22.675 51.7495 23.2073 51.1319 23.6922 50.4774C24.0098 50.0662 24.3044 49.632 24.6128 49.1977C24.9442 48.6803 25.2664 48.1628 25.584 47.6362C25.8463 47.1973 26.0949 46.7491 26.3481 46.301C26.9188 45.2939 27.4528 44.2636 27.9775 43.2334C28.2399 42.7252 28.4792 42.2124 28.7278 41.6996C28.829 41.4825 28.9211 41.2653 29.0132 41.0482C29.1052 40.831 29.2571 40.4984 29.363 40.2212C29.4689 39.944 29.6023 39.5975 29.7174 39.2972C29.8325 38.9969 29.8785 38.7983 29.9522 38.5488C30.1271 37.9898 30.2836 37.4354 30.4125 36.8672C30.9478 34.7283 31.3551 32.5592 31.6322 30.3716C31.7013 29.9096 31.7749 29.4476 31.8486 28.9856C31.8946 28.7084 31.9636 28.4312 32.0189 28.154C32.1164 27.6647 32.2582 27.1853 32.4423 26.7218C32.9093 25.6588 33.4539 24.632 34.0718 23.6496C34.4492 23.0444 34.8129 22.4346 35.2409 21.8571C35.6104 21.3947 36.0235 20.9692 36.4745 20.5866L37.1097 20.0553C37.6908 19.6151 38.3192 19.2417 38.9831 18.9419C39.694 18.6683 40.425 18.4505 41.1695 18.2905C41.4457 18.2258 41.7172 18.1565 41.9934 18.1057L42.9554 17.9348C43.2914 17.8932 43.6274 17.8424 43.9634 17.8147C44.4836 17.7731 45.0037 17.7407 45.5284 17.7176C46.6027 17.6626 47.6796 17.6857 48.7505 17.7869C49.1324 17.8439 49.5106 17.9241 49.8828 18.0272L49.9657 18.0503C50.2326 18.175 50.4996 18.309 50.762 18.4476C51.2163 18.6952 51.6517 18.9762 52.0646 19.2884C52.9066 19.9894 53.6677 20.7828 54.3338 21.6538C54.9814 22.5074 55.5821 23.3958 56.1336 24.3149C56.4328 24.8184 56.7089 25.3313 56.9713 25.8533C57.0449 26.0612 57.1186 26.2691 57.183 26.4816C57.4132 27.2393 57.6433 27.9969 57.8459 28.7638C58.0484 29.5308 58.2601 30.4178 58.4442 31.2494C58.6007 31.9516 58.7158 32.6353 58.8263 33.3699C58.8677 33.7071 58.8999 34.0444 58.9414 34.3817C58.9414 34.5803 58.9414 34.7882 58.969 34.9915C58.9966 35.1948 58.969 35.398 59.0012 35.6013C59.0334 35.8046 59.0012 35.9339 59.0012 36.1003V36.7886C59.0012 36.9596 59.0012 37.1351 58.9644 37.3061C58.9275 37.477 58.9322 37.6987 58.9184 37.8928C58.9045 38.0868 58.8585 38.3178 58.8309 38.5303C58.8033 38.7428 58.7526 38.9923 58.7066 39.2141C58.6053 39.7361 58.4949 40.2674 58.3476 40.7802L58.0852 41.7042C58.007 41.9629 57.9103 42.217 57.8229 42.4711C57.6664 42.9331 57.4868 43.3628 57.3073 43.8063L56.8793 44.7302C56.7366 45.0398 56.5663 45.3401 56.419 45.6542C56.131 46.184 55.8097 46.6947 55.4569 47.1834C55.2728 47.4098 55.0979 47.6454 54.9046 47.8533L54.1037 48.6248C53.6434 49.1469 53.1048 49.6366 52.5939 50.1355C51.6115 51.0823 50.579 51.9753 49.5008 52.8105L48.6492 53.4572L48.0463 53.8407C47.5537 54.1456 47.0704 54.4598 46.5733 54.7647L44.769 55.8134C44.3731 56.0398 43.968 56.2754 43.563 56.4694C43.1579 56.6635 42.6424 56.9684 42.1821 57.1948L40.3087 58.1187C39.4388 58.5391 38.555 58.9365 37.6713 59.3292C36.5389 59.8373 35.4112 60.3409 34.2789 60.8399L31.2226 62.2258C30.6886 62.4661 30.1593 62.7386 29.63 62.9927C28.6378 63.4705 27.6742 64.0058 26.7439 64.5958C25.4101 65.4454 24.1642 66.4267 23.0248 67.5249C22.4816 68.0469 21.9753 68.6059 21.4874 69.1788C20.9901 69.7661 20.529 70.3832 20.1065 71.0268C19.904 71.2162 19.7107 71.4102 19.5219 71.6135C19.2227 71.9323 18.9558 72.2787 18.6888 72.6252C17.9787 73.6207 17.4073 74.7087 16.9903 75.8592C16.8845 76.1271 16.774 76.3951 16.6681 76.6677C16.384 77.4175 16.1638 78.1903 16.0099 78.9776C15.9501 79.2548 15.9086 79.532 15.858 79.8092C15.8074 80.0864 15.7567 80.3682 15.7245 80.6546C15.6923 80.9411 15.6463 81.343 15.6048 81.6849C15.5401 82.2986 15.517 82.916 15.5358 83.5328C15.5687 84.3817 15.6455 85.2283 15.766 86.0692C15.8396 86.6698 15.9639 87.2657 16.079 87.8617C16.1204 88.0927 16.1894 88.3237 16.2493 88.5454C16.3091 88.7672 16.3643 89.0074 16.438 89.2569L16.7418 90.1809C16.8384 90.4673 16.9627 90.7445 17.0732 91.0263C17.2619 91.5114 17.4644 91.9919 17.667 92.4724C18.0996 93.5118 18.5185 94.5513 18.9328 95.5954C19.347 96.6395 19.8257 97.7806 20.3137 98.8617C20.484 99.2451 20.6635 99.624 20.8614 99.9936C20.889 100.077 20.912 100.16 20.9396 100.243C21.2619 101.273 21.5702 102.317 21.9753 103.32C22.1088 103.643 22.2377 103.967 22.3895 104.276C22.567 104.61 22.829 104.89 23.149 105.089C23.3215 105.187 23.5055 105.264 23.6968 105.316L24.0282 105.371C24.1847 105.371 24.3412 105.417 24.4885 105.431C24.9773 105.466 25.468 105.466 25.9568 105.431C26.2376 105.431 26.5138 105.431 26.7945 105.394C27.4021 105.348 28.0051 105.297 28.6127 105.233C29.2203 105.168 29.9107 105.062 30.5597 104.969C31.1167 104.886 31.6736 104.78 32.226 104.678C32.6863 104.595 33.1834 104.507 33.6529 104.392C34.4427 104.19 35.2129 103.918 35.9544 103.579C36.6209 103.276 37.2641 102.924 37.8784 102.525C38.3387 102.234 38.7621 101.902 39.1902 101.564C39.6183 101.227 40.074 100.844 40.5067 100.469C40.9393 100.095 41.2846 99.7672 41.6482 99.3976C41.953 99.1153 42.2318 98.8061 42.4813 98.4736C42.5801 98.3296 42.662 98.1746 42.7253 98.0116C42.7575 97.9331 42.7897 97.8546 42.8265 97.7806C42.861 97.6677 42.8841 97.5517 42.8956 97.4341C42.9301 97.2327 42.9486 97.0287 42.9508 96.8243C42.9455 96.5761 42.9193 96.3289 42.8725 96.0851C42.819 95.7553 42.7231 95.4339 42.5872 95.1288C42.4491 94.7777 42.288 94.4312 42.1269 94.0986C41.9658 93.7659 41.7126 93.364 41.4963 93.0037C41.2017 92.5139 40.9025 92.0289 40.5757 91.5484C39.9957 90.6244 39.402 89.7281 38.8082 88.8226C38.2144 87.9171 37.5838 86.9377 37.0314 85.9583C36.8105 85.561 36.5712 85.1683 36.3917 84.7571C36.1017 84.1658 35.8163 83.579 35.5539 82.9738C35.128 81.8461 34.8195 80.6772 34.6333 79.4858C34.4814 78.6311 34.3203 77.7764 34.173 76.9171C34.114 76.4452 34.1032 75.9684 34.1408 75.4942C34.1871 75.2224 34.2564 74.955 34.348 74.695C34.6008 74.1674 34.9095 73.6687 35.2685 73.2074C35.7318 72.6369 36.2532 72.1166 36.8243 71.6551C38.2146 70.7068 39.7003 69.9078 41.2569 69.2712C42.1775 68.8831 43.1349 68.5043 44.0923 68.167C45.151 67.7928 46.2189 67.4232 47.2775 67.0444C48.3362 66.6656 49.3857 66.2821 50.4306 65.8802C51.9278 65.3292 53.3884 64.6826 54.8033 63.9444C55.144 63.7596 55.4754 63.5564 55.8022 63.3531C56.129 63.1498 56.3637 63.0066 56.6261 62.8126L57.3717 62.272C57.832 61.9255 58.3154 61.5744 58.7757 61.2094C59.6502 60.5118 60.534 59.8235 61.3671 59.0751C61.7906 58.7008 62.2232 58.3405 62.6191 57.9386C63.0149 57.5366 63.42 57.167 63.7836 56.7466C64.1473 56.3262 64.5431 55.9058 64.8929 55.4577C65.2428 55.0095 65.6985 54.4459 66.0851 53.9285C66.7571 53.0322 67.4384 52.136 68.092 51.2212L68.6811 50.385C68.8192 50.1956 68.9665 50.0062 69.0908 49.8075L70.1541 48.1351C70.2369 48.0104 70.306 47.8764 70.3796 47.7424L70.9872 46.6567C71.2404 46.1948 71.4475 45.7328 71.6869 45.2708L72.0735 44.4715C72.1978 44.2128 72.299 43.9402 72.4049 43.6769L72.8652 42.6097C72.9388 42.4388 73.0171 42.2725 73.0769 42.0969C73.2933 41.4686 73.5096 40.8403 73.7213 40.2166C73.9008 39.6945 74.0297 39.154 74.1816 38.6181C74.3842 37.7819 74.5407 36.9365 74.6419 36.0818C74.8122 34.9169 74.9137 33.7429 74.9457 32.566C74.9457 31.873 74.9779 31.1801 74.9964 30.4871C74.9964 30.3392 74.9964 30.1914 74.9964 30.0251C74.9779 29.5862 74.9641 29.1704 74.9503 28.7592ZM30.8359 26.9528C30.7116 27.3548 30.6334 27.7752 30.5459 28.191C30.4907 28.4589 30.4401 28.7223 30.3986 28.9902C30.3112 29.4984 30.2375 30.0066 30.1593 30.5148C29.9844 31.6189 29.8141 32.7231 29.5655 33.8088C29.4274 34.4094 29.2847 35.01 29.1052 35.6059C28.9257 36.2019 28.7922 36.7055 28.6449 37.2552C28.5483 37.5786 28.4378 37.902 28.3273 38.2208C28.493 37.2737 28.6495 36.3313 28.8106 35.3842C28.9947 34.2816 29.1957 33.182 29.4136 32.0856C29.5241 31.5312 29.6346 30.9814 29.7588 30.427L29.9798 29.443C30.1396 28.7179 30.3582 28.0071 30.6334 27.3178C30.707 27.1515 30.7853 26.9898 30.8682 26.8281L30.8359 26.9528ZM72.3175 32.5198C72.2945 33.5116 72.2208 34.5016 72.0965 35.4858C71.9063 36.8055 71.6232 38.11 71.2496 39.3896C71.2035 39.5467 71.1437 39.6992 71.0931 39.8516C70.9826 40.1889 70.8721 40.5215 70.7571 40.8541C70.642 41.1868 70.5223 41.5333 70.3888 41.8705C70.2093 42.3094 70.0344 42.7483 69.8595 43.1826L69.1276 44.7672C68.9113 45.2292 68.6673 45.6912 68.4096 46.1255C68.2945 46.3334 68.184 46.5459 68.069 46.7584C67.9539 46.9709 67.825 47.1557 67.7007 47.3544C67.4291 47.8163 67.1668 48.2783 66.8722 48.6849C66.2508 49.6089 65.6294 50.5328 64.9896 51.406C64.6628 51.868 64.3498 52.33 64.0184 52.7596L63.0978 53.9516L62.3889 54.8016C62.2094 55.0142 62.0345 55.2267 61.8458 55.4253L60.9022 56.4094C60.6767 56.645 60.4419 56.8714 60.1842 57.0746C59.6226 57.6013 59.038 58.1003 58.4581 58.6085C57.9978 59.0196 57.4776 59.4123 56.9851 59.8096L56.0645 60.5072L55.5812 60.8676C55.1578 61.1817 54.6975 61.4589 54.2418 61.7315C53.5107 62.1719 52.7493 62.5594 51.9633 62.8911L50.8909 63.3531C49.823 63.7689 48.749 64.1754 47.6688 64.5727C46.7068 64.9331 45.7356 65.2704 44.769 65.6215C43.6458 66.0326 42.5181 66.4346 41.4134 66.9058C40.8841 67.1322 40.3548 67.3678 39.83 67.5988C39.3053 67.8298 38.7806 68.0931 38.2604 68.3611C37.9889 68.5043 37.7127 68.6429 37.4411 68.7907C36.7099 69.2081 36.0154 69.6872 35.3652 70.2229C34.7759 70.7134 34.246 71.2716 33.7864 71.8861C33.3015 72.4996 32.9005 73.1754 32.5942 73.8957C32.327 74.5807 32.2032 75.3135 32.2306 76.0486C32.2434 76.4418 32.2818 76.8338 32.3457 77.2221C32.3871 77.5454 32.447 77.8688 32.5068 78.1922L32.8796 80.1973C33.0673 81.3299 33.3759 82.4389 33.8002 83.5051C34.127 84.2905 34.5044 85.0436 34.8773 85.8151C35.1212 86.3048 35.402 86.7714 35.669 87.2473C35.936 87.7231 36.2351 88.1712 36.5251 88.6332C37.1649 89.6635 37.8462 90.6752 38.509 91.6962C38.8174 92.1582 39.1258 92.6525 39.4296 93.1423C39.9125 93.9107 40.3505 94.7067 40.7414 95.5261C40.8638 95.8242 40.9563 96.1337 41.0176 96.4501C41.0314 96.6393 41.0314 96.8292 41.0176 97.0184L40.99 97.12C40.9577 97.1801 40.9255 97.2355 40.8887 97.2909C40.677 97.5173 40.4284 97.7206 40.2167 97.9331C40.0049 98.1456 39.8484 98.2657 39.6597 98.4228C39.227 98.7924 38.7898 99.1574 38.3479 99.5131L37.5838 100.086C37.1303 100.411 36.6568 100.708 36.1661 100.973C35.7426 101.209 35.3008 101.435 34.8589 101.615C34.3359 101.82 33.801 101.993 33.2571 102.133C32.7968 102.253 32.2951 102.331 31.8117 102.41L30.661 102.599H30.707C31.2364 102.428 31.7657 102.253 32.295 102.063C32.585 101.957 32.8842 101.86 33.1696 101.745L33.7634 101.504C33.8877 101.453 34.0211 101.407 34.1454 101.347L35.066 100.885C35.3468 100.747 35.6184 100.576 35.8945 100.423C36.4653 100.104 37.0223 99.7626 37.5654 99.4022C37.6789 99.3367 37.7619 99.2285 37.796 99.1016C37.8301 98.9747 37.8125 98.8394 37.7472 98.7254C37.6819 98.6115 37.5742 98.5282 37.4477 98.494C37.3212 98.4598 37.1864 98.4774 37.0729 98.5429C36.5205 98.8894 35.9498 99.2128 35.3698 99.5131C35.089 99.6563 34.8128 99.8226 34.5275 99.952L33.6805 100.34C33.1512 100.539 32.6265 100.728 32.0925 100.908C31.5586 101.088 31.1213 101.232 30.6288 101.37C29.3237 101.805 27.9883 102.142 26.6335 102.377C26.0846 102.455 25.5287 102.471 24.9764 102.424C24.8206 102.399 24.6668 102.364 24.5161 102.317L24.3504 101.814C24.1847 101.306 24.0236 100.797 23.8579 100.289C23.5265 99.259 23.2089 98.2195 22.9097 97.1801C22.2653 94.9717 21.6715 92.7496 21.1053 90.5228C20.8476 89.4971 20.6082 88.4669 20.3597 87.4321C20.2492 86.9701 20.1663 86.5081 20.0651 86.0461C19.8902 85.2053 19.7291 84.3644 19.6048 83.519C19.5159 82.7937 19.4636 82.0644 19.4483 81.3338C19.4399 80.6204 19.4798 79.9073 19.568 79.1994C19.8209 77.6121 20.2629 76.061 20.8844 74.5795C21.3784 73.4168 21.9957 72.3109 22.7256 71.2809C23.0754 71.0083 23.4252 70.7357 23.7842 70.477C24.2676 70.1351 24.7509 69.8071 25.2434 69.4837C26.1639 68.86 27.1582 68.301 28.1386 67.742C30.0626 66.6517 31.9406 65.4875 33.8508 64.3741C35.761 63.2607 37.6989 62.1565 39.6229 61.0524C40.5435 60.5211 41.4641 59.9667 42.3846 59.4215L42.7483 59.1998C43.1349 59.015 43.5124 58.8256 43.8898 58.6269L45.5929 57.7029C45.754 57.6198 45.9105 57.5228 46.0532 57.4304L47.1487 56.7974C48.0324 56.2892 48.9039 55.7626 49.7631 55.2174C50.2234 54.9264 50.6837 54.6399 51.144 54.335L52.7964 53.2309C53.3672 52.8474 53.9104 52.427 54.4489 52.002C55.0672 51.5123 55.6588 50.9895 56.221 50.4358C57.3883 49.3065 58.4146 48.0391 59.2774 46.6614C59.6858 46.0039 60.0384 45.3131 60.3315 44.5963C60.6322 43.8601 60.8648 43.0976 61.0265 42.3187C61.1906 41.5145 61.3089 40.7016 61.3809 39.884C61.4361 39.3527 61.4822 38.8168 61.4868 38.2809L61.5144 36.2989C61.5144 36.128 61.5144 35.9524 61.4868 35.7815C61.4591 35.3749 61.4361 34.9684 61.4085 34.5618C61.3809 34.0583 61.3119 33.5639 61.2474 33.065L61.1231 32.0763C61.0449 31.4526 60.9344 30.8336 60.8101 30.2284C60.4681 28.6507 59.9508 27.1166 59.2682 25.6546C58.9874 25.0263 58.6698 24.4165 58.3476 23.8067L58.2141 23.5156C58.076 23.2384 57.9379 22.9612 57.8044 22.684C57.6709 22.4069 57.5375 22.1943 57.404 21.9541C57.0403 21.3169 56.6311 20.707 56.1796 20.1292C55.2448 18.9136 54.0694 17.9054 52.7274 17.1679L52.5617 17.0801C52.373 16.96 52.1797 16.8399 51.9864 16.729C51.2692 16.3398 50.5264 16.0002 49.7631 15.7126C48.2583 15.1271 46.6738 14.7735 45.0635 14.6639C44.2629 14.6098 43.4587 14.6439 42.6654 14.7655C41.8839 14.8724 41.1135 15.0502 40.364 15.2968C38.8684 15.812 37.4616 16.5569 36.1937 17.5051C35.1785 18.2143 34.2418 19.0305 33.3998 19.9398L32.6541 20.7668C32.5344 20.9008 32.4147 21.0255 32.3089 21.1687L31.0891 22.6794C30.6299 23.273 30.2013 23.8898 29.8049 24.5274C29.3494 25.2378 28.9581 25.9877 28.6357 26.768C28.5022 27.1007 28.3826 27.4333 28.2767 27.7706C28.1708 28.1078 28.0742 28.5098 27.9821 28.8793C27.9085 29.175 27.8532 29.4799 27.7842 29.7756C27.2963 32.0163 26.9372 34.28 26.5874 36.5438C26.5184 37.0058 26.4493 37.4354 26.3711 37.8789C26.2928 38.3224 26.2238 38.8814 26.1179 39.3804C25.9798 40.0133 25.8464 40.6462 25.7129 41.2792C25.5794 41.9121 25.4091 42.4249 25.2526 42.9885C25.0501 43.6399 24.8153 44.2821 24.5529 44.9104C24.0036 46.211 23.3037 47.4422 22.4678 48.5786C21.8534 49.3639 21.1523 50.0768 20.3781 50.7038C19.6888 51.2127 18.9464 51.6449 18.1641 51.9927C17.2396 52.3615 16.2758 52.622 15.2919 52.7689C13.9329 52.9352 12.5588 52.9352 11.1998 52.7689C10.1739 52.6278 9.16814 52.3657 8.20337 51.9881C7.46589 51.6539 6.76673 51.2403 6.11823 50.7546C5.46749 50.2231 4.87636 49.6221 4.35531 48.9621C4.29087 48.8789 4.22644 48.7911 4.1666 48.7034C4.10676 48.6156 4.07452 48.5232 4.0331 48.4262C3.79694 47.8097 3.59562 47.1804 3.43011 46.5412C3.29663 46.0331 3.16315 45.5202 3.06189 45.0028C2.86396 43.9772 2.70287 42.947 2.55097 41.9121C2.47732 41.33 2.39906 40.7479 2.36684 40.1612C2.33462 39.4589 2.31623 38.7752 2.33464 38.0499C2.35306 37.3245 2.38987 36.6038 2.4359 35.8831C2.47732 35.241 2.55096 34.608 2.6246 33.9705C2.78983 32.6571 3.03425 31.355 3.35648 30.0713C3.53599 29.3783 3.72473 28.6853 3.94567 28.0108C4.01471 27.8075 4.07913 27.6042 4.14817 27.401C4.21721 27.1977 4.36452 27.0175 4.47499 26.8235C4.51212 26.7582 4.53502 26.6857 4.54216 26.6108C4.5493 26.5359 4.54054 26.4604 4.51643 26.3892L4.64069 26.0751C4.92607 25.4745 5.22065 24.8785 5.56127 24.2918C5.90189 23.705 6.25173 23.0952 6.61536 22.5085C7.28278 21.4228 7.99622 20.3741 8.7557 19.3439C9.12853 18.8819 9.50598 18.3968 9.91564 17.9579C10.4128 17.4266 10.9099 16.8953 11.4484 16.4102C11.987 15.9251 12.5761 15.4123 13.1515 14.9272C13.644 14.5114 14.1549 14.1141 14.6659 13.7214C15.0663 13.4211 15.4622 13.1208 15.8672 12.8344C16.3643 12.4833 16.8615 12.1414 17.3678 11.8042C18.2009 11.2267 19.1215 10.6538 20.0421 10.1179C21.0593 9.52193 22.0904 8.94444 23.1352 8.39929C24.1801 7.85414 25.1973 7.35981 26.2422 6.86548C26.7485 6.62525 27.2687 6.40349 27.7842 6.18174L29.363 5.57653C29.5333 5.51185 29.7082 5.46103 29.8831 5.40559L30.9234 5.07296C31.4435 4.90202 31.9728 4.76343 32.4976 4.61097C33.0223 4.45851 33.5148 4.32915 34.0257 4.19056C35.0016 3.92722 35.982 3.67775 36.9716 3.48371L38.0901 3.26658C38.2466 3.23886 38.4031 3.2019 38.5504 3.18342L40.0418 2.98014L41.8139 2.8554C41.9474 2.8554 42.0855 2.8554 42.2235 2.8554H43.4249C43.6366 2.8554 43.8438 2.8554 44.0509 2.8554L45.0221 2.9016C45.2569 2.9016 45.4824 2.9478 45.7264 2.9709L46.4859 3.04482L47.7655 3.23886L48.1659 3.32202L49.1602 3.53453C49.6204 3.63155 50.0393 3.76091 50.4812 3.8764C50.9231 3.9919 51.4018 4.13974 51.8621 4.27372C52.7044 4.52781 53.5421 4.80501 54.3615 5.11916C54.8217 5.29472 55.2544 5.45641 55.6917 5.63659L56.9299 6.15402L58.3384 6.77309C58.7987 6.98098 59.259 7.23508 59.7193 7.46145C60.1796 7.68783 60.5938 7.95578 61.0265 8.20988C61.8658 8.70249 62.6758 9.24394 63.4522 9.83146C64.0435 10.2992 64.6089 10.7989 65.1461 11.3283C66.3357 12.4926 67.354 13.8211 68.1702 15.2737C68.4418 15.7357 68.7041 16.1977 68.9343 16.7013C69.2197 17.3065 69.5051 17.9117 69.7951 18.5169L70.283 19.7643C70.4303 20.1385 70.5591 20.5127 70.688 20.8915C70.8721 21.4459 71.0654 22.0049 71.2357 22.5685C71.6412 23.8491 71.949 25.1588 72.1563 26.4862C72.253 27.2993 72.299 28.1171 72.3267 28.9348C72.3267 29.309 72.3266 29.6832 72.3635 30.0574C72.3635 30.1914 72.3635 30.3254 72.3635 30.4594L72.3175 32.5198Z" fill="#00FA9A"/>
<path d="M30.627 127.731C30.7565 128.039 30.9105 128.336 31.0873 128.618C32.5602 130.928 35.3772 131.94 37.9917 131.995C38.6321 131.998 39.2715 131.942 39.9019 131.829C40.5639 131.722 41.2133 131.547 41.8397 131.307C43.129 130.82 44.3354 130.136 45.4162 129.279C45.9039 128.908 46.3654 128.504 46.7971 128.069C47.7282 127.127 48.4334 125.984 48.8592 124.728C49.0744 124.096 49.2285 123.445 49.3195 122.783C49.5258 121.419 49.5413 120.032 49.3655 118.662C49.2936 118.016 49.1845 117.374 49.0387 116.741C48.8765 116.064 48.6578 115.403 48.3851 114.763C48.1569 114.202 47.8683 113.668 47.5243 113.169C47.1277 112.603 46.6809 112.075 46.1895 111.589C45.2656 110.633 44.1039 109.943 42.8248 109.589C42.3261 109.467 41.8145 109.406 41.3012 109.409H40.9007C40.2078 109.452 39.5213 109.569 38.8524 109.755C37.5772 110.096 36.3714 110.659 35.2898 111.418C34.7711 111.792 34.2887 112.215 33.8491 112.68C33.3609 113.192 32.9174 113.745 32.5234 114.334C32.189 114.837 31.8935 115.365 31.6397 115.914C31.3321 116.549 31.081 117.211 30.8894 117.891C30.7246 118.521 30.6123 119.164 30.5534 119.813C30.5226 120.087 30.5057 120.363 30.5027 120.64C30.4705 120.774 30.4383 120.903 30.4107 121.037C30.1006 122.322 29.9658 123.643 30.0102 124.964C30.0382 125.588 30.1323 126.208 30.291 126.812C30.3786 127.127 30.491 127.434 30.627 127.731ZM41.8535 111.4C42.2345 111.469 42.6087 111.571 42.972 111.705C43.3766 111.901 43.7619 112.134 44.1228 112.402C44.6864 112.867 45.1988 113.39 45.651 113.964C44.7342 113.34 43.7507 112.821 42.7189 112.416C42.3281 112.251 41.9268 112.112 41.5175 112.001C41.5052 111.827 41.4318 111.663 41.3104 111.539C41.2385 111.468 41.1542 111.412 41.0618 111.372C41.3245 111.366 41.5874 111.375 41.8489 111.4H41.8535ZM33.108 121.564C33.3496 121.416 33.5283 121.184 33.6097 120.912C33.7294 120.547 33.8721 120.192 34.0194 119.836L34.4797 118.773C34.8398 117.924 35.292 117.117 35.8283 116.366C36.245 115.823 36.7188 115.325 37.2414 114.883C37.6019 114.624 37.9874 114.401 38.3921 114.218C38.7478 114.08 39.1164 113.978 39.4922 113.913C39.8061 113.883 40.122 113.883 40.4358 113.913C41.2261 114.058 41.9979 114.291 42.7373 114.606C43.4496 114.912 44.1284 115.291 44.7626 115.738C45.1527 116.046 45.5105 116.392 45.8305 116.773C46.0875 117.136 46.3094 117.523 46.4933 117.928C46.7418 118.574 46.9209 119.244 47.0272 119.928C47.0755 120.415 47.0755 120.906 47.0272 121.393C46.9696 121.761 46.874 122.121 46.7418 122.469C46.5901 122.793 46.4099 123.102 46.2033 123.393C45.7831 123.903 45.3344 124.389 44.8592 124.848C44.335 125.373 43.7834 125.87 43.2068 126.336C42.457 126.887 41.648 127.352 40.7949 127.722C40.1087 128.009 39.3921 128.217 38.6591 128.341C38.1673 128.401 37.6707 128.41 37.177 128.369C36.7879 128.301 36.4059 128.197 36.0354 128.059C35.6911 127.891 35.3629 127.692 35.055 127.463C34.6871 127.166 34.3508 126.832 34.0516 126.465C33.7322 126.001 33.4622 125.504 33.2461 124.982C32.8706 124.054 32.6049 123.085 32.4544 122.095C32.4544 121.966 32.4268 121.836 32.4176 121.712C32.6587 121.738 32.9016 121.682 33.108 121.554V121.564Z" fill="#00FA9A"/>
</g>
<defs>
<clipPath id="clip0_1736_34195">
<rect width="75" height="132" fill="white"/>
</clipPath>
</defs>
</svg>
