<svg width="60" height="60" viewBox="0 0 60 60" fill="none" xmlns="http://www.w3.org/2000/svg">
<g clip-path="url(#clip0_1782_15437)">
<path d="M39.8317 55.3531C54.3614 51.4858 62.9681 36.5751 59.0553 22.0492C55.1424 7.52333 40.1917 -1.11719 25.662 2.7501C11.1322 6.61739 2.52551 21.528 6.43836 36.0539C10.3512 50.5798 25.3019 59.2203 39.8317 55.3531Z" fill="black"/>
<path d="M36.2985 56.0059C50.8282 52.1386 59.4349 37.228 55.5221 22.7021C51.6092 8.17616 36.6585 -0.464357 22.1288 3.40293C7.59901 7.27022 -1.00769 22.1808 2.90516 36.7068C6.81801 51.2327 21.7687 59.8732 36.2985 56.0059Z" fill="white"/>
<path d="M29.3037 57.4103C24.0588 57.3983 18.9241 55.9137 14.491 53.1275C10.0579 50.3412 6.5068 46.3668 4.24689 41.662C-2.38838 27.8967 3.41305 11.3361 17.1714 4.74878C20.4365 3.17574 23.9833 2.26279 27.6061 2.06288C31.2289 1.86297 34.8556 2.38009 38.2758 3.58423C41.7365 4.78421 44.9231 6.65536 47.6506 9.08913C50.3781 11.5229 52.5922 14.4708 54.1646 17.7619C60.7999 31.5271 54.9984 48.0857 41.2401 54.6751C37.5192 56.4686 33.4389 57.4036 29.3037 57.4103ZM29.1078 2.94601C25.1118 2.95059 21.1685 3.85156 17.5716 5.58179C4.26773 11.9536 -1.33566 27.961 5.07864 41.2725C6.59877 44.4549 8.73964 47.3056 11.377 49.659C14.0143 52.0124 17.0957 53.8216 20.4421 54.9818C23.7476 56.1458 27.2528 56.646 30.7543 56.4532C34.2557 56.2604 37.6839 55.3785 40.8399 53.8587C54.1438 47.4868 59.7471 31.4795 53.3328 18.1659C51.1469 13.6186 47.7133 9.7774 43.4275 7.08474C39.1416 4.39208 34.1779 2.95744 29.1078 2.94601Z" fill="black"/>
<path d="M43.2766 39.4696C43.186 39.4698 43.0974 39.4431 43.0222 39.393L28.9512 30.1014C28.8544 30.0371 28.7858 29.9386 28.7594 29.8259L25.7951 17.3184C25.7675 17.1999 25.7883 17.0754 25.853 16.9723C25.9177 16.8691 26.021 16.7957 26.1401 16.7682C26.2593 16.7407 26.3845 16.7614 26.4883 16.8257C26.5921 16.8901 26.666 16.9927 26.6936 17.1112L29.612 29.4404L43.533 38.6242C43.6163 38.6784 43.6798 38.7579 43.7139 38.851C43.748 38.944 43.7508 39.0456 43.7219 39.1403C43.693 39.2351 43.634 39.318 43.5537 39.3766C43.4734 39.4353 43.3762 39.4664 43.2766 39.4655V39.4696Z" fill="#00FA9A"/>
<path d="M21.2351 9.51885C21.3808 9.82836 21.4311 10.1738 21.3796 10.5117C21.328 10.8496 21.177 11.1648 20.9455 11.4174C20.714 11.6701 20.4124 11.849 20.0788 11.9315C19.7452 12.014 19.3944 11.9964 19.0708 11.881C18.7472 11.7656 18.4653 11.5575 18.2605 11.283C18.0557 11.0085 17.9373 10.6799 17.9201 10.3386C17.903 9.99725 17.9879 9.65853 18.1642 9.36514C18.3405 9.07174 18.6003 8.83682 18.9107 8.68999C19.3297 8.4943 19.8095 8.47165 20.2452 8.62702C20.6809 8.78238 21.0368 9.10308 21.2351 9.51885Z" fill="black"/>
<path d="M12.2037 16.1788C12.5855 16.4398 12.848 16.8403 12.9339 17.293C13.0199 17.7456 12.9222 18.2136 12.6624 18.595C12.5339 18.7831 12.3693 18.944 12.1779 19.0686C11.9866 19.1931 11.7723 19.2788 11.5475 19.3206C11.3227 19.3624 11.0918 19.3595 10.8681 19.3121C10.6444 19.2648 10.4324 19.1739 10.2442 19.0446C9.86286 18.7833 9.60073 18.3828 9.51485 17.9303C9.42897 17.4779 9.52628 17.01 9.78562 16.6285C9.91405 16.4404 10.0787 16.2794 10.27 16.1549C10.4614 16.0303 10.6756 15.9447 10.9004 15.9029C11.1252 15.8611 11.3562 15.864 11.5799 15.9113C11.8035 15.9587 12.0156 16.0496 12.2037 16.1788Z" fill="black"/>
<path d="M8.24038 29.6813C9.16788 29.4344 9.71724 28.4824 9.46741 27.5549C9.21757 26.6274 8.26314 26.0757 7.33563 26.3225C6.40813 26.5694 5.85879 27.5214 6.10862 28.4489C6.35846 29.3764 7.31288 29.9282 8.24038 29.6813Z" fill="black"/>
<path d="M8.99972 37.6256C9.31105 37.4752 9.66028 37.42 10.0032 37.467C10.3461 37.514 10.6672 37.6611 10.926 37.8896C11.1847 38.1182 11.3694 38.4179 11.4567 38.7509C11.544 39.0839 11.5299 39.4351 11.4162 39.7601C11.3026 40.0851 11.0944 40.3692 10.8182 40.5766C10.542 40.7839 10.2101 40.9052 9.86449 40.9249C9.51892 40.9446 9.17522 40.862 8.87693 40.6874C8.57864 40.5129 8.33915 40.2542 8.18881 39.9443C8.08785 39.7393 8.02873 39.5165 8.01488 39.2886C8.00103 39.0608 8.03273 38.8325 8.10812 38.6169C8.18352 38.4014 8.30113 38.2028 8.45416 38.0326C8.60719 37.8624 8.79261 37.7241 8.99972 37.6256Z" fill="black"/>
<path d="M15.8794 46.4801C16.0078 46.2919 16.1724 46.131 16.3638 46.0064C16.5551 45.8819 16.7694 45.7963 16.9942 45.7545C17.219 45.7127 17.4499 45.7155 17.6736 45.7629C17.8973 45.8102 18.1093 45.9012 18.2975 46.0304C18.6793 46.2914 18.9418 46.6919 19.0277 47.1445C19.1136 47.5971 19.016 48.0652 18.7561 48.4465C18.6277 48.6346 18.463 48.7956 18.2717 48.9201C18.0803 49.0447 17.8661 49.1303 17.6413 49.1721C17.4165 49.2139 17.1855 49.2111 16.9619 49.1637C16.7382 49.1163 16.5261 49.0254 16.338 48.8962C15.9566 48.6348 15.6945 48.2344 15.6086 47.7819C15.5227 47.3294 15.62 46.8616 15.8794 46.4801Z" fill="black"/>
<path d="M26.1974 50.9804C26.2251 50.6397 26.3537 50.3149 26.567 50.0468C26.7802 49.7787 27.0685 49.5794 27.3956 49.474C27.7226 49.3686 28.0738 49.3618 28.4047 49.4546C28.7356 49.5473 29.0315 49.7354 29.255 49.9951C29.4785 50.2548 29.6197 50.5744 29.6606 50.9138C29.7016 51.2531 29.6405 51.5969 29.4852 51.9018C29.3298 52.2066 29.0871 52.4589 28.7876 52.6269C28.4882 52.7948 28.1454 52.8708 27.8025 52.8453C27.5735 52.8288 27.35 52.7674 27.1451 52.6645C26.9401 52.5616 26.7577 52.4193 26.6084 52.2458C26.4591 52.0724 26.3459 51.8713 26.2754 51.654C26.2048 51.4368 26.1783 51.2079 26.1974 50.9804Z" fill="black"/>
<path d="M37.3682 49.7347C37.2203 49.4259 37.1678 49.0804 37.2173 48.742C37.2668 48.4036 37.4161 48.0873 37.6464 47.8332C37.8766 47.579 38.1774 47.3984 38.5109 47.3141C38.8443 47.2298 39.1954 47.2457 39.5198 47.3596C39.8442 47.4735 40.1273 47.6805 40.3335 47.9543C40.5396 48.2281 40.6595 48.5565 40.678 48.898C40.6965 49.2395 40.6127 49.5788 40.4373 49.873C40.2619 50.1673 40.0027 50.4032 39.6925 50.5511C39.2751 50.7476 38.7965 50.7721 38.3611 50.6191C37.9256 50.4662 37.5687 50.1482 37.3682 49.7347Z" fill="black"/>
<path d="M47.8302 43.319C48.7577 43.0721 49.3071 42.1201 49.0572 41.1926C48.8074 40.2651 47.853 39.7134 46.9255 39.9602C45.998 40.2071 45.4486 41.1591 45.6985 42.0866C45.9483 43.0141 46.9027 43.5659 47.8302 43.319Z" fill="black"/>
<path d="M51.2658 32.9303C52.1933 32.6834 52.7426 31.7314 52.4928 30.8039C52.243 29.8764 51.2885 29.3247 50.361 29.5716C49.4335 29.8184 48.8842 30.7704 49.134 31.6979C49.3839 32.6254 50.3383 33.1772 51.2658 32.9303Z" fill="black"/>
<path d="M49.1037 21.9108C50.0312 21.6639 50.5805 20.7119 50.3307 19.7844C50.0808 18.8569 49.1264 18.3052 48.1989 18.552C47.2714 18.7989 46.7221 19.7509 46.9719 20.6784C47.2217 21.6059 48.1762 22.1576 49.1037 21.9108Z" fill="black"/>
<path d="M42.5705 13.5836C43.5019 13.3354 44.0533 12.3792 43.8021 11.4479C43.551 10.5165 42.5924 9.96268 41.661 10.2108C40.7296 10.459 40.1782 11.4152 40.4293 12.3465C40.6805 13.2779 41.6391 13.8317 42.5705 13.5836Z" fill="black"/>
<path d="M32.4014 8.27161C32.3737 8.61226 32.2451 8.93712 32.0318 9.20521C31.8186 9.47331 31.5303 9.67262 31.2032 9.77801C30.8761 9.88341 30.525 9.89016 30.1941 9.79743C29.8632 9.70469 29.5673 9.51662 29.3438 9.25693C29.1203 8.99724 28.9791 8.67756 28.9382 8.33824C28.8972 7.99891 28.9583 7.65512 29.1136 7.35024C29.269 7.04536 29.5117 6.79305 29.8112 6.62512C30.1106 6.4572 30.4534 6.38118 30.7962 6.40668C31.0253 6.42315 31.2487 6.48462 31.4537 6.58751C31.6587 6.69041 31.8411 6.8327 31.9904 7.00614C32.1397 7.17958 32.2528 7.38074 32.3234 7.59796C32.3939 7.81518 32.4205 8.04414 32.4014 8.27161Z" fill="black"/>
</g>
<defs>
<clipPath id="clip0_1782_15437">
<rect width="60" height="60" fill="white"/>
</clipPath>
</defs>
</svg>
