<svg width="42" height="57" viewBox="0 0 42 57" fill="none" xmlns="http://www.w3.org/2000/svg">
<g clip-path="url(#clip0_1782_15460)">
<path d="M41.2574 44.158C41.361 40.3916 41.2574 36.4933 41.1162 32.7552C41.0503 30.7213 40.9844 28.6781 40.9561 26.6442C40.909 23.7158 40.9561 20.7404 41.0126 17.8591L41.0691 14.3092C41.0691 11.9929 41.0691 9.94966 40.975 8.08529C40.975 7.81222 40.975 7.52973 40.975 7.24725C41.0347 6.09365 40.8452 4.94071 40.4194 3.86691C39.12 1.25868 36.4835 0.872625 33.8282 0.834961H32.5006C30.156 0.834961 27.7926 0.910292 25.4574 0.98562C23.8943 1.0327 22.3219 1.07978 20.7494 1.10803H18.7061C17.4538 1.10803 16.2015 1.10803 14.9397 1.10803L12.0678 1.1551H11.936C11.371 1.1551 10.7778 1.1551 10.1752 1.09861C9.5726 1.04211 8.91348 1.05154 8.29202 1.05154C6.76562 0.982357 5.24406 1.26925 3.84767 1.88955C2.88938 2.44176 2.08694 3.22816 1.51548 4.1751C0.944024 5.12204 0.622247 6.19853 0.580318 7.30374C0.429662 9.94964 0.514406 12.652 0.580318 15.2603C0.580318 16.635 0.655671 18.0097 0.665087 19.3845C0.665087 23.5934 0.608578 27.8589 0.53325 32.0019C0.53325 34.1393 0.448519 36.2768 0.429688 38.4048C0.429688 41.4085 0.429688 44.5063 0.429688 47.6136C0.429688 50.4384 0.589751 52.1239 2.51061 54.4779C3.93243 56.2293 5.64614 56.3611 7.42577 56.3611H9.41253C10.7308 56.3611 12.0678 56.4082 13.3578 56.4552C14.6478 56.5023 15.9943 56.54 17.3031 56.54H21.3709C22.7268 56.54 24.0826 56.54 25.448 56.54C28.8275 56.5726 32.2064 56.4248 35.5702 56.0974C37.5852 55.8809 39.4684 55.5136 40.4006 53.4044C41.3328 51.2953 41.2763 48.5929 41.2574 46.173C41.1915 45.5044 41.1915 44.8077 41.2574 44.158ZM1.4466 43.0375C1.4466 42.2559 1.51252 41.5309 1.51252 40.8906C1.51252 38.1223 1.57844 35.354 1.63493 32.5857C1.63493 30.5518 1.71966 28.518 1.7385 26.4747C1.7385 23.4145 1.80441 19.375 1.7385 15.3356C1.7385 14.6671 1.67259 13.9609 1.62551 13.217C1.41836 10.1945 1.20179 6.77645 2.74601 4.4507C4.08309 2.45451 6.43708 2.18144 8.56509 2.18144C9.2148 2.18144 9.8645 2.18144 10.5048 2.23793C11.1451 2.29443 11.6912 2.28503 12.2467 2.28503H12.4162H14.8832C16.1544 2.28503 17.4256 2.28503 18.6967 2.28503H20.7588C22.3878 2.28503 24.0167 2.2097 25.6363 2.16262L29.9112 2.04963C30.3443 2.04963 30.8527 2.04963 31.333 1.98371C32.058 1.98371 32.8207 1.90837 33.6022 1.90837C35.7867 1.90837 38.4232 2.20028 39.4495 4.47895C39.8587 5.70618 40.0219 7.00207 39.9298 8.29244C39.9298 8.66908 39.9298 9.0363 39.9298 9.37528C39.9768 10.7594 39.9863 12.266 39.9298 13.9797C39.9298 15.3356 39.9298 16.6821 39.8638 18.038C39.8638 19.9212 39.798 21.7291 39.798 23.584C39.798 26.5124 39.8921 29.4878 39.9863 32.3597C40.0553 34.3496 40.1087 36.3364 40.1463 38.32C40.1934 40.7776 40.1464 43.2634 40.0616 45.6927C40.0616 46.173 40.0616 46.6814 40.0616 47.2087C40.0616 50.6267 40.0051 54.5061 36.1916 55.0146C33.258 55.366 30.3044 55.5233 27.35 55.4854H24.4216H21.5027H20.2692H15.4576C11.9831 55.4854 9.30895 55.4383 6.79488 55.3347C4.28081 55.2312 2.6142 53.8188 1.87033 51.0128C1.34111 48.3895 1.18263 45.7048 1.39953 43.0375H1.4466Z" fill="black"/>
<path d="M5.23418 25.0531C5.14943 31.955 5.0647 39.1017 5.62966 46.079C5.63448 46.2264 5.69583 46.3663 5.80101 46.4698C5.90619 46.5732 6.04713 46.6322 6.19463 46.6345L9.01943 46.7381C14.283 46.9358 19.7254 47.143 25.0737 47.143C29.0567 47.143 32.6065 47.03 35.9774 46.804C36.1241 46.797 36.2627 46.7349 36.3657 46.6302C36.4687 46.5255 36.5284 46.3858 36.533 46.2391C36.533 43.725 36.4482 41.1827 36.3917 38.7063C36.307 35.5048 36.2222 32.1904 36.2411 28.923V25.7875C36.2882 21.3997 36.3258 16.8517 36.2411 12.3885C36.2411 12.2379 36.2411 12.0213 36.2411 11.7577C36.2411 10.8161 36.354 9.58257 35.9491 9.12119C35.8032 8.99088 35.6311 8.89324 35.4444 8.83479C35.2576 8.77633 35.0605 8.75841 34.8663 8.78223H34.2072C30.1866 8.66924 26.1942 8.65039 22.1077 8.65039H20.2245C15.5165 8.65039 10.526 8.6504 5.64848 9.01763C5.60494 9.00924 5.56021 9.00924 5.51667 9.01763C5.39274 9.03626 5.28035 9.10082 5.20185 9.19852C5.12335 9.29621 5.08446 9.41988 5.09294 9.54492C5.35659 14.7426 5.29067 19.9873 5.23418 25.0531ZM35.0452 9.87449C35.0597 10.0688 35.0597 10.2639 35.0452 10.4583V10.7502C35.1111 12.0684 35.1206 13.4055 35.1206 14.7049V15.3075C35.1206 18.3865 35.1206 21.4656 35.1206 24.5446C35.1206 30.2507 35.0452 36.1545 35.2712 41.9642V42.2843C35.2712 43.1035 35.3371 43.9227 35.356 44.7419C35.356 44.9114 35.356 45.0432 35.356 45.1468C35.356 45.4858 35.3559 45.4858 34.9793 45.7118C34.6722 45.7915 34.3545 45.8232 34.0377 45.8059H33.2279C30.7045 45.9378 28.0586 45.9942 25.1114 45.9942H23.3694C20.0738 45.9942 16.7782 45.8718 14.33 45.7871L9.81037 45.6176H9.2454C8.83968 45.6279 8.43374 45.609 8.03073 45.5611L7.64467 45.5046C6.76898 45.3916 6.70307 45.3822 6.70307 44.3088C6.47709 38.518 6.50533 32.6235 6.52416 26.9268C6.52416 21.4185 6.52418 15.7218 6.36411 10.1287C10.1305 9.88389 14.1982 9.7709 19.4429 9.7709C21.8848 9.7709 24.3204 9.7709 26.7497 9.7709H27.6913C28.6329 9.7709 29.5745 9.77091 30.5161 9.84624C31.6366 9.84624 32.7571 9.92156 33.8682 9.92156H35.0923V9.82739L35.0452 9.87449Z" fill="black"/>
<path d="M13.6868 27.5349V27.9224C13.9788 28.0147 14.2207 28.2039 14.4124 28.4899C14.604 28.776 14.6998 29.1312 14.6998 29.5557V30.7046C14.6998 31.2213 14.7911 31.6042 14.9736 31.8534C15.1562 32.1025 15.4665 32.2271 15.9046 32.2271H16.4111V33.9573H15.4939C14.6177 33.9573 13.9332 33.7035 13.4404 33.196C12.9475 32.6885 12.7011 32.0333 12.7011 31.2305V29.9571C12.7011 29.0805 12.3498 28.6422 11.647 28.6422H11.25V26.8151H11.647C12.3498 26.8151 12.7011 26.3768 12.7011 25.5002V24.2268C12.7011 23.424 12.9475 22.7688 13.4404 22.2613C13.9332 21.7538 14.6177 21.5 15.4939 21.5H16.4111V23.2302H15.9046C15.4665 23.2302 15.1562 23.3548 14.9736 23.6039C14.7911 23.853 14.6998 24.236 14.6998 24.7527V25.9016C14.6998 26.326 14.604 26.6813 14.4124 26.9674C14.2207 27.2534 13.9788 27.4426 13.6868 27.5349Z" fill="#00FA9A"/>
<path d="M25.1208 28.1993C25.1208 28.6606 24.9885 29.0436 24.7238 29.3481C24.4683 29.6526 24.1762 29.8602 23.8477 29.971V30.3585C24.2675 30.6907 24.4774 31.2028 24.4774 31.8949C24.4774 32.6239 24.1808 33.2237 23.5876 33.6943C23.0035 34.1741 22.2049 34.4141 21.1918 34.4141C20.2335 34.4141 19.4578 34.1603 18.8646 33.6528C18.2713 33.1545 17.9473 32.4394 17.8926 31.5074H20.0556C20.1286 32.1994 20.5438 32.5455 21.3014 32.5455C21.9767 32.5455 22.3144 32.3055 22.3144 31.8257C22.3144 31.4751 22.0224 31.2213 21.4383 31.0644L19.6859 30.5938C18.9832 30.4093 18.4493 30.1417 18.0842 29.791C17.7192 29.4311 17.5366 28.9467 17.5366 28.3377C17.5366 27.8578 17.6644 27.4703 17.92 27.175C18.1846 26.8797 18.4812 26.6767 18.8098 26.566V26.1784C18.39 25.8462 18.1801 25.3341 18.1801 24.642C18.1801 23.913 18.4721 23.3132 19.0562 22.8426C19.6494 22.3628 20.4526 22.1229 21.4656 22.1229C22.4239 22.1229 23.1997 22.372 23.7929 22.8703C24.3861 23.3594 24.7101 24.0699 24.7649 25.0019H22.6019C22.538 24.3283 22.1227 23.9915 21.3561 23.9915C20.6807 23.9915 20.3431 24.2314 20.3431 24.7112C20.3431 24.8958 20.4115 25.048 20.5484 25.168C20.6853 25.2787 20.9089 25.3802 21.2192 25.4725C21.3926 25.5279 21.6892 25.6109 22.1091 25.7216C22.5289 25.8231 22.8164 25.897 22.9715 25.9431C23.6743 26.1184 24.2082 26.386 24.5732 26.7459C24.9383 27.0966 25.1208 27.581 25.1208 28.1993ZM21.2877 29.0574L22.3829 29.3758C22.5654 29.3112 22.7068 29.2051 22.8072 29.0574C22.9168 28.9006 22.9715 28.7345 22.9715 28.5591C22.9715 28.1531 22.7205 27.8763 22.2186 27.7286L21.3698 27.4795C20.8131 27.3226 20.448 27.2165 20.2746 27.1611C19.8822 27.2903 19.6859 27.5625 19.6859 27.9778C19.6859 28.3838 19.9369 28.6606 20.4389 28.8083C20.7218 28.9006 21.0047 28.9836 21.2877 29.0574Z" fill="#00FA9A"/>
<path d="M28.9717 27.9224V27.5349C28.6797 27.4426 28.4378 27.2534 28.2462 26.9674C28.0545 26.6813 27.9587 26.326 27.9587 25.9016V24.7527C27.9587 24.236 27.8674 23.853 27.6849 23.6039C27.5024 23.3548 27.1921 23.2302 26.754 23.2302H26.2475V21.5H27.1647C28.0408 21.5 28.7253 21.7538 29.2182 22.2613C29.711 22.7688 29.9574 23.424 29.9574 24.2268V25.5002C29.9574 26.3768 30.3088 26.8151 31.0115 26.8151H31.4085V28.6422H31.0115C30.3088 28.6422 29.9574 29.0805 29.9574 29.9571V31.2305C29.9574 32.0333 29.711 32.6885 29.2182 33.196C28.7253 33.7035 28.0408 33.9573 27.1647 33.9573H26.2475V32.2271H26.754C27.1921 32.2271 27.5024 32.1025 27.6849 31.8534C27.8674 31.6042 27.9587 31.2213 27.9587 30.7046V29.5557C27.9587 29.1312 28.0545 28.776 28.2462 28.4899C28.4378 28.2039 28.6797 28.0147 28.9717 27.9224Z" fill="#00FA9A"/>
<path d="M21.1946 48.6875H20.7521H19.8764C18.3039 48.6875 16.609 48.9041 15.9688 50.5048C15.7879 50.8472 15.6974 51.2301 15.7056 51.6173C15.7138 52.0044 15.8206 52.3831 16.0158 52.7175C16.8162 53.9134 18.9348 54.0546 19.7822 54.064H20.6579C21.0345 54.064 21.4206 54.064 21.8067 54.064C23.5674 54.064 25.413 53.7816 25.8273 51.6912C25.9126 51.3799 25.9274 51.0535 25.8703 50.7358C25.8133 50.4182 25.686 50.1172 25.4977 49.8551C24.6503 48.7911 22.5694 48.7252 21.1946 48.6875ZM18.2945 52.84C17.9747 52.7693 17.6886 52.5919 17.4832 52.3368C17.2778 52.0818 17.1654 51.7644 17.1646 51.437C17.1565 51.1009 17.259 50.7714 17.4564 50.4993C17.6537 50.2271 17.9349 50.0272 18.2568 49.9304C18.7106 49.8061 19.1801 49.749 19.6504 49.7609H20.4978H21.0251H21.2511H21.7407H22.4281C22.9279 49.7253 23.4266 49.8433 23.8574 50.0991C24.2883 50.3549 24.6306 50.7363 24.8386 51.1922C24.8926 51.3484 24.9089 51.5151 24.886 51.6788C24.863 51.8425 24.8017 51.9984 24.7068 52.1338C24.3019 52.6516 23.2755 52.9153 21.5713 52.9153C21.204 52.9153 20.8651 52.9153 20.6297 52.9153H19.2078C18.9013 52.9357 18.5935 52.9103 18.2945 52.84Z" fill="black"/>
<path d="M16.5481 6.24904C17.8946 6.1643 19.2599 6.11721 20.597 6.11721C22.2636 6.11721 23.9585 6.19254 25.6157 6.32436H25.6722C25.7389 6.32569 25.8052 6.31339 25.867 6.28818C25.9288 6.26298 25.9847 6.22542 26.0315 6.17781C26.0782 6.1302 26.1147 6.07352 26.1388 6.01129C26.1628 5.94906 26.1739 5.88258 26.1713 5.81592C26.1817 5.66253 26.1311 5.51121 26.0307 5.39486C25.9302 5.2785 25.7878 5.2065 25.6346 5.19446C23.9679 5.06263 22.2731 4.9873 20.597 4.9873C19.2599 4.9873 17.8852 5.03437 16.5387 5.11911C16.4624 5.12386 16.3878 5.14382 16.3192 5.17779C16.2507 5.21177 16.1897 5.25907 16.1397 5.31696C16.0897 5.37484 16.0518 5.44214 16.0281 5.51489C16.0045 5.58763 15.9956 5.66436 16.002 5.74057C16.0018 5.81064 16.0161 5.88 16.044 5.94428C16.0719 6.00856 16.1127 6.06639 16.164 6.11413C16.2153 6.16187 16.2759 6.1985 16.342 6.22172C16.4081 6.24494 16.4783 6.25423 16.5481 6.24904Z" fill="black"/>
<path d="M10.9584 11.4377H10.8172H10.2899H9.64018C8.8869 11.4377 7.98295 11.5412 7.70989 12.3793C7.39879 13.7428 7.39879 15.1588 7.70989 16.5223C7.76638 16.9272 7.82288 17.3226 7.86055 17.6899C7.87486 17.8405 7.94619 17.98 8.05997 18.0798C8.17375 18.1796 8.32135 18.2321 8.47258 18.2266C8.54671 18.2277 8.62024 18.2132 8.68838 18.184C8.75653 18.1548 8.81777 18.1116 8.86806 18.0571C8.91383 18.0046 8.9483 17.9432 8.96936 17.8768C8.99041 17.8104 8.99761 17.7404 8.99048 17.671L8.89631 16.8613C8.80215 15.9762 8.708 15.0628 8.69858 14.1589V13.8858C8.69858 13.3491 8.69857 12.85 9.06579 12.6806C9.30834 12.5998 9.56373 12.5647 9.81906 12.577H10.4029H10.8737H10.9867C11.0621 12.5734 11.1361 12.5549 11.2044 12.5226C11.2727 12.4904 11.334 12.445 11.3847 12.389C11.4355 12.333 11.4747 12.2676 11.5001 12.1964C11.5255 12.1253 11.5366 12.0498 11.5328 11.9744C11.5344 11.9002 11.5203 11.8265 11.4915 11.7581C11.4627 11.6897 11.4198 11.6282 11.3656 11.5775C11.3114 11.5269 11.2471 11.4883 11.1769 11.4642C11.1068 11.44 11.0323 11.431 10.9584 11.4377Z" fill="black"/>
</g>
<defs>
<clipPath id="clip0_1782_15460">
<rect width="40.9125" height="55.7709" fill="white" transform="translate(0.335938 0.826172)"/>
</clipPath>
</defs>
</svg>
