<svg width="60" height="60" viewBox="0 0 60 60" fill="none" xmlns="http://www.w3.org/2000/svg">
<path d="M19.2263 30.7141L13.0518 36.8886C12.8513 37.0888 12.596 37.2251 12.3182 37.2803C12.0403 37.3355 11.7523 37.3071 11.4906 37.1987C11.2288 37.0904 11.0051 36.9068 10.8476 36.6714C10.69 36.4359 10.6058 36.159 10.6056 35.8757V30.7141H4.19771C3.28332 30.7141 2.40638 30.3509 1.75981 29.7043C1.11324 29.0577 0.75 28.1808 0.75 27.2664V9.44865C0.75 8.53418 1.11321 7.65714 1.75975 7.01042C2.4063 6.3637 3.28323 6.00025 4.19771 6H30.1174C31.0319 6.00025 31.9088 6.3637 32.5554 7.01042C33.2019 7.65714 33.5651 8.53418 33.5651 9.44865V27.2664C33.5651 27.7191 33.4759 28.1675 33.3027 28.5858C33.1294 29.0041 32.8755 29.3841 32.5553 29.7043C32.2352 30.0244 31.8551 30.2784 31.4368 30.4517C31.0185 30.6249 30.5702 30.7141 30.1174 30.7141H19.2263Z" fill="white" stroke="black" stroke-width="0.944836" stroke-linecap="round" stroke-linejoin="round"/>
<path d="M24.4643 23.6003C24.6793 23.3849 24.8 23.093 24.8 22.7887C24.8 22.4844 24.6793 22.1925 24.4643 21.9771L21.2179 18.7306C21.1104 18.6229 21.05 18.477 21.05 18.3248C21.05 18.1726 21.1104 18.0267 21.2179 17.919L24.4643 14.6725C24.6793 14.4571 24.8 14.1652 24.8 13.8609C24.8 13.5566 24.6793 13.2647 24.4643 13.0493L22.4348 11.0198C22.2194 10.8048 21.9275 10.6841 21.6232 10.6841C21.3189 10.6841 21.027 10.8048 20.8116 11.0198L17.5651 14.2663C17.5119 14.3197 17.4487 14.3621 17.379 14.3911C17.3094 14.42 17.2347 14.4349 17.1593 14.4349C17.0839 14.4349 17.0092 14.42 16.9396 14.3911C16.8699 14.3621 16.8067 14.3197 16.7535 14.2663L13.508 11.0198C13.2926 10.8048 13.0007 10.6841 12.6964 10.6841C12.392 10.6841 12.1002 10.8048 11.8848 11.0198L9.85525 13.0493C9.64027 13.2647 9.51953 13.5566 9.51953 13.8609C9.51953 14.1652 9.64027 14.4571 9.85525 14.6725L13.1017 17.919C13.2092 18.0267 13.2696 18.1726 13.2696 18.3248C13.2696 18.477 13.2092 18.6229 13.1017 18.7306L9.85525 21.9771C9.64027 22.1925 9.51953 22.4844 9.51953 22.7887C9.51953 23.093 9.64027 23.3849 9.85525 23.6003L11.8829 25.6289C12.0983 25.8438 12.3902 25.9646 12.6945 25.9646C12.9988 25.9646 13.2907 25.8438 13.5061 25.6289L16.7516 22.3824C16.8593 22.2749 17.0053 22.2145 17.1574 22.2145C17.3096 22.2145 17.4555 22.2749 17.5632 22.3824L20.8097 25.6289C21.0251 25.8438 21.317 25.9646 21.6213 25.9646C21.9256 25.9646 22.2175 25.8438 22.4329 25.6289L24.4643 23.6003Z" stroke="black" stroke-width="0.944836" stroke-linecap="round" stroke-linejoin="round"/>
<path d="M36.4252 47.0604L42.5439 53.1801C42.742 53.3802 42.9952 53.5167 43.2712 53.5724C43.5472 53.628 43.8335 53.6001 44.0936 53.4924C44.3537 53.3846 44.5758 53.2018 44.7316 52.9674C44.8874 52.7329 44.9698 52.4573 44.9684 52.1757V47.0604H55.834C56.7404 47.0604 57.6096 46.7003 58.2505 46.0594C58.8914 45.4185 59.2515 44.5493 59.2515 43.6429V25.9849C59.2515 25.0785 58.8914 24.2092 58.2505 23.5683C57.6096 22.9274 56.7404 22.5674 55.834 22.5674H30.1401C29.2338 22.5674 28.3645 22.9274 27.7236 23.5683C27.0827 24.2092 26.7227 25.0785 26.7227 25.9849V43.6429C26.7227 44.5493 27.0827 45.4185 27.7236 46.0594C28.3645 46.7003 29.2338 47.0604 30.1401 47.0604H36.4252Z" fill="white" stroke="black" stroke-width="0.944836" stroke-linecap="round" stroke-linejoin="round"/>
<path d="M52.0501 31.6997C52.3348 31.4648 52.5147 31.1265 52.5501 30.759C52.5856 30.3916 52.4737 30.0251 52.239 29.7401L50.6914 27.859C50.4567 27.5743 50.1185 27.3944 49.7512 27.359C49.3839 27.3235 49.0176 27.4354 48.7327 27.67L39.8654 34.966L37.8756 32.5472C37.6409 32.2625 37.3027 32.0827 36.9354 32.0473C36.5681 32.0118 36.2018 32.1237 35.917 32.3583L34.0358 33.9059C33.751 34.1408 33.5712 34.4792 33.5357 34.8466C33.5003 35.214 33.6122 35.5805 33.8468 35.8655L35.8367 38.2843L38.2687 41.2397C38.5034 41.5245 38.8416 41.7043 39.2089 41.7397C39.5762 41.7752 39.9425 41.6633 40.2273 41.4287L43.1837 38.9967L52.0501 31.6997Z" fill="#00FA9A" stroke="black" stroke-width="0.944836" stroke-linecap="round" stroke-linejoin="round"/>
</svg>
