<svg width="1280" height="96" viewBox="0 0 1280 96" fill="none" xmlns="http://www.w3.org/2000/svg">
<g clip-path="url(#clip0)">
<rect width="1280" height="96" fill="white"/>
<circle cx="2.51988" cy="10.0197" r="2.50064" fill="black"/>
<circle cx="17.5237" cy="10.0197" r="2.50064" fill="black"/>
<circle cx="32.5276" cy="10.0197" r="2.50064" fill="black"/>
<circle cx="47.5314" cy="10.0197" r="2.50064" fill="black"/>
<circle cx="62.5353" cy="10.0197" r="2.50064" fill="black"/>
<circle cx="77.5391" cy="10.0197" r="2.50064" fill="black"/>
<circle cx="92.543" cy="10.0197" r="2.50064" fill="black"/>
<circle cx="107.547" cy="10.0197" r="2.50064" fill="black"/>
<circle cx="122.551" cy="10.0197" r="2.50064" fill="black"/>
<circle cx="137.554" cy="10.0197" r="2.50064" fill="black"/>
<circle cx="152.558" cy="10.0197" r="2.50064" fill="black"/>
<circle cx="167.562" cy="10.0197" r="2.50064" fill="black"/>
<circle cx="182.566" cy="10.0197" r="2.50064" fill="black"/>
<circle cx="197.57" cy="10.0197" r="2.50064" fill="black"/>
<circle cx="212.574" cy="10.0197" r="2.50064" fill="black"/>
<circle cx="227.578" cy="10.0197" r="2.50064" fill="black"/>
<circle cx="242.581" cy="10.0197" r="2.50064" fill="black"/>
<circle cx="257.585" cy="10.0197" r="2.50064" fill="black"/>
<circle cx="272.589" cy="10.0197" r="2.50064" fill="black"/>
<circle cx="2.51988" cy="25.0236" r="2.50064" fill="black"/>
<circle cx="17.5237" cy="25.0236" r="2.50064" fill="black"/>
<circle cx="32.5276" cy="25.0236" r="2.50064" fill="black"/>
<circle cx="47.5314" cy="25.0236" r="2.50064" fill="black"/>
<circle cx="62.5353" cy="25.0236" r="2.50064" fill="black"/>
<circle cx="77.5391" cy="25.0236" r="2.50064" fill="black"/>
<circle cx="92.543" cy="25.0236" r="2.50064" fill="black"/>
<circle cx="107.547" cy="25.0236" r="2.50064" fill="black"/>
<circle cx="122.551" cy="25.0236" r="2.50064" fill="black"/>
<circle cx="137.554" cy="25.0236" r="2.50064" fill="black"/>
<circle cx="152.558" cy="25.0236" r="2.50064" fill="black"/>
<circle cx="167.562" cy="25.0236" r="2.50064" fill="black"/>
<circle cx="182.566" cy="25.0236" r="2.50064" fill="black"/>
<circle cx="197.57" cy="25.0236" r="2.50064" fill="black"/>
<circle cx="212.574" cy="25.0236" r="2.50064" fill="black"/>
<circle cx="227.578" cy="25.0236" r="2.50064" fill="black"/>
<circle cx="242.581" cy="25.0236" r="2.50064" fill="black"/>
<circle cx="257.585" cy="25.0236" r="2.50064" fill="black"/>
<circle cx="272.589" cy="25.0236" r="2.50064" fill="black"/>
<circle cx="2.51988" cy="40.0275" r="2.50064" fill="black"/>
<circle cx="17.5237" cy="40.0275" r="2.50064" fill="black"/>
<circle cx="32.5276" cy="40.0275" r="2.50064" fill="black"/>
<circle cx="47.5314" cy="40.0275" r="2.50064" fill="black"/>
<circle cx="62.5353" cy="40.0275" r="2.50064" fill="black"/>
<circle cx="77.5391" cy="40.0275" r="2.50064" fill="black"/>
<circle cx="92.543" cy="40.0275" r="2.50064" fill="black"/>
<circle cx="107.547" cy="40.0275" r="2.50064" fill="black"/>
<circle cx="122.551" cy="40.0275" r="2.50064" fill="black"/>
<circle cx="137.554" cy="40.0275" r="2.50064" fill="black"/>
<circle cx="152.558" cy="40.0275" r="2.50064" fill="black"/>
<circle cx="167.562" cy="40.0275" r="2.50064" fill="black"/>
<circle cx="182.566" cy="40.0275" r="2.50064" fill="black"/>
<circle cx="197.57" cy="40.0275" r="2.50064" fill="black"/>
<circle cx="212.574" cy="40.0275" r="2.50064" fill="black"/>
<circle cx="227.578" cy="40.0275" r="2.50064" fill="black"/>
<circle cx="242.581" cy="40.0275" r="2.50064" fill="black"/>
<circle cx="257.585" cy="40.0275" r="2.50064" fill="black"/>
<circle cx="272.589" cy="40.0275" r="2.50064" fill="black"/>
<circle cx="2.51988" cy="55.0314" r="2.50064" fill="black"/>
<circle cx="17.5237" cy="55.0314" r="2.50064" fill="black"/>
<circle cx="32.5276" cy="55.0314" r="2.50064" fill="black"/>
<circle cx="47.5314" cy="55.0314" r="2.50064" fill="black"/>
<circle cx="62.5353" cy="55.0314" r="2.50064" fill="black"/>
<circle cx="77.5391" cy="55.0314" r="2.50064" fill="black"/>
<circle cx="92.543" cy="55.0314" r="2.50064" fill="black"/>
<circle cx="107.547" cy="55.0314" r="2.50064" fill="black"/>
<circle cx="122.551" cy="55.0314" r="2.50064" fill="black"/>
<circle cx="137.554" cy="55.0314" r="2.50064" fill="black"/>
<circle cx="152.558" cy="55.0314" r="2.50064" fill="black"/>
<circle cx="167.562" cy="55.0314" r="2.50064" fill="black"/>
<circle cx="182.566" cy="55.0314" r="2.50064" fill="black"/>
<circle cx="197.57" cy="55.0314" r="2.50064" fill="black"/>
<circle cx="212.574" cy="55.0314" r="2.50064" fill="black"/>
<circle cx="227.578" cy="55.0314" r="2.50064" fill="black"/>
<circle cx="242.581" cy="55.0314" r="2.50064" fill="black"/>
<circle cx="257.585" cy="55.0314" r="2.50064" fill="black"/>
<circle cx="272.589" cy="55.0314" r="2.50064" fill="black"/>
<circle cx="2.51988" cy="70.0353" r="2.50064" fill="black"/>
<circle cx="17.5237" cy="70.0353" r="2.50064" fill="black"/>
<circle cx="32.5276" cy="70.0353" r="2.50064" fill="black"/>
<circle cx="47.5314" cy="70.0353" r="2.50064" fill="black"/>
<circle cx="62.5353" cy="70.0353" r="2.50064" fill="black"/>
<circle cx="77.5391" cy="70.0353" r="2.50064" fill="black"/>
<circle cx="92.543" cy="70.0353" r="2.50064" fill="black"/>
<circle cx="107.547" cy="70.0353" r="2.50064" fill="black"/>
<circle cx="122.551" cy="70.0353" r="2.50064" fill="black"/>
<circle cx="137.554" cy="70.0353" r="2.50064" fill="black"/>
<circle cx="152.558" cy="70.0353" r="2.50064" fill="black"/>
<circle cx="167.562" cy="70.0353" r="2.50064" fill="black"/>
<circle cx="182.566" cy="70.0353" r="2.50064" fill="black"/>
<circle cx="197.57" cy="70.0353" r="2.50064" fill="black"/>
<circle cx="212.574" cy="70.0353" r="2.50064" fill="black"/>
<circle cx="227.578" cy="70.0353" r="2.50064" fill="black"/>
<circle cx="242.581" cy="70.0353" r="2.50064" fill="black"/>
<circle cx="257.585" cy="70.0353" r="2.50064" fill="black"/>
<circle cx="272.589" cy="70.0353" r="2.50064" fill="black"/>
<circle cx="2.51988" cy="85.0392" r="2.50064" fill="black"/>
<circle cx="17.5237" cy="85.0392" r="2.50064" fill="black"/>
<circle cx="32.5276" cy="85.0392" r="2.50064" fill="black"/>
<circle cx="47.5314" cy="85.0392" r="2.50064" fill="black"/>
<circle cx="62.5353" cy="85.0392" r="2.50064" fill="black"/>
<circle cx="77.5391" cy="85.0392" r="2.50064" fill="black"/>
<circle cx="92.543" cy="85.0392" r="2.50064" fill="black"/>
<circle cx="107.547" cy="85.0392" r="2.50064" fill="black"/>
<circle cx="122.551" cy="85.0392" r="2.50064" fill="black"/>
<circle cx="137.554" cy="85.0392" r="2.50064" fill="black"/>
<circle cx="152.558" cy="85.0392" r="2.50064" fill="black"/>
<circle cx="167.562" cy="85.0392" r="2.50064" fill="black"/>
<circle cx="182.566" cy="85.0392" r="2.50064" fill="black"/>
<circle cx="197.57" cy="85.0392" r="2.50064" fill="black"/>
<circle cx="212.574" cy="85.0392" r="2.50064" fill="black"/>
<circle cx="227.578" cy="85.0392" r="2.50064" fill="black"/>
<circle cx="242.581" cy="85.0392" r="2.50064" fill="black"/>
<circle cx="257.585" cy="85.0392" r="2.50064" fill="black"/>
<circle cx="272.589" cy="85.0392" r="2.50064" fill="black"/>
<circle cx="287.797" cy="10.0197" r="2.50064" fill="black"/>
<circle cx="302.801" cy="10.0197" r="2.50064" fill="black"/>
<circle cx="317.805" cy="10.0197" r="2.50064" fill="black"/>
<circle cx="332.809" cy="10.0197" r="2.50064" fill="black"/>
<circle cx="347.813" cy="10.0197" r="2.50064" fill="black"/>
<circle cx="362.816" cy="10.0197" r="2.50064" fill="black"/>
<circle cx="377.82" cy="10.0197" r="2.50064" fill="black"/>
<circle cx="392.824" cy="10.0197" r="2.50064" fill="black"/>
<circle cx="407.828" cy="10.0197" r="2.50064" fill="black"/>
<circle cx="422.832" cy="10.0197" r="2.50064" fill="black"/>
<circle cx="437.836" cy="10.0197" r="2.50064" fill="black"/>
<circle cx="452.839" cy="10.0197" r="2.50064" fill="black"/>
<circle cx="467.843" cy="10.0197" r="2.50064" fill="black"/>
<circle cx="482.847" cy="10.0197" r="2.50064" fill="black"/>
<circle cx="497.851" cy="10.0197" r="2.50064" fill="black"/>
<circle cx="512.855" cy="10.0197" r="2.50064" fill="black"/>
<circle cx="527.859" cy="10.0197" r="2.50064" fill="black"/>
<circle cx="542.863" cy="10.0197" r="2.50064" fill="black"/>
<circle cx="557.866" cy="10.0197" r="2.50064" fill="black"/>
<circle cx="572.87" cy="10.0197" r="2.50064" fill="black"/>
<circle cx="587.874" cy="10.0197" r="2.50064" fill="black"/>
<circle cx="602.878" cy="10.0197" r="2.50064" fill="black"/>
<circle cx="617.882" cy="10.0197" r="2.50064" fill="black"/>
<circle cx="632.886" cy="10.0197" r="2.50064" fill="black"/>
<circle cx="287.797" cy="25.0236" r="2.50064" fill="black"/>
<circle cx="302.801" cy="25.0236" r="2.50064" fill="black"/>
<circle cx="317.805" cy="25.0236" r="2.50064" fill="black"/>
<circle cx="332.809" cy="25.0236" r="2.50064" fill="black"/>
<circle cx="347.813" cy="25.0236" r="2.50064" fill="black"/>
<circle cx="362.816" cy="25.0236" r="2.50064" fill="black"/>
<circle cx="377.82" cy="25.0236" r="2.50064" fill="black"/>
<circle cx="392.824" cy="25.0236" r="2.50064" fill="black"/>
<circle cx="407.828" cy="25.0236" r="2.50064" fill="black"/>
<circle cx="422.832" cy="25.0236" r="2.50064" fill="black"/>
<circle cx="437.836" cy="25.0236" r="2.50064" fill="black"/>
<circle cx="452.839" cy="25.0236" r="2.50064" fill="black"/>
<circle cx="467.843" cy="25.0236" r="2.50064" fill="black"/>
<circle cx="482.847" cy="25.0236" r="2.50064" fill="black"/>
<circle cx="497.851" cy="25.0236" r="2.50064" fill="black"/>
<circle cx="512.855" cy="25.0236" r="2.50064" fill="black"/>
<circle cx="527.859" cy="25.0236" r="2.50064" fill="black"/>
<circle cx="542.863" cy="25.0236" r="2.50064" fill="black"/>
<circle cx="557.866" cy="25.0236" r="2.50064" fill="black"/>
<circle cx="572.87" cy="25.0236" r="2.50064" fill="black"/>
<circle cx="587.874" cy="25.0236" r="2.50064" fill="black"/>
<circle cx="602.878" cy="25.0236" r="2.50064" fill="black"/>
<circle cx="617.882" cy="25.0236" r="2.50064" fill="black"/>
<circle cx="632.886" cy="25.0236" r="2.50064" fill="black"/>
<circle cx="287.797" cy="40.0275" r="2.50064" fill="black"/>
<circle cx="302.801" cy="40.0275" r="2.50064" fill="black"/>
<circle cx="317.805" cy="40.0275" r="2.50064" fill="black"/>
<circle cx="332.809" cy="40.0275" r="2.50064" fill="black"/>
<circle cx="347.813" cy="40.0275" r="2.50064" fill="black"/>
<circle cx="362.816" cy="40.0275" r="2.50064" fill="black"/>
<circle cx="377.82" cy="40.0275" r="2.50064" fill="black"/>
<circle cx="392.824" cy="40.0275" r="2.50064" fill="black"/>
<circle cx="407.828" cy="40.0275" r="2.50064" fill="black"/>
<circle cx="422.832" cy="40.0275" r="2.50064" fill="black"/>
<circle cx="437.836" cy="40.0275" r="2.50064" fill="black"/>
<circle cx="452.839" cy="40.0275" r="2.50064" fill="black"/>
<circle cx="467.843" cy="40.0275" r="2.50064" fill="black"/>
<circle cx="482.847" cy="40.0275" r="2.50064" fill="black"/>
<circle cx="497.851" cy="40.0275" r="2.50064" fill="black"/>
<circle cx="512.855" cy="40.0275" r="2.50064" fill="black"/>
<circle cx="527.859" cy="40.0275" r="2.50064" fill="black"/>
<circle cx="542.863" cy="40.0275" r="2.50064" fill="black"/>
<circle cx="557.866" cy="40.0275" r="2.50064" fill="black"/>
<circle cx="572.87" cy="40.0275" r="2.50064" fill="black"/>
<circle cx="587.874" cy="40.0275" r="2.50064" fill="black"/>
<circle cx="602.878" cy="40.0275" r="2.50064" fill="black"/>
<circle cx="617.882" cy="40.0275" r="2.50064" fill="black"/>
<circle cx="632.886" cy="40.0275" r="2.50064" fill="black"/>
<circle cx="287.797" cy="55.0314" r="2.50064" fill="black"/>
<circle cx="302.801" cy="55.0314" r="2.50064" fill="black"/>
<circle cx="317.805" cy="55.0314" r="2.50064" fill="black"/>
<circle cx="332.809" cy="55.0314" r="2.50064" fill="black"/>
<circle cx="347.813" cy="55.0314" r="2.50064" fill="black"/>
<circle cx="362.816" cy="55.0314" r="2.50064" fill="black"/>
<circle cx="377.82" cy="55.0314" r="2.50064" fill="black"/>
<circle cx="392.824" cy="55.0314" r="2.50064" fill="black"/>
<circle cx="407.828" cy="55.0314" r="2.50064" fill="black"/>
<circle cx="422.832" cy="55.0314" r="2.50064" fill="black"/>
<circle cx="437.836" cy="55.0314" r="2.50064" fill="black"/>
<circle cx="452.839" cy="55.0314" r="2.50064" fill="black"/>
<circle cx="467.843" cy="55.0314" r="2.50064" fill="black"/>
<circle cx="482.847" cy="55.0314" r="2.50064" fill="black"/>
<circle cx="497.851" cy="55.0314" r="2.50064" fill="black"/>
<circle cx="512.855" cy="55.0314" r="2.50064" fill="black"/>
<circle cx="527.859" cy="55.0314" r="2.50064" fill="black"/>
<circle cx="542.863" cy="55.0314" r="2.50064" fill="black"/>
<circle cx="557.866" cy="55.0314" r="2.50064" fill="black"/>
<circle cx="572.87" cy="55.0314" r="2.50064" fill="black"/>
<circle cx="587.874" cy="55.0314" r="2.50064" fill="black"/>
<circle cx="602.878" cy="55.0314" r="2.50064" fill="black"/>
<circle cx="617.882" cy="55.0314" r="2.50064" fill="black"/>
<circle cx="632.886" cy="55.0314" r="2.50064" fill="black"/>
<circle cx="287.797" cy="70.0353" r="2.50064" fill="black"/>
<circle cx="302.801" cy="70.0353" r="2.50064" fill="black"/>
<circle cx="317.805" cy="70.0353" r="2.50064" fill="black"/>
<circle cx="332.809" cy="70.0353" r="2.50064" fill="black"/>
<circle cx="347.813" cy="70.0353" r="2.50064" fill="black"/>
<circle cx="362.816" cy="70.0353" r="2.50064" fill="black"/>
<circle cx="377.82" cy="70.0353" r="2.50064" fill="black"/>
<circle cx="392.824" cy="70.0353" r="2.50064" fill="black"/>
<circle cx="407.828" cy="70.0353" r="2.50064" fill="black"/>
<circle cx="422.832" cy="70.0353" r="2.50064" fill="black"/>
<circle cx="437.836" cy="70.0353" r="2.50064" fill="black"/>
<circle cx="452.839" cy="70.0353" r="2.50064" fill="black"/>
<circle cx="467.843" cy="70.0353" r="2.50064" fill="black"/>
<circle cx="482.847" cy="70.0353" r="2.50064" fill="black"/>
<circle cx="497.851" cy="70.0353" r="2.50064" fill="black"/>
<circle cx="512.855" cy="70.0353" r="2.50064" fill="black"/>
<circle cx="527.859" cy="70.0353" r="2.50064" fill="black"/>
<circle cx="542.863" cy="70.0353" r="2.50064" fill="black"/>
<circle cx="557.866" cy="70.0353" r="2.50064" fill="black"/>
<circle cx="572.87" cy="70.0353" r="2.50064" fill="black"/>
<circle cx="587.874" cy="70.0353" r="2.50064" fill="black"/>
<circle cx="602.878" cy="70.0353" r="2.50064" fill="black"/>
<circle cx="617.882" cy="70.0353" r="2.50064" fill="black"/>
<circle cx="632.886" cy="70.0353" r="2.50064" fill="black"/>
<circle cx="287.797" cy="85.0392" r="2.50064" fill="black"/>
<circle cx="302.801" cy="85.0392" r="2.50064" fill="black"/>
<circle cx="317.805" cy="85.0392" r="2.50064" fill="black"/>
<circle cx="332.809" cy="85.0392" r="2.50064" fill="black"/>
<circle cx="347.813" cy="85.0392" r="2.50064" fill="black"/>
<circle cx="362.816" cy="85.0392" r="2.50064" fill="black"/>
<circle cx="377.82" cy="85.0392" r="2.50064" fill="black"/>
<circle cx="392.824" cy="85.0392" r="2.50064" fill="black"/>
<circle cx="407.828" cy="85.0392" r="2.50064" fill="black"/>
<circle cx="422.832" cy="85.0392" r="2.50064" fill="black"/>
<circle cx="437.836" cy="85.0392" r="2.50064" fill="black"/>
<circle cx="452.839" cy="85.0392" r="2.50064" fill="black"/>
<circle cx="467.843" cy="85.0392" r="2.50064" fill="black"/>
<circle cx="482.847" cy="85.0392" r="2.50064" fill="black"/>
<circle cx="497.851" cy="85.0392" r="2.50064" fill="black"/>
<circle cx="512.855" cy="85.0392" r="2.50064" fill="black"/>
<circle cx="527.859" cy="85.0392" r="2.50064" fill="black"/>
<circle cx="542.863" cy="85.0392" r="2.50064" fill="black"/>
<circle cx="557.866" cy="85.0392" r="2.50064" fill="black"/>
<circle cx="572.87" cy="85.0392" r="2.50064" fill="black"/>
<circle cx="587.874" cy="85.0392" r="2.50064" fill="black"/>
<circle cx="602.878" cy="85.0392" r="2.50064" fill="black"/>
<circle cx="617.882" cy="85.0392" r="2.50064" fill="black"/>
<circle cx="632.886" cy="85.0392" r="2.50064" fill="black"/>
<circle cx="648.094" cy="10.0197" r="2.50064" fill="black"/>
<circle cx="663.098" cy="10.0197" r="2.50064" fill="black"/>
<circle cx="678.101" cy="10.0197" r="2.50064" fill="black"/>
<circle cx="693.105" cy="10.0197" r="2.50064" fill="black"/>
<circle cx="708.109" cy="10.0197" r="2.50064" fill="black"/>
<circle cx="723.113" cy="10.0197" r="2.50064" fill="black"/>
<circle cx="738.117" cy="10.0197" r="2.50064" fill="black"/>
<circle cx="753.121" cy="10.0197" r="2.50064" fill="black"/>
<circle cx="768.125" cy="10.0197" r="2.50064" fill="black"/>
<circle cx="783.128" cy="10.0197" r="2.50064" fill="black"/>
<circle cx="798.132" cy="10.0197" r="2.50064" fill="black"/>
<circle cx="813.136" cy="10.0197" r="2.50064" fill="black"/>
<circle cx="828.14" cy="10.0197" r="2.50064" fill="black"/>
<circle cx="843.144" cy="10.0197" r="2.50064" fill="black"/>
<circle cx="858.148" cy="10.0197" r="2.50064" fill="black"/>
<circle cx="873.151" cy="10.0197" r="2.50064" fill="black"/>
<circle cx="888.155" cy="10.0197" r="2.50064" fill="black"/>
<circle cx="903.159" cy="10.0197" r="2.50064" fill="black"/>
<circle cx="918.163" cy="10.0197" r="2.50064" fill="black"/>
<circle cx="933.167" cy="10.0197" r="2.50064" fill="black"/>
<circle cx="948.171" cy="10.0197" r="2.50064" fill="black"/>
<circle cx="963.174" cy="10.0197" r="2.50064" fill="black"/>
<circle cx="978.178" cy="10.0197" r="2.50064" fill="black"/>
<circle cx="993.182" cy="10.0197" r="2.50064" fill="black"/>
<circle cx="648.094" cy="25.0236" r="2.50064" fill="black"/>
<circle cx="663.098" cy="25.0236" r="2.50064" fill="black"/>
<circle cx="678.101" cy="25.0236" r="2.50064" fill="black"/>
<circle cx="693.105" cy="25.0236" r="2.50064" fill="black"/>
<circle cx="708.109" cy="25.0236" r="2.50064" fill="black"/>
<circle cx="723.113" cy="25.0236" r="2.50064" fill="black"/>
<circle cx="738.117" cy="25.0236" r="2.50064" fill="black"/>
<circle cx="753.121" cy="25.0236" r="2.50064" fill="black"/>
<circle cx="768.125" cy="25.0236" r="2.50064" fill="black"/>
<circle cx="783.128" cy="25.0236" r="2.50064" fill="black"/>
<circle cx="798.132" cy="25.0236" r="2.50064" fill="black"/>
<circle cx="813.136" cy="25.0236" r="2.50064" fill="black"/>
<circle cx="828.14" cy="25.0236" r="2.50064" fill="black"/>
<circle cx="843.144" cy="25.0236" r="2.50064" fill="black"/>
<circle cx="858.148" cy="25.0236" r="2.50064" fill="black"/>
<circle cx="873.151" cy="25.0236" r="2.50064" fill="black"/>
<circle cx="888.155" cy="25.0236" r="2.50064" fill="black"/>
<circle cx="903.159" cy="25.0236" r="2.50064" fill="black"/>
<circle cx="918.163" cy="25.0236" r="2.50064" fill="black"/>
<circle cx="933.167" cy="25.0236" r="2.50064" fill="black"/>
<circle cx="948.171" cy="25.0236" r="2.50064" fill="black"/>
<circle cx="963.174" cy="25.0236" r="2.50064" fill="black"/>
<circle cx="978.178" cy="25.0236" r="2.50064" fill="black"/>
<circle cx="993.182" cy="25.0236" r="2.50064" fill="black"/>
<circle cx="648.094" cy="40.0275" r="2.50064" fill="black"/>
<circle cx="663.098" cy="40.0275" r="2.50064" fill="black"/>
<circle cx="678.101" cy="40.0275" r="2.50064" fill="black"/>
<circle cx="693.105" cy="40.0275" r="2.50064" fill="black"/>
<circle cx="708.109" cy="40.0275" r="2.50064" fill="black"/>
<circle cx="723.113" cy="40.0275" r="2.50064" fill="black"/>
<circle cx="738.117" cy="40.0275" r="2.50064" fill="black"/>
<circle cx="753.121" cy="40.0275" r="2.50064" fill="black"/>
<circle cx="768.125" cy="40.0275" r="2.50064" fill="black"/>
<circle cx="783.128" cy="40.0275" r="2.50064" fill="black"/>
<circle cx="798.132" cy="40.0275" r="2.50064" fill="black"/>
<circle cx="813.136" cy="40.0275" r="2.50064" fill="black"/>
<circle cx="828.14" cy="40.0275" r="2.50064" fill="black"/>
<circle cx="843.144" cy="40.0275" r="2.50064" fill="black"/>
<circle cx="858.148" cy="40.0275" r="2.50064" fill="black"/>
<circle cx="873.152" cy="40.0275" r="2.50064" fill="black"/>
<circle cx="888.155" cy="40.0275" r="2.50064" fill="black"/>
<circle cx="903.159" cy="40.0275" r="2.50064" fill="black"/>
<circle cx="918.163" cy="40.0275" r="2.50064" fill="black"/>
<circle cx="933.167" cy="40.0275" r="2.50064" fill="black"/>
<circle cx="948.171" cy="40.0275" r="2.50064" fill="black"/>
<circle cx="963.174" cy="40.0275" r="2.50064" fill="black"/>
<circle cx="978.178" cy="40.0275" r="2.50064" fill="black"/>
<circle cx="993.182" cy="40.0275" r="2.50064" fill="black"/>
<circle cx="648.094" cy="55.0314" r="2.50064" fill="black"/>
<circle cx="663.098" cy="55.0314" r="2.50064" fill="black"/>
<circle cx="678.101" cy="55.0314" r="2.50064" fill="black"/>
<circle cx="693.105" cy="55.0314" r="2.50064" fill="black"/>
<circle cx="708.109" cy="55.0314" r="2.50064" fill="black"/>
<circle cx="723.113" cy="55.0314" r="2.50064" fill="black"/>
<circle cx="738.117" cy="55.0314" r="2.50064" fill="black"/>
<circle cx="753.121" cy="55.0314" r="2.50064" fill="black"/>
<circle cx="768.125" cy="55.0314" r="2.50064" fill="black"/>
<circle cx="783.128" cy="55.0314" r="2.50064" fill="black"/>
<circle cx="798.132" cy="55.0314" r="2.50064" fill="black"/>
<circle cx="813.136" cy="55.0314" r="2.50064" fill="black"/>
<circle cx="828.14" cy="55.0314" r="2.50064" fill="black"/>
<circle cx="843.144" cy="55.0314" r="2.50064" fill="black"/>
<circle cx="858.148" cy="55.0314" r="2.50064" fill="black"/>
<circle cx="873.152" cy="55.0314" r="2.50064" fill="black"/>
<circle cx="888.155" cy="55.0314" r="2.50064" fill="black"/>
<circle cx="903.159" cy="55.0314" r="2.50064" fill="black"/>
<circle cx="918.163" cy="55.0314" r="2.50064" fill="black"/>
<circle cx="933.167" cy="55.0314" r="2.50064" fill="black"/>
<circle cx="948.171" cy="55.0314" r="2.50064" fill="black"/>
<circle cx="963.174" cy="55.0314" r="2.50064" fill="black"/>
<circle cx="978.178" cy="55.0314" r="2.50064" fill="black"/>
<circle cx="993.182" cy="55.0314" r="2.50064" fill="black"/>
<circle cx="648.094" cy="70.0353" r="2.50064" fill="black"/>
<circle cx="663.098" cy="70.0353" r="2.50064" fill="black"/>
<circle cx="678.101" cy="70.0353" r="2.50064" fill="black"/>
<circle cx="693.105" cy="70.0353" r="2.50064" fill="black"/>
<circle cx="708.109" cy="70.0353" r="2.50064" fill="black"/>
<circle cx="723.113" cy="70.0353" r="2.50064" fill="black"/>
<circle cx="738.117" cy="70.0353" r="2.50064" fill="black"/>
<circle cx="753.121" cy="70.0353" r="2.50064" fill="black"/>
<circle cx="768.125" cy="70.0353" r="2.50064" fill="black"/>
<circle cx="783.128" cy="70.0353" r="2.50064" fill="black"/>
<circle cx="798.132" cy="70.0353" r="2.50064" fill="black"/>
<circle cx="813.136" cy="70.0353" r="2.50064" fill="black"/>
<circle cx="828.14" cy="70.0353" r="2.50064" fill="black"/>
<circle cx="843.144" cy="70.0353" r="2.50064" fill="black"/>
<circle cx="858.148" cy="70.0353" r="2.50064" fill="black"/>
<circle cx="873.151" cy="70.0353" r="2.50064" fill="black"/>
<circle cx="888.155" cy="70.0353" r="2.50064" fill="black"/>
<circle cx="903.159" cy="70.0353" r="2.50064" fill="black"/>
<circle cx="918.163" cy="70.0353" r="2.50064" fill="black"/>
<circle cx="933.167" cy="70.0353" r="2.50064" fill="black"/>
<circle cx="948.171" cy="70.0353" r="2.50064" fill="black"/>
<circle cx="963.174" cy="70.0353" r="2.50064" fill="black"/>
<circle cx="978.178" cy="70.0353" r="2.50064" fill="black"/>
<circle cx="993.182" cy="70.0353" r="2.50064" fill="black"/>
<circle cx="648.094" cy="85.0392" r="2.50064" fill="black"/>
<circle cx="663.098" cy="85.0392" r="2.50064" fill="black"/>
<circle cx="678.101" cy="85.0392" r="2.50064" fill="black"/>
<circle cx="693.105" cy="85.0392" r="2.50064" fill="black"/>
<circle cx="708.109" cy="85.0392" r="2.50064" fill="black"/>
<circle cx="723.113" cy="85.0392" r="2.50064" fill="black"/>
<circle cx="738.117" cy="85.0392" r="2.50064" fill="black"/>
<circle cx="753.121" cy="85.0392" r="2.50064" fill="black"/>
<circle cx="768.125" cy="85.0392" r="2.50064" fill="black"/>
<circle cx="783.128" cy="85.0392" r="2.50064" fill="black"/>
<circle cx="798.132" cy="85.0392" r="2.50064" fill="black"/>
<circle cx="813.136" cy="85.0392" r="2.50064" fill="black"/>
<circle cx="828.14" cy="85.0392" r="2.50064" fill="black"/>
<circle cx="843.144" cy="85.0392" r="2.50064" fill="black"/>
<circle cx="858.148" cy="85.0392" r="2.50064" fill="black"/>
<circle cx="873.151" cy="85.0392" r="2.50064" fill="black"/>
<circle cx="888.155" cy="85.0392" r="2.50064" fill="black"/>
<circle cx="903.159" cy="85.0392" r="2.50064" fill="black"/>
<circle cx="918.163" cy="85.0392" r="2.50064" fill="black"/>
<circle cx="933.167" cy="85.0392" r="2.50064" fill="black"/>
<circle cx="948.171" cy="85.0392" r="2.50064" fill="black"/>
<circle cx="963.174" cy="85.0392" r="2.50064" fill="black"/>
<circle cx="978.178" cy="85.0392" r="2.50064" fill="black"/>
<circle cx="993.182" cy="85.0392" r="2.50064" fill="black"/>
<circle cx="1008.39" cy="10.0197" r="2.50064" fill="black"/>
<circle cx="1023.39" cy="10.0197" r="2.50064" fill="black"/>
<circle cx="1038.4" cy="10.0197" r="2.50064" fill="black"/>
<circle cx="1053.4" cy="10.0197" r="2.50064" fill="black"/>
<circle cx="1068.41" cy="10.0197" r="2.50064" fill="black"/>
<circle cx="1083.41" cy="10.0197" r="2.50064" fill="black"/>
<circle cx="1098.41" cy="10.0197" r="2.50064" fill="black"/>
<circle cx="1113.42" cy="10.0197" r="2.50064" fill="black"/>
<circle cx="1128.42" cy="10.0197" r="2.50064" fill="black"/>
<circle cx="1143.42" cy="10.0197" r="2.50064" fill="black"/>
<circle cx="1158.43" cy="10.0197" r="2.50064" fill="black"/>
<circle cx="1173.43" cy="10.0197" r="2.50064" fill="black"/>
<circle cx="1188.44" cy="10.0197" r="2.50064" fill="black"/>
<circle cx="1203.44" cy="10.0197" r="2.50064" fill="black"/>
<circle cx="1218.44" cy="10.0197" r="2.50064" fill="black"/>
<circle cx="1233.45" cy="10.0197" r="2.50064" fill="black"/>
<circle cx="1248.45" cy="10.0197" r="2.50064" fill="black"/>
<circle cx="1263.46" cy="10.0197" r="2.50064" fill="black"/>
<circle cx="1278.46" cy="10.0197" r="2.50064" fill="black"/>
<circle cx="1008.39" cy="25.0236" r="2.50064" fill="black"/>
<circle cx="1023.39" cy="25.0236" r="2.50064" fill="black"/>
<circle cx="1038.4" cy="25.0236" r="2.50064" fill="black"/>
<circle cx="1053.4" cy="25.0236" r="2.50064" fill="black"/>
<circle cx="1068.41" cy="25.0236" r="2.50064" fill="black"/>
<circle cx="1083.41" cy="25.0236" r="2.50064" fill="black"/>
<circle cx="1098.41" cy="25.0236" r="2.50064" fill="black"/>
<circle cx="1113.42" cy="25.0236" r="2.50064" fill="black"/>
<circle cx="1128.42" cy="25.0236" r="2.50064" fill="black"/>
<circle cx="1143.42" cy="25.0236" r="2.50064" fill="black"/>
<circle cx="1158.43" cy="25.0236" r="2.50064" fill="black"/>
<circle cx="1173.43" cy="25.0236" r="2.50064" fill="black"/>
<circle cx="1188.44" cy="25.0236" r="2.50064" fill="black"/>
<circle cx="1203.44" cy="25.0236" r="2.50064" fill="black"/>
<circle cx="1218.44" cy="25.0236" r="2.50064" fill="black"/>
<circle cx="1233.45" cy="25.0236" r="2.50064" fill="black"/>
<circle cx="1248.45" cy="25.0236" r="2.50064" fill="black"/>
<circle cx="1263.46" cy="25.0236" r="2.50064" fill="black"/>
<circle cx="1278.46" cy="25.0236" r="2.50064" fill="black"/>
<circle cx="1008.39" cy="40.0275" r="2.50064" fill="black"/>
<circle cx="1023.39" cy="40.0275" r="2.50064" fill="black"/>
<circle cx="1038.4" cy="40.0275" r="2.50064" fill="black"/>
<circle cx="1053.4" cy="40.0275" r="2.50064" fill="black"/>
<circle cx="1068.41" cy="40.0275" r="2.50064" fill="black"/>
<circle cx="1083.41" cy="40.0275" r="2.50064" fill="black"/>
<circle cx="1098.41" cy="40.0275" r="2.50064" fill="black"/>
<circle cx="1113.42" cy="40.0275" r="2.50064" fill="black"/>
<circle cx="1128.42" cy="40.0275" r="2.50064" fill="black"/>
<circle cx="1143.42" cy="40.0275" r="2.50064" fill="black"/>
<circle cx="1158.43" cy="40.0275" r="2.50064" fill="black"/>
<circle cx="1173.43" cy="40.0275" r="2.50064" fill="black"/>
<circle cx="1188.44" cy="40.0275" r="2.50064" fill="black"/>
<circle cx="1203.44" cy="40.0275" r="2.50064" fill="black"/>
<circle cx="1218.44" cy="40.0275" r="2.50064" fill="black"/>
<circle cx="1233.45" cy="40.0275" r="2.50064" fill="black"/>
<circle cx="1248.45" cy="40.0275" r="2.50064" fill="black"/>
<circle cx="1263.46" cy="40.0275" r="2.50064" fill="black"/>
<circle cx="1278.46" cy="40.0275" r="2.50064" fill="black"/>
<circle cx="1008.39" cy="55.0314" r="2.50064" fill="black"/>
<circle cx="1023.39" cy="55.0314" r="2.50064" fill="black"/>
<circle cx="1038.4" cy="55.0314" r="2.50064" fill="black"/>
<circle cx="1053.4" cy="55.0314" r="2.50064" fill="black"/>
<circle cx="1068.41" cy="55.0314" r="2.50064" fill="black"/>
<circle cx="1083.41" cy="55.0314" r="2.50064" fill="black"/>
<circle cx="1098.41" cy="55.0314" r="2.50064" fill="black"/>
<circle cx="1113.42" cy="55.0314" r="2.50064" fill="black"/>
<circle cx="1128.42" cy="55.0314" r="2.50064" fill="black"/>
<circle cx="1143.42" cy="55.0314" r="2.50064" fill="black"/>
<circle cx="1158.43" cy="55.0314" r="2.50064" fill="black"/>
<circle cx="1173.43" cy="55.0314" r="2.50064" fill="black"/>
<circle cx="1188.44" cy="55.0314" r="2.50064" fill="black"/>
<circle cx="1203.44" cy="55.0314" r="2.50064" fill="black"/>
<circle cx="1218.44" cy="55.0314" r="2.50064" fill="black"/>
<circle cx="1233.45" cy="55.0314" r="2.50064" fill="black"/>
<circle cx="1248.45" cy="55.0314" r="2.50064" fill="black"/>
<circle cx="1263.46" cy="55.0314" r="2.50064" fill="black"/>
<circle cx="1278.46" cy="55.0314" r="2.50064" fill="black"/>
<circle cx="1008.39" cy="70.0353" r="2.50064" fill="black"/>
<circle cx="1023.39" cy="70.0353" r="2.50064" fill="black"/>
<circle cx="1038.4" cy="70.0353" r="2.50064" fill="black"/>
<circle cx="1053.4" cy="70.0353" r="2.50064" fill="black"/>
<circle cx="1068.41" cy="70.0353" r="2.50064" fill="black"/>
<circle cx="1083.41" cy="70.0353" r="2.50064" fill="black"/>
<circle cx="1098.41" cy="70.0353" r="2.50064" fill="black"/>
<circle cx="1113.42" cy="70.0353" r="2.50064" fill="black"/>
<circle cx="1128.42" cy="70.0353" r="2.50064" fill="black"/>
<circle cx="1143.42" cy="70.0353" r="2.50064" fill="black"/>
<circle cx="1158.43" cy="70.0353" r="2.50064" fill="black"/>
<circle cx="1173.43" cy="70.0353" r="2.50064" fill="black"/>
<circle cx="1188.44" cy="70.0353" r="2.50064" fill="black"/>
<circle cx="1203.44" cy="70.0353" r="2.50064" fill="black"/>
<circle cx="1218.44" cy="70.0353" r="2.50064" fill="black"/>
<circle cx="1233.45" cy="70.0353" r="2.50064" fill="black"/>
<circle cx="1248.45" cy="70.0353" r="2.50064" fill="black"/>
<circle cx="1263.46" cy="70.0353" r="2.50064" fill="black"/>
<circle cx="1278.46" cy="70.0353" r="2.50064" fill="black"/>
<circle cx="1008.39" cy="85.0392" r="2.50064" fill="black"/>
<circle cx="1023.39" cy="85.0392" r="2.50064" fill="black"/>
<circle cx="1038.4" cy="85.0392" r="2.50064" fill="black"/>
<circle cx="1053.4" cy="85.0392" r="2.50064" fill="black"/>
<circle cx="1068.41" cy="85.0392" r="2.50064" fill="black"/>
<circle cx="1083.41" cy="85.0392" r="2.50064" fill="black"/>
<circle cx="1098.41" cy="85.0392" r="2.50064" fill="black"/>
<circle cx="1113.42" cy="85.0392" r="2.50064" fill="black"/>
<circle cx="1128.42" cy="85.0392" r="2.50064" fill="black"/>
<circle cx="1143.42" cy="85.0392" r="2.50064" fill="black"/>
<circle cx="1158.43" cy="85.0392" r="2.50064" fill="black"/>
<circle cx="1173.43" cy="85.0392" r="2.50064" fill="black"/>
<circle cx="1188.44" cy="85.0392" r="2.50064" fill="black"/>
<circle cx="1203.44" cy="85.0392" r="2.50064" fill="black"/>
<circle cx="1218.44" cy="85.0392" r="2.50064" fill="black"/>
<circle cx="1233.45" cy="85.0392" r="2.50064" fill="black"/>
<circle cx="1248.45" cy="85.0392" r="2.50064" fill="black"/>
<circle cx="1263.46" cy="85.0392" r="2.50064" fill="black"/>
<circle cx="1278.46" cy="85.0392" r="2.50064" fill="black"/>
</g>
<defs>
<clipPath id="clip0">
<rect width="1280" height="96" fill="white"/>
</clipPath>
</defs>
</svg>
