<svg width="1269" height="81" viewBox="0 0 1269 81" fill="none" xmlns="http://www.w3.org/2000/svg">
<g clip-path="url(#clip0_324_274)">
<path d="M1269 40.3057H-11V80.3057H1269V40.3057Z" fill="black"/>
<path d="M11.4596 5.30694C12.8407 5.30694 13.9603 4.18737 13.9603 2.8063C13.9603 1.42524 12.8407 0.305664 11.4596 0.305664C10.0786 0.305664 8.95898 1.42524 8.95898 2.8063C8.95898 4.18737 10.0786 5.30694 11.4596 5.30694Z" fill="black"/>
<path d="M26.4633 5.30694C27.8444 5.30694 28.9639 4.18737 28.9639 2.8063C28.9639 1.42524 27.8444 0.305664 26.4633 0.305664C25.0822 0.305664 23.9626 1.42524 23.9626 2.8063C23.9626 4.18737 25.0822 5.30694 26.4633 5.30694Z" fill="black"/>
<path d="M41.4672 5.30694C42.8483 5.30694 43.9678 4.18737 43.9678 2.8063C43.9678 1.42524 42.8483 0.305664 41.4672 0.305664C40.0861 0.305664 38.9666 1.42524 38.9666 2.8063C38.9666 4.18737 40.0861 5.30694 41.4672 5.30694Z" fill="black"/>
<path d="M56.4711 5.30694C57.8522 5.30694 58.9717 4.18737 58.9717 2.8063C58.9717 1.42524 57.8522 0.305664 56.4711 0.305664C55.09 0.305664 53.9705 1.42524 53.9705 2.8063C53.9705 4.18737 55.09 5.30694 56.4711 5.30694Z" fill="black"/>
<path d="M71.475 5.30694C72.8561 5.30694 73.9756 4.18737 73.9756 2.8063C73.9756 1.42524 72.8561 0.305664 71.475 0.305664C70.0939 0.305664 68.9744 1.42524 68.9744 2.8063C68.9744 4.18737 70.0939 5.30694 71.475 5.30694Z" fill="black"/>
<path d="M86.4789 5.30694C87.86 5.30694 88.9796 4.18737 88.9796 2.8063C88.9796 1.42524 87.86 0.305664 86.4789 0.305664C85.0978 0.305664 83.9783 1.42524 83.9783 2.8063C83.9783 4.18737 85.0978 5.30694 86.4789 5.30694Z" fill="black"/>
<path d="M101.483 5.30694C102.864 5.30694 103.984 4.18737 103.984 2.8063C103.984 1.42524 102.864 0.305664 101.483 0.305664C100.102 0.305664 98.9819 1.42524 98.9819 2.8063C98.9819 4.18737 100.102 5.30694 101.483 5.30694Z" fill="black"/>
<path d="M116.486 5.30694C117.867 5.30694 118.987 4.18737 118.987 2.8063C118.987 1.42524 117.867 0.305664 116.486 0.305664C115.105 0.305664 113.985 1.42524 113.985 2.8063C113.985 4.18737 115.105 5.30694 116.486 5.30694Z" fill="black"/>
<path d="M131.49 5.30694C132.871 5.30694 133.991 4.18737 133.991 2.8063C133.991 1.42524 132.871 0.305664 131.49 0.305664C130.109 0.305664 128.989 1.42524 128.989 2.8063C128.989 4.18737 130.109 5.30694 131.49 5.30694Z" fill="black"/>
<path d="M146.494 5.30694C147.875 5.30694 148.995 4.18737 148.995 2.8063C148.995 1.42524 147.875 0.305664 146.494 0.305664C145.113 0.305664 143.993 1.42524 143.993 2.8063C143.993 4.18737 145.113 5.30694 146.494 5.30694Z" fill="black"/>
<path d="M161.498 5.30694C162.879 5.30694 163.999 4.18737 163.999 2.8063C163.999 1.42524 162.879 0.305664 161.498 0.305664C160.117 0.305664 158.997 1.42524 158.997 2.8063C158.997 4.18737 160.117 5.30694 161.498 5.30694Z" fill="black"/>
<path d="M176.502 5.30694C177.883 5.30694 179.003 4.18737 179.003 2.8063C179.003 1.42524 177.883 0.305664 176.502 0.305664C175.121 0.305664 174.001 1.42524 174.001 2.8063C174.001 4.18737 175.121 5.30694 176.502 5.30694Z" fill="black"/>
<path d="M191.506 5.30694C192.887 5.30694 194.007 4.18737 194.007 2.8063C194.007 1.42524 192.887 0.305664 191.506 0.305664C190.125 0.305664 189.005 1.42524 189.005 2.8063C189.005 4.18737 190.125 5.30694 191.506 5.30694Z" fill="black"/>
<path d="M206.51 5.30694C207.891 5.30694 209.011 4.18737 209.011 2.8063C209.011 1.42524 207.891 0.305664 206.51 0.305664C205.129 0.305664 204.009 1.42524 204.009 2.8063C204.009 4.18737 205.129 5.30694 206.51 5.30694Z" fill="black"/>
<path d="M221.513 5.30694C222.894 5.30694 224.014 4.18737 224.014 2.8063C224.014 1.42524 222.894 0.305664 221.513 0.305664C220.132 0.305664 219.012 1.42524 219.012 2.8063C219.012 4.18737 220.132 5.30694 221.513 5.30694Z" fill="black"/>
<path d="M236.517 5.30694C237.898 5.30694 239.018 4.18737 239.018 2.8063C239.018 1.42524 237.898 0.305664 236.517 0.305664C235.136 0.305664 234.016 1.42524 234.016 2.8063C234.016 4.18737 235.136 5.30694 236.517 5.30694Z" fill="black"/>
<path d="M251.521 5.30694C252.902 5.30694 254.022 4.18737 254.022 2.8063C254.022 1.42524 252.902 0.305664 251.521 0.305664C250.14 0.305664 249.02 1.42524 249.02 2.8063C249.02 4.18737 250.14 5.30694 251.521 5.30694Z" fill="black"/>
<path d="M266.525 5.30694C267.906 5.30694 269.026 4.18737 269.026 2.8063C269.026 1.42524 267.906 0.305664 266.525 0.305664C265.144 0.305664 264.024 1.42524 264.024 2.8063C264.024 4.18737 265.144 5.30694 266.525 5.30694Z" fill="black"/>
<path d="M281.529 5.30694C282.91 5.30694 284.03 4.18737 284.03 2.8063C284.03 1.42524 282.91 0.305664 281.529 0.305664C280.148 0.305664 279.028 1.42524 279.028 2.8063C279.028 4.18737 280.148 5.30694 281.529 5.30694Z" fill="black"/>
<path d="M296.533 5.30694C297.914 5.30694 299.034 4.18737 299.034 2.8063C299.034 1.42524 297.914 0.305664 296.533 0.305664C295.152 0.305664 294.032 1.42524 294.032 2.8063C294.032 4.18737 295.152 5.30694 296.533 5.30694Z" fill="black"/>
<path d="M311.537 5.30694C312.918 5.30694 314.038 4.18737 314.038 2.8063C314.038 1.42524 312.918 0.305664 311.537 0.305664C310.156 0.305664 309.036 1.42524 309.036 2.8063C309.036 4.18737 310.156 5.30694 311.537 5.30694Z" fill="black"/>
<path d="M326.54 5.30694C327.921 5.30694 329.041 4.18737 329.041 2.8063C329.041 1.42524 327.921 0.305664 326.54 0.305664C325.159 0.305664 324.039 1.42524 324.039 2.8063C324.039 4.18737 325.159 5.30694 326.54 5.30694Z" fill="black"/>
<path d="M341.544 5.30694C342.925 5.30694 344.045 4.18737 344.045 2.8063C344.045 1.42524 342.925 0.305664 341.544 0.305664C340.163 0.305664 339.043 1.42524 339.043 2.8063C339.043 4.18737 340.163 5.30694 341.544 5.30694Z" fill="black"/>
<path d="M11.4596 20.3109C12.8407 20.3109 13.9603 19.1913 13.9603 17.8102C13.9603 16.4291 12.8407 15.3096 11.4596 15.3096C10.0786 15.3096 8.95898 16.4291 8.95898 17.8102C8.95898 19.1913 10.0786 20.3109 11.4596 20.3109Z" fill="black"/>
<path d="M26.4633 20.3109C27.8444 20.3109 28.9639 19.1913 28.9639 17.8102C28.9639 16.4291 27.8444 15.3096 26.4633 15.3096C25.0822 15.3096 23.9626 16.4291 23.9626 17.8102C23.9626 19.1913 25.0822 20.3109 26.4633 20.3109Z" fill="black"/>
<path d="M41.4672 20.3109C42.8483 20.3109 43.9678 19.1913 43.9678 17.8102C43.9678 16.4291 42.8483 15.3096 41.4672 15.3096C40.0861 15.3096 38.9666 16.4291 38.9666 17.8102C38.9666 19.1913 40.0861 20.3109 41.4672 20.3109Z" fill="black"/>
<path d="M56.4711 20.3109C57.8522 20.3109 58.9717 19.1913 58.9717 17.8102C58.9717 16.4291 57.8522 15.3096 56.4711 15.3096C55.09 15.3096 53.9705 16.4291 53.9705 17.8102C53.9705 19.1913 55.09 20.3109 56.4711 20.3109Z" fill="black"/>
<path d="M71.475 20.3109C72.8561 20.3109 73.9756 19.1913 73.9756 17.8102C73.9756 16.4291 72.8561 15.3096 71.475 15.3096C70.0939 15.3096 68.9744 16.4291 68.9744 17.8102C68.9744 19.1913 70.0939 20.3109 71.475 20.3109Z" fill="black"/>
<path d="M86.4789 20.3109C87.86 20.3109 88.9796 19.1913 88.9796 17.8102C88.9796 16.4291 87.86 15.3096 86.4789 15.3096C85.0978 15.3096 83.9783 16.4291 83.9783 17.8102C83.9783 19.1913 85.0978 20.3109 86.4789 20.3109Z" fill="black"/>
<path d="M101.483 20.3109C102.864 20.3109 103.984 19.1913 103.984 17.8102C103.984 16.4291 102.864 15.3096 101.483 15.3096C100.102 15.3096 98.9819 16.4291 98.9819 17.8102C98.9819 19.1913 100.102 20.3109 101.483 20.3109Z" fill="black"/>
<path d="M116.486 20.3109C117.867 20.3109 118.987 19.1913 118.987 17.8102C118.987 16.4291 117.867 15.3096 116.486 15.3096C115.105 15.3096 113.985 16.4291 113.985 17.8102C113.985 19.1913 115.105 20.3109 116.486 20.3109Z" fill="black"/>
<path d="M131.49 20.3109C132.871 20.3109 133.991 19.1913 133.991 17.8102C133.991 16.4291 132.871 15.3096 131.49 15.3096C130.109 15.3096 128.989 16.4291 128.989 17.8102C128.989 19.1913 130.109 20.3109 131.49 20.3109Z" fill="black"/>
<path d="M146.494 20.3109C147.875 20.3109 148.995 19.1913 148.995 17.8102C148.995 16.4291 147.875 15.3096 146.494 15.3096C145.113 15.3096 143.993 16.4291 143.993 17.8102C143.993 19.1913 145.113 20.3109 146.494 20.3109Z" fill="black"/>
<path d="M161.498 20.3109C162.879 20.3109 163.999 19.1913 163.999 17.8102C163.999 16.4291 162.879 15.3096 161.498 15.3096C160.117 15.3096 158.997 16.4291 158.997 17.8102C158.997 19.1913 160.117 20.3109 161.498 20.3109Z" fill="black"/>
<path d="M176.502 20.3109C177.883 20.3109 179.003 19.1913 179.003 17.8102C179.003 16.4291 177.883 15.3096 176.502 15.3096C175.121 15.3096 174.001 16.4291 174.001 17.8102C174.001 19.1913 175.121 20.3109 176.502 20.3109Z" fill="black"/>
<path d="M191.506 20.3109C192.887 20.3109 194.007 19.1913 194.007 17.8102C194.007 16.4291 192.887 15.3096 191.506 15.3096C190.125 15.3096 189.005 16.4291 189.005 17.8102C189.005 19.1913 190.125 20.3109 191.506 20.3109Z" fill="black"/>
<path d="M206.51 20.3109C207.891 20.3109 209.011 19.1913 209.011 17.8102C209.011 16.4291 207.891 15.3096 206.51 15.3096C205.129 15.3096 204.009 16.4291 204.009 17.8102C204.009 19.1913 205.129 20.3109 206.51 20.3109Z" fill="black"/>
<path d="M221.513 20.3109C222.894 20.3109 224.014 19.1913 224.014 17.8102C224.014 16.4291 222.894 15.3096 221.513 15.3096C220.132 15.3096 219.012 16.4291 219.012 17.8102C219.012 19.1913 220.132 20.3109 221.513 20.3109Z" fill="black"/>
<path d="M236.517 20.3109C237.898 20.3109 239.018 19.1913 239.018 17.8102C239.018 16.4291 237.898 15.3096 236.517 15.3096C235.136 15.3096 234.016 16.4291 234.016 17.8102C234.016 19.1913 235.136 20.3109 236.517 20.3109Z" fill="black"/>
<path d="M251.521 20.3109C252.902 20.3109 254.022 19.1913 254.022 17.8102C254.022 16.4291 252.902 15.3096 251.521 15.3096C250.14 15.3096 249.02 16.4291 249.02 17.8102C249.02 19.1913 250.14 20.3109 251.521 20.3109Z" fill="black"/>
<path d="M266.525 20.3109C267.906 20.3109 269.026 19.1913 269.026 17.8102C269.026 16.4291 267.906 15.3096 266.525 15.3096C265.144 15.3096 264.024 16.4291 264.024 17.8102C264.024 19.1913 265.144 20.3109 266.525 20.3109Z" fill="black"/>
<path d="M281.529 20.3109C282.91 20.3109 284.03 19.1913 284.03 17.8102C284.03 16.4291 282.91 15.3096 281.529 15.3096C280.148 15.3096 279.028 16.4291 279.028 17.8102C279.028 19.1913 280.148 20.3109 281.529 20.3109Z" fill="black"/>
<path d="M296.533 20.3109C297.914 20.3109 299.034 19.1913 299.034 17.8102C299.034 16.4291 297.914 15.3096 296.533 15.3096C295.152 15.3096 294.032 16.4291 294.032 17.8102C294.032 19.1913 295.152 20.3109 296.533 20.3109Z" fill="black"/>
<path d="M311.537 20.3109C312.918 20.3109 314.038 19.1913 314.038 17.8102C314.038 16.4291 312.918 15.3096 311.537 15.3096C310.156 15.3096 309.036 16.4291 309.036 17.8102C309.036 19.1913 310.156 20.3109 311.537 20.3109Z" fill="black"/>
<path d="M326.54 20.3109C327.921 20.3109 329.041 19.1913 329.041 17.8102C329.041 16.4291 327.921 15.3096 326.54 15.3096C325.159 15.3096 324.039 16.4291 324.039 17.8102C324.039 19.1913 325.159 20.3109 326.54 20.3109Z" fill="black"/>
<path d="M341.544 20.3109C342.925 20.3109 344.045 19.1913 344.045 17.8102C344.045 16.4291 342.925 15.3096 341.544 15.3096C340.163 15.3096 339.043 16.4291 339.043 17.8102C339.043 19.1913 340.163 20.3109 341.544 20.3109Z" fill="black"/>
<path d="M11.4596 35.3148C12.8407 35.3148 13.9603 34.1952 13.9603 32.8141C13.9603 31.4331 12.8407 30.3135 11.4596 30.3135C10.0786 30.3135 8.95898 31.4331 8.95898 32.8141C8.95898 34.1952 10.0786 35.3148 11.4596 35.3148Z" fill="black"/>
<path d="M26.4633 35.3148C27.8444 35.3148 28.9639 34.1952 28.9639 32.8141C28.9639 31.4331 27.8444 30.3135 26.4633 30.3135C25.0822 30.3135 23.9626 31.4331 23.9626 32.8141C23.9626 34.1952 25.0822 35.3148 26.4633 35.3148Z" fill="black"/>
<path d="M41.4672 35.3148C42.8483 35.3148 43.9678 34.1952 43.9678 32.8141C43.9678 31.4331 42.8483 30.3135 41.4672 30.3135C40.0861 30.3135 38.9666 31.4331 38.9666 32.8141C38.9666 34.1952 40.0861 35.3148 41.4672 35.3148Z" fill="black"/>
<path d="M56.4711 35.3148C57.8522 35.3148 58.9717 34.1952 58.9717 32.8141C58.9717 31.4331 57.8522 30.3135 56.4711 30.3135C55.09 30.3135 53.9705 31.4331 53.9705 32.8141C53.9705 34.1952 55.09 35.3148 56.4711 35.3148Z" fill="black"/>
<path d="M71.475 35.3148C72.8561 35.3148 73.9756 34.1952 73.9756 32.8141C73.9756 31.4331 72.8561 30.3135 71.475 30.3135C70.0939 30.3135 68.9744 31.4331 68.9744 32.8141C68.9744 34.1952 70.0939 35.3148 71.475 35.3148Z" fill="black"/>
<path d="M86.4789 35.3148C87.86 35.3148 88.9796 34.1952 88.9796 32.8141C88.9796 31.4331 87.86 30.3135 86.4789 30.3135C85.0978 30.3135 83.9783 31.4331 83.9783 32.8141C83.9783 34.1952 85.0978 35.3148 86.4789 35.3148Z" fill="black"/>
<path d="M101.483 35.3148C102.864 35.3148 103.984 34.1952 103.984 32.8141C103.984 31.4331 102.864 30.3135 101.483 30.3135C100.102 30.3135 98.9819 31.4331 98.9819 32.8141C98.9819 34.1952 100.102 35.3148 101.483 35.3148Z" fill="black"/>
<path d="M116.486 35.3148C117.867 35.3148 118.987 34.1952 118.987 32.8141C118.987 31.4331 117.867 30.3135 116.486 30.3135C115.105 30.3135 113.985 31.4331 113.985 32.8141C113.985 34.1952 115.105 35.3148 116.486 35.3148Z" fill="black"/>
<path d="M131.49 35.3148C132.871 35.3148 133.991 34.1952 133.991 32.8141C133.991 31.4331 132.871 30.3135 131.49 30.3135C130.109 30.3135 128.989 31.4331 128.989 32.8141C128.989 34.1952 130.109 35.3148 131.49 35.3148Z" fill="black"/>
<path d="M146.494 35.3148C147.875 35.3148 148.995 34.1952 148.995 32.8141C148.995 31.4331 147.875 30.3135 146.494 30.3135C145.113 30.3135 143.993 31.4331 143.993 32.8141C143.993 34.1952 145.113 35.3148 146.494 35.3148Z" fill="black"/>
<path d="M161.498 35.3148C162.879 35.3148 163.999 34.1952 163.999 32.8141C163.999 31.4331 162.879 30.3135 161.498 30.3135C160.117 30.3135 158.997 31.4331 158.997 32.8141C158.997 34.1952 160.117 35.3148 161.498 35.3148Z" fill="black"/>
<path d="M176.502 35.3148C177.883 35.3148 179.003 34.1952 179.003 32.8141C179.003 31.4331 177.883 30.3135 176.502 30.3135C175.121 30.3135 174.001 31.4331 174.001 32.8141C174.001 34.1952 175.121 35.3148 176.502 35.3148Z" fill="black"/>
<path d="M191.506 35.3148C192.887 35.3148 194.007 34.1952 194.007 32.8141C194.007 31.4331 192.887 30.3135 191.506 30.3135C190.125 30.3135 189.005 31.4331 189.005 32.8141C189.005 34.1952 190.125 35.3148 191.506 35.3148Z" fill="black"/>
<path d="M206.51 35.3148C207.891 35.3148 209.011 34.1952 209.011 32.8141C209.011 31.4331 207.891 30.3135 206.51 30.3135C205.129 30.3135 204.009 31.4331 204.009 32.8141C204.009 34.1952 205.129 35.3148 206.51 35.3148Z" fill="black"/>
<path d="M221.513 35.3148C222.894 35.3148 224.014 34.1952 224.014 32.8141C224.014 31.4331 222.894 30.3135 221.513 30.3135C220.132 30.3135 219.012 31.4331 219.012 32.8141C219.012 34.1952 220.132 35.3148 221.513 35.3148Z" fill="black"/>
<path d="M236.517 35.3148C237.898 35.3148 239.018 34.1952 239.018 32.8141C239.018 31.4331 237.898 30.3135 236.517 30.3135C235.136 30.3135 234.016 31.4331 234.016 32.8141C234.016 34.1952 235.136 35.3148 236.517 35.3148Z" fill="black"/>
<path d="M251.521 35.3148C252.902 35.3148 254.022 34.1952 254.022 32.8141C254.022 31.4331 252.902 30.3135 251.521 30.3135C250.14 30.3135 249.02 31.4331 249.02 32.8141C249.02 34.1952 250.14 35.3148 251.521 35.3148Z" fill="black"/>
<path d="M266.525 35.3148C267.906 35.3148 269.026 34.1952 269.026 32.8141C269.026 31.4331 267.906 30.3135 266.525 30.3135C265.144 30.3135 264.024 31.4331 264.024 32.8141C264.024 34.1952 265.144 35.3148 266.525 35.3148Z" fill="black"/>
<path d="M281.529 35.3148C282.91 35.3148 284.03 34.1952 284.03 32.8141C284.03 31.4331 282.91 30.3135 281.529 30.3135C280.148 30.3135 279.028 31.4331 279.028 32.8141C279.028 34.1952 280.148 35.3148 281.529 35.3148Z" fill="black"/>
<path d="M296.533 35.3148C297.914 35.3148 299.034 34.1952 299.034 32.8141C299.034 31.4331 297.914 30.3135 296.533 30.3135C295.152 30.3135 294.032 31.4331 294.032 32.8141C294.032 34.1952 295.152 35.3148 296.533 35.3148Z" fill="black"/>
<path d="M311.537 35.3148C312.918 35.3148 314.038 34.1952 314.038 32.8141C314.038 31.4331 312.918 30.3135 311.537 30.3135C310.156 30.3135 309.036 31.4331 309.036 32.8141C309.036 34.1952 310.156 35.3148 311.537 35.3148Z" fill="black"/>
<path d="M326.54 35.3148C327.921 35.3148 329.041 34.1952 329.041 32.8141C329.041 31.4331 327.921 30.3135 326.54 30.3135C325.159 30.3135 324.039 31.4331 324.039 32.8141C324.039 34.1952 325.159 35.3148 326.54 35.3148Z" fill="black"/>
<path d="M341.544 35.3148C342.925 35.3148 344.045 34.1952 344.045 32.8141C344.045 31.4331 342.925 30.3135 341.544 30.3135C340.163 30.3135 339.043 31.4331 339.043 32.8141C339.043 34.1952 340.163 35.3148 341.544 35.3148Z" fill="black"/>
<path d="M356.545 5.30694C357.926 5.30694 359.046 4.18737 359.046 2.8063C359.046 1.42524 357.926 0.305664 356.545 0.305664C355.164 0.305664 354.045 1.42524 354.045 2.8063C354.045 4.18737 355.164 5.30694 356.545 5.30694Z" fill="black"/>
<path d="M371.549 5.30694C372.93 5.30694 374.05 4.18737 374.05 2.8063C374.05 1.42524 372.93 0.305664 371.549 0.305664C370.168 0.305664 369.049 1.42524 369.049 2.8063C369.049 4.18737 370.168 5.30694 371.549 5.30694Z" fill="black"/>
<path d="M386.552 5.30694C387.933 5.30694 389.053 4.18737 389.053 2.8063C389.053 1.42524 387.933 0.305664 386.552 0.305664C385.171 0.305664 384.052 1.42524 384.052 2.8063C384.052 4.18737 385.171 5.30694 386.552 5.30694Z" fill="black"/>
<path d="M401.556 5.30694C402.937 5.30694 404.057 4.18737 404.057 2.8063C404.057 1.42524 402.937 0.305664 401.556 0.305664C400.175 0.305664 399.056 1.42524 399.056 2.8063C399.056 4.18737 400.175 5.30694 401.556 5.30694Z" fill="black"/>
<path d="M416.56 5.30694C417.941 5.30694 419.061 4.18737 419.061 2.8063C419.061 1.42524 417.941 0.305664 416.56 0.305664C415.179 0.305664 414.06 1.42524 414.06 2.8063C414.06 4.18737 415.179 5.30694 416.56 5.30694Z" fill="black"/>
<path d="M431.564 5.30694C432.945 5.30694 434.065 4.18737 434.065 2.8063C434.065 1.42524 432.945 0.305664 431.564 0.305664C430.183 0.305664 429.064 1.42524 429.064 2.8063C429.064 4.18737 430.183 5.30694 431.564 5.30694Z" fill="black"/>
<path d="M446.568 5.30694C447.949 5.30694 449.069 4.18737 449.069 2.8063C449.069 1.42524 447.949 0.305664 446.568 0.305664C445.187 0.305664 444.068 1.42524 444.068 2.8063C444.068 4.18737 445.187 5.30694 446.568 5.30694Z" fill="black"/>
<path d="M461.572 5.30694C462.953 5.30694 464.073 4.18737 464.073 2.8063C464.073 1.42524 462.953 0.305664 461.572 0.305664C460.191 0.305664 459.072 1.42524 459.072 2.8063C459.072 4.18737 460.191 5.30694 461.572 5.30694Z" fill="black"/>
<path d="M476.575 5.30694C477.956 5.30694 479.076 4.18737 479.076 2.8063C479.076 1.42524 477.956 0.305664 476.575 0.305664C475.194 0.305664 474.075 1.42524 474.075 2.8063C474.075 4.18737 475.194 5.30694 476.575 5.30694Z" fill="black"/>
<path d="M491.579 5.30694C492.96 5.30694 494.08 4.18737 494.08 2.8063C494.08 1.42524 492.96 0.305664 491.579 0.305664C490.198 0.305664 489.079 1.42524 489.079 2.8063C489.079 4.18737 490.198 5.30694 491.579 5.30694Z" fill="black"/>
<path d="M506.583 5.30694C507.965 5.30694 509.084 4.18737 509.084 2.8063C509.084 1.42524 507.965 0.305664 506.583 0.305664C505.202 0.305664 504.083 1.42524 504.083 2.8063C504.083 4.18737 505.202 5.30694 506.583 5.30694Z" fill="black"/>
<path d="M521.587 5.30694C522.968 5.30694 524.088 4.18737 524.088 2.8063C524.088 1.42524 522.968 0.305664 521.587 0.305664C520.206 0.305664 519.087 1.42524 519.087 2.8063C519.087 4.18737 520.206 5.30694 521.587 5.30694Z" fill="black"/>
<path d="M536.591 5.30694C537.972 5.30694 539.092 4.18737 539.092 2.8063C539.092 1.42524 537.972 0.305664 536.591 0.305664C535.21 0.305664 534.091 1.42524 534.091 2.8063C534.091 4.18737 535.21 5.30694 536.591 5.30694Z" fill="black"/>
<path d="M551.595 5.30694C552.976 5.30694 554.096 4.18737 554.096 2.8063C554.096 1.42524 552.976 0.305664 551.595 0.305664C550.214 0.305664 549.095 1.42524 549.095 2.8063C549.095 4.18737 550.214 5.30694 551.595 5.30694Z" fill="black"/>
<path d="M566.599 5.30694C567.98 5.30694 569.1 4.18737 569.1 2.8063C569.1 1.42524 567.98 0.305664 566.599 0.305664C565.218 0.305664 564.099 1.42524 564.099 2.8063C564.099 4.18737 565.218 5.30694 566.599 5.30694Z" fill="black"/>
<path d="M581.602 5.30694C582.983 5.30694 584.103 4.18737 584.103 2.8063C584.103 1.42524 582.983 0.305664 581.602 0.305664C580.221 0.305664 579.102 1.42524 579.102 2.8063C579.102 4.18737 580.221 5.30694 581.602 5.30694Z" fill="black"/>
<path d="M596.606 5.30694C597.987 5.30694 599.107 4.18737 599.107 2.8063C599.107 1.42524 597.987 0.305664 596.606 0.305664C595.225 0.305664 594.106 1.42524 594.106 2.8063C594.106 4.18737 595.225 5.30694 596.606 5.30694Z" fill="black"/>
<path d="M611.61 5.30694C612.991 5.30694 614.111 4.18737 614.111 2.8063C614.111 1.42524 612.991 0.305664 611.61 0.305664C610.229 0.305664 609.11 1.42524 609.11 2.8063C609.11 4.18737 610.229 5.30694 611.61 5.30694Z" fill="black"/>
<path d="M626.614 5.30694C627.996 5.30694 629.115 4.18737 629.115 2.8063C629.115 1.42524 627.996 0.305664 626.614 0.305664C625.233 0.305664 624.114 1.42524 624.114 2.8063C624.114 4.18737 625.233 5.30694 626.614 5.30694Z" fill="black"/>
<path d="M641.618 5.30694C642.999 5.30694 644.119 4.18737 644.119 2.8063C644.119 1.42524 642.999 0.305664 641.618 0.305664C640.237 0.305664 639.118 1.42524 639.118 2.8063C639.118 4.18737 640.237 5.30694 641.618 5.30694Z" fill="black"/>
<path d="M656.622 5.30694C658.003 5.30694 659.123 4.18737 659.123 2.8063C659.123 1.42524 658.003 0.305664 656.622 0.305664C655.241 0.305664 654.122 1.42524 654.122 2.8063C654.122 4.18737 655.241 5.30694 656.622 5.30694Z" fill="black"/>
<path d="M671.626 5.30694C673.007 5.30694 674.127 4.18737 674.127 2.8063C674.127 1.42524 673.007 0.305664 671.626 0.305664C670.245 0.305664 669.126 1.42524 669.126 2.8063C669.126 4.18737 670.245 5.30694 671.626 5.30694Z" fill="black"/>
<path d="M686.629 5.30694C688.01 5.30694 689.13 4.18737 689.13 2.8063C689.13 1.42524 688.01 0.305664 686.629 0.305664C685.248 0.305664 684.129 1.42524 684.129 2.8063C684.129 4.18737 685.248 5.30694 686.629 5.30694Z" fill="black"/>
<path d="M701.633 5.30694C703.014 5.30694 704.134 4.18737 704.134 2.8063C704.134 1.42524 703.014 0.305664 701.633 0.305664C700.252 0.305664 699.133 1.42524 699.133 2.8063C699.133 4.18737 700.252 5.30694 701.633 5.30694Z" fill="black"/>
<path d="M356.545 20.3109C357.926 20.3109 359.046 19.1913 359.046 17.8102C359.046 16.4291 357.926 15.3096 356.545 15.3096C355.164 15.3096 354.045 16.4291 354.045 17.8102C354.045 19.1913 355.164 20.3109 356.545 20.3109Z" fill="black"/>
<path d="M371.549 20.3109C372.93 20.3109 374.05 19.1913 374.05 17.8102C374.05 16.4291 372.93 15.3096 371.549 15.3096C370.168 15.3096 369.049 16.4291 369.049 17.8102C369.049 19.1913 370.168 20.3109 371.549 20.3109Z" fill="black"/>
<path d="M386.552 20.3109C387.933 20.3109 389.053 19.1913 389.053 17.8102C389.053 16.4291 387.933 15.3096 386.552 15.3096C385.171 15.3096 384.052 16.4291 384.052 17.8102C384.052 19.1913 385.171 20.3109 386.552 20.3109Z" fill="black"/>
<path d="M401.556 20.3109C402.937 20.3109 404.057 19.1913 404.057 17.8102C404.057 16.4291 402.937 15.3096 401.556 15.3096C400.175 15.3096 399.056 16.4291 399.056 17.8102C399.056 19.1913 400.175 20.3109 401.556 20.3109Z" fill="black"/>
<path d="M416.56 20.3109C417.941 20.3109 419.061 19.1913 419.061 17.8102C419.061 16.4291 417.941 15.3096 416.56 15.3096C415.179 15.3096 414.06 16.4291 414.06 17.8102C414.06 19.1913 415.179 20.3109 416.56 20.3109Z" fill="black"/>
<path d="M431.564 20.3109C432.945 20.3109 434.065 19.1913 434.065 17.8102C434.065 16.4291 432.945 15.3096 431.564 15.3096C430.183 15.3096 429.064 16.4291 429.064 17.8102C429.064 19.1913 430.183 20.3109 431.564 20.3109Z" fill="black"/>
<path d="M446.568 20.3109C447.949 20.3109 449.069 19.1913 449.069 17.8102C449.069 16.4291 447.949 15.3096 446.568 15.3096C445.187 15.3096 444.068 16.4291 444.068 17.8102C444.068 19.1913 445.187 20.3109 446.568 20.3109Z" fill="black"/>
<path d="M461.572 20.3109C462.953 20.3109 464.073 19.1913 464.073 17.8102C464.073 16.4291 462.953 15.3096 461.572 15.3096C460.191 15.3096 459.072 16.4291 459.072 17.8102C459.072 19.1913 460.191 20.3109 461.572 20.3109Z" fill="black"/>
<path d="M476.575 20.3109C477.956 20.3109 479.076 19.1913 479.076 17.8102C479.076 16.4291 477.956 15.3096 476.575 15.3096C475.194 15.3096 474.075 16.4291 474.075 17.8102C474.075 19.1913 475.194 20.3109 476.575 20.3109Z" fill="black"/>
<path d="M491.579 20.3109C492.96 20.3109 494.08 19.1913 494.08 17.8102C494.08 16.4291 492.96 15.3096 491.579 15.3096C490.198 15.3096 489.079 16.4291 489.079 17.8102C489.079 19.1913 490.198 20.3109 491.579 20.3109Z" fill="black"/>
<path d="M506.583 20.3109C507.965 20.3109 509.084 19.1913 509.084 17.8102C509.084 16.4291 507.965 15.3096 506.583 15.3096C505.202 15.3096 504.083 16.4291 504.083 17.8102C504.083 19.1913 505.202 20.3109 506.583 20.3109Z" fill="black"/>
<path d="M521.587 20.3109C522.968 20.3109 524.088 19.1913 524.088 17.8102C524.088 16.4291 522.968 15.3096 521.587 15.3096C520.206 15.3096 519.087 16.4291 519.087 17.8102C519.087 19.1913 520.206 20.3109 521.587 20.3109Z" fill="black"/>
<path d="M536.591 20.3109C537.972 20.3109 539.092 19.1913 539.092 17.8102C539.092 16.4291 537.972 15.3096 536.591 15.3096C535.21 15.3096 534.091 16.4291 534.091 17.8102C534.091 19.1913 535.21 20.3109 536.591 20.3109Z" fill="black"/>
<path d="M551.595 20.3109C552.976 20.3109 554.096 19.1913 554.096 17.8102C554.096 16.4291 552.976 15.3096 551.595 15.3096C550.214 15.3096 549.095 16.4291 549.095 17.8102C549.095 19.1913 550.214 20.3109 551.595 20.3109Z" fill="black"/>
<path d="M566.599 20.3109C567.98 20.3109 569.1 19.1913 569.1 17.8102C569.1 16.4291 567.98 15.3096 566.599 15.3096C565.218 15.3096 564.099 16.4291 564.099 17.8102C564.099 19.1913 565.218 20.3109 566.599 20.3109Z" fill="black"/>
<path d="M581.602 20.3109C582.983 20.3109 584.103 19.1913 584.103 17.8102C584.103 16.4291 582.983 15.3096 581.602 15.3096C580.221 15.3096 579.102 16.4291 579.102 17.8102C579.102 19.1913 580.221 20.3109 581.602 20.3109Z" fill="black"/>
<path d="M596.606 20.3109C597.987 20.3109 599.107 19.1913 599.107 17.8102C599.107 16.4291 597.987 15.3096 596.606 15.3096C595.225 15.3096 594.106 16.4291 594.106 17.8102C594.106 19.1913 595.225 20.3109 596.606 20.3109Z" fill="black"/>
<path d="M611.61 20.3109C612.991 20.3109 614.111 19.1913 614.111 17.8102C614.111 16.4291 612.991 15.3096 611.61 15.3096C610.229 15.3096 609.11 16.4291 609.11 17.8102C609.11 19.1913 610.229 20.3109 611.61 20.3109Z" fill="black"/>
<path d="M626.614 20.3109C627.996 20.3109 629.115 19.1913 629.115 17.8102C629.115 16.4291 627.996 15.3096 626.614 15.3096C625.233 15.3096 624.114 16.4291 624.114 17.8102C624.114 19.1913 625.233 20.3109 626.614 20.3109Z" fill="black"/>
<path d="M641.618 20.3109C642.999 20.3109 644.119 19.1913 644.119 17.8102C644.119 16.4291 642.999 15.3096 641.618 15.3096C640.237 15.3096 639.118 16.4291 639.118 17.8102C639.118 19.1913 640.237 20.3109 641.618 20.3109Z" fill="black"/>
<path d="M656.622 20.3109C658.003 20.3109 659.123 19.1913 659.123 17.8102C659.123 16.4291 658.003 15.3096 656.622 15.3096C655.241 15.3096 654.122 16.4291 654.122 17.8102C654.122 19.1913 655.241 20.3109 656.622 20.3109Z" fill="black"/>
<path d="M671.626 20.3109C673.007 20.3109 674.127 19.1913 674.127 17.8102C674.127 16.4291 673.007 15.3096 671.626 15.3096C670.245 15.3096 669.126 16.4291 669.126 17.8102C669.126 19.1913 670.245 20.3109 671.626 20.3109Z" fill="black"/>
<path d="M686.629 20.3109C688.01 20.3109 689.13 19.1913 689.13 17.8102C689.13 16.4291 688.01 15.3096 686.629 15.3096C685.248 15.3096 684.129 16.4291 684.129 17.8102C684.129 19.1913 685.248 20.3109 686.629 20.3109Z" fill="black"/>
<path d="M701.633 20.3109C703.014 20.3109 704.134 19.1913 704.134 17.8102C704.134 16.4291 703.014 15.3096 701.633 15.3096C700.252 15.3096 699.133 16.4291 699.133 17.8102C699.133 19.1913 700.252 20.3109 701.633 20.3109Z" fill="black"/>
<path d="M356.545 35.3148C357.926 35.3148 359.046 34.1952 359.046 32.8141C359.046 31.4331 357.926 30.3135 356.545 30.3135C355.164 30.3135 354.045 31.4331 354.045 32.8141C354.045 34.1952 355.164 35.3148 356.545 35.3148Z" fill="black"/>
<path d="M371.549 35.3148C372.93 35.3148 374.05 34.1952 374.05 32.8141C374.05 31.4331 372.93 30.3135 371.549 30.3135C370.168 30.3135 369.049 31.4331 369.049 32.8141C369.049 34.1952 370.168 35.3148 371.549 35.3148Z" fill="black"/>
<path d="M386.552 35.3148C387.933 35.3148 389.053 34.1952 389.053 32.8141C389.053 31.4331 387.933 30.3135 386.552 30.3135C385.171 30.3135 384.052 31.4331 384.052 32.8141C384.052 34.1952 385.171 35.3148 386.552 35.3148Z" fill="black"/>
<path d="M401.556 35.3148C402.937 35.3148 404.057 34.1952 404.057 32.8141C404.057 31.4331 402.937 30.3135 401.556 30.3135C400.175 30.3135 399.056 31.4331 399.056 32.8141C399.056 34.1952 400.175 35.3148 401.556 35.3148Z" fill="black"/>
<path d="M416.56 35.3148C417.941 35.3148 419.061 34.1952 419.061 32.8141C419.061 31.4331 417.941 30.3135 416.56 30.3135C415.179 30.3135 414.06 31.4331 414.06 32.8141C414.06 34.1952 415.179 35.3148 416.56 35.3148Z" fill="black"/>
<path d="M431.564 35.3148C432.945 35.3148 434.065 34.1952 434.065 32.8141C434.065 31.4331 432.945 30.3135 431.564 30.3135C430.183 30.3135 429.064 31.4331 429.064 32.8141C429.064 34.1952 430.183 35.3148 431.564 35.3148Z" fill="black"/>
<path d="M446.568 35.3148C447.949 35.3148 449.069 34.1952 449.069 32.8141C449.069 31.4331 447.949 30.3135 446.568 30.3135C445.187 30.3135 444.068 31.4331 444.068 32.8141C444.068 34.1952 445.187 35.3148 446.568 35.3148Z" fill="black"/>
<path d="M461.572 35.3148C462.953 35.3148 464.073 34.1952 464.073 32.8141C464.073 31.4331 462.953 30.3135 461.572 30.3135C460.191 30.3135 459.072 31.4331 459.072 32.8141C459.072 34.1952 460.191 35.3148 461.572 35.3148Z" fill="black"/>
<path d="M476.575 35.3148C477.956 35.3148 479.076 34.1952 479.076 32.8141C479.076 31.4331 477.956 30.3135 476.575 30.3135C475.194 30.3135 474.075 31.4331 474.075 32.8141C474.075 34.1952 475.194 35.3148 476.575 35.3148Z" fill="black"/>
<path d="M491.579 35.3148C492.96 35.3148 494.08 34.1952 494.08 32.8141C494.08 31.4331 492.96 30.3135 491.579 30.3135C490.198 30.3135 489.079 31.4331 489.079 32.8141C489.079 34.1952 490.198 35.3148 491.579 35.3148Z" fill="black"/>
<path d="M506.583 35.3148C507.965 35.3148 509.084 34.1952 509.084 32.8141C509.084 31.4331 507.965 30.3135 506.583 30.3135C505.202 30.3135 504.083 31.4331 504.083 32.8141C504.083 34.1952 505.202 35.3148 506.583 35.3148Z" fill="black"/>
<path d="M521.587 35.3148C522.968 35.3148 524.088 34.1952 524.088 32.8141C524.088 31.4331 522.968 30.3135 521.587 30.3135C520.206 30.3135 519.087 31.4331 519.087 32.8141C519.087 34.1952 520.206 35.3148 521.587 35.3148Z" fill="black"/>
<path d="M536.591 35.3148C537.972 35.3148 539.092 34.1952 539.092 32.8141C539.092 31.4331 537.972 30.3135 536.591 30.3135C535.21 30.3135 534.091 31.4331 534.091 32.8141C534.091 34.1952 535.21 35.3148 536.591 35.3148Z" fill="black"/>
<path d="M551.595 35.3148C552.976 35.3148 554.096 34.1952 554.096 32.8141C554.096 31.4331 552.976 30.3135 551.595 30.3135C550.214 30.3135 549.095 31.4331 549.095 32.8141C549.095 34.1952 550.214 35.3148 551.595 35.3148Z" fill="black"/>
<path d="M566.599 35.3148C567.98 35.3148 569.1 34.1952 569.1 32.8141C569.1 31.4331 567.98 30.3135 566.599 30.3135C565.218 30.3135 564.099 31.4331 564.099 32.8141C564.099 34.1952 565.218 35.3148 566.599 35.3148Z" fill="black"/>
<path d="M581.602 35.3148C582.983 35.3148 584.103 34.1952 584.103 32.8141C584.103 31.4331 582.983 30.3135 581.602 30.3135C580.221 30.3135 579.102 31.4331 579.102 32.8141C579.102 34.1952 580.221 35.3148 581.602 35.3148Z" fill="black"/>
<path d="M596.606 35.3148C597.987 35.3148 599.107 34.1952 599.107 32.8141C599.107 31.4331 597.987 30.3135 596.606 30.3135C595.225 30.3135 594.106 31.4331 594.106 32.8141C594.106 34.1952 595.225 35.3148 596.606 35.3148Z" fill="black"/>
<path d="M611.61 35.3148C612.991 35.3148 614.111 34.1952 614.111 32.8141C614.111 31.4331 612.991 30.3135 611.61 30.3135C610.229 30.3135 609.11 31.4331 609.11 32.8141C609.11 34.1952 610.229 35.3148 611.61 35.3148Z" fill="black"/>
<path d="M626.614 35.3148C627.996 35.3148 629.115 34.1952 629.115 32.8141C629.115 31.4331 627.996 30.3135 626.614 30.3135C625.233 30.3135 624.114 31.4331 624.114 32.8141C624.114 34.1952 625.233 35.3148 626.614 35.3148Z" fill="black"/>
<path d="M641.618 35.3148C642.999 35.3148 644.119 34.1952 644.119 32.8141C644.119 31.4331 642.999 30.3135 641.618 30.3135C640.237 30.3135 639.118 31.4331 639.118 32.8141C639.118 34.1952 640.237 35.3148 641.618 35.3148Z" fill="black"/>
<path d="M656.622 35.3148C658.003 35.3148 659.123 34.1952 659.123 32.8141C659.123 31.4331 658.003 30.3135 656.622 30.3135C655.241 30.3135 654.122 31.4331 654.122 32.8141C654.122 34.1952 655.241 35.3148 656.622 35.3148Z" fill="black"/>
<path d="M671.626 35.3148C673.007 35.3148 674.127 34.1952 674.127 32.8141C674.127 31.4331 673.007 30.3135 671.626 30.3135C670.245 30.3135 669.126 31.4331 669.126 32.8141C669.126 34.1952 670.245 35.3148 671.626 35.3148Z" fill="black"/>
<path d="M686.629 35.3148C688.01 35.3148 689.13 34.1952 689.13 32.8141C689.13 31.4331 688.01 30.3135 686.629 30.3135C685.248 30.3135 684.129 31.4331 684.129 32.8141C684.129 34.1952 685.248 35.3148 686.629 35.3148Z" fill="black"/>
<path d="M701.633 35.3148C703.014 35.3148 704.134 34.1952 704.134 32.8141C704.134 31.4331 703.014 30.3135 701.633 30.3135C700.252 30.3135 699.133 31.4331 699.133 32.8141C699.133 34.1952 700.252 35.3148 701.633 35.3148Z" fill="black"/>
<path d="M716.635 5.30694C718.016 5.30694 719.135 4.18737 719.135 2.8063C719.135 1.42524 718.016 0.305664 716.635 0.305664C715.254 0.305664 714.134 1.42524 714.134 2.8063C714.134 4.18737 715.254 5.30694 716.635 5.30694Z" fill="black"/>
<path d="M731.639 5.30694C733.02 5.30694 734.139 4.18737 734.139 2.8063C734.139 1.42524 733.02 0.305664 731.639 0.305664C730.258 0.305664 729.138 1.42524 729.138 2.8063C729.138 4.18737 730.258 5.30694 731.639 5.30694Z" fill="black"/>
<path d="M746.642 5.30694C748.023 5.30694 749.142 4.18737 749.142 2.8063C749.142 1.42524 748.023 0.305664 746.642 0.305664C745.261 0.305664 744.141 1.42524 744.141 2.8063C744.141 4.18737 745.261 5.30694 746.642 5.30694Z" fill="black"/>
<path d="M761.646 5.30694C763.027 5.30694 764.146 4.18737 764.146 2.8063C764.146 1.42524 763.027 0.305664 761.646 0.305664C760.265 0.305664 759.145 1.42524 759.145 2.8063C759.145 4.18737 760.265 5.30694 761.646 5.30694Z" fill="black"/>
<path d="M776.65 5.30694C778.031 5.30694 779.15 4.18737 779.15 2.8063C779.15 1.42524 778.031 0.305664 776.65 0.305664C775.269 0.305664 774.149 1.42524 774.149 2.8063C774.149 4.18737 775.269 5.30694 776.65 5.30694Z" fill="black"/>
<path d="M791.654 5.30694C793.035 5.30694 794.154 4.18737 794.154 2.8063C794.154 1.42524 793.035 0.305664 791.654 0.305664C790.273 0.305664 789.153 1.42524 789.153 2.8063C789.153 4.18737 790.273 5.30694 791.654 5.30694Z" fill="black"/>
<path d="M806.658 5.30694C808.039 5.30694 809.158 4.18737 809.158 2.8063C809.158 1.42524 808.039 0.305664 806.658 0.305664C805.277 0.305664 804.157 1.42524 804.157 2.8063C804.157 4.18737 805.277 5.30694 806.658 5.30694Z" fill="black"/>
<path d="M821.662 5.30694C823.043 5.30694 824.162 4.18737 824.162 2.8063C824.162 1.42524 823.043 0.305664 821.662 0.305664C820.281 0.305664 819.161 1.42524 819.161 2.8063C819.161 4.18737 820.281 5.30694 821.662 5.30694Z" fill="black"/>
<path d="M836.666 5.30694C838.047 5.30694 839.166 4.18737 839.166 2.8063C839.166 1.42524 838.047 0.305664 836.666 0.305664C835.285 0.305664 834.165 1.42524 834.165 2.8063C834.165 4.18737 835.285 5.30694 836.666 5.30694Z" fill="black"/>
<path d="M851.669 5.30694C853.05 5.30694 854.169 4.18737 854.169 2.8063C854.169 1.42524 853.05 0.305664 851.669 0.305664C850.288 0.305664 849.168 1.42524 849.168 2.8063C849.168 4.18737 850.288 5.30694 851.669 5.30694Z" fill="black"/>
<path d="M866.673 5.30694C868.054 5.30694 869.173 4.18737 869.173 2.8063C869.173 1.42524 868.054 0.305664 866.673 0.305664C865.291 0.305664 864.172 1.42524 864.172 2.8063C864.172 4.18737 865.291 5.30694 866.673 5.30694Z" fill="black"/>
<path d="M881.677 5.30694C883.058 5.30694 884.177 4.18737 884.177 2.8063C884.177 1.42524 883.058 0.305664 881.677 0.305664C880.296 0.305664 879.176 1.42524 879.176 2.8063C879.176 4.18737 880.296 5.30694 881.677 5.30694Z" fill="black"/>
<path d="M896.681 5.30694C898.062 5.30694 899.181 4.18737 899.181 2.8063C899.181 1.42524 898.062 0.305664 896.681 0.305664C895.3 0.305664 894.18 1.42524 894.18 2.8063C894.18 4.18737 895.3 5.30694 896.681 5.30694Z" fill="black"/>
<path d="M911.685 5.30694C913.066 5.30694 914.185 4.18737 914.185 2.8063C914.185 1.42524 913.066 0.305664 911.685 0.305664C910.304 0.305664 909.184 1.42524 909.184 2.8063C909.184 4.18737 910.304 5.30694 911.685 5.30694Z" fill="black"/>
<path d="M926.689 5.30694C928.07 5.30694 929.189 4.18737 929.189 2.8063C929.189 1.42524 928.07 0.305664 926.689 0.305664C925.308 0.305664 924.188 1.42524 924.188 2.8063C924.188 4.18737 925.308 5.30694 926.689 5.30694Z" fill="black"/>
<path d="M941.693 5.30694C943.074 5.30694 944.193 4.18737 944.193 2.8063C944.193 1.42524 943.074 0.305664 941.693 0.305664C940.311 0.305664 939.192 1.42524 939.192 2.8063C939.192 4.18737 940.311 5.30694 941.693 5.30694Z" fill="black"/>
<path d="M956.696 5.30694C958.077 5.30694 959.196 4.18737 959.196 2.8063C959.196 1.42524 958.077 0.305664 956.696 0.305664C955.315 0.305664 954.195 1.42524 954.195 2.8063C954.195 4.18737 955.315 5.30694 956.696 5.30694Z" fill="black"/>
<path d="M971.699 5.30694C973.08 5.30694 974.199 4.18737 974.199 2.8063C974.199 1.42524 973.08 0.305664 971.699 0.305664C970.318 0.305664 969.198 1.42524 969.198 2.8063C969.198 4.18737 970.318 5.30694 971.699 5.30694Z" fill="black"/>
<path d="M986.709 5.30694C988.09 5.30694 989.21 4.18737 989.21 2.8063C989.21 1.42524 988.09 0.305664 986.709 0.305664C985.328 0.305664 984.208 1.42524 984.208 2.8063C984.208 4.18737 985.328 5.30694 986.709 5.30694Z" fill="black"/>
<path d="M1001.71 5.30694C1003.09 5.30694 1004.21 4.18737 1004.21 2.8063C1004.21 1.42524 1003.09 0.305664 1001.71 0.305664C1000.33 0.305664 999.21 1.42524 999.21 2.8063C999.21 4.18737 1000.33 5.30694 1001.71 5.30694Z" fill="black"/>
<path d="M1016.71 5.30694C1018.09 5.30694 1019.21 4.18737 1019.21 2.8063C1019.21 1.42524 1018.09 0.305664 1016.71 0.305664C1015.33 0.305664 1014.21 1.42524 1014.21 2.8063C1014.21 4.18737 1015.33 5.30694 1016.71 5.30694Z" fill="black"/>
<path d="M1031.72 5.30694C1033.1 5.30694 1034.22 4.18737 1034.22 2.8063C1034.22 1.42524 1033.1 0.305664 1031.72 0.305664C1030.34 0.305664 1029.22 1.42524 1029.22 2.8063C1029.22 4.18737 1030.34 5.30694 1031.72 5.30694Z" fill="black"/>
<path d="M1046.72 5.30694C1048.1 5.30694 1049.22 4.18737 1049.22 2.8063C1049.22 1.42524 1048.1 0.305664 1046.72 0.305664C1045.34 0.305664 1044.22 1.42524 1044.22 2.8063C1044.22 4.18737 1045.34 5.30694 1046.72 5.30694Z" fill="black"/>
<path d="M1061.72 5.30694C1063.1 5.30694 1064.22 4.18737 1064.22 2.8063C1064.22 1.42524 1063.1 0.305664 1061.72 0.305664C1060.34 0.305664 1059.22 1.42524 1059.22 2.8063C1059.22 4.18737 1060.34 5.30694 1061.72 5.30694Z" fill="black"/>
<path d="M716.635 20.3109C718.016 20.3109 719.135 19.1913 719.135 17.8102C719.135 16.4291 718.016 15.3096 716.635 15.3096C715.254 15.3096 714.134 16.4291 714.134 17.8102C714.134 19.1913 715.254 20.3109 716.635 20.3109Z" fill="black"/>
<path d="M731.639 20.3109C733.02 20.3109 734.139 19.1913 734.139 17.8102C734.139 16.4291 733.02 15.3096 731.639 15.3096C730.258 15.3096 729.138 16.4291 729.138 17.8102C729.138 19.1913 730.258 20.3109 731.639 20.3109Z" fill="black"/>
<path d="M746.642 20.3109C748.023 20.3109 749.142 19.1913 749.142 17.8102C749.142 16.4291 748.023 15.3096 746.642 15.3096C745.261 15.3096 744.141 16.4291 744.141 17.8102C744.141 19.1913 745.261 20.3109 746.642 20.3109Z" fill="black"/>
<path d="M761.646 20.3109C763.027 20.3109 764.146 19.1913 764.146 17.8102C764.146 16.4291 763.027 15.3096 761.646 15.3096C760.265 15.3096 759.145 16.4291 759.145 17.8102C759.145 19.1913 760.265 20.3109 761.646 20.3109Z" fill="black"/>
<path d="M776.65 20.3109C778.031 20.3109 779.15 19.1913 779.15 17.8102C779.15 16.4291 778.031 15.3096 776.65 15.3096C775.269 15.3096 774.149 16.4291 774.149 17.8102C774.149 19.1913 775.269 20.3109 776.65 20.3109Z" fill="black"/>
<path d="M791.654 20.3109C793.035 20.3109 794.154 19.1913 794.154 17.8102C794.154 16.4291 793.035 15.3096 791.654 15.3096C790.273 15.3096 789.153 16.4291 789.153 17.8102C789.153 19.1913 790.273 20.3109 791.654 20.3109Z" fill="black"/>
<path d="M806.658 20.3109C808.039 20.3109 809.158 19.1913 809.158 17.8102C809.158 16.4291 808.039 15.3096 806.658 15.3096C805.277 15.3096 804.157 16.4291 804.157 17.8102C804.157 19.1913 805.277 20.3109 806.658 20.3109Z" fill="black"/>
<path d="M821.662 20.3109C823.043 20.3109 824.162 19.1913 824.162 17.8102C824.162 16.4291 823.043 15.3096 821.662 15.3096C820.281 15.3096 819.161 16.4291 819.161 17.8102C819.161 19.1913 820.281 20.3109 821.662 20.3109Z" fill="black"/>
<path d="M836.666 20.3109C838.047 20.3109 839.166 19.1913 839.166 17.8102C839.166 16.4291 838.047 15.3096 836.666 15.3096C835.285 15.3096 834.165 16.4291 834.165 17.8102C834.165 19.1913 835.285 20.3109 836.666 20.3109Z" fill="black"/>
<path d="M851.669 20.3109C853.05 20.3109 854.169 19.1913 854.169 17.8102C854.169 16.4291 853.05 15.3096 851.669 15.3096C850.288 15.3096 849.168 16.4291 849.168 17.8102C849.168 19.1913 850.288 20.3109 851.669 20.3109Z" fill="black"/>
<path d="M866.673 20.3109C868.054 20.3109 869.173 19.1913 869.173 17.8102C869.173 16.4291 868.054 15.3096 866.673 15.3096C865.291 15.3096 864.172 16.4291 864.172 17.8102C864.172 19.1913 865.291 20.3109 866.673 20.3109Z" fill="black"/>
<path d="M881.677 20.3109C883.058 20.3109 884.177 19.1913 884.177 17.8102C884.177 16.4291 883.058 15.3096 881.677 15.3096C880.296 15.3096 879.176 16.4291 879.176 17.8102C879.176 19.1913 880.296 20.3109 881.677 20.3109Z" fill="black"/>
<path d="M896.681 20.3109C898.062 20.3109 899.181 19.1913 899.181 17.8102C899.181 16.4291 898.062 15.3096 896.681 15.3096C895.3 15.3096 894.18 16.4291 894.18 17.8102C894.18 19.1913 895.3 20.3109 896.681 20.3109Z" fill="black"/>
<path d="M911.685 20.3109C913.066 20.3109 914.185 19.1913 914.185 17.8102C914.185 16.4291 913.066 15.3096 911.685 15.3096C910.304 15.3096 909.184 16.4291 909.184 17.8102C909.184 19.1913 910.304 20.3109 911.685 20.3109Z" fill="black"/>
<path d="M926.689 20.3109C928.07 20.3109 929.189 19.1913 929.189 17.8102C929.189 16.4291 928.07 15.3096 926.689 15.3096C925.308 15.3096 924.188 16.4291 924.188 17.8102C924.188 19.1913 925.308 20.3109 926.689 20.3109Z" fill="black"/>
<path d="M941.693 20.3109C943.074 20.3109 944.193 19.1913 944.193 17.8102C944.193 16.4291 943.074 15.3096 941.693 15.3096C940.311 15.3096 939.192 16.4291 939.192 17.8102C939.192 19.1913 940.311 20.3109 941.693 20.3109Z" fill="black"/>
<path d="M956.696 20.3109C958.077 20.3109 959.196 19.1913 959.196 17.8102C959.196 16.4291 958.077 15.3096 956.696 15.3096C955.315 15.3096 954.195 16.4291 954.195 17.8102C954.195 19.1913 955.315 20.3109 956.696 20.3109Z" fill="black"/>
<path d="M971.699 20.3109C973.08 20.3109 974.199 19.1913 974.199 17.8102C974.199 16.4291 973.08 15.3096 971.699 15.3096C970.318 15.3096 969.198 16.4291 969.198 17.8102C969.198 19.1913 970.318 20.3109 971.699 20.3109Z" fill="black"/>
<path d="M986.709 20.3109C988.09 20.3109 989.21 19.1913 989.21 17.8102C989.21 16.4291 988.09 15.3096 986.709 15.3096C985.328 15.3096 984.208 16.4291 984.208 17.8102C984.208 19.1913 985.328 20.3109 986.709 20.3109Z" fill="black"/>
<path d="M1001.71 20.3109C1003.09 20.3109 1004.21 19.1913 1004.21 17.8102C1004.21 16.4291 1003.09 15.3096 1001.71 15.3096C1000.33 15.3096 999.21 16.4291 999.21 17.8102C999.21 19.1913 1000.33 20.3109 1001.71 20.3109Z" fill="black"/>
<path d="M1016.71 20.3109C1018.09 20.3109 1019.21 19.1913 1019.21 17.8102C1019.21 16.4291 1018.09 15.3096 1016.71 15.3096C1015.33 15.3096 1014.21 16.4291 1014.21 17.8102C1014.21 19.1913 1015.33 20.3109 1016.71 20.3109Z" fill="black"/>
<path d="M1031.72 20.3109C1033.1 20.3109 1034.22 19.1913 1034.22 17.8102C1034.22 16.4291 1033.1 15.3096 1031.72 15.3096C1030.34 15.3096 1029.22 16.4291 1029.22 17.8102C1029.22 19.1913 1030.34 20.3109 1031.72 20.3109Z" fill="black"/>
<path d="M1046.72 20.3109C1048.1 20.3109 1049.22 19.1913 1049.22 17.8102C1049.22 16.4291 1048.1 15.3096 1046.72 15.3096C1045.34 15.3096 1044.22 16.4291 1044.22 17.8102C1044.22 19.1913 1045.34 20.3109 1046.72 20.3109Z" fill="black"/>
<path d="M1061.72 20.3109C1063.1 20.3109 1064.22 19.1913 1064.22 17.8102C1064.22 16.4291 1063.1 15.3096 1061.72 15.3096C1060.34 15.3096 1059.22 16.4291 1059.22 17.8102C1059.22 19.1913 1060.34 20.3109 1061.72 20.3109Z" fill="black"/>
<path d="M716.635 35.3148C718.016 35.3148 719.135 34.1952 719.135 32.8141C719.135 31.4331 718.016 30.3135 716.635 30.3135C715.254 30.3135 714.134 31.4331 714.134 32.8141C714.134 34.1952 715.254 35.3148 716.635 35.3148Z" fill="black"/>
<path d="M731.639 35.3148C733.02 35.3148 734.139 34.1952 734.139 32.8141C734.139 31.4331 733.02 30.3135 731.639 30.3135C730.258 30.3135 729.138 31.4331 729.138 32.8141C729.138 34.1952 730.258 35.3148 731.639 35.3148Z" fill="black"/>
<path d="M746.642 35.3148C748.023 35.3148 749.142 34.1952 749.142 32.8141C749.142 31.4331 748.023 30.3135 746.642 30.3135C745.261 30.3135 744.141 31.4331 744.141 32.8141C744.141 34.1952 745.261 35.3148 746.642 35.3148Z" fill="black"/>
<path d="M761.646 35.3148C763.027 35.3148 764.146 34.1952 764.146 32.8141C764.146 31.4331 763.027 30.3135 761.646 30.3135C760.265 30.3135 759.145 31.4331 759.145 32.8141C759.145 34.1952 760.265 35.3148 761.646 35.3148Z" fill="black"/>
<path d="M776.65 35.3148C778.031 35.3148 779.15 34.1952 779.15 32.8141C779.15 31.4331 778.031 30.3135 776.65 30.3135C775.269 30.3135 774.149 31.4331 774.149 32.8141C774.149 34.1952 775.269 35.3148 776.65 35.3148Z" fill="black"/>
<path d="M791.654 35.3148C793.035 35.3148 794.154 34.1952 794.154 32.8141C794.154 31.4331 793.035 30.3135 791.654 30.3135C790.273 30.3135 789.153 31.4331 789.153 32.8141C789.153 34.1952 790.273 35.3148 791.654 35.3148Z" fill="black"/>
<path d="M806.658 35.3148C808.039 35.3148 809.158 34.1952 809.158 32.8141C809.158 31.4331 808.039 30.3135 806.658 30.3135C805.277 30.3135 804.157 31.4331 804.157 32.8141C804.157 34.1952 805.277 35.3148 806.658 35.3148Z" fill="black"/>
<path d="M821.662 35.3148C823.043 35.3148 824.162 34.1952 824.162 32.8141C824.162 31.4331 823.043 30.3135 821.662 30.3135C820.281 30.3135 819.161 31.4331 819.161 32.8141C819.161 34.1952 820.281 35.3148 821.662 35.3148Z" fill="black"/>
<path d="M836.666 35.3148C838.047 35.3148 839.166 34.1952 839.166 32.8141C839.166 31.4331 838.047 30.3135 836.666 30.3135C835.285 30.3135 834.165 31.4331 834.165 32.8141C834.165 34.1952 835.285 35.3148 836.666 35.3148Z" fill="black"/>
<path d="M851.669 35.3148C853.05 35.3148 854.169 34.1952 854.169 32.8141C854.169 31.4331 853.05 30.3135 851.669 30.3135C850.288 30.3135 849.168 31.4331 849.168 32.8141C849.168 34.1952 850.288 35.3148 851.669 35.3148Z" fill="black"/>
<path d="M866.673 35.3148C868.054 35.3148 869.173 34.1952 869.173 32.8141C869.173 31.4331 868.054 30.3135 866.673 30.3135C865.291 30.3135 864.172 31.4331 864.172 32.8141C864.172 34.1952 865.291 35.3148 866.673 35.3148Z" fill="black"/>
<path d="M881.677 35.3148C883.058 35.3148 884.177 34.1952 884.177 32.8141C884.177 31.4331 883.058 30.3135 881.677 30.3135C880.296 30.3135 879.176 31.4331 879.176 32.8141C879.176 34.1952 880.296 35.3148 881.677 35.3148Z" fill="black"/>
<path d="M896.681 35.3148C898.062 35.3148 899.181 34.1952 899.181 32.8141C899.181 31.4331 898.062 30.3135 896.681 30.3135C895.3 30.3135 894.18 31.4331 894.18 32.8141C894.18 34.1952 895.3 35.3148 896.681 35.3148Z" fill="black"/>
<path d="M911.685 35.3148C913.066 35.3148 914.185 34.1952 914.185 32.8141C914.185 31.4331 913.066 30.3135 911.685 30.3135C910.304 30.3135 909.184 31.4331 909.184 32.8141C909.184 34.1952 910.304 35.3148 911.685 35.3148Z" fill="black"/>
<path d="M926.689 35.3148C928.07 35.3148 929.189 34.1952 929.189 32.8141C929.189 31.4331 928.07 30.3135 926.689 30.3135C925.308 30.3135 924.188 31.4331 924.188 32.8141C924.188 34.1952 925.308 35.3148 926.689 35.3148Z" fill="black"/>
<path d="M941.692 35.3148C943.073 35.3148 944.192 34.1952 944.192 32.8141C944.192 31.4331 943.073 30.3135 941.692 30.3135C940.31 30.3135 939.191 31.4331 939.191 32.8141C939.191 34.1952 940.31 35.3148 941.692 35.3148Z" fill="black"/>
<path d="M956.696 35.3148C958.077 35.3148 959.196 34.1952 959.196 32.8141C959.196 31.4331 958.077 30.3135 956.696 30.3135C955.315 30.3135 954.195 31.4331 954.195 32.8141C954.195 34.1952 955.315 35.3148 956.696 35.3148Z" fill="black"/>
<path d="M971.699 35.3148C973.08 35.3148 974.199 34.1952 974.199 32.8141C974.199 31.4331 973.08 30.3135 971.699 30.3135C970.318 30.3135 969.198 31.4331 969.198 32.8141C969.198 34.1952 970.318 35.3148 971.699 35.3148Z" fill="black"/>
<path d="M986.709 35.3148C988.09 35.3148 989.21 34.1952 989.21 32.8141C989.21 31.4331 988.09 30.3135 986.709 30.3135C985.328 30.3135 984.208 31.4331 984.208 32.8141C984.208 34.1952 985.328 35.3148 986.709 35.3148Z" fill="black"/>
<path d="M1001.71 35.3148C1003.09 35.3148 1004.21 34.1952 1004.21 32.8141C1004.21 31.4331 1003.09 30.3135 1001.71 30.3135C1000.33 30.3135 999.21 31.4331 999.21 32.8141C999.21 34.1952 1000.33 35.3148 1001.71 35.3148Z" fill="black"/>
<path d="M1016.71 35.3148C1018.09 35.3148 1019.21 34.1952 1019.21 32.8141C1019.21 31.4331 1018.09 30.3135 1016.71 30.3135C1015.33 30.3135 1014.21 31.4331 1014.21 32.8141C1014.21 34.1952 1015.33 35.3148 1016.71 35.3148Z" fill="black"/>
<path d="M1031.72 35.3148C1033.1 35.3148 1034.22 34.1952 1034.22 32.8141C1034.22 31.4331 1033.1 30.3135 1031.72 30.3135C1030.34 30.3135 1029.22 31.4331 1029.22 32.8141C1029.22 34.1952 1030.34 35.3148 1031.72 35.3148Z" fill="black"/>
<path d="M1046.72 35.3148C1048.1 35.3148 1049.22 34.1952 1049.22 32.8141C1049.22 31.4331 1048.1 30.3135 1046.72 30.3135C1045.34 30.3135 1044.22 31.4331 1044.22 32.8141C1044.22 34.1952 1045.34 35.3148 1046.72 35.3148Z" fill="black"/>
<path d="M1061.72 35.3148C1063.1 35.3148 1064.22 34.1952 1064.22 32.8141C1064.22 31.4331 1063.1 30.3135 1061.72 30.3135C1060.34 30.3135 1059.22 31.4331 1059.22 32.8141C1059.22 34.1952 1060.34 35.3148 1061.72 35.3148Z" fill="black"/>
<path d="M1076.72 5.30694C1078.1 5.30694 1079.22 4.18737 1079.22 2.8063C1079.22 1.42524 1078.1 0.305664 1076.72 0.305664C1075.34 0.305664 1074.22 1.42524 1074.22 2.8063C1074.22 4.18737 1075.34 5.30694 1076.72 5.30694Z" fill="black"/>
<path d="M1091.72 5.30694C1093.1 5.30694 1094.22 4.18737 1094.22 2.8063C1094.22 1.42524 1093.1 0.305664 1091.72 0.305664C1090.34 0.305664 1089.22 1.42524 1089.22 2.8063C1089.22 4.18737 1090.34 5.30694 1091.72 5.30694Z" fill="black"/>
<path d="M1106.73 5.30694C1108.11 5.30694 1109.23 4.18737 1109.23 2.8063C1109.23 1.42524 1108.11 0.305664 1106.73 0.305664C1105.35 0.305664 1104.23 1.42524 1104.23 2.8063C1104.23 4.18737 1105.35 5.30694 1106.73 5.30694Z" fill="black"/>
<path d="M1121.73 5.30694C1123.11 5.30694 1124.23 4.18737 1124.23 2.8063C1124.23 1.42524 1123.11 0.305664 1121.73 0.305664C1120.35 0.305664 1119.23 1.42524 1119.23 2.8063C1119.23 4.18737 1120.35 5.30694 1121.73 5.30694Z" fill="black"/>
<path d="M1136.73 5.30694C1138.11 5.30694 1139.23 4.18737 1139.23 2.8063C1139.23 1.42524 1138.11 0.305664 1136.73 0.305664C1135.35 0.305664 1134.23 1.42524 1134.23 2.8063C1134.23 4.18737 1135.35 5.30694 1136.73 5.30694Z" fill="black"/>
<path d="M1151.74 5.30694C1153.12 5.30694 1154.24 4.18737 1154.24 2.8063C1154.24 1.42524 1153.12 0.305664 1151.74 0.305664C1150.36 0.305664 1149.24 1.42524 1149.24 2.8063C1149.24 4.18737 1150.36 5.30694 1151.74 5.30694Z" fill="black"/>
<path d="M1166.74 5.30694C1168.12 5.30694 1169.24 4.18737 1169.24 2.8063C1169.24 1.42524 1168.12 0.305664 1166.74 0.305664C1165.36 0.305664 1164.24 1.42524 1164.24 2.8063C1164.24 4.18737 1165.36 5.30694 1166.74 5.30694Z" fill="black"/>
<path d="M1181.75 5.30694C1183.13 5.30694 1184.25 4.18737 1184.25 2.8063C1184.25 1.42524 1183.13 0.305664 1181.75 0.305664C1180.37 0.305664 1179.25 1.42524 1179.25 2.8063C1179.25 4.18737 1180.37 5.30694 1181.75 5.30694Z" fill="black"/>
<path d="M1196.75 5.30694C1198.13 5.30694 1199.25 4.18737 1199.25 2.8063C1199.25 1.42524 1198.13 0.305664 1196.75 0.305664C1195.37 0.305664 1194.25 1.42524 1194.25 2.8063C1194.25 4.18737 1195.37 5.30694 1196.75 5.30694Z" fill="black"/>
<path d="M1211.75 5.30694C1213.13 5.30694 1214.25 4.18737 1214.25 2.8063C1214.25 1.42524 1213.13 0.305664 1211.75 0.305664C1210.37 0.305664 1209.25 1.42524 1209.25 2.8063C1209.25 4.18737 1210.37 5.30694 1211.75 5.30694Z" fill="black"/>
<path d="M1226.76 5.30694C1228.14 5.30694 1229.26 4.18737 1229.26 2.8063C1229.26 1.42524 1228.14 0.305664 1226.76 0.305664C1225.38 0.305664 1224.26 1.42524 1224.26 2.8063C1224.26 4.18737 1225.38 5.30694 1226.76 5.30694Z" fill="black"/>
<path d="M1241.76 5.30694C1243.14 5.30694 1244.26 4.18737 1244.26 2.8063C1244.26 1.42524 1243.14 0.305664 1241.76 0.305664C1240.38 0.305664 1239.26 1.42524 1239.26 2.8063C1239.26 4.18737 1240.38 5.30694 1241.76 5.30694Z" fill="black"/>
<path d="M1076.72 20.3109C1078.1 20.3109 1079.22 19.1913 1079.22 17.8102C1079.22 16.4291 1078.1 15.3096 1076.72 15.3096C1075.34 15.3096 1074.22 16.4291 1074.22 17.8102C1074.22 19.1913 1075.34 20.3109 1076.72 20.3109Z" fill="black"/>
<path d="M1091.72 20.3109C1093.1 20.3109 1094.22 19.1913 1094.22 17.8102C1094.22 16.4291 1093.1 15.3096 1091.72 15.3096C1090.34 15.3096 1089.22 16.4291 1089.22 17.8102C1089.22 19.1913 1090.34 20.3109 1091.72 20.3109Z" fill="black"/>
<path d="M1106.73 20.3109C1108.11 20.3109 1109.23 19.1913 1109.23 17.8102C1109.23 16.4291 1108.11 15.3096 1106.73 15.3096C1105.35 15.3096 1104.23 16.4291 1104.23 17.8102C1104.23 19.1913 1105.35 20.3109 1106.73 20.3109Z" fill="black"/>
<path d="M1121.73 20.3109C1123.11 20.3109 1124.23 19.1913 1124.23 17.8102C1124.23 16.4291 1123.11 15.3096 1121.73 15.3096C1120.35 15.3096 1119.23 16.4291 1119.23 17.8102C1119.23 19.1913 1120.35 20.3109 1121.73 20.3109Z" fill="black"/>
<path d="M1136.73 20.3109C1138.11 20.3109 1139.23 19.1913 1139.23 17.8102C1139.23 16.4291 1138.11 15.3096 1136.73 15.3096C1135.35 15.3096 1134.23 16.4291 1134.23 17.8102C1134.23 19.1913 1135.35 20.3109 1136.73 20.3109Z" fill="black"/>
<path d="M1151.74 20.3109C1153.12 20.3109 1154.24 19.1913 1154.24 17.8102C1154.24 16.4291 1153.12 15.3096 1151.74 15.3096C1150.36 15.3096 1149.24 16.4291 1149.24 17.8102C1149.24 19.1913 1150.36 20.3109 1151.74 20.3109Z" fill="black"/>
<path d="M1166.74 20.3109C1168.12 20.3109 1169.24 19.1913 1169.24 17.8102C1169.24 16.4291 1168.12 15.3096 1166.74 15.3096C1165.36 15.3096 1164.24 16.4291 1164.24 17.8102C1164.24 19.1913 1165.36 20.3109 1166.74 20.3109Z" fill="black"/>
<path d="M1181.75 20.3109C1183.13 20.3109 1184.25 19.1913 1184.25 17.8102C1184.25 16.4291 1183.13 15.3096 1181.75 15.3096C1180.37 15.3096 1179.25 16.4291 1179.25 17.8102C1179.25 19.1913 1180.37 20.3109 1181.75 20.3109Z" fill="black"/>
<path d="M1196.75 20.3109C1198.13 20.3109 1199.25 19.1913 1199.25 17.8102C1199.25 16.4291 1198.13 15.3096 1196.75 15.3096C1195.37 15.3096 1194.25 16.4291 1194.25 17.8102C1194.25 19.1913 1195.37 20.3109 1196.75 20.3109Z" fill="black"/>
<path d="M1211.75 20.3109C1213.13 20.3109 1214.25 19.1913 1214.25 17.8102C1214.25 16.4291 1213.13 15.3096 1211.75 15.3096C1210.37 15.3096 1209.25 16.4291 1209.25 17.8102C1209.25 19.1913 1210.37 20.3109 1211.75 20.3109Z" fill="black"/>
<path d="M1226.76 20.3109C1228.14 20.3109 1229.26 19.1913 1229.26 17.8102C1229.26 16.4291 1228.14 15.3096 1226.76 15.3096C1225.38 15.3096 1224.26 16.4291 1224.26 17.8102C1224.26 19.1913 1225.38 20.3109 1226.76 20.3109Z" fill="black"/>
<path d="M1241.76 20.3109C1243.14 20.3109 1244.26 19.1913 1244.26 17.8102C1244.26 16.4291 1243.14 15.3096 1241.76 15.3096C1240.38 15.3096 1239.26 16.4291 1239.26 17.8102C1239.26 19.1913 1240.38 20.3109 1241.76 20.3109Z" fill="black"/>
<path d="M1076.72 35.3148C1078.1 35.3148 1079.22 34.1952 1079.22 32.8141C1079.22 31.4331 1078.1 30.3135 1076.72 30.3135C1075.34 30.3135 1074.22 31.4331 1074.22 32.8141C1074.22 34.1952 1075.34 35.3148 1076.72 35.3148Z" fill="black"/>
<path d="M1091.72 35.3148C1093.1 35.3148 1094.22 34.1952 1094.22 32.8141C1094.22 31.4331 1093.1 30.3135 1091.72 30.3135C1090.34 30.3135 1089.22 31.4331 1089.22 32.8141C1089.22 34.1952 1090.34 35.3148 1091.72 35.3148Z" fill="black"/>
<path d="M1106.73 35.3148C1108.11 35.3148 1109.23 34.1952 1109.23 32.8141C1109.23 31.4331 1108.11 30.3135 1106.73 30.3135C1105.35 30.3135 1104.23 31.4331 1104.23 32.8141C1104.23 34.1952 1105.35 35.3148 1106.73 35.3148Z" fill="black"/>
<path d="M1121.73 35.3148C1123.11 35.3148 1124.23 34.1952 1124.23 32.8141C1124.23 31.4331 1123.11 30.3135 1121.73 30.3135C1120.35 30.3135 1119.23 31.4331 1119.23 32.8141C1119.23 34.1952 1120.35 35.3148 1121.73 35.3148Z" fill="black"/>
<path d="M1136.73 35.3148C1138.11 35.3148 1139.23 34.1952 1139.23 32.8141C1139.23 31.4331 1138.11 30.3135 1136.73 30.3135C1135.35 30.3135 1134.23 31.4331 1134.23 32.8141C1134.23 34.1952 1135.35 35.3148 1136.73 35.3148Z" fill="black"/>
<path d="M1151.74 35.3148C1153.12 35.3148 1154.24 34.1952 1154.24 32.8141C1154.24 31.4331 1153.12 30.3135 1151.74 30.3135C1150.36 30.3135 1149.24 31.4331 1149.24 32.8141C1149.24 34.1952 1150.36 35.3148 1151.74 35.3148Z" fill="black"/>
<path d="M1166.74 35.3148C1168.12 35.3148 1169.24 34.1952 1169.24 32.8141C1169.24 31.4331 1168.12 30.3135 1166.74 30.3135C1165.36 30.3135 1164.24 31.4331 1164.24 32.8141C1164.24 34.1952 1165.36 35.3148 1166.74 35.3148Z" fill="black"/>
<path d="M1181.75 35.3148C1183.13 35.3148 1184.25 34.1952 1184.25 32.8141C1184.25 31.4331 1183.13 30.3135 1181.75 30.3135C1180.37 30.3135 1179.25 31.4331 1179.25 32.8141C1179.25 34.1952 1180.37 35.3148 1181.75 35.3148Z" fill="black"/>
<path d="M1196.75 35.3148C1198.13 35.3148 1199.25 34.1952 1199.25 32.8141C1199.25 31.4331 1198.13 30.3135 1196.75 30.3135C1195.37 30.3135 1194.25 31.4331 1194.25 32.8141C1194.25 34.1952 1195.37 35.3148 1196.75 35.3148Z" fill="black"/>
<path d="M1211.75 35.3148C1213.13 35.3148 1214.25 34.1952 1214.25 32.8141C1214.25 31.4331 1213.13 30.3135 1211.75 30.3135C1210.37 30.3135 1209.25 31.4331 1209.25 32.8141C1209.25 34.1952 1210.37 35.3148 1211.75 35.3148Z" fill="black"/>
<path d="M1226.76 35.3148C1228.14 35.3148 1229.26 34.1952 1229.26 32.8141C1229.26 31.4331 1228.14 30.3135 1226.76 30.3135C1225.38 30.3135 1224.26 31.4331 1224.26 32.8141C1224.26 34.1952 1225.38 35.3148 1226.76 35.3148Z" fill="black"/>
<path d="M1241.76 35.3148C1243.14 35.3148 1244.26 34.1952 1244.26 32.8141C1244.26 31.4331 1243.14 30.3135 1241.76 30.3135C1240.38 30.3135 1239.26 31.4331 1239.26 32.8141C1239.26 34.1952 1240.38 35.3148 1241.76 35.3148Z" fill="black"/>
<path d="M1257.5 5.00128C1258.88 5.00128 1260 3.88171 1260 2.50064C1260 1.11957 1258.88 0 1257.5 0C1256.12 0 1255 1.11957 1255 2.50064C1255 3.88171 1256.12 5.00128 1257.5 5.00128Z" fill="black"/>
<path d="M1257.5 20.0052C1258.88 20.0052 1260 18.8856 1260 17.5045C1260 16.1235 1258.88 15.0039 1257.5 15.0039C1256.12 15.0039 1255 16.1235 1255 17.5045C1255 18.8856 1256.12 20.0052 1257.5 20.0052Z" fill="black"/>
<path d="M1257.5 35.0091C1258.88 35.0091 1260 33.8895 1260 32.5085C1260 31.1274 1258.88 30.0078 1257.5 30.0078C1256.12 30.0078 1255 31.1274 1255 32.5085C1255 33.8895 1256.12 35.0091 1257.5 35.0091Z" fill="black"/>
<path d="M43.7429 53.0064H50.0009C52.2549 53.0064 53.9769 53.6784 55.1669 55.0224C56.3569 56.3664 56.9519 58.1934 56.9519 60.5034C56.9519 62.8134 56.3569 64.6404 55.1669 65.9844C53.9769 67.3284 52.2549 68.0004 50.0009 68.0004H43.7429V53.0064ZM46.8719 65.2074H49.6019C51.0299 65.2074 52.0729 64.7804 52.7309 63.9264C53.4029 63.0584 53.7389 61.9174 53.7389 60.5034C53.7389 59.0894 53.4029 57.9554 52.7309 57.1014C52.0729 56.2334 51.0299 55.7994 49.6019 55.7994H46.8719V65.2074ZM64.5065 56.9334C66.2145 56.9334 67.5725 57.4514 68.5805 58.4874C69.5885 59.5234 70.0925 60.8954 70.0925 62.6034C70.0925 64.3114 69.5885 65.6834 68.5805 66.7194C67.5725 67.7554 66.2145 68.2734 64.5065 68.2734C62.8125 68.2734 61.4545 67.7554 60.4325 66.7194C59.4245 65.6694 58.9205 64.2974 58.9205 62.6034C58.9205 60.9094 59.4245 59.5444 60.4325 58.5084C61.4545 57.4584 62.8125 56.9334 64.5065 56.9334ZM64.5065 65.8374C65.3885 65.8374 66.0465 65.5364 66.4805 64.9344C66.9285 64.3184 67.1525 63.5414 67.1525 62.6034C67.1525 61.6794 66.9285 60.9164 66.4805 60.3144C66.0465 59.6984 65.3885 59.3904 64.5065 59.3904C63.6385 59.3904 62.9805 59.6984 62.5325 60.3144C62.0845 60.9164 61.8605 61.6794 61.8605 62.6034C61.8605 63.5414 62.0845 64.3184 62.5325 64.9344C62.9805 65.5364 63.6385 65.8374 64.5065 65.8374ZM76.058 57.2064H78.431V59.6634H76.058V64.3044C76.058 65.1024 76.52 65.5014 77.444 65.5014H78.431V68.0004H77.402C76.044 68.0004 74.987 67.7554 74.231 67.2654C73.489 66.7614 73.118 65.8934 73.118 64.6614V59.6634H71.543V57.2064H73.118V54.1824H76.058V57.2064ZM81.1037 52.7334H84.0437V68.0004H81.1037V52.7334ZM90.1359 55.3584H87.1535V52.7334H90.1359V55.3584ZM90.1149 57.2064V68.0004H87.1745V57.2064H90.1149Z" fill="#00FA9A"/>
<path d="M138.743 53.0064H145.001C147.255 53.0064 148.977 53.6784 150.167 55.0224C151.357 56.3664 151.952 58.1934 151.952 60.5034C151.952 62.8134 151.357 64.6404 150.167 65.9844C148.977 67.3284 147.255 68.0004 145.001 68.0004H138.743V53.0064ZM141.872 65.2074H144.602C146.03 65.2074 147.073 64.7804 147.731 63.9264C148.403 63.0584 148.739 61.9174 148.739 60.5034C148.739 59.0894 148.403 57.9554 147.731 57.1014C147.073 56.2334 146.03 55.7994 144.602 55.7994H141.872V65.2074ZM159.507 56.9334C161.215 56.9334 162.573 57.4514 163.581 58.4874C164.589 59.5234 165.093 60.8954 165.093 62.6034C165.093 64.3114 164.589 65.6834 163.581 66.7194C162.573 67.7554 161.215 68.2734 159.507 68.2734C157.813 68.2734 156.455 67.7554 155.433 66.7194C154.425 65.6694 153.921 64.2974 153.921 62.6034C153.921 60.9094 154.425 59.5444 155.433 58.5084C156.455 57.4584 157.813 56.9334 159.507 56.9334ZM159.507 65.8374C160.389 65.8374 161.047 65.5364 161.481 64.9344C161.929 64.3184 162.153 63.5414 162.153 62.6034C162.153 61.6794 161.929 60.9164 161.481 60.3144C161.047 59.6984 160.389 59.3904 159.507 59.3904C158.639 59.3904 157.981 59.6984 157.533 60.3144C157.085 60.9164 156.861 61.6794 156.861 62.6034C156.861 63.5414 157.085 64.3184 157.533 64.9344C157.981 65.5364 158.639 65.8374 159.507 65.8374ZM171.058 57.2064H173.431V59.6634H171.058V64.3044C171.058 65.1024 171.52 65.5014 172.444 65.5014H173.431V68.0004H172.402C171.044 68.0004 169.987 67.7554 169.231 67.2654C168.489 66.7614 168.118 65.8934 168.118 64.6614V59.6634H166.543V57.2064H168.118V54.1824H171.058V57.2064ZM176.104 52.7334H179.044V68.0004H176.104V52.7334ZM185.136 55.3584H182.154V52.7334H185.136V55.3584ZM185.115 57.2064V68.0004H182.175V57.2064H185.115Z" fill="#00FA9A"/>
<path d="M233.743 53.0064H240.001C242.255 53.0064 243.977 53.6784 245.167 55.0224C246.357 56.3664 246.952 58.1934 246.952 60.5034C246.952 62.8134 246.357 64.6404 245.167 65.9844C243.977 67.3284 242.255 68.0004 240.001 68.0004H233.743V53.0064ZM236.872 65.2074H239.602C241.03 65.2074 242.073 64.7804 242.731 63.9264C243.403 63.0584 243.739 61.9174 243.739 60.5034C243.739 59.0894 243.403 57.9554 242.731 57.1014C242.073 56.2334 241.03 55.7994 239.602 55.7994H236.872V65.2074ZM254.507 56.9334C256.215 56.9334 257.573 57.4514 258.581 58.4874C259.589 59.5234 260.093 60.8954 260.093 62.6034C260.093 64.3114 259.589 65.6834 258.581 66.7194C257.573 67.7554 256.215 68.2734 254.507 68.2734C252.813 68.2734 251.455 67.7554 250.433 66.7194C249.425 65.6694 248.921 64.2974 248.921 62.6034C248.921 60.9094 249.425 59.5444 250.433 58.5084C251.455 57.4584 252.813 56.9334 254.507 56.9334ZM254.507 65.8374C255.389 65.8374 256.047 65.5364 256.481 64.9344C256.929 64.3184 257.153 63.5414 257.153 62.6034C257.153 61.6794 256.929 60.9164 256.481 60.3144C256.047 59.6984 255.389 59.3904 254.507 59.3904C253.639 59.3904 252.981 59.6984 252.533 60.3144C252.085 60.9164 251.861 61.6794 251.861 62.6034C251.861 63.5414 252.085 64.3184 252.533 64.9344C252.981 65.5364 253.639 65.8374 254.507 65.8374ZM266.058 57.2064H268.431V59.6634H266.058V64.3044C266.058 65.1024 266.52 65.5014 267.444 65.5014H268.431V68.0004H267.402C266.044 68.0004 264.987 67.7554 264.231 67.2654C263.489 66.7614 263.118 65.8934 263.118 64.6614V59.6634H261.543V57.2064H263.118V54.1824H266.058V57.2064ZM271.104 52.7334H274.044V68.0004H271.104V52.7334ZM280.136 55.3584H277.154V52.7334H280.136V55.3584ZM280.115 57.2064V68.0004H277.175V57.2064H280.115Z" fill="#00FA9A"/>
<path d="M328.743 53.0064H335.001C337.255 53.0064 338.977 53.6784 340.167 55.0224C341.357 56.3664 341.952 58.1934 341.952 60.5034C341.952 62.8134 341.357 64.6404 340.167 65.9844C338.977 67.3284 337.255 68.0004 335.001 68.0004H328.743V53.0064ZM331.872 65.2074H334.602C336.03 65.2074 337.073 64.7804 337.731 63.9264C338.403 63.0584 338.739 61.9174 338.739 60.5034C338.739 59.0894 338.403 57.9554 337.731 57.1014C337.073 56.2334 336.03 55.7994 334.602 55.7994H331.872V65.2074ZM349.507 56.9334C351.215 56.9334 352.573 57.4514 353.581 58.4874C354.589 59.5234 355.093 60.8954 355.093 62.6034C355.093 64.3114 354.589 65.6834 353.581 66.7194C352.573 67.7554 351.215 68.2734 349.507 68.2734C347.813 68.2734 346.455 67.7554 345.433 66.7194C344.425 65.6694 343.921 64.2974 343.921 62.6034C343.921 60.9094 344.425 59.5444 345.433 58.5084C346.455 57.4584 347.813 56.9334 349.507 56.9334ZM349.507 65.8374C350.389 65.8374 351.047 65.5364 351.481 64.9344C351.929 64.3184 352.153 63.5414 352.153 62.6034C352.153 61.6794 351.929 60.9164 351.481 60.3144C351.047 59.6984 350.389 59.3904 349.507 59.3904C348.639 59.3904 347.981 59.6984 347.533 60.3144C347.085 60.9164 346.861 61.6794 346.861 62.6034C346.861 63.5414 347.085 64.3184 347.533 64.9344C347.981 65.5364 348.639 65.8374 349.507 65.8374ZM361.058 57.2064H363.431V59.6634H361.058V64.3044C361.058 65.1024 361.52 65.5014 362.444 65.5014H363.431V68.0004H362.402C361.044 68.0004 359.987 67.7554 359.231 67.2654C358.489 66.7614 358.118 65.8934 358.118 64.6614V59.6634H356.543V57.2064H358.118V54.1824H361.058V57.2064ZM366.104 52.7334H369.044V68.0004H366.104V52.7334ZM375.136 55.3584H372.154V52.7334H375.136V55.3584ZM375.115 57.2064V68.0004H372.175V57.2064H375.115Z" fill="#00FA9A"/>
<path d="M423.743 53.0064H430.001C432.255 53.0064 433.977 53.6784 435.167 55.0224C436.357 56.3664 436.952 58.1934 436.952 60.5034C436.952 62.8134 436.357 64.6404 435.167 65.9844C433.977 67.3284 432.255 68.0004 430.001 68.0004H423.743V53.0064ZM426.872 65.2074H429.602C431.03 65.2074 432.073 64.7804 432.731 63.9264C433.403 63.0584 433.739 61.9174 433.739 60.5034C433.739 59.0894 433.403 57.9554 432.731 57.1014C432.073 56.2334 431.03 55.7994 429.602 55.7994H426.872V65.2074ZM444.507 56.9334C446.215 56.9334 447.573 57.4514 448.581 58.4874C449.589 59.5234 450.093 60.8954 450.093 62.6034C450.093 64.3114 449.589 65.6834 448.581 66.7194C447.573 67.7554 446.215 68.2734 444.507 68.2734C442.813 68.2734 441.455 67.7554 440.433 66.7194C439.425 65.6694 438.921 64.2974 438.921 62.6034C438.921 60.9094 439.425 59.5444 440.433 58.5084C441.455 57.4584 442.813 56.9334 444.507 56.9334ZM444.507 65.8374C445.389 65.8374 446.047 65.5364 446.481 64.9344C446.929 64.3184 447.153 63.5414 447.153 62.6034C447.153 61.6794 446.929 60.9164 446.481 60.3144C446.047 59.6984 445.389 59.3904 444.507 59.3904C443.639 59.3904 442.981 59.6984 442.533 60.3144C442.085 60.9164 441.861 61.6794 441.861 62.6034C441.861 63.5414 442.085 64.3184 442.533 64.9344C442.981 65.5364 443.639 65.8374 444.507 65.8374ZM456.058 57.2064H458.431V59.6634H456.058V64.3044C456.058 65.1024 456.52 65.5014 457.444 65.5014H458.431V68.0004H457.402C456.044 68.0004 454.987 67.7554 454.231 67.2654C453.489 66.7614 453.118 65.8934 453.118 64.6614V59.6634H451.543V57.2064H453.118V54.1824H456.058V57.2064ZM461.104 52.7334H464.044V68.0004H461.104V52.7334ZM470.136 55.3584H467.154V52.7334H470.136V55.3584ZM470.115 57.2064V68.0004H467.175V57.2064H470.115Z" fill="#00FA9A"/>
<path d="M518.743 53.0064H525.001C527.255 53.0064 528.977 53.6784 530.167 55.0224C531.357 56.3664 531.952 58.1934 531.952 60.5034C531.952 62.8134 531.357 64.6404 530.167 65.9844C528.977 67.3284 527.255 68.0004 525.001 68.0004H518.743V53.0064ZM521.872 65.2074H524.602C526.03 65.2074 527.073 64.7804 527.731 63.9264C528.403 63.0584 528.739 61.9174 528.739 60.5034C528.739 59.0894 528.403 57.9554 527.731 57.1014C527.073 56.2334 526.03 55.7994 524.602 55.7994H521.872V65.2074ZM539.507 56.9334C541.215 56.9334 542.573 57.4514 543.581 58.4874C544.589 59.5234 545.093 60.8954 545.093 62.6034C545.093 64.3114 544.589 65.6834 543.581 66.7194C542.573 67.7554 541.215 68.2734 539.507 68.2734C537.813 68.2734 536.455 67.7554 535.433 66.7194C534.425 65.6694 533.921 64.2974 533.921 62.6034C533.921 60.9094 534.425 59.5444 535.433 58.5084C536.455 57.4584 537.813 56.9334 539.507 56.9334ZM539.507 65.8374C540.389 65.8374 541.047 65.5364 541.481 64.9344C541.929 64.3184 542.153 63.5414 542.153 62.6034C542.153 61.6794 541.929 60.9164 541.481 60.3144C541.047 59.6984 540.389 59.3904 539.507 59.3904C538.639 59.3904 537.981 59.6984 537.533 60.3144C537.085 60.9164 536.861 61.6794 536.861 62.6034C536.861 63.5414 537.085 64.3184 537.533 64.9344C537.981 65.5364 538.639 65.8374 539.507 65.8374ZM551.058 57.2064H553.431V59.6634H551.058V64.3044C551.058 65.1024 551.52 65.5014 552.444 65.5014H553.431V68.0004H552.402C551.044 68.0004 549.987 67.7554 549.231 67.2654C548.489 66.7614 548.118 65.8934 548.118 64.6614V59.6634H546.543V57.2064H548.118V54.1824H551.058V57.2064ZM556.104 52.7334H559.044V68.0004H556.104V52.7334ZM565.136 55.3584H562.154V52.7334H565.136V55.3584ZM565.115 57.2064V68.0004H562.175V57.2064H565.115Z" fill="#00FA9A"/>
<path d="M613.743 53.0064H620.001C622.255 53.0064 623.977 53.6784 625.167 55.0224C626.357 56.3664 626.952 58.1934 626.952 60.5034C626.952 62.8134 626.357 64.6404 625.167 65.9844C623.977 67.3284 622.255 68.0004 620.001 68.0004H613.743V53.0064ZM616.872 65.2074H619.602C621.03 65.2074 622.073 64.7804 622.731 63.9264C623.403 63.0584 623.739 61.9174 623.739 60.5034C623.739 59.0894 623.403 57.9554 622.731 57.1014C622.073 56.2334 621.03 55.7994 619.602 55.7994H616.872V65.2074ZM634.507 56.9334C636.215 56.9334 637.573 57.4514 638.581 58.4874C639.589 59.5234 640.093 60.8954 640.093 62.6034C640.093 64.3114 639.589 65.6834 638.581 66.7194C637.573 67.7554 636.215 68.2734 634.507 68.2734C632.813 68.2734 631.455 67.7554 630.433 66.7194C629.425 65.6694 628.921 64.2974 628.921 62.6034C628.921 60.9094 629.425 59.5444 630.433 58.5084C631.455 57.4584 632.813 56.9334 634.507 56.9334ZM634.507 65.8374C635.389 65.8374 636.047 65.5364 636.481 64.9344C636.929 64.3184 637.153 63.5414 637.153 62.6034C637.153 61.6794 636.929 60.9164 636.481 60.3144C636.047 59.6984 635.389 59.3904 634.507 59.3904C633.639 59.3904 632.981 59.6984 632.533 60.3144C632.085 60.9164 631.861 61.6794 631.861 62.6034C631.861 63.5414 632.085 64.3184 632.533 64.9344C632.981 65.5364 633.639 65.8374 634.507 65.8374ZM646.058 57.2064H648.431V59.6634H646.058V64.3044C646.058 65.1024 646.52 65.5014 647.444 65.5014H648.431V68.0004H647.402C646.044 68.0004 644.987 67.7554 644.231 67.2654C643.489 66.7614 643.118 65.8934 643.118 64.6614V59.6634H641.543V57.2064H643.118V54.1824H646.058V57.2064ZM651.104 52.7334H654.044V68.0004H651.104V52.7334ZM660.136 55.3584H657.154V52.7334H660.136V55.3584ZM660.115 57.2064V68.0004H657.175V57.2064H660.115Z" fill="#00FA9A"/>
<path d="M708.743 53.0064H715.001C717.255 53.0064 718.977 53.6784 720.167 55.0224C721.357 56.3664 721.952 58.1934 721.952 60.5034C721.952 62.8134 721.357 64.6404 720.167 65.9844C718.977 67.3284 717.255 68.0004 715.001 68.0004H708.743V53.0064ZM711.872 65.2074H714.602C716.03 65.2074 717.073 64.7804 717.731 63.9264C718.403 63.0584 718.739 61.9174 718.739 60.5034C718.739 59.0894 718.403 57.9554 717.731 57.1014C717.073 56.2334 716.03 55.7994 714.602 55.7994H711.872V65.2074ZM729.507 56.9334C731.215 56.9334 732.573 57.4514 733.581 58.4874C734.589 59.5234 735.093 60.8954 735.093 62.6034C735.093 64.3114 734.589 65.6834 733.581 66.7194C732.573 67.7554 731.215 68.2734 729.507 68.2734C727.813 68.2734 726.455 67.7554 725.433 66.7194C724.425 65.6694 723.921 64.2974 723.921 62.6034C723.921 60.9094 724.425 59.5444 725.433 58.5084C726.455 57.4584 727.813 56.9334 729.507 56.9334ZM729.507 65.8374C730.389 65.8374 731.047 65.5364 731.481 64.9344C731.929 64.3184 732.153 63.5414 732.153 62.6034C732.153 61.6794 731.929 60.9164 731.481 60.3144C731.047 59.6984 730.389 59.3904 729.507 59.3904C728.639 59.3904 727.981 59.6984 727.533 60.3144C727.085 60.9164 726.861 61.6794 726.861 62.6034C726.861 63.5414 727.085 64.3184 727.533 64.9344C727.981 65.5364 728.639 65.8374 729.507 65.8374ZM741.058 57.2064H743.431V59.6634H741.058V64.3044C741.058 65.1024 741.52 65.5014 742.444 65.5014H743.431V68.0004H742.402C741.044 68.0004 739.987 67.7554 739.231 67.2654C738.489 66.7614 738.118 65.8934 738.118 64.6614V59.6634H736.543V57.2064H738.118V54.1824H741.058V57.2064ZM746.104 52.7334H749.044V68.0004H746.104V52.7334ZM755.136 55.3584H752.154V52.7334H755.136V55.3584ZM755.115 57.2064V68.0004H752.175V57.2064H755.115Z" fill="#00FA9A"/>
<path d="M803.743 53.0064H810.001C812.255 53.0064 813.977 53.6784 815.167 55.0224C816.357 56.3664 816.952 58.1934 816.952 60.5034C816.952 62.8134 816.357 64.6404 815.167 65.9844C813.977 67.3284 812.255 68.0004 810.001 68.0004H803.743V53.0064ZM806.872 65.2074H809.602C811.03 65.2074 812.073 64.7804 812.731 63.9264C813.403 63.0584 813.739 61.9174 813.739 60.5034C813.739 59.0894 813.403 57.9554 812.731 57.1014C812.073 56.2334 811.03 55.7994 809.602 55.7994H806.872V65.2074ZM824.507 56.9334C826.215 56.9334 827.573 57.4514 828.581 58.4874C829.589 59.5234 830.093 60.8954 830.093 62.6034C830.093 64.3114 829.589 65.6834 828.581 66.7194C827.573 67.7554 826.215 68.2734 824.507 68.2734C822.813 68.2734 821.455 67.7554 820.433 66.7194C819.425 65.6694 818.921 64.2974 818.921 62.6034C818.921 60.9094 819.425 59.5444 820.433 58.5084C821.455 57.4584 822.813 56.9334 824.507 56.9334ZM824.507 65.8374C825.389 65.8374 826.047 65.5364 826.481 64.9344C826.929 64.3184 827.153 63.5414 827.153 62.6034C827.153 61.6794 826.929 60.9164 826.481 60.3144C826.047 59.6984 825.389 59.3904 824.507 59.3904C823.639 59.3904 822.981 59.6984 822.533 60.3144C822.085 60.9164 821.861 61.6794 821.861 62.6034C821.861 63.5414 822.085 64.3184 822.533 64.9344C822.981 65.5364 823.639 65.8374 824.507 65.8374ZM836.058 57.2064H838.431V59.6634H836.058V64.3044C836.058 65.1024 836.52 65.5014 837.444 65.5014H838.431V68.0004H837.402C836.044 68.0004 834.987 67.7554 834.231 67.2654C833.489 66.7614 833.118 65.8934 833.118 64.6614V59.6634H831.543V57.2064H833.118V54.1824H836.058V57.2064ZM841.104 52.7334H844.044V68.0004H841.104V52.7334ZM850.136 55.3584H847.154V52.7334H850.136V55.3584ZM850.115 57.2064V68.0004H847.175V57.2064H850.115Z" fill="#00FA9A"/>
<path d="M898.743 53.0064H905.001C907.255 53.0064 908.977 53.6784 910.167 55.0224C911.357 56.3664 911.952 58.1934 911.952 60.5034C911.952 62.8134 911.357 64.6404 910.167 65.9844C908.977 67.3284 907.255 68.0004 905.001 68.0004H898.743V53.0064ZM901.872 65.2074H904.602C906.03 65.2074 907.073 64.7804 907.731 63.9264C908.403 63.0584 908.739 61.9174 908.739 60.5034C908.739 59.0894 908.403 57.9554 907.731 57.1014C907.073 56.2334 906.03 55.7994 904.602 55.7994H901.872V65.2074ZM919.507 56.9334C921.215 56.9334 922.573 57.4514 923.581 58.4874C924.589 59.5234 925.093 60.8954 925.093 62.6034C925.093 64.3114 924.589 65.6834 923.581 66.7194C922.573 67.7554 921.215 68.2734 919.507 68.2734C917.813 68.2734 916.455 67.7554 915.433 66.7194C914.425 65.6694 913.921 64.2974 913.921 62.6034C913.921 60.9094 914.425 59.5444 915.433 58.5084C916.455 57.4584 917.813 56.9334 919.507 56.9334ZM919.507 65.8374C920.389 65.8374 921.047 65.5364 921.481 64.9344C921.929 64.3184 922.153 63.5414 922.153 62.6034C922.153 61.6794 921.929 60.9164 921.481 60.3144C921.047 59.6984 920.389 59.3904 919.507 59.3904C918.639 59.3904 917.981 59.6984 917.533 60.3144C917.085 60.9164 916.861 61.6794 916.861 62.6034C916.861 63.5414 917.085 64.3184 917.533 64.9344C917.981 65.5364 918.639 65.8374 919.507 65.8374ZM931.058 57.2064H933.431V59.6634H931.058V64.3044C931.058 65.1024 931.52 65.5014 932.444 65.5014H933.431V68.0004H932.402C931.044 68.0004 929.987 67.7554 929.231 67.2654C928.489 66.7614 928.118 65.8934 928.118 64.6614V59.6634H926.543V57.2064H928.118V54.1824H931.058V57.2064ZM936.104 52.7334H939.044V68.0004H936.104V52.7334ZM945.136 55.3584H942.154V52.7334H945.136V55.3584ZM945.115 57.2064V68.0004H942.175V57.2064H945.115Z" fill="#00FA9A"/>
<path d="M993.74 53.0064H1000C1002.26 53.0064 1003.98 53.6784 1005.17 55.0224C1006.36 56.3664 1006.95 58.1934 1006.95 60.5034C1006.95 62.8134 1006.36 64.6404 1005.17 65.9844C1003.98 67.3284 1002.26 68.0004 1000 68.0004H993.74V53.0064ZM996.87 65.2074H999.6C1001.03 65.2074 1002.07 64.7804 1002.73 63.9264C1003.4 63.0584 1003.74 61.9174 1003.74 60.5034C1003.74 59.0894 1003.4 57.9554 1002.73 57.1014C1002.07 56.2334 1001.03 55.7994 999.6 55.7994H996.87V65.2074ZM1014.51 56.9334C1016.21 56.9334 1017.57 57.4514 1018.58 58.4874C1019.59 59.5234 1020.09 60.8954 1020.09 62.6034C1020.09 64.3114 1019.59 65.6834 1018.58 66.7194C1017.57 67.7554 1016.21 68.2734 1014.51 68.2734C1012.81 68.2734 1011.45 67.7554 1010.43 66.7194C1009.42 65.6694 1008.92 64.2974 1008.92 62.6034C1008.92 60.9094 1009.42 59.5444 1010.43 58.5084C1011.45 57.4584 1012.81 56.9334 1014.51 56.9334ZM1014.51 65.8374C1015.39 65.8374 1016.05 65.5364 1016.48 64.9344C1016.93 64.3184 1017.15 63.5414 1017.15 62.6034C1017.15 61.6794 1016.93 60.9164 1016.48 60.3144C1016.05 59.6984 1015.39 59.3904 1014.51 59.3904C1013.64 59.3904 1012.98 59.6984 1012.53 60.3144C1012.08 60.9164 1011.86 61.6794 1011.86 62.6034C1011.86 63.5414 1012.08 64.3184 1012.53 64.9344C1012.98 65.5364 1013.64 65.8374 1014.51 65.8374ZM1026.06 57.2064H1028.43V59.6634H1026.06V64.3044C1026.06 65.1024 1026.52 65.5014 1027.44 65.5014H1028.43V68.0004H1027.4C1026.04 68.0004 1024.99 67.7554 1024.23 67.2654C1023.49 66.7614 1023.12 65.8934 1023.12 64.6614V59.6634H1021.54V57.2064H1023.12V54.1824H1026.06V57.2064ZM1031.1 52.7334H1034.04V68.0004H1031.1V52.7334ZM1040.14 55.3584H1037.15V52.7334H1040.14V55.3584ZM1040.11 57.2064V68.0004H1037.17V57.2064H1040.11Z" fill="#00FA9A"/>
<path d="M1088.74 53.0064H1095C1097.26 53.0064 1098.98 53.6784 1100.17 55.0224C1101.36 56.3664 1101.95 58.1934 1101.95 60.5034C1101.95 62.8134 1101.36 64.6404 1100.17 65.9844C1098.98 67.3284 1097.26 68.0004 1095 68.0004H1088.74V53.0064ZM1091.87 65.2074H1094.6C1096.03 65.2074 1097.07 64.7804 1097.73 63.9264C1098.4 63.0584 1098.74 61.9174 1098.74 60.5034C1098.74 59.0894 1098.4 57.9554 1097.73 57.1014C1097.07 56.2334 1096.03 55.7994 1094.6 55.7994H1091.87V65.2074ZM1109.51 56.9334C1111.21 56.9334 1112.57 57.4514 1113.58 58.4874C1114.59 59.5234 1115.09 60.8954 1115.09 62.6034C1115.09 64.3114 1114.59 65.6834 1113.58 66.7194C1112.57 67.7554 1111.21 68.2734 1109.51 68.2734C1107.81 68.2734 1106.45 67.7554 1105.43 66.7194C1104.42 65.6694 1103.92 64.2974 1103.92 62.6034C1103.92 60.9094 1104.42 59.5444 1105.43 58.5084C1106.45 57.4584 1107.81 56.9334 1109.51 56.9334ZM1109.51 65.8374C1110.39 65.8374 1111.05 65.5364 1111.48 64.9344C1111.93 64.3184 1112.15 63.5414 1112.15 62.6034C1112.15 61.6794 1111.93 60.9164 1111.48 60.3144C1111.05 59.6984 1110.39 59.3904 1109.51 59.3904C1108.64 59.3904 1107.98 59.6984 1107.53 60.3144C1107.08 60.9164 1106.86 61.6794 1106.86 62.6034C1106.86 63.5414 1107.08 64.3184 1107.53 64.9344C1107.98 65.5364 1108.64 65.8374 1109.51 65.8374ZM1121.06 57.2064H1123.43V59.6634H1121.06V64.3044C1121.06 65.1024 1121.52 65.5014 1122.44 65.5014H1123.43V68.0004H1122.4C1121.04 68.0004 1119.99 67.7554 1119.23 67.2654C1118.49 66.7614 1118.12 65.8934 1118.12 64.6614V59.6634H1116.54V57.2064H1118.12V54.1824H1121.06V57.2064ZM1126.1 52.7334H1129.04V68.0004H1126.1V52.7334ZM1135.14 55.3584H1132.15V52.7334H1135.14V55.3584ZM1135.11 57.2064V68.0004H1132.17V57.2064H1135.11Z" fill="#00FA9A"/>
<path d="M1183.74 53.0064H1190C1192.26 53.0064 1193.98 53.6784 1195.17 55.0224C1196.36 56.3664 1196.95 58.1934 1196.95 60.5034C1196.95 62.8134 1196.36 64.6404 1195.17 65.9844C1193.98 67.3284 1192.26 68.0004 1190 68.0004H1183.74V53.0064ZM1186.87 65.2074H1189.6C1191.03 65.2074 1192.07 64.7804 1192.73 63.9264C1193.4 63.0584 1193.74 61.9174 1193.74 60.5034C1193.74 59.0894 1193.4 57.9554 1192.73 57.1014C1192.07 56.2334 1191.03 55.7994 1189.6 55.7994H1186.87V65.2074ZM1204.51 56.9334C1206.21 56.9334 1207.57 57.4514 1208.58 58.4874C1209.59 59.5234 1210.09 60.8954 1210.09 62.6034C1210.09 64.3114 1209.59 65.6834 1208.58 66.7194C1207.57 67.7554 1206.21 68.2734 1204.51 68.2734C1202.81 68.2734 1201.45 67.7554 1200.43 66.7194C1199.42 65.6694 1198.92 64.2974 1198.92 62.6034C1198.92 60.9094 1199.42 59.5444 1200.43 58.5084C1201.45 57.4584 1202.81 56.9334 1204.51 56.9334ZM1204.51 65.8374C1205.39 65.8374 1206.05 65.5364 1206.48 64.9344C1206.93 64.3184 1207.15 63.5414 1207.15 62.6034C1207.15 61.6794 1206.93 60.9164 1206.48 60.3144C1206.05 59.6984 1205.39 59.3904 1204.51 59.3904C1203.64 59.3904 1202.98 59.6984 1202.53 60.3144C1202.08 60.9164 1201.86 61.6794 1201.86 62.6034C1201.86 63.5414 1202.08 64.3184 1202.53 64.9344C1202.98 65.5364 1203.64 65.8374 1204.51 65.8374ZM1216.06 57.2064H1218.43V59.6634H1216.06V64.3044C1216.06 65.1024 1216.52 65.5014 1217.44 65.5014H1218.43V68.0004H1217.4C1216.04 68.0004 1214.99 67.7554 1214.23 67.2654C1213.49 66.7614 1213.12 65.8934 1213.12 64.6614V59.6634H1211.54V57.2064H1213.12V54.1824H1216.06V57.2064ZM1221.1 52.7334H1224.04V68.0004H1221.1V52.7334ZM1230.14 55.3584H1227.15V52.7334H1230.14V55.3584ZM1230.11 57.2064V68.0004H1227.17V57.2064H1230.11Z" fill="#00FA9A"/>
</g>
<defs>
<clipPath id="clip0_324_274">
<rect width="1269" height="81" fill="white"/>
</clipPath>
</defs>
</svg>
