<svg width="1280" height="40" viewBox="0 0 1280 40" fill="none" xmlns="http://www.w3.org/2000/svg">
<path d="M1280 0H0V40H1280V0Z" fill="#00FA9A"/>
<path d="M54.743 12.7003H61.001C63.255 12.7003 64.977 13.3723 66.167 14.7163C67.357 16.0603 67.952 17.8873 67.952 20.1973C67.952 22.5073 67.357 24.3343 66.167 25.6783C64.977 27.0223 63.255 27.6943 61.001 27.6943H54.743V12.7003ZM57.872 24.9013H60.602C62.03 24.9013 63.073 24.4743 63.731 23.6203C64.403 22.7523 64.739 21.6113 64.739 20.1973C64.739 18.7833 64.403 17.6493 63.731 16.7953C63.073 15.9273 62.03 15.4933 60.602 15.4933H57.872V24.9013ZM75.5066 16.6273C77.2146 16.6273 78.5726 17.1453 79.5806 18.1813C80.5886 19.2173 81.0926 20.5893 81.0926 22.2973C81.0926 24.0053 80.5886 25.3773 79.5806 26.4133C78.5726 27.4493 77.2146 27.9673 75.5066 27.9673C73.8126 27.9673 72.4546 27.4493 71.4326 26.4133C70.4246 25.3633 69.9206 23.9913 69.9206 22.2973C69.9206 20.6033 70.4246 19.2383 71.4326 18.2023C72.4546 17.1523 73.8126 16.6273 75.5066 16.6273ZM75.5066 25.5313C76.3886 25.5313 77.0466 25.2303 77.4806 24.6283C77.9286 24.0123 78.1526 23.2353 78.1526 22.2973C78.1526 21.3733 77.9286 20.6103 77.4806 20.0083C77.0466 19.3923 76.3886 19.0843 75.5066 19.0843C74.6386 19.0843 73.9806 19.3923 73.5326 20.0083C73.0846 20.6103 72.8606 21.3733 72.8606 22.2973C72.8606 23.2353 73.0846 24.0123 73.5326 24.6283C73.9806 25.2303 74.6386 25.5313 75.5066 25.5313ZM87.0581 16.9003H89.4311V19.3573H87.0581V23.9983C87.0581 24.7963 87.5201 25.1953 88.4441 25.1953H89.4311V27.6943H88.4021C87.0441 27.6943 85.9871 27.4493 85.2311 26.9593C84.4891 26.4553 84.1181 25.5873 84.1181 24.3553V19.3573H82.5431V16.9003H84.1181V13.8763H87.0581V16.9003ZM92.1038 12.4273H95.0438V27.6943H92.1038V12.4273ZM101.136 15.0523H98.1536V12.4273H101.136V15.0523ZM101.115 16.9003V27.6943H98.1746V16.9003H101.115Z" fill="black"/>
<path d="M149.743 12.7003H156.001C158.255 12.7003 159.977 13.3723 161.167 14.7163C162.357 16.0603 162.952 17.8873 162.952 20.1973C162.952 22.5073 162.357 24.3343 161.167 25.6783C159.977 27.0223 158.255 27.6943 156.001 27.6943H149.743V12.7003ZM152.872 24.9013H155.602C157.03 24.9013 158.073 24.4743 158.731 23.6203C159.403 22.7523 159.739 21.6113 159.739 20.1973C159.739 18.7833 159.403 17.6493 158.731 16.7953C158.073 15.9273 157.03 15.4933 155.602 15.4933H152.872V24.9013ZM170.507 16.6273C172.215 16.6273 173.573 17.1453 174.581 18.1813C175.589 19.2173 176.093 20.5893 176.093 22.2973C176.093 24.0053 175.589 25.3773 174.581 26.4133C173.573 27.4493 172.215 27.9673 170.507 27.9673C168.813 27.9673 167.455 27.4493 166.433 26.4133C165.425 25.3633 164.921 23.9913 164.921 22.2973C164.921 20.6033 165.425 19.2383 166.433 18.2023C167.455 17.1523 168.813 16.6273 170.507 16.6273ZM170.507 25.5313C171.389 25.5313 172.047 25.2303 172.481 24.6283C172.929 24.0123 173.153 23.2353 173.153 22.2973C173.153 21.3733 172.929 20.6103 172.481 20.0083C172.047 19.3923 171.389 19.0843 170.507 19.0843C169.639 19.0843 168.981 19.3923 168.533 20.0083C168.085 20.6103 167.861 21.3733 167.861 22.2973C167.861 23.2353 168.085 24.0123 168.533 24.6283C168.981 25.2303 169.639 25.5313 170.507 25.5313ZM182.058 16.9003H184.431V19.3573H182.058V23.9983C182.058 24.7963 182.52 25.1953 183.444 25.1953H184.431V27.6943H183.402C182.044 27.6943 180.987 27.4493 180.231 26.9593C179.489 26.4553 179.118 25.5873 179.118 24.3553V19.3573H177.543V16.9003H179.118V13.8763H182.058V16.9003ZM187.104 12.4273H190.044V27.6943H187.104V12.4273ZM196.136 15.0523H193.154V12.4273H196.136V15.0523ZM196.115 16.9003V27.6943H193.175V16.9003H196.115Z" fill="black"/>
<path d="M244.743 12.7003H251.001C253.255 12.7003 254.977 13.3723 256.167 14.7163C257.357 16.0603 257.952 17.8873 257.952 20.1973C257.952 22.5073 257.357 24.3343 256.167 25.6783C254.977 27.0223 253.255 27.6943 251.001 27.6943H244.743V12.7003ZM247.872 24.9013H250.602C252.03 24.9013 253.073 24.4743 253.731 23.6203C254.403 22.7523 254.739 21.6113 254.739 20.1973C254.739 18.7833 254.403 17.6493 253.731 16.7953C253.073 15.9273 252.03 15.4933 250.602 15.4933H247.872V24.9013ZM265.507 16.6273C267.215 16.6273 268.573 17.1453 269.581 18.1813C270.589 19.2173 271.093 20.5893 271.093 22.2973C271.093 24.0053 270.589 25.3773 269.581 26.4133C268.573 27.4493 267.215 27.9673 265.507 27.9673C263.813 27.9673 262.455 27.4493 261.433 26.4133C260.425 25.3633 259.921 23.9913 259.921 22.2973C259.921 20.6033 260.425 19.2383 261.433 18.2023C262.455 17.1523 263.813 16.6273 265.507 16.6273ZM265.507 25.5313C266.389 25.5313 267.047 25.2303 267.481 24.6283C267.929 24.0123 268.153 23.2353 268.153 22.2973C268.153 21.3733 267.929 20.6103 267.481 20.0083C267.047 19.3923 266.389 19.0843 265.507 19.0843C264.639 19.0843 263.981 19.3923 263.533 20.0083C263.085 20.6103 262.861 21.3733 262.861 22.2973C262.861 23.2353 263.085 24.0123 263.533 24.6283C263.981 25.2303 264.639 25.5313 265.507 25.5313ZM277.058 16.9003H279.431V19.3573H277.058V23.9983C277.058 24.7963 277.52 25.1953 278.444 25.1953H279.431V27.6943H278.402C277.044 27.6943 275.987 27.4493 275.231 26.9593C274.489 26.4553 274.118 25.5873 274.118 24.3553V19.3573H272.543V16.9003H274.118V13.8763H277.058V16.9003ZM282.104 12.4273H285.044V27.6943H282.104V12.4273ZM291.136 15.0523H288.154V12.4273H291.136V15.0523ZM291.115 16.9003V27.6943H288.175V16.9003H291.115Z" fill="black"/>
<path d="M339.743 12.7003H346.001C348.255 12.7003 349.977 13.3723 351.167 14.7163C352.357 16.0603 352.952 17.8873 352.952 20.1973C352.952 22.5073 352.357 24.3343 351.167 25.6783C349.977 27.0223 348.255 27.6943 346.001 27.6943H339.743V12.7003ZM342.872 24.9013H345.602C347.03 24.9013 348.073 24.4743 348.731 23.6203C349.403 22.7523 349.739 21.6113 349.739 20.1973C349.739 18.7833 349.403 17.6493 348.731 16.7953C348.073 15.9273 347.03 15.4933 345.602 15.4933H342.872V24.9013ZM360.507 16.6273C362.215 16.6273 363.573 17.1453 364.581 18.1813C365.589 19.2173 366.093 20.5893 366.093 22.2973C366.093 24.0053 365.589 25.3773 364.581 26.4133C363.573 27.4493 362.215 27.9673 360.507 27.9673C358.813 27.9673 357.455 27.4493 356.433 26.4133C355.425 25.3633 354.921 23.9913 354.921 22.2973C354.921 20.6033 355.425 19.2383 356.433 18.2023C357.455 17.1523 358.813 16.6273 360.507 16.6273ZM360.507 25.5313C361.389 25.5313 362.047 25.2303 362.481 24.6283C362.929 24.0123 363.153 23.2353 363.153 22.2973C363.153 21.3733 362.929 20.6103 362.481 20.0083C362.047 19.3923 361.389 19.0843 360.507 19.0843C359.639 19.0843 358.981 19.3923 358.533 20.0083C358.085 20.6103 357.861 21.3733 357.861 22.2973C357.861 23.2353 358.085 24.0123 358.533 24.6283C358.981 25.2303 359.639 25.5313 360.507 25.5313ZM372.058 16.9003H374.431V19.3573H372.058V23.9983C372.058 24.7963 372.52 25.1953 373.444 25.1953H374.431V27.6943H373.402C372.044 27.6943 370.987 27.4493 370.231 26.9593C369.489 26.4553 369.118 25.5873 369.118 24.3553V19.3573H367.543V16.9003H369.118V13.8763H372.058V16.9003ZM377.104 12.4273H380.044V27.6943H377.104V12.4273ZM386.136 15.0523H383.154V12.4273H386.136V15.0523ZM386.115 16.9003V27.6943H383.175V16.9003H386.115Z" fill="black"/>
<path d="M434.743 12.7003H441.001C443.255 12.7003 444.977 13.3723 446.167 14.7163C447.357 16.0603 447.952 17.8873 447.952 20.1973C447.952 22.5073 447.357 24.3343 446.167 25.6783C444.977 27.0223 443.255 27.6943 441.001 27.6943H434.743V12.7003ZM437.872 24.9013H440.602C442.03 24.9013 443.073 24.4743 443.731 23.6203C444.403 22.7523 444.739 21.6113 444.739 20.1973C444.739 18.7833 444.403 17.6493 443.731 16.7953C443.073 15.9273 442.03 15.4933 440.602 15.4933H437.872V24.9013ZM455.507 16.6273C457.215 16.6273 458.573 17.1453 459.581 18.1813C460.589 19.2173 461.093 20.5893 461.093 22.2973C461.093 24.0053 460.589 25.3773 459.581 26.4133C458.573 27.4493 457.215 27.9673 455.507 27.9673C453.813 27.9673 452.455 27.4493 451.433 26.4133C450.425 25.3633 449.921 23.9913 449.921 22.2973C449.921 20.6033 450.425 19.2383 451.433 18.2023C452.455 17.1523 453.813 16.6273 455.507 16.6273ZM455.507 25.5313C456.389 25.5313 457.047 25.2303 457.481 24.6283C457.929 24.0123 458.153 23.2353 458.153 22.2973C458.153 21.3733 457.929 20.6103 457.481 20.0083C457.047 19.3923 456.389 19.0843 455.507 19.0843C454.639 19.0843 453.981 19.3923 453.533 20.0083C453.085 20.6103 452.861 21.3733 452.861 22.2973C452.861 23.2353 453.085 24.0123 453.533 24.6283C453.981 25.2303 454.639 25.5313 455.507 25.5313ZM467.058 16.9003H469.431V19.3573H467.058V23.9983C467.058 24.7963 467.52 25.1953 468.444 25.1953H469.431V27.6943H468.402C467.044 27.6943 465.987 27.4493 465.231 26.9593C464.489 26.4553 464.118 25.5873 464.118 24.3553V19.3573H462.543V16.9003H464.118V13.8763H467.058V16.9003ZM472.104 12.4273H475.044V27.6943H472.104V12.4273ZM481.136 15.0523H478.154V12.4273H481.136V15.0523ZM481.115 16.9003V27.6943H478.175V16.9003H481.115Z" fill="black"/>
<path d="M529.743 12.7003H536.001C538.255 12.7003 539.977 13.3723 541.167 14.7163C542.357 16.0603 542.952 17.8873 542.952 20.1973C542.952 22.5073 542.357 24.3343 541.167 25.6783C539.977 27.0223 538.255 27.6943 536.001 27.6943H529.743V12.7003ZM532.872 24.9013H535.602C537.03 24.9013 538.073 24.4743 538.731 23.6203C539.403 22.7523 539.739 21.6113 539.739 20.1973C539.739 18.7833 539.403 17.6493 538.731 16.7953C538.073 15.9273 537.03 15.4933 535.602 15.4933H532.872V24.9013ZM550.507 16.6273C552.215 16.6273 553.573 17.1453 554.581 18.1813C555.589 19.2173 556.093 20.5893 556.093 22.2973C556.093 24.0053 555.589 25.3773 554.581 26.4133C553.573 27.4493 552.215 27.9673 550.507 27.9673C548.813 27.9673 547.455 27.4493 546.433 26.4133C545.425 25.3633 544.921 23.9913 544.921 22.2973C544.921 20.6033 545.425 19.2383 546.433 18.2023C547.455 17.1523 548.813 16.6273 550.507 16.6273ZM550.507 25.5313C551.389 25.5313 552.047 25.2303 552.481 24.6283C552.929 24.0123 553.153 23.2353 553.153 22.2973C553.153 21.3733 552.929 20.6103 552.481 20.0083C552.047 19.3923 551.389 19.0843 550.507 19.0843C549.639 19.0843 548.981 19.3923 548.533 20.0083C548.085 20.6103 547.861 21.3733 547.861 22.2973C547.861 23.2353 548.085 24.0123 548.533 24.6283C548.981 25.2303 549.639 25.5313 550.507 25.5313ZM562.058 16.9003H564.431V19.3573H562.058V23.9983C562.058 24.7963 562.52 25.1953 563.444 25.1953H564.431V27.6943H563.402C562.044 27.6943 560.987 27.4493 560.231 26.9593C559.489 26.4553 559.118 25.5873 559.118 24.3553V19.3573H557.543V16.9003H559.118V13.8763H562.058V16.9003ZM567.104 12.4273H570.044V27.6943H567.104V12.4273ZM576.136 15.0523H573.154V12.4273H576.136V15.0523ZM576.115 16.9003V27.6943H573.175V16.9003H576.115Z" fill="black"/>
<path d="M624.743 12.7003H631.001C633.255 12.7003 634.977 13.3723 636.167 14.7163C637.357 16.0603 637.952 17.8873 637.952 20.1973C637.952 22.5073 637.357 24.3343 636.167 25.6783C634.977 27.0223 633.255 27.6943 631.001 27.6943H624.743V12.7003ZM627.872 24.9013H630.602C632.03 24.9013 633.073 24.4743 633.731 23.6203C634.403 22.7523 634.739 21.6113 634.739 20.1973C634.739 18.7833 634.403 17.6493 633.731 16.7953C633.073 15.9273 632.03 15.4933 630.602 15.4933H627.872V24.9013ZM645.507 16.6273C647.215 16.6273 648.573 17.1453 649.581 18.1813C650.589 19.2173 651.093 20.5893 651.093 22.2973C651.093 24.0053 650.589 25.3773 649.581 26.4133C648.573 27.4493 647.215 27.9673 645.507 27.9673C643.813 27.9673 642.455 27.4493 641.433 26.4133C640.425 25.3633 639.921 23.9913 639.921 22.2973C639.921 20.6033 640.425 19.2383 641.433 18.2023C642.455 17.1523 643.813 16.6273 645.507 16.6273ZM645.507 25.5313C646.389 25.5313 647.047 25.2303 647.481 24.6283C647.929 24.0123 648.153 23.2353 648.153 22.2973C648.153 21.3733 647.929 20.6103 647.481 20.0083C647.047 19.3923 646.389 19.0843 645.507 19.0843C644.639 19.0843 643.981 19.3923 643.533 20.0083C643.085 20.6103 642.861 21.3733 642.861 22.2973C642.861 23.2353 643.085 24.0123 643.533 24.6283C643.981 25.2303 644.639 25.5313 645.507 25.5313ZM657.058 16.9003H659.431V19.3573H657.058V23.9983C657.058 24.7963 657.52 25.1953 658.444 25.1953H659.431V27.6943H658.402C657.044 27.6943 655.987 27.4493 655.231 26.9593C654.489 26.4553 654.118 25.5873 654.118 24.3553V19.3573H652.543V16.9003H654.118V13.8763H657.058V16.9003ZM662.104 12.4273H665.044V27.6943H662.104V12.4273ZM671.136 15.0523H668.154V12.4273H671.136V15.0523ZM671.115 16.9003V27.6943H668.175V16.9003H671.115Z" fill="black"/>
<path d="M719.743 12.7003H726.001C728.255 12.7003 729.977 13.3723 731.167 14.7163C732.357 16.0603 732.952 17.8873 732.952 20.1973C732.952 22.5073 732.357 24.3343 731.167 25.6783C729.977 27.0223 728.255 27.6943 726.001 27.6943H719.743V12.7003ZM722.872 24.9013H725.602C727.03 24.9013 728.073 24.4743 728.731 23.6203C729.403 22.7523 729.739 21.6113 729.739 20.1973C729.739 18.7833 729.403 17.6493 728.731 16.7953C728.073 15.9273 727.03 15.4933 725.602 15.4933H722.872V24.9013ZM740.507 16.6273C742.215 16.6273 743.573 17.1453 744.581 18.1813C745.589 19.2173 746.093 20.5893 746.093 22.2973C746.093 24.0053 745.589 25.3773 744.581 26.4133C743.573 27.4493 742.215 27.9673 740.507 27.9673C738.813 27.9673 737.455 27.4493 736.433 26.4133C735.425 25.3633 734.921 23.9913 734.921 22.2973C734.921 20.6033 735.425 19.2383 736.433 18.2023C737.455 17.1523 738.813 16.6273 740.507 16.6273ZM740.507 25.5313C741.389 25.5313 742.047 25.2303 742.481 24.6283C742.929 24.0123 743.153 23.2353 743.153 22.2973C743.153 21.3733 742.929 20.6103 742.481 20.0083C742.047 19.3923 741.389 19.0843 740.507 19.0843C739.639 19.0843 738.981 19.3923 738.533 20.0083C738.085 20.6103 737.861 21.3733 737.861 22.2973C737.861 23.2353 738.085 24.0123 738.533 24.6283C738.981 25.2303 739.639 25.5313 740.507 25.5313ZM752.058 16.9003H754.431V19.3573H752.058V23.9983C752.058 24.7963 752.52 25.1953 753.444 25.1953H754.431V27.6943H753.402C752.044 27.6943 750.987 27.4493 750.231 26.9593C749.489 26.4553 749.118 25.5873 749.118 24.3553V19.3573H747.543V16.9003H749.118V13.8763H752.058V16.9003ZM757.104 12.4273H760.044V27.6943H757.104V12.4273ZM766.136 15.0523H763.154V12.4273H766.136V15.0523ZM766.115 16.9003V27.6943H763.175V16.9003H766.115Z" fill="black"/>
<path d="M814.743 12.7003H821.001C823.255 12.7003 824.977 13.3723 826.167 14.7163C827.357 16.0603 827.952 17.8873 827.952 20.1973C827.952 22.5073 827.357 24.3343 826.167 25.6783C824.977 27.0223 823.255 27.6943 821.001 27.6943H814.743V12.7003ZM817.872 24.9013H820.602C822.03 24.9013 823.073 24.4743 823.731 23.6203C824.403 22.7523 824.739 21.6113 824.739 20.1973C824.739 18.7833 824.403 17.6493 823.731 16.7953C823.073 15.9273 822.03 15.4933 820.602 15.4933H817.872V24.9013ZM835.507 16.6273C837.215 16.6273 838.573 17.1453 839.581 18.1813C840.589 19.2173 841.093 20.5893 841.093 22.2973C841.093 24.0053 840.589 25.3773 839.581 26.4133C838.573 27.4493 837.215 27.9673 835.507 27.9673C833.813 27.9673 832.455 27.4493 831.433 26.4133C830.425 25.3633 829.921 23.9913 829.921 22.2973C829.921 20.6033 830.425 19.2383 831.433 18.2023C832.455 17.1523 833.813 16.6273 835.507 16.6273ZM835.507 25.5313C836.389 25.5313 837.047 25.2303 837.481 24.6283C837.929 24.0123 838.153 23.2353 838.153 22.2973C838.153 21.3733 837.929 20.6103 837.481 20.0083C837.047 19.3923 836.389 19.0843 835.507 19.0843C834.639 19.0843 833.981 19.3923 833.533 20.0083C833.085 20.6103 832.861 21.3733 832.861 22.2973C832.861 23.2353 833.085 24.0123 833.533 24.6283C833.981 25.2303 834.639 25.5313 835.507 25.5313ZM847.058 16.9003H849.431V19.3573H847.058V23.9983C847.058 24.7963 847.52 25.1953 848.444 25.1953H849.431V27.6943H848.402C847.044 27.6943 845.987 27.4493 845.231 26.9593C844.489 26.4553 844.118 25.5873 844.118 24.3553V19.3573H842.543V16.9003H844.118V13.8763H847.058V16.9003ZM852.104 12.4273H855.044V27.6943H852.104V12.4273ZM861.136 15.0523H858.154V12.4273H861.136V15.0523ZM861.115 16.9003V27.6943H858.175V16.9003H861.115Z" fill="black"/>
<path d="M909.743 12.7003H916.001C918.255 12.7003 919.977 13.3723 921.167 14.7163C922.357 16.0603 922.952 17.8873 922.952 20.1973C922.952 22.5073 922.357 24.3343 921.167 25.6783C919.977 27.0223 918.255 27.6943 916.001 27.6943H909.743V12.7003ZM912.872 24.9013H915.602C917.03 24.9013 918.073 24.4743 918.731 23.6203C919.403 22.7523 919.739 21.6113 919.739 20.1973C919.739 18.7833 919.403 17.6493 918.731 16.7953C918.073 15.9273 917.03 15.4933 915.602 15.4933H912.872V24.9013ZM930.507 16.6273C932.215 16.6273 933.573 17.1453 934.581 18.1813C935.589 19.2173 936.093 20.5893 936.093 22.2973C936.093 24.0053 935.589 25.3773 934.581 26.4133C933.573 27.4493 932.215 27.9673 930.507 27.9673C928.813 27.9673 927.455 27.4493 926.433 26.4133C925.425 25.3633 924.921 23.9913 924.921 22.2973C924.921 20.6033 925.425 19.2383 926.433 18.2023C927.455 17.1523 928.813 16.6273 930.507 16.6273ZM930.507 25.5313C931.389 25.5313 932.047 25.2303 932.481 24.6283C932.929 24.0123 933.153 23.2353 933.153 22.2973C933.153 21.3733 932.929 20.6103 932.481 20.0083C932.047 19.3923 931.389 19.0843 930.507 19.0843C929.639 19.0843 928.981 19.3923 928.533 20.0083C928.085 20.6103 927.861 21.3733 927.861 22.2973C927.861 23.2353 928.085 24.0123 928.533 24.6283C928.981 25.2303 929.639 25.5313 930.507 25.5313ZM942.058 16.9003H944.431V19.3573H942.058V23.9983C942.058 24.7963 942.52 25.1953 943.444 25.1953H944.431V27.6943H943.402C942.044 27.6943 940.987 27.4493 940.231 26.9593C939.489 26.4553 939.118 25.5873 939.118 24.3553V19.3573H937.543V16.9003H939.118V13.8763H942.058V16.9003ZM947.104 12.4273H950.044V27.6943H947.104V12.4273ZM956.136 15.0523H953.154V12.4273H956.136V15.0523ZM956.115 16.9003V27.6943H953.175V16.9003H956.115Z" fill="black"/>
<path d="M1004.74 12.7003H1011C1013.26 12.7003 1014.98 13.3723 1016.17 14.7163C1017.36 16.0603 1017.95 17.8873 1017.95 20.1973C1017.95 22.5073 1017.36 24.3343 1016.17 25.6783C1014.98 27.0223 1013.26 27.6943 1011 27.6943H1004.74V12.7003ZM1007.87 24.9013H1010.6C1012.03 24.9013 1013.07 24.4743 1013.73 23.6203C1014.4 22.7523 1014.74 21.6113 1014.74 20.1973C1014.74 18.7833 1014.4 17.6493 1013.73 16.7953C1013.07 15.9273 1012.03 15.4933 1010.6 15.4933H1007.87V24.9013ZM1025.51 16.6273C1027.21 16.6273 1028.57 17.1453 1029.58 18.1813C1030.59 19.2173 1031.09 20.5893 1031.09 22.2973C1031.09 24.0053 1030.59 25.3773 1029.58 26.4133C1028.57 27.4493 1027.21 27.9673 1025.51 27.9673C1023.81 27.9673 1022.45 27.4493 1021.43 26.4133C1020.42 25.3633 1019.92 23.9913 1019.92 22.2973C1019.92 20.6033 1020.42 19.2383 1021.43 18.2023C1022.45 17.1523 1023.81 16.6273 1025.51 16.6273ZM1025.51 25.5313C1026.39 25.5313 1027.05 25.2303 1027.48 24.6283C1027.93 24.0123 1028.15 23.2353 1028.15 22.2973C1028.15 21.3733 1027.93 20.6103 1027.48 20.0083C1027.05 19.3923 1026.39 19.0843 1025.51 19.0843C1024.64 19.0843 1023.98 19.3923 1023.53 20.0083C1023.08 20.6103 1022.86 21.3733 1022.86 22.2973C1022.86 23.2353 1023.08 24.0123 1023.53 24.6283C1023.98 25.2303 1024.64 25.5313 1025.51 25.5313ZM1037.06 16.9003H1039.43V19.3573H1037.06V23.9983C1037.06 24.7963 1037.52 25.1953 1038.44 25.1953H1039.43V27.6943H1038.4C1037.04 27.6943 1035.99 27.4493 1035.23 26.9593C1034.49 26.4553 1034.12 25.5873 1034.12 24.3553V19.3573H1032.54V16.9003H1034.12V13.8763H1037.06V16.9003ZM1042.1 12.4273H1045.04V27.6943H1042.1V12.4273ZM1051.14 15.0523H1048.15V12.4273H1051.14V15.0523ZM1051.11 16.9003V27.6943H1048.17V16.9003H1051.11Z" fill="black"/>
<path d="M1099.74 12.7003H1106C1108.26 12.7003 1109.98 13.3723 1111.17 14.7163C1112.36 16.0603 1112.95 17.8873 1112.95 20.1973C1112.95 22.5073 1112.36 24.3343 1111.17 25.6783C1109.98 27.0223 1108.26 27.6943 1106 27.6943H1099.74V12.7003ZM1102.87 24.9013H1105.6C1107.03 24.9013 1108.07 24.4743 1108.73 23.6203C1109.4 22.7523 1109.74 21.6113 1109.74 20.1973C1109.74 18.7833 1109.4 17.6493 1108.73 16.7953C1108.07 15.9273 1107.03 15.4933 1105.6 15.4933H1102.87V24.9013ZM1120.51 16.6273C1122.21 16.6273 1123.57 17.1453 1124.58 18.1813C1125.59 19.2173 1126.09 20.5893 1126.09 22.2973C1126.09 24.0053 1125.59 25.3773 1124.58 26.4133C1123.57 27.4493 1122.21 27.9673 1120.51 27.9673C1118.81 27.9673 1117.45 27.4493 1116.43 26.4133C1115.42 25.3633 1114.92 23.9913 1114.92 22.2973C1114.92 20.6033 1115.42 19.2383 1116.43 18.2023C1117.45 17.1523 1118.81 16.6273 1120.51 16.6273ZM1120.51 25.5313C1121.39 25.5313 1122.05 25.2303 1122.48 24.6283C1122.93 24.0123 1123.15 23.2353 1123.15 22.2973C1123.15 21.3733 1122.93 20.6103 1122.48 20.0083C1122.05 19.3923 1121.39 19.0843 1120.51 19.0843C1119.64 19.0843 1118.98 19.3923 1118.53 20.0083C1118.08 20.6103 1117.86 21.3733 1117.86 22.2973C1117.86 23.2353 1118.08 24.0123 1118.53 24.6283C1118.98 25.2303 1119.64 25.5313 1120.51 25.5313ZM1132.06 16.9003H1134.43V19.3573H1132.06V23.9983C1132.06 24.7963 1132.52 25.1953 1133.44 25.1953H1134.43V27.6943H1133.4C1132.04 27.6943 1130.99 27.4493 1130.23 26.9593C1129.49 26.4553 1129.12 25.5873 1129.12 24.3553V19.3573H1127.54V16.9003H1129.12V13.8763H1132.06V16.9003ZM1137.1 12.4273H1140.04V27.6943H1137.1V12.4273ZM1146.14 15.0523H1143.15V12.4273H1146.14V15.0523ZM1146.11 16.9003V27.6943H1143.17V16.9003H1146.11Z" fill="black"/>
<path d="M1194.74 12.7003H1201C1203.26 12.7003 1204.98 13.3723 1206.17 14.7163C1207.36 16.0603 1207.95 17.8873 1207.95 20.1973C1207.95 22.5073 1207.36 24.3343 1206.17 25.6783C1204.98 27.0223 1203.26 27.6943 1201 27.6943H1194.74V12.7003ZM1197.87 24.9013H1200.6C1202.03 24.9013 1203.07 24.4743 1203.73 23.6203C1204.4 22.7523 1204.74 21.6113 1204.74 20.1973C1204.74 18.7833 1204.4 17.6493 1203.73 16.7953C1203.07 15.9273 1202.03 15.4933 1200.6 15.4933H1197.87V24.9013ZM1215.51 16.6273C1217.21 16.6273 1218.57 17.1453 1219.58 18.1813C1220.59 19.2173 1221.09 20.5893 1221.09 22.2973C1221.09 24.0053 1220.59 25.3773 1219.58 26.4133C1218.57 27.4493 1217.21 27.9673 1215.51 27.9673C1213.81 27.9673 1212.45 27.4493 1211.43 26.4133C1210.42 25.3633 1209.92 23.9913 1209.92 22.2973C1209.92 20.6033 1210.42 19.2383 1211.43 18.2023C1212.45 17.1523 1213.81 16.6273 1215.51 16.6273ZM1215.51 25.5313C1216.39 25.5313 1217.05 25.2303 1217.48 24.6283C1217.93 24.0123 1218.15 23.2353 1218.15 22.2973C1218.15 21.3733 1217.93 20.6103 1217.48 20.0083C1217.05 19.3923 1216.39 19.0843 1215.51 19.0843C1214.64 19.0843 1213.98 19.3923 1213.53 20.0083C1213.08 20.6103 1212.86 21.3733 1212.86 22.2973C1212.86 23.2353 1213.08 24.0123 1213.53 24.6283C1213.98 25.2303 1214.64 25.5313 1215.51 25.5313ZM1227.06 16.9003H1229.43V19.3573H1227.06V23.9983C1227.06 24.7963 1227.52 25.1953 1228.44 25.1953H1229.43V27.6943H1228.4C1227.04 27.6943 1225.99 27.4493 1225.23 26.9593C1224.49 26.4553 1224.12 25.5873 1224.12 24.3553V19.3573H1222.54V16.9003H1224.12V13.8763H1227.06V16.9003ZM1232.1 12.4273H1235.04V27.6943H1232.1V12.4273ZM1241.14 15.0523H1238.15V12.4273H1241.14V15.0523ZM1241.11 16.9003V27.6943H1238.17V16.9003H1241.11Z" fill="black"/>
</svg>
